<?xml version="1.0" standalone="no"?>
<!DOCTYPE svg PUBLIC "-//W3C//DTD SVG 20010904//EN"
 "http://www.w3.org/TR/2001/REC-SVG-20010904/DTD/svg10.dtd">
<svg version="1.0" xmlns="http://www.w3.org/2000/svg"
 width="352.000000pt" height="504.000000pt" viewBox="0 0 352.000000 504.000000"
 preserveAspectRatio="xMidYMid meet">
<metadata>
Created by potrace 1.14, written by Peter Selinger 2001-2017
</metadata>
<g transform="translate(0.000000,504.000000) scale(0.100000,-0.100000)"
fill="#000000" stroke="none">
<path d="M1630 5034 c-274 -30 -452 -80 -651 -180 -520 -261 -869 -741 -960
-1324 -17 -106 -17 -398 0 -505 43 -275 135 -506 298 -755 49 -74 392 -613
762 -1198 371 -584 677 -1062 680 -1062 6 0 1318 2051 1474 2304 144 233 228
455 268 711 17 107 17 399 0 505 -121 771 -700 1360 -1461 1486 -85 14 -345
26 -410 18z m270 -619 c176 -16 386 -100 540 -215 321 -240 493 -623 459
-1023 -29 -348 -225 -673 -518 -862 -306 -197 -684 -238 -1023 -110 -410 154
-697 531 -737 966 -58 632 406 1192 1032 1248 90 8 116 8 247 -4z"/>
<path d="M1627 4130 c-296 -54 -522 -227 -648 -495 -59 -126 -83 -249 -76
-395 16 -332 199 -606 500 -745 108 -50 179 -66 318 -72 202 -9 356 33 515
139 378 253 493 747 267 1147 -146 257 -412 416 -713 426 -63 2 -137 0 -163
-5z"/>
</g>
</svg>
