<?xml version="1.0" encoding="utf-8"?>
<!-- Generator: Adobe Illustrator 16.0.0, SVG Export Plug-In . SVG Version: 6.00 Build 0)  -->
<!DOCTYPE svg PUBLIC "-//W3C//DTD SVG 1.1//EN" "http://www.w3.org/Graphics/SVG/1.1/DTD/svg11.dtd">
<svg version="1.1" id="Layer_1" xmlns="http://www.w3.org/2000/svg" xmlns:xlink="http://www.w3.org/1999/xlink" x="0px" y="0px"
	 width="433.784px" height="347.035px" viewBox="0 0 433.784 347.035" enable-background="new 0 0 433.784 347.035"
	 xml:space="preserve">
<g>
	<polygon fill="#FFFFFF" points="428.951,344.355 4.833,344.355 216.893,5.054 	"/>
	<polygon fill="#231F20" points="428.951,344.355 428.951,341.676 9.665,341.676 216.893,10.108 426.68,345.774 428.951,344.355 
		428.951,341.676 428.951,344.355 431.223,342.934 216.893,0 0,347.035 433.784,347.035 431.223,342.934 	"/>
	<path fill="#FFD520" d="M363.984,334.792c-0.043,0.517-0.449,0.748-0.969,0.748c-0.674,0-1.114-0.618-1.114-1.434
		c0-0.871,0.385-1.399,1.092-1.399c0.461,0,0.892,0.188,0.99,0.717h1.049c-0.188-1.169-1.006-1.775-2.039-1.775
		c-1.467,0-2.372,1.046-2.372,2.479c0,1.391,0.951,2.47,2.394,2.47c1.003,0,1.898-0.627,2.061-1.806H363.984z M358.57,334.127
		c0,2.381,1.944,4.322,4.325,4.322s4.319-1.941,4.319-4.322s-1.938-4.319-4.319-4.319S358.57,331.747,358.57,334.127z
		 M362.895,337.327c-1.753,0-2.978-1.225-2.978-3.199s1.224-3.196,2.978-3.196s2.975,1.222,2.975,3.196
		S364.648,337.327,362.895,337.327z"/>
	<path fill="#FFD520" d="M367.823,336.773l3.341-2.713c0.363-0.296,1.058-0.991,1.058-1.563c0-0.64-0.431-1.036-1.058-1.036
		c-0.831,0-1.403,0.704-1.643,1.434l-1.723-0.883c0.431-1.089,1.6-2.138,3.531-2.138c2.565,0,3.295,1.485,3.295,2.491
		c0,1.049-0.649,1.797-1.511,2.372l-2.27,1.55v0.024h3.771v1.984h-6.792V336.773z"/>
	<path fill="#FFD520" d="M380.435,334.162c0,2.236-0.474,2.7-1.193,2.7c-0.714,0-1.188-0.464-1.188-2.7s0.474-2.701,1.188-2.701
		C379.961,331.46,380.435,331.925,380.435,334.162z M375.605,334.162c0,2.722,1.553,4.288,3.636,4.288
		c2.085,0,3.639-1.566,3.639-4.288c0-1.732-0.892-4.288-3.639-4.288C376.498,329.874,375.605,332.429,375.605,334.162z"/>
	<path fill="#FFD520" d="M387.203,329.874c2.744,0,3.639,2.556,3.639,4.288c0,2.722-1.553,4.288-3.639,4.288
		c-2.083,0-3.636-1.566-3.636-4.288C383.566,332.429,384.458,329.874,387.203,329.874z M387.203,331.46
		c-0.717,0-1.19,0.465-1.19,2.701s0.474,2.7,1.19,2.7s1.19-0.464,1.19-2.7S387.919,331.46,387.203,331.46z"/>
	<path fill="#FFD520" d="M391.7,336.773l3.341-2.713c0.363-0.296,1.058-0.991,1.058-1.563c0-0.64-0.431-1.036-1.058-1.036
		c-0.825,0-1.4,0.704-1.643,1.434l-1.72-0.883c0.431-1.089,1.6-2.138,3.528-2.138c2.568,0,3.297,1.485,3.297,2.491
		c0,1.049-0.652,1.797-1.513,2.372l-2.271,1.55v0.024h3.771v1.984H391.7V336.773z"/>
	<polygon fill="#FFD520" points="35.439,327.391 398.344,327.391 216.893,37.064 	"/>
	<g>
		<defs>
			<polygon id="SVGID_5_" points="35.439,327.391 398.344,327.391 216.893,37.064 			"/>
		</defs>
		<clipPath id="SVGID_2_">
			<use xlink:href="#SVGID_5_"  overflow="visible"/>
		</clipPath>
		<path clip-path="url(#SVGID_2_)" fill="#FFE387" d="M183.449,289.13h8.121v11.984h0.098c1.157-1.206,3.261-2.055,4.916-2.055
			c5.617,0,8.625,5.61,8.625,12.883c0,5.765-2.405,13.178-9.228,13.178c-3.156,0-5.211-1.501-6.817-3.906l-1.501,3.604h-4.214
			V289.13z M191.57,316.753c-0.148,2.104,1.107,3.255,2.658,3.255c2.258,0,2.559-2.252,2.559-6.915v-1.907
			c0-5.015,0-7.616-2.51-7.616c-0.997,0-1.753,0.603-2.251,1.002l-0.455,0.449V316.753z"/>
		<path clip-path="url(#SVGID_2_)" fill="#FFE799" d="M200.552,289.13h8.121v11.984h0.099c1.15-1.206,3.26-2.055,4.916-2.055
			c5.611,0,8.619,5.61,8.619,12.883c0,5.765-2.406,13.178-9.222,13.178c-3.162,0-5.217-1.501-6.823-3.906l-1.501,3.604h-4.208
			V289.13z M208.673,316.753c-0.154,2.104,1.101,3.255,2.658,3.255c2.251,0,2.553-2.252,2.553-6.915v-1.907
			c0-5.015,0-7.616-2.504-7.616c-1.003,0-1.753,0.603-2.258,1.002l-0.449,0.449V316.753z"/>
		<path clip-path="url(#SVGID_2_)" fill="#FFEBAD" d="M217.877,305.372h-3.304v-5.715h3.304v-2.806c0-6.164,3.058-8.422,8.422-8.422
			c1.604,0,2.81,0.153,4.114,0.301v6.214c-0.455-0.099-1.058-0.196-1.507-0.196c-2.053,0-2.908,0.646-2.908,2.152v2.757h4.416v5.715
			h-4.416v19.447h-8.121V305.372z"/>
		<path clip-path="url(#SVGID_2_)" fill="#FFEFC0" d="M238.785,309.033c0-1.003-0.055-2.203-0.4-3.156
			c-0.406-1.009-1.052-1.704-2.354-1.704c-2.713,0-3.009,3.304-3.009,8.317c0,5.667,0.898,7.519,3.009,7.519
			c2.853,0,3.105-2.904,3.105-4.812l6.311,0.904c-0.596,6.115-4.108,9.327-10.019,9.327c-7.321,0-11.128-6.417-11.128-12.637
			c0-6.866,3.807-13.731,11.479-13.731c8.624,0,9.92,7.463,9.92,9.973H238.785z"/>
		<path clip-path="url(#SVGID_2_)" fill="#FFF3D4" d="M242.243,309.051c1.796,0,3.266,1.47,3.266,3.272
			c0,1.797-1.469,3.273-3.266,3.273c-1.809,0-3.273-1.477-3.273-3.273C238.97,310.521,240.434,309.051,242.243,309.051z"/>
		<path clip-path="url(#SVGID_2_)" fill="#FFE387" d="M183.449,247.997h8.121v11.979h0.098c1.157-1.206,3.261-2.055,4.916-2.055
			c5.617,0,8.625,5.616,8.625,12.883c0,5.765-2.405,13.184-9.228,13.184c-3.156,0-5.211-1.501-6.817-3.913l-1.501,3.618h-4.214
			V247.997z M191.57,275.614c-0.148,2.11,1.107,3.267,2.658,3.267c2.258,0,2.559-2.264,2.559-6.921v-1.907
			c0-5.008,0-7.616-2.51-7.616c-0.997,0-1.753,0.597-2.251,1.003l-0.455,0.449V275.614z"/>
		<path clip-path="url(#SVGID_2_)" fill="#FFE799" d="M200.552,247.997h8.121v11.979h0.099c1.15-1.206,3.26-2.055,4.916-2.055
			c5.611,0,8.619,5.616,8.619,12.883c0,5.765-2.406,13.184-9.222,13.184c-3.162,0-5.217-1.501-6.823-3.913l-1.501,3.618h-4.208
			V247.997z M208.673,275.614c-0.154,2.11,1.101,3.267,2.658,3.267c2.251,0,2.553-2.264,2.553-6.921v-1.907
			c0-5.008,0-7.616-2.504-7.616c-1.003,0-1.753,0.597-2.258,1.003l-0.449,0.449V275.614z"/>
		<path clip-path="url(#SVGID_2_)" fill="#FFEBAD" d="M217.877,264.239h-3.304v-5.716h3.304v-2.806c0-6.164,3.058-8.422,8.422-8.422
			c1.604,0,2.81,0.147,4.114,0.295v6.22c-0.455-0.104-1.058-0.203-1.507-0.203c-2.053,0-2.908,0.658-2.908,2.16v2.756h4.416v5.716
			h-4.416v19.453h-8.121V264.239z"/>
		<path clip-path="url(#SVGID_2_)" fill="#FFEFC0" d="M238.785,267.893c0-0.997-0.055-2.203-0.4-3.156
			c-0.406-0.997-1.052-1.704-2.354-1.704c-2.713,0-3.009,3.31-3.009,8.324c0,5.659,0.898,7.523,3.009,7.523
			c2.853,0,3.105-2.91,3.105-4.823l6.311,0.904c-0.596,6.122-4.108,9.327-10.019,9.327c-7.321,0-11.128-6.417-11.128-12.631
			c0-6.872,3.807-13.737,11.479-13.737c8.624,0,9.92,7.469,9.92,9.973H238.785z"/>
		<path clip-path="url(#SVGID_2_)" fill="#FFF3D4" d="M242.243,267.912c1.796,0,3.266,1.47,3.266,3.278
			c0,1.797-1.469,3.273-3.266,3.273c-1.809,0-3.273-1.477-3.273-3.273C238.97,269.381,240.434,267.912,242.243,267.912z"/>
		<path clip-path="url(#SVGID_2_)" fill="#FFE387" d="M183.449,206.869h8.121v11.979h0.098c1.157-1.199,3.261-2.055,4.916-2.055
			c5.617,0,8.625,5.611,8.625,12.883c0,5.759-2.405,13.178-9.228,13.178c-3.156,0-5.211-1.501-6.817-3.906l-1.501,3.605h-4.214
			V206.869z M191.57,234.486c-0.148,2.104,1.107,3.255,2.658,3.255c2.258,0,2.559-2.258,2.559-6.915v-1.907
			c0-5.014,0-7.616-2.51-7.616c-0.997,0-1.753,0.603-2.251,1.003l-0.455,0.449V234.486z"/>
		<path clip-path="url(#SVGID_2_)" fill="#FFE799" d="M200.552,206.869h8.121v11.979h0.099c1.15-1.199,3.26-2.055,4.916-2.055
			c5.611,0,8.619,5.611,8.619,12.883c0,5.759-2.406,13.178-9.222,13.178c-3.162,0-5.217-1.501-6.823-3.906l-1.501,3.605h-4.208
			V206.869z M208.673,234.486c-0.154,2.104,1.101,3.255,2.658,3.255c2.251,0,2.553-2.258,2.553-6.915v-1.907
			c0-5.014,0-7.616-2.504-7.616c-1.003,0-1.753,0.603-2.258,1.003l-0.449,0.449V234.486z"/>
		<path clip-path="url(#SVGID_2_)" fill="#FFEBAD" d="M217.877,223.105h-3.304v-5.709h3.304v-2.806c0-6.165,3.058-8.423,8.422-8.423
			c1.604,0,2.81,0.148,4.114,0.296v6.22c-0.455-0.104-1.058-0.203-1.507-0.203c-2.053,0-2.908,0.652-2.908,2.159v2.757h4.416v5.709
			h-4.416v19.447h-8.121V223.105z"/>
		<path clip-path="url(#SVGID_2_)" fill="#FFEFC0" d="M238.785,226.765c0-1.003-0.055-2.208-0.4-3.156
			c-0.406-1.002-1.052-1.704-2.354-1.704c-2.713,0-3.009,3.304-3.009,8.318c0,5.666,0.898,7.518,3.009,7.518
			c2.853,0,3.105-2.903,3.105-4.811l6.311,0.897c-0.596,6.122-4.108,9.327-10.019,9.327c-7.321,0-11.128-6.417-11.128-12.631
			c0-6.865,3.807-13.731,11.479-13.731c8.624,0,9.92,7.463,9.92,9.973H238.785z"/>
		<path clip-path="url(#SVGID_2_)" fill="#FFF3D4" d="M242.243,226.784c1.796,0,3.266,1.471,3.266,3.273
			c0,1.796-1.469,3.272-3.266,3.272c-1.809,0-3.273-1.477-3.273-3.272C238.97,228.254,240.434,226.784,242.243,226.784z"/>
		<path clip-path="url(#SVGID_2_)" fill="#FFE387" d="M111.259,289.13h8.121v11.984h0.098c1.157-1.206,3.261-2.055,4.916-2.055
			c5.611,0,8.62,5.61,8.62,12.883c0,5.765-2.406,13.178-9.222,13.178c-3.156,0-5.217-1.501-6.817-3.906l-1.507,3.604h-4.208V289.13z
			 M119.38,316.753c-0.154,2.104,1.101,3.255,2.658,3.255c2.251,0,2.553-2.252,2.553-6.915v-1.907c0-5.015,0-7.616-2.504-7.616
			c-1.003,0-1.753,0.603-2.258,1.002l-0.449,0.449V316.753z"/>
		<path clip-path="url(#SVGID_2_)" fill="#FFE799" d="M128.356,289.13h8.127v11.984h0.098c1.151-1.206,3.255-2.055,4.91-2.055
			c5.617,0,8.619,5.61,8.619,12.883c0,5.765-2.405,13.178-9.222,13.178c-3.156,0-5.211-1.501-6.816-3.906l-1.507,3.604h-4.208
			V289.13z M136.483,316.753c-0.154,2.104,1.101,3.255,2.651,3.255c2.258,0,2.56-2.252,2.56-6.915v-1.907
			c0-5.015,0-7.616-2.51-7.616c-1.003,0-1.753,0.603-2.251,1.002l-0.449,0.449V316.753z"/>
		<path clip-path="url(#SVGID_2_)" fill="#FFEBAD" d="M145.687,305.372h-3.31v-5.715h3.31v-2.806c0-6.164,3.058-8.422,8.422-8.422
			c1.6,0,2.805,0.153,4.11,0.301v6.214c-0.449-0.099-1.052-0.196-1.501-0.196c-2.061,0-2.91,0.646-2.91,2.152v2.757h4.411v5.715
			h-4.411v19.447h-8.121V305.372z"/>
		<path clip-path="url(#SVGID_2_)" fill="#FFEFC0" d="M166.598,309.033c0-1.003-0.055-2.203-0.406-3.156
			c-0.4-1.009-1.052-1.704-2.356-1.704c-2.707,0-3.008,3.304-3.008,8.317c0,5.667,0.904,7.519,3.008,7.519
			c2.861,0,3.107-2.904,3.107-4.812l6.318,0.904c-0.603,6.115-4.11,9.327-10.028,9.327c-7.315,0-11.123-6.417-11.123-12.637
			c0-6.866,3.808-13.731,11.48-13.731c8.619,0,9.923,7.463,9.923,9.973H166.598z"/>
		<path clip-path="url(#SVGID_2_)" fill="#FFF3D4" d="M170.05,309.051c1.803,0,3.273,1.47,3.273,3.272
			c0,1.797-1.47,3.273-3.273,3.273s-3.267-1.477-3.267-3.273C166.783,310.521,168.247,309.051,170.05,309.051z"/>
		<path clip-path="url(#SVGID_2_)" fill="#FFE387" d="M111.259,247.997h8.121v11.979h0.098c1.157-1.206,3.261-2.055,4.916-2.055
			c5.611,0,8.62,5.616,8.62,12.883c0,5.765-2.406,13.184-9.222,13.184c-3.156,0-5.217-1.501-6.817-3.913l-1.507,3.618h-4.208
			V247.997z M119.38,275.614c-0.154,2.11,1.101,3.267,2.658,3.267c2.251,0,2.553-2.264,2.553-6.921v-1.907
			c0-5.008,0-7.616-2.504-7.616c-1.003,0-1.753,0.597-2.258,1.003l-0.449,0.449V275.614z"/>
		<path clip-path="url(#SVGID_2_)" fill="#FFE799" d="M128.356,247.997h8.127v11.979h0.098c1.151-1.206,3.255-2.055,4.91-2.055
			c5.617,0,8.619,5.616,8.619,12.883c0,5.765-2.405,13.184-9.222,13.184c-3.156,0-5.211-1.501-6.816-3.913l-1.507,3.618h-4.208
			V247.997z M136.483,275.614c-0.154,2.11,1.101,3.267,2.651,3.267c2.258,0,2.56-2.264,2.56-6.921v-1.907
			c0-5.008,0-7.616-2.51-7.616c-1.003,0-1.753,0.597-2.251,1.003l-0.449,0.449V275.614z"/>
		<path clip-path="url(#SVGID_2_)" fill="#FFEBAD" d="M145.687,264.239h-3.31v-5.716h3.31v-2.806c0-6.164,3.058-8.422,8.422-8.422
			c1.6,0,2.805,0.147,4.11,0.295v6.22c-0.449-0.104-1.052-0.203-1.501-0.203c-2.061,0-2.91,0.658-2.91,2.16v2.756h4.411v5.716
			h-4.411v19.453h-8.121V264.239z"/>
		<path clip-path="url(#SVGID_2_)" fill="#FFEFC0" d="M166.598,267.893c0-0.997-0.055-2.203-0.406-3.156
			c-0.4-0.997-1.052-1.704-2.356-1.704c-2.707,0-3.008,3.31-3.008,8.324c0,5.659,0.904,7.523,3.008,7.523
			c2.861,0,3.107-2.91,3.107-4.823l6.318,0.904c-0.603,6.122-4.11,9.327-10.028,9.327c-7.315,0-11.123-6.417-11.123-12.631
			c0-6.872,3.808-13.737,11.48-13.737c8.619,0,9.923,7.469,9.923,9.973H166.598z"/>
		<path clip-path="url(#SVGID_2_)" fill="#FFF3D4" d="M170.05,267.912c1.803,0,3.273,1.47,3.273,3.278
			c0,1.797-1.47,3.273-3.273,3.273s-3.267-1.477-3.267-3.273C166.783,269.381,168.247,267.912,170.05,267.912z"/>
		<path clip-path="url(#SVGID_2_)" fill="#FFE387" d="M111.259,206.869h8.121v11.979h0.098c1.157-1.199,3.261-2.055,4.916-2.055
			c5.611,0,8.62,5.611,8.62,12.883c0,5.759-2.406,13.178-9.222,13.178c-3.156,0-5.217-1.501-6.817-3.906l-1.507,3.605h-4.208
			V206.869z M119.38,234.486c-0.154,2.104,1.101,3.255,2.658,3.255c2.251,0,2.553-2.258,2.553-6.915v-1.907
			c0-5.014,0-7.616-2.504-7.616c-1.003,0-1.753,0.603-2.258,1.003l-0.449,0.449V234.486z"/>
		<path clip-path="url(#SVGID_2_)" fill="#FFE799" d="M128.356,206.869h8.127v11.979h0.098c1.151-1.199,3.255-2.055,4.91-2.055
			c5.617,0,8.619,5.611,8.619,12.883c0,5.759-2.405,13.178-9.222,13.178c-3.156,0-5.211-1.501-6.816-3.906l-1.507,3.605h-4.208
			V206.869z M136.483,234.486c-0.154,2.104,1.101,3.255,2.651,3.255c2.258,0,2.56-2.258,2.56-6.915v-1.907
			c0-5.014,0-7.616-2.51-7.616c-1.003,0-1.753,0.603-2.251,1.003l-0.449,0.449V234.486z"/>
		<path clip-path="url(#SVGID_2_)" fill="#FFEBAD" d="M145.687,223.105h-3.31v-5.709h3.31v-2.806c0-6.165,3.058-8.423,8.422-8.423
			c1.6,0,2.805,0.148,4.11,0.296v6.22c-0.449-0.104-1.052-0.203-1.501-0.203c-2.061,0-2.91,0.652-2.91,2.159v2.757h4.411v5.709
			h-4.411v19.447h-8.121V223.105z"/>
		<path clip-path="url(#SVGID_2_)" fill="#FFEFC0" d="M166.598,226.765c0-1.003-0.055-2.208-0.406-3.156
			c-0.4-1.002-1.052-1.704-2.356-1.704c-2.707,0-3.008,3.304-3.008,8.318c0,5.666,0.904,7.518,3.008,7.518
			c2.861,0,3.107-2.903,3.107-4.811l6.318,0.897c-0.603,6.122-4.11,9.327-10.028,9.327c-7.315,0-11.123-6.417-11.123-12.631
			c0-6.865,3.808-13.731,11.48-13.731c8.619,0,9.923,7.463,9.923,9.973H166.598z"/>
		<path clip-path="url(#SVGID_2_)" fill="#FFF3D4" d="M170.05,226.784c1.803,0,3.273,1.471,3.273,3.273
			c0,1.796-1.47,3.272-3.273,3.272s-3.267-1.477-3.267-3.272C166.783,228.254,168.247,226.784,170.05,226.784z"/>
		<path clip-path="url(#SVGID_2_)" fill="#FFE387" d="M39.063,289.13h8.121v11.984h0.099c1.156-1.206,3.261-2.055,4.916-2.055
			c5.617,0,8.625,5.61,8.625,12.883c0,5.765-2.406,13.178-9.229,13.178c-3.156,0-5.211-1.501-6.816-3.906l-1.501,3.604h-4.214
			V289.13z M47.184,316.753c-0.147,2.104,1.107,3.255,2.658,3.255c2.252,0,2.56-2.252,2.56-6.915v-1.907c0-5.015,0-7.616-2.51-7.616
			c-1.003,0-1.753,0.603-2.251,1.002l-0.456,0.449V316.753z"/>
		<path clip-path="url(#SVGID_2_)" fill="#FFE799" d="M56.167,289.13h8.121v11.984h0.099c1.15-1.206,3.261-2.055,4.916-2.055
			c5.611,0,8.619,5.61,8.619,12.883c0,5.765-2.405,13.178-9.222,13.178c-3.162,0-5.217-1.501-6.823-3.906l-1.501,3.604h-4.208
			V289.13z M64.287,316.753c-0.154,2.104,1.102,3.255,2.658,3.255c2.252,0,2.553-2.252,2.553-6.915v-1.907
			c0-5.015,0-7.616-2.504-7.616c-1.009,0-1.759,0.603-2.258,1.002l-0.449,0.449V316.753z"/>
		<path clip-path="url(#SVGID_2_)" fill="#FFEBAD" d="M73.491,305.372h-3.304v-5.715h3.304v-2.806c0-6.164,3.058-8.422,8.423-8.422
			c1.605,0,2.812,0.153,4.109,0.301v6.214c-0.449-0.099-1.052-0.196-1.501-0.196c-2.055,0-2.91,0.646-2.91,2.152v2.757h4.411v5.715
			h-4.411v19.447h-8.121V305.372z"/>
		<path clip-path="url(#SVGID_2_)" fill="#FFEFC0" d="M94.402,309.033c0-1.003-0.055-2.203-0.4-3.156
			c-0.406-1.009-1.058-1.704-2.356-1.704c-2.713,0-3.008,3.304-3.008,8.317c0,5.667,0.898,7.519,3.008,7.519
			c2.854,0,3.107-2.904,3.107-4.812l6.312,0.904c-0.597,6.115-4.109,9.327-10.021,9.327c-7.321,0-11.129-6.417-11.129-12.637
			c0-6.866,3.808-13.731,11.48-13.731c8.625,0,9.923,7.463,9.923,9.973H94.402z"/>
		<path clip-path="url(#SVGID_2_)" fill="#FFF3D4" d="M97.86,309.051c1.796,0,3.267,1.47,3.267,3.272
			c0,1.797-1.47,3.273-3.267,3.273c-1.809,0-3.273-1.477-3.273-3.273C94.587,310.521,96.051,309.051,97.86,309.051z"/>
		<path clip-path="url(#SVGID_2_)" fill="#FFE387" d="M39.063,247.997h8.121v11.979h0.099c1.156-1.206,3.261-2.055,4.916-2.055
			c5.617,0,8.625,5.616,8.625,12.883c0,5.765-2.406,13.184-9.229,13.184c-3.156,0-5.211-1.501-6.816-3.913l-1.501,3.618h-4.214
			V247.997z M47.184,275.614c-0.147,2.11,1.107,3.267,2.658,3.267c2.252,0,2.56-2.264,2.56-6.921v-1.907c0-5.008,0-7.616-2.51-7.616
			c-1.003,0-1.753,0.597-2.251,1.003l-0.456,0.449V275.614z"/>
		<path clip-path="url(#SVGID_2_)" fill="#FFE799" d="M56.167,247.997h8.121v11.979h0.099c1.15-1.206,3.261-2.055,4.916-2.055
			c5.611,0,8.619,5.616,8.619,12.883c0,5.765-2.405,13.184-9.222,13.184c-3.162,0-5.217-1.501-6.823-3.913l-1.501,3.618h-4.208
			V247.997z M64.287,275.614c-0.154,2.11,1.102,3.267,2.658,3.267c2.252,0,2.553-2.264,2.553-6.921v-1.907
			c0-5.008,0-7.616-2.504-7.616c-1.009,0-1.759,0.597-2.258,1.003l-0.449,0.449V275.614z"/>
		<path clip-path="url(#SVGID_2_)" fill="#FFEBAD" d="M73.491,264.239h-3.304v-5.716h3.304v-2.806c0-6.164,3.058-8.422,8.423-8.422
			c1.605,0,2.812,0.147,4.109,0.295v6.22c-0.449-0.104-1.052-0.203-1.501-0.203c-2.055,0-2.91,0.658-2.91,2.16v2.756h4.411v5.716
			h-4.411v19.453h-8.121V264.239z"/>
		<path clip-path="url(#SVGID_2_)" fill="#FFEFC0" d="M94.402,267.893c0-0.997-0.055-2.203-0.4-3.156
			c-0.406-0.997-1.058-1.704-2.356-1.704c-2.713,0-3.008,3.31-3.008,8.324c0,5.659,0.898,7.523,3.008,7.523
			c2.854,0,3.107-2.91,3.107-4.823l6.312,0.904c-0.597,6.122-4.109,9.327-10.021,9.327c-7.321,0-11.129-6.417-11.129-12.631
			c0-6.872,3.808-13.737,11.48-13.737c8.625,0,9.923,7.469,9.923,9.973H94.402z"/>
		<path clip-path="url(#SVGID_2_)" fill="#FFF3D4" d="M97.86,267.912c1.796,0,3.267,1.47,3.267,3.278
			c0,1.797-1.47,3.273-3.267,3.273c-1.809,0-3.273-1.477-3.273-3.273C94.587,269.381,96.051,267.912,97.86,267.912z"/>
		<path clip-path="url(#SVGID_2_)" fill="#FFE387" d="M39.063,206.869h8.121v11.979h0.099c1.156-1.199,3.261-2.055,4.916-2.055
			c5.617,0,8.625,5.611,8.625,12.883c0,5.759-2.406,13.178-9.229,13.178c-3.156,0-5.211-1.501-6.816-3.906l-1.501,3.605h-4.214
			V206.869z M47.184,234.486c-0.147,2.104,1.107,3.255,2.658,3.255c2.252,0,2.56-2.258,2.56-6.915v-1.907
			c0-5.014,0-7.616-2.51-7.616c-1.003,0-1.753,0.603-2.251,1.003l-0.456,0.449V234.486z"/>
		<path clip-path="url(#SVGID_2_)" fill="#FFE799" d="M56.167,206.869h8.121v11.979h0.099c1.15-1.199,3.261-2.055,4.916-2.055
			c5.611,0,8.619,5.611,8.619,12.883c0,5.759-2.405,13.178-9.222,13.178c-3.162,0-5.217-1.501-6.823-3.906l-1.501,3.605h-4.208
			V206.869z M64.287,234.486c-0.154,2.104,1.102,3.255,2.658,3.255c2.252,0,2.553-2.258,2.553-6.915v-1.907
			c0-5.014,0-7.616-2.504-7.616c-1.009,0-1.759,0.603-2.258,1.003l-0.449,0.449V234.486z"/>
		<path clip-path="url(#SVGID_2_)" fill="#FFEBAD" d="M73.491,223.105h-3.304v-5.709h3.304v-2.806c0-6.165,3.058-8.423,8.423-8.423
			c1.605,0,2.812,0.148,4.109,0.296v6.22c-0.449-0.104-1.052-0.203-1.501-0.203c-2.055,0-2.91,0.652-2.91,2.159v2.757h4.411v5.709
			h-4.411v19.447h-8.121V223.105z"/>
		<path clip-path="url(#SVGID_2_)" fill="#FFEFC0" d="M94.402,226.765c0-1.003-0.055-2.208-0.4-3.156
			c-0.406-1.002-1.058-1.704-2.356-1.704c-2.713,0-3.008,3.304-3.008,8.318c0,5.666,0.898,7.518,3.008,7.518
			c2.854,0,3.107-2.903,3.107-4.811l6.312,0.897c-0.597,6.122-4.109,9.327-10.021,9.327c-7.321,0-11.129-6.417-11.129-12.631
			c0-6.865,3.808-13.731,11.48-13.731c8.625,0,9.923,7.463,9.923,9.973H94.402z"/>
		<path clip-path="url(#SVGID_2_)" fill="#FFF3D4" d="M97.86,226.784c1.796,0,3.267,1.471,3.267,3.273
			c0,1.796-1.47,3.272-3.267,3.272c-1.809,0-3.273-1.477-3.273-3.272C94.587,228.254,96.051,226.784,97.86,226.784z"/>
		<path clip-path="url(#SVGID_2_)" fill="#FFE387" d="M255.641,289.13h8.121v11.984h0.098c1.157-1.206,3.261-2.055,4.916-2.055
			c5.617,0,8.625,5.61,8.625,12.883c0,5.765-2.412,13.178-9.228,13.178c-3.156,0-5.211-1.501-6.817-3.906l-1.501,3.604h-4.214
			V289.13z M263.762,316.753c-0.148,2.104,1.101,3.255,2.658,3.255c2.251,0,2.559-2.252,2.559-6.915v-1.907
			c0-5.015,0-7.616-2.51-7.616c-1.003,0-1.753,0.603-2.258,1.002l-0.449,0.449V316.753z"/>
		<path clip-path="url(#SVGID_2_)" fill="#FFE799" d="M272.744,289.13h8.121v11.984h0.099c1.15-1.206,3.254-2.055,4.916-2.055
			c5.611,0,8.619,5.61,8.619,12.883c0,5.765-2.406,13.178-9.222,13.178c-3.162,0-5.217-1.501-6.823-3.906l-1.501,3.604h-4.208
			V289.13z M280.865,316.753c-0.154,2.104,1.101,3.255,2.651,3.255c2.258,0,2.56-2.252,2.56-6.915v-1.907
			c0-5.015,0-7.616-2.504-7.616c-1.009,0-1.76,0.603-2.258,1.002l-0.449,0.449V316.753z"/>
		<path clip-path="url(#SVGID_2_)" fill="#FFEBAD" d="M290.068,305.372h-3.304v-5.715h3.304v-2.806c0-6.164,3.058-8.422,8.422-8.422
			c1.606,0,2.806,0.153,4.11,0.301v6.214c-0.449-0.099-1.052-0.196-1.501-0.196c-2.055,0-2.91,0.646-2.91,2.152v2.757h4.411v5.715
			h-4.411v19.447h-8.121V305.372z"/>
		<path clip-path="url(#SVGID_2_)" fill="#FFEFC0" d="M310.98,309.033c0-1.003-0.056-2.203-0.4-3.156
			c-0.406-1.009-1.058-1.704-2.362-1.704c-2.707,0-3.002,3.304-3.002,8.317c0,5.667,0.898,7.519,3.002,7.519
			c2.861,0,3.107-2.904,3.107-4.812l6.318,0.904c-0.597,6.115-4.11,9.327-10.022,9.327c-7.321,0-11.129-6.417-11.129-12.637
			c0-6.866,3.808-13.731,11.48-13.731c8.619,0,9.924,7.463,9.924,9.973H310.98z"/>
		<path clip-path="url(#SVGID_2_)" fill="#FFF3D4" d="M314.437,309.051c1.797,0,3.267,1.47,3.267,3.272
			c0,1.797-1.47,3.273-3.267,3.273c-1.809,0-3.272-1.477-3.272-3.273C311.165,310.521,312.628,309.051,314.437,309.051z"/>
		<path clip-path="url(#SVGID_2_)" fill="#FFE387" d="M255.641,247.997h8.121v11.979h0.098c1.157-1.206,3.261-2.055,4.916-2.055
			c5.617,0,8.625,5.616,8.625,12.883c0,5.765-2.412,13.184-9.228,13.184c-3.156,0-5.211-1.501-6.817-3.913l-1.501,3.618h-4.214
			V247.997z M263.762,275.614c-0.148,2.11,1.101,3.267,2.658,3.267c2.251,0,2.559-2.264,2.559-6.921v-1.907
			c0-5.008,0-7.616-2.51-7.616c-1.003,0-1.753,0.597-2.258,1.003l-0.449,0.449V275.614z"/>
		<path clip-path="url(#SVGID_2_)" fill="#FFE799" d="M272.744,247.997h8.121v11.979h0.099c1.15-1.206,3.254-2.055,4.916-2.055
			c5.611,0,8.619,5.616,8.619,12.883c0,5.765-2.406,13.184-9.222,13.184c-3.162,0-5.217-1.501-6.823-3.913l-1.501,3.618h-4.208
			V247.997z M280.865,275.614c-0.154,2.11,1.101,3.267,2.651,3.267c2.258,0,2.56-2.264,2.56-6.921v-1.907
			c0-5.008,0-7.616-2.504-7.616c-1.009,0-1.76,0.597-2.258,1.003l-0.449,0.449V275.614z"/>
		<path clip-path="url(#SVGID_2_)" fill="#FFEBAD" d="M290.068,264.239h-3.304v-5.716h3.304v-2.806c0-6.164,3.058-8.422,8.422-8.422
			c1.606,0,2.806,0.147,4.11,0.295v6.22c-0.449-0.104-1.052-0.203-1.501-0.203c-2.055,0-2.91,0.658-2.91,2.16v2.756h4.411v5.716
			h-4.411v19.453h-8.121V264.239z"/>
		<path clip-path="url(#SVGID_2_)" fill="#FFEFC0" d="M310.98,267.893c0-0.997-0.056-2.203-0.4-3.156
			c-0.406-0.997-1.058-1.704-2.362-1.704c-2.707,0-3.002,3.31-3.002,8.324c0,5.659,0.898,7.523,3.002,7.523
			c2.861,0,3.107-2.91,3.107-4.823l6.318,0.904c-0.597,6.122-4.11,9.327-10.022,9.327c-7.321,0-11.129-6.417-11.129-12.631
			c0-6.872,3.808-13.737,11.48-13.737c8.619,0,9.924,7.469,9.924,9.973H310.98z"/>
		<path clip-path="url(#SVGID_2_)" fill="#FFF3D4" d="M314.437,267.912c1.797,0,3.267,1.47,3.267,3.278
			c0,1.797-1.47,3.273-3.267,3.273c-1.809,0-3.272-1.477-3.272-3.273C311.165,269.381,312.628,267.912,314.437,267.912z"/>
		<path clip-path="url(#SVGID_2_)" fill="#FFE387" d="M255.641,206.869h8.121v11.979h0.098c1.157-1.199,3.261-2.055,4.916-2.055
			c5.617,0,8.625,5.611,8.625,12.883c0,5.759-2.412,13.178-9.228,13.178c-3.156,0-5.211-1.501-6.817-3.906l-1.501,3.605h-4.214
			V206.869z M263.762,234.486c-0.148,2.104,1.101,3.255,2.658,3.255c2.251,0,2.559-2.258,2.559-6.915v-1.907
			c0-5.014,0-7.616-2.51-7.616c-1.003,0-1.753,0.603-2.258,1.003l-0.449,0.449V234.486z"/>
		<path clip-path="url(#SVGID_2_)" fill="#FFE799" d="M272.744,206.869h8.121v11.979h0.099c1.15-1.199,3.254-2.055,4.916-2.055
			c5.611,0,8.619,5.611,8.619,12.883c0,5.759-2.406,13.178-9.222,13.178c-3.162,0-5.217-1.501-6.823-3.906l-1.501,3.605h-4.208
			V206.869z M280.865,234.486c-0.154,2.104,1.101,3.255,2.651,3.255c2.258,0,2.56-2.258,2.56-6.915v-1.907
			c0-5.014,0-7.616-2.504-7.616c-1.009,0-1.76,0.603-2.258,1.003l-0.449,0.449V234.486z"/>
		<path clip-path="url(#SVGID_2_)" fill="#FFEBAD" d="M290.068,223.105h-3.304v-5.709h3.304v-2.806c0-6.165,3.058-8.423,8.422-8.423
			c1.606,0,2.806,0.148,4.11,0.296v6.22c-0.449-0.104-1.052-0.203-1.501-0.203c-2.055,0-2.91,0.652-2.91,2.159v2.757h4.411v5.709
			h-4.411v19.447h-8.121V223.105z"/>
		<path clip-path="url(#SVGID_2_)" fill="#FFEFC0" d="M310.98,226.765c0-1.003-0.056-2.208-0.4-3.156
			c-0.406-1.002-1.058-1.704-2.362-1.704c-2.707,0-3.002,3.304-3.002,8.318c0,5.666,0.898,7.518,3.002,7.518
			c2.861,0,3.107-2.903,3.107-4.811l6.318,0.897c-0.597,6.122-4.11,9.327-10.022,9.327c-7.321,0-11.129-6.417-11.129-12.631
			c0-6.865,3.808-13.731,11.48-13.731c8.619,0,9.924,7.463,9.924,9.973H310.98z"/>
		<path clip-path="url(#SVGID_2_)" fill="#FFF3D4" d="M314.437,226.784c1.797,0,3.267,1.471,3.267,3.273
			c0,1.796-1.47,3.272-3.267,3.272c-1.809,0-3.272-1.477-3.272-3.272C311.165,228.254,312.628,226.784,314.437,226.784z"/>
		<path clip-path="url(#SVGID_2_)" fill="#FFE387" d="M328.28,289.13h8.127v11.984h0.099c1.156-1.206,3.254-2.055,4.909-2.055
			c5.617,0,8.625,5.61,8.625,12.883c0,5.765-2.405,13.178-9.222,13.178c-3.156,0-5.217-1.501-6.816-3.906l-1.507,3.604h-4.214
			V289.13z M336.407,316.753c-0.154,2.104,1.102,3.255,2.652,3.255c2.258,0,2.559-2.252,2.559-6.915v-1.907
			c0-5.015,0-7.616-2.51-7.616c-0.997,0-1.753,0.603-2.251,1.002l-0.449,0.449V316.753z"/>
		<path clip-path="url(#SVGID_2_)" fill="#FFE799" d="M345.383,289.13h8.121v11.984h0.098c1.157-1.206,3.261-2.055,4.916-2.055
			c5.617,0,8.619,5.61,8.619,12.883c0,5.765-2.406,13.178-9.222,13.178c-3.156,0-5.211-1.501-6.817-3.906l-1.507,3.604h-4.208
			V289.13z M353.504,316.753c-0.148,2.104,1.107,3.255,2.658,3.255c2.251,0,2.559-2.252,2.559-6.915v-1.907
			c0-5.015,0-7.616-2.51-7.616c-1.002,0-1.753,0.603-2.251,1.002l-0.455,0.449V316.753z"/>
		<path clip-path="url(#SVGID_2_)" fill="#FFEBAD" d="M362.713,305.372h-3.31v-5.715h3.31v-2.806c0-6.164,3.058-8.422,8.423-8.422
			c1.599,0,2.805,0.153,4.109,0.301v6.214c-0.449-0.099-1.052-0.196-1.507-0.196c-2.055,0-2.904,0.646-2.904,2.152v2.757h4.411
			v5.715h-4.411v19.447h-8.121V305.372z"/>
		<path clip-path="url(#SVGID_2_)" fill="#FFEFC0" d="M383.619,309.033c0-1.003-0.049-2.203-0.4-3.156
			c-0.4-1.009-1.052-1.704-2.356-1.704c-2.707,0-3.009,3.304-3.009,8.317c0,5.667,0.904,7.519,3.009,7.519
			c2.854,0,3.106-2.904,3.106-4.812l6.318,0.904c-0.603,6.115-4.116,9.327-10.028,9.327c-7.321,0-11.129-6.417-11.129-12.637
			c0-6.866,3.808-13.731,11.48-13.731c8.625,0,9.93,7.463,9.93,9.973H383.619z"/>
		<path clip-path="url(#SVGID_2_)" fill="#FFF3D4" d="M387.076,309.051c1.803,0,3.273,1.47,3.273,3.272
			c0,1.797-1.47,3.273-3.273,3.273c-1.809,0-3.273-1.477-3.273-3.273C383.803,310.521,385.268,309.051,387.076,309.051z"/>
		<path clip-path="url(#SVGID_2_)" fill="#FFE387" d="M328.28,247.997h8.127v11.979h0.099c1.156-1.206,3.254-2.055,4.909-2.055
			c5.617,0,8.625,5.616,8.625,12.883c0,5.765-2.405,13.184-9.222,13.184c-3.156,0-5.217-1.501-6.816-3.913l-1.507,3.618h-4.214
			V247.997z M336.407,275.614c-0.154,2.11,1.102,3.267,2.652,3.267c2.258,0,2.559-2.264,2.559-6.921v-1.907
			c0-5.008,0-7.616-2.51-7.616c-0.997,0-1.753,0.597-2.251,1.003l-0.449,0.449V275.614z"/>
		<path clip-path="url(#SVGID_2_)" fill="#FFE799" d="M345.383,247.997h8.121v11.979h0.098c1.157-1.206,3.261-2.055,4.916-2.055
			c5.617,0,8.619,5.616,8.619,12.883c0,5.765-2.406,13.184-9.222,13.184c-3.156,0-5.211-1.501-6.817-3.913l-1.507,3.618h-4.208
			V247.997z M353.504,275.614c-0.148,2.11,1.107,3.267,2.658,3.267c2.251,0,2.559-2.264,2.559-6.921v-1.907
			c0-5.008,0-7.616-2.51-7.616c-1.002,0-1.753,0.597-2.251,1.003l-0.455,0.449V275.614z"/>
		<path clip-path="url(#SVGID_2_)" fill="#FFEBAD" d="M362.713,264.239h-3.31v-5.716h3.31v-2.806c0-6.164,3.058-8.422,8.423-8.422
			c1.599,0,2.805,0.147,4.109,0.295v6.22c-0.449-0.104-1.052-0.203-1.507-0.203c-2.055,0-2.904,0.658-2.904,2.16v2.756h4.411v5.716
			h-4.411v19.453h-8.121V264.239z"/>
		<path clip-path="url(#SVGID_2_)" fill="#FFEFC0" d="M383.619,267.893c0-0.997-0.049-2.203-0.4-3.156
			c-0.4-0.997-1.052-1.704-2.356-1.704c-2.707,0-3.009,3.31-3.009,8.324c0,5.659,0.904,7.523,3.009,7.523
			c2.854,0,3.106-2.91,3.106-4.823l6.318,0.904c-0.603,6.122-4.116,9.327-10.028,9.327c-7.321,0-11.129-6.417-11.129-12.631
			c0-6.872,3.808-13.737,11.48-13.737c8.625,0,9.93,7.469,9.93,9.973H383.619z"/>
		<path clip-path="url(#SVGID_2_)" fill="#FFF3D4" d="M387.076,267.912c1.803,0,3.273,1.47,3.273,3.278
			c0,1.797-1.47,3.273-3.273,3.273c-1.809,0-3.273-1.477-3.273-3.273C383.803,269.381,385.268,267.912,387.076,267.912z"/>
		<path clip-path="url(#SVGID_2_)" fill="#FFE387" d="M328.28,206.869h8.127v11.979h0.099c1.156-1.199,3.254-2.055,4.909-2.055
			c5.617,0,8.625,5.611,8.625,12.883c0,5.759-2.405,13.178-9.222,13.178c-3.156,0-5.217-1.501-6.816-3.906l-1.507,3.605h-4.214
			V206.869z M336.407,234.486c-0.154,2.104,1.102,3.255,2.652,3.255c2.258,0,2.559-2.258,2.559-6.915v-1.907
			c0-5.014,0-7.616-2.51-7.616c-0.997,0-1.753,0.603-2.251,1.003l-0.449,0.449V234.486z"/>
		<path clip-path="url(#SVGID_2_)" fill="#FFE799" d="M345.383,206.869h8.121v11.979h0.098c1.157-1.199,3.261-2.055,4.916-2.055
			c5.617,0,8.619,5.611,8.619,12.883c0,5.759-2.406,13.178-9.222,13.178c-3.156,0-5.211-1.501-6.817-3.906l-1.507,3.605h-4.208
			V206.869z M353.504,234.486c-0.148,2.104,1.107,3.255,2.658,3.255c2.251,0,2.559-2.258,2.559-6.915v-1.907
			c0-5.014,0-7.616-2.51-7.616c-1.002,0-1.753,0.603-2.251,1.003l-0.455,0.449V234.486z"/>
		<path clip-path="url(#SVGID_2_)" fill="#FFEBAD" d="M362.713,223.105h-3.31v-5.709h3.31v-2.806c0-6.165,3.058-8.423,8.423-8.423
			c1.599,0,2.805,0.148,4.109,0.296v6.22c-0.449-0.104-1.052-0.203-1.507-0.203c-2.055,0-2.904,0.652-2.904,2.159v2.757h4.411v5.709
			h-4.411v19.447h-8.121V223.105z"/>
		<path clip-path="url(#SVGID_2_)" fill="#FFEFC0" d="M383.619,226.765c0-1.003-0.049-2.208-0.4-3.156
			c-0.4-1.002-1.052-1.704-2.356-1.704c-2.707,0-3.009,3.304-3.009,8.318c0,5.666,0.904,7.518,3.009,7.518
			c2.854,0,3.106-2.903,3.106-4.811l6.318,0.897c-0.603,6.122-4.116,9.327-10.028,9.327c-7.321,0-11.129-6.417-11.129-12.631
			c0-6.865,3.808-13.731,11.48-13.731c8.625,0,9.93,7.463,9.93,9.973H383.619z"/>
		<path clip-path="url(#SVGID_2_)" fill="#FFF3D4" d="M387.076,226.784c1.803,0,3.273,1.471,3.273,3.273
			c0,1.796-1.47,3.272-3.273,3.272c-1.809,0-3.273-1.477-3.273-3.272C383.803,228.254,385.268,226.784,387.076,226.784z"/>
		<path clip-path="url(#SVGID_2_)" fill="#FFE387" d="M183.449,165.735h8.121v11.985h0.098c1.157-1.206,3.261-2.062,4.916-2.062
			c5.617,0,8.625,5.617,8.625,12.89c0,5.764-2.405,13.178-9.228,13.178c-3.156,0-5.211-1.501-6.817-3.907l-1.501,3.605h-4.214
			V165.735z M191.57,193.359c-0.148,2.104,1.107,3.255,2.658,3.255c2.258,0,2.559-2.252,2.559-6.915v-1.907
			c0-5.008,0-7.617-2.51-7.617c-0.997,0-1.753,0.604-2.251,1.003l-0.455,0.449V193.359z"/>
		<path clip-path="url(#SVGID_2_)" fill="#FFE799" d="M200.552,165.735h8.121v11.985h0.099c1.15-1.206,3.26-2.062,4.916-2.062
			c5.611,0,8.619,5.617,8.619,12.89c0,5.764-2.406,13.178-9.222,13.178c-3.162,0-5.217-1.501-6.823-3.907l-1.501,3.605h-4.208
			V165.735z M208.673,193.359c-0.154,2.104,1.101,3.255,2.658,3.255c2.251,0,2.553-2.252,2.553-6.915v-1.907
			c0-5.008,0-7.617-2.504-7.617c-1.003,0-1.753,0.604-2.258,1.003l-0.449,0.449V193.359z"/>
		<path clip-path="url(#SVGID_2_)" fill="#FFEBAD" d="M217.877,181.977h-3.304v-5.715h3.304v-2.806c0-6.165,3.058-8.422,8.422-8.422
			c1.604,0,2.81,0.154,4.114,0.301v6.214c-0.455-0.099-1.058-0.197-1.507-0.197c-2.053,0-2.908,0.652-2.908,2.153v2.757h4.416v5.715
			h-4.416v19.447h-8.121V181.977z"/>
		<path clip-path="url(#SVGID_2_)" fill="#FFEFC0" d="M238.785,185.638c0-1.003-0.055-2.209-0.4-3.156
			c-0.406-1.003-1.052-1.704-2.354-1.704c-2.713,0-3.009,3.304-3.009,8.317c0,5.666,0.898,7.519,3.009,7.519
			c2.853,0,3.105-2.904,3.105-4.812l6.311,0.898c-0.596,6.121-4.108,9.333-10.019,9.333c-7.321,0-11.128-6.423-11.128-12.637
			c0-6.866,3.807-13.738,11.479-13.738c8.624,0,9.92,7.469,9.92,9.979H238.785z"/>
		<path clip-path="url(#SVGID_2_)" fill="#FFF3D4" d="M242.243,185.657c1.796,0,3.266,1.47,3.266,3.272
			c0,1.797-1.469,3.273-3.266,3.273c-1.809,0-3.273-1.477-3.273-3.273C238.97,187.126,240.434,185.657,242.243,185.657z"/>
		<path clip-path="url(#SVGID_2_)" fill="#FFE387" d="M111.259,165.735h8.121v11.985h0.098c1.157-1.206,3.261-2.062,4.916-2.062
			c5.611,0,8.62,5.617,8.62,12.89c0,5.764-2.406,13.178-9.222,13.178c-3.156,0-5.217-1.501-6.817-3.907l-1.507,3.605h-4.208V165.735
			z M119.38,193.359c-0.154,2.104,1.101,3.255,2.658,3.255c2.251,0,2.553-2.252,2.553-6.915v-1.907c0-5.008,0-7.617-2.504-7.617
			c-1.003,0-1.753,0.604-2.258,1.003l-0.449,0.449V193.359z"/>
		<path clip-path="url(#SVGID_2_)" fill="#FFE799" d="M128.356,165.735h8.127v11.985h0.098c1.151-1.206,3.255-2.062,4.91-2.062
			c5.617,0,8.619,5.617,8.619,12.89c0,5.764-2.405,13.178-9.222,13.178c-3.156,0-5.211-1.501-6.816-3.907l-1.507,3.605h-4.208
			V165.735z M136.483,193.359c-0.154,2.104,1.101,3.255,2.651,3.255c2.258,0,2.56-2.252,2.56-6.915v-1.907
			c0-5.008,0-7.617-2.51-7.617c-1.003,0-1.753,0.604-2.251,1.003l-0.449,0.449V193.359z"/>
		<path clip-path="url(#SVGID_2_)" fill="#FFEBAD" d="M145.687,181.977h-3.31v-5.715h3.31v-2.806c0-6.165,3.058-8.422,8.422-8.422
			c1.6,0,2.805,0.154,4.11,0.301v6.214c-0.449-0.099-1.052-0.197-1.501-0.197c-2.061,0-2.91,0.652-2.91,2.153v2.757h4.411v5.715
			h-4.411v19.447h-8.121V181.977z"/>
		<path clip-path="url(#SVGID_2_)" fill="#FFEFC0" d="M166.598,185.638c0-1.003-0.055-2.209-0.406-3.156
			c-0.4-1.003-1.052-1.704-2.356-1.704c-2.707,0-3.008,3.304-3.008,8.317c0,5.666,0.904,7.519,3.008,7.519
			c2.861,0,3.107-2.904,3.107-4.812l6.318,0.898c-0.603,6.121-4.11,9.333-10.028,9.333c-7.315,0-11.123-6.423-11.123-12.637
			c0-6.866,3.808-13.738,11.48-13.738c8.619,0,9.923,7.469,9.923,9.979H166.598z"/>
		<path clip-path="url(#SVGID_2_)" fill="#FFF3D4" d="M170.05,185.657c1.803,0,3.273,1.47,3.273,3.272
			c0,1.797-1.47,3.273-3.273,3.273s-3.267-1.477-3.267-3.273C166.783,187.126,168.247,185.657,170.05,185.657z"/>
		<path clip-path="url(#SVGID_2_)" fill="#FFE387" d="M39.063,165.735h8.121v11.985h0.099c1.156-1.206,3.261-2.062,4.916-2.062
			c5.617,0,8.625,5.617,8.625,12.89c0,5.764-2.406,13.178-9.229,13.178c-3.156,0-5.211-1.501-6.816-3.907l-1.501,3.605h-4.214
			V165.735z M47.184,193.359c-0.147,2.104,1.107,3.255,2.658,3.255c2.252,0,2.56-2.252,2.56-6.915v-1.907
			c0-5.008,0-7.617-2.51-7.617c-1.003,0-1.753,0.604-2.251,1.003l-0.456,0.449V193.359z"/>
		<path clip-path="url(#SVGID_2_)" fill="#FFE799" d="M56.167,165.735h8.121v11.985h0.099c1.15-1.206,3.261-2.062,4.916-2.062
			c5.611,0,8.619,5.617,8.619,12.89c0,5.764-2.405,13.178-9.222,13.178c-3.162,0-5.217-1.501-6.823-3.907l-1.501,3.605h-4.208
			V165.735z M64.287,193.359c-0.154,2.104,1.102,3.255,2.658,3.255c2.252,0,2.553-2.252,2.553-6.915v-1.907
			c0-5.008,0-7.617-2.504-7.617c-1.009,0-1.759,0.604-2.258,1.003l-0.449,0.449V193.359z"/>
		<path clip-path="url(#SVGID_2_)" fill="#FFEBAD" d="M73.491,181.977h-3.304v-5.715h3.304v-2.806c0-6.165,3.058-8.422,8.423-8.422
			c1.605,0,2.812,0.154,4.109,0.301v6.214c-0.449-0.099-1.052-0.197-1.501-0.197c-2.055,0-2.91,0.652-2.91,2.153v2.757h4.411v5.715
			h-4.411v19.447h-8.121V181.977z"/>
		<path clip-path="url(#SVGID_2_)" fill="#FFEFC0" d="M94.402,185.638c0-1.003-0.055-2.209-0.4-3.156
			c-0.406-1.003-1.058-1.704-2.356-1.704c-2.713,0-3.008,3.304-3.008,8.317c0,5.666,0.898,7.519,3.008,7.519
			c2.854,0,3.107-2.904,3.107-4.812l6.312,0.898c-0.597,6.121-4.109,9.333-10.021,9.333c-7.321,0-11.129-6.423-11.129-12.637
			c0-6.866,3.808-13.738,11.48-13.738c8.625,0,9.923,7.469,9.923,9.979H94.402z"/>
		<path clip-path="url(#SVGID_2_)" fill="#FFF3D4" d="M97.86,185.657c1.796,0,3.267,1.47,3.267,3.272
			c0,1.797-1.47,3.273-3.267,3.273c-1.809,0-3.273-1.477-3.273-3.273C94.587,187.126,96.051,185.657,97.86,185.657z"/>
		<path clip-path="url(#SVGID_2_)" fill="#FFE387" d="M255.641,165.735h8.121v11.985h0.098c1.157-1.206,3.261-2.062,4.916-2.062
			c5.617,0,8.625,5.617,8.625,12.89c0,5.764-2.412,13.178-9.228,13.178c-3.156,0-5.211-1.501-6.817-3.907l-1.501,3.605h-4.214
			V165.735z M263.762,193.359c-0.148,2.104,1.101,3.255,2.658,3.255c2.251,0,2.559-2.252,2.559-6.915v-1.907
			c0-5.008,0-7.617-2.51-7.617c-1.003,0-1.753,0.604-2.258,1.003l-0.449,0.449V193.359z"/>
		<path clip-path="url(#SVGID_2_)" fill="#FFE799" d="M272.744,165.735h8.121v11.985h0.099c1.15-1.206,3.254-2.062,4.916-2.062
			c5.611,0,8.619,5.617,8.619,12.89c0,5.764-2.406,13.178-9.222,13.178c-3.162,0-5.217-1.501-6.823-3.907l-1.501,3.605h-4.208
			V165.735z M280.865,193.359c-0.154,2.104,1.101,3.255,2.651,3.255c2.258,0,2.56-2.252,2.56-6.915v-1.907
			c0-5.008,0-7.617-2.504-7.617c-1.009,0-1.76,0.604-2.258,1.003l-0.449,0.449V193.359z"/>
		<path clip-path="url(#SVGID_2_)" fill="#FFEBAD" d="M290.068,181.977h-3.304v-5.715h3.304v-2.806c0-6.165,3.058-8.422,8.422-8.422
			c1.606,0,2.806,0.154,4.11,0.301v6.214c-0.449-0.099-1.052-0.197-1.501-0.197c-2.055,0-2.91,0.652-2.91,2.153v2.757h4.411v5.715
			h-4.411v19.447h-8.121V181.977z"/>
		<path clip-path="url(#SVGID_2_)" fill="#FFEFC0" d="M310.98,185.638c0-1.003-0.056-2.209-0.4-3.156
			c-0.406-1.003-1.058-1.704-2.362-1.704c-2.707,0-3.002,3.304-3.002,8.317c0,5.666,0.898,7.519,3.002,7.519
			c2.861,0,3.107-2.904,3.107-4.812l6.318,0.898c-0.597,6.121-4.11,9.333-10.022,9.333c-7.321,0-11.129-6.423-11.129-12.637
			c0-6.866,3.808-13.738,11.48-13.738c8.619,0,9.924,7.469,9.924,9.979H310.98z"/>
		<path clip-path="url(#SVGID_2_)" fill="#FFF3D4" d="M314.437,185.657c1.797,0,3.267,1.47,3.267,3.272
			c0,1.797-1.47,3.273-3.267,3.273c-1.809,0-3.272-1.477-3.272-3.273C311.165,187.126,312.628,185.657,314.437,185.657z"/>
		<path clip-path="url(#SVGID_2_)" fill="#FFE387" d="M328.28,165.735h8.127v11.985h0.099c1.156-1.206,3.254-2.062,4.909-2.062
			c5.617,0,8.625,5.617,8.625,12.89c0,5.764-2.405,13.178-9.222,13.178c-3.156,0-5.217-1.501-6.816-3.907l-1.507,3.605h-4.214
			V165.735z M336.407,193.359c-0.154,2.104,1.102,3.255,2.652,3.255c2.258,0,2.559-2.252,2.559-6.915v-1.907
			c0-5.008,0-7.617-2.51-7.617c-0.997,0-1.753,0.604-2.251,1.003l-0.449,0.449V193.359z"/>
		<path clip-path="url(#SVGID_2_)" fill="#FFE799" d="M345.383,165.735h8.121v11.985h0.098c1.157-1.206,3.261-2.062,4.916-2.062
			c5.617,0,8.619,5.617,8.619,12.89c0,5.764-2.406,13.178-9.222,13.178c-3.156,0-5.211-1.501-6.817-3.907l-1.507,3.605h-4.208
			V165.735z M353.504,193.359c-0.148,2.104,1.107,3.255,2.658,3.255c2.251,0,2.559-2.252,2.559-6.915v-1.907
			c0-5.008,0-7.617-2.51-7.617c-1.002,0-1.753,0.604-2.251,1.003l-0.455,0.449V193.359z"/>
		<path clip-path="url(#SVGID_2_)" fill="#FFEBAD" d="M362.713,181.977h-3.31v-5.715h3.31v-2.806c0-6.165,3.058-8.422,8.423-8.422
			c1.599,0,2.805,0.154,4.109,0.301v6.214c-0.449-0.099-1.052-0.197-1.507-0.197c-2.055,0-2.904,0.652-2.904,2.153v2.757h4.411
			v5.715h-4.411v19.447h-8.121V181.977z"/>
		<path clip-path="url(#SVGID_2_)" fill="#FFEFC0" d="M383.619,185.638c0-1.003-0.049-2.209-0.4-3.156
			c-0.4-1.003-1.052-1.704-2.356-1.704c-2.707,0-3.009,3.304-3.009,8.317c0,5.666,0.904,7.519,3.009,7.519
			c2.854,0,3.106-2.904,3.106-4.812l6.318,0.898c-0.603,6.121-4.116,9.333-10.028,9.333c-7.321,0-11.129-6.423-11.129-12.637
			c0-6.866,3.808-13.738,11.48-13.738c8.625,0,9.93,7.469,9.93,9.979H383.619z"/>
		<path clip-path="url(#SVGID_2_)" fill="#FFF3D4" d="M387.076,185.657c1.803,0,3.273,1.47,3.273,3.272
			c0,1.797-1.47,3.273-3.273,3.273c-1.809,0-3.273-1.477-3.273-3.273C383.803,187.126,385.268,185.657,387.076,185.657z"/>
		<path clip-path="url(#SVGID_2_)" fill="#FFE387" d="M183.449,124.599h8.121v11.985h0.098c1.157-1.206,3.261-2.055,4.916-2.055
			c5.617,0,8.625,5.611,8.625,12.884c0,5.766-2.405,13.18-9.228,13.18c-3.156,0-5.211-1.501-6.817-3.907l-1.501,3.611h-4.214
			V124.599z M191.57,152.225c-0.148,2.104,1.107,3.261,2.658,3.261c2.258,0,2.559-2.258,2.559-6.923v-1.907
			c0-5.009,0-7.618-2.51-7.618c-0.997,0-1.753,0.603-2.251,1.003l-0.455,0.449V152.225z"/>
		<path clip-path="url(#SVGID_2_)" fill="#FFE799" d="M200.552,124.599h8.121v11.985h0.099c1.15-1.206,3.26-2.055,4.916-2.055
			c5.611,0,8.619,5.611,8.619,12.884c0,5.766-2.406,13.18-9.222,13.18c-3.162,0-5.217-1.501-6.823-3.907l-1.501,3.611h-4.208
			V124.599z M208.673,152.225c-0.154,2.104,1.101,3.261,2.658,3.261c2.251,0,2.553-2.258,2.553-6.923v-1.907
			c0-5.009,0-7.618-2.504-7.618c-1.003,0-1.753,0.603-2.258,1.003l-0.449,0.449V152.225z"/>
		<path clip-path="url(#SVGID_2_)" fill="#FFEBAD" d="M217.877,140.841h-3.304v-5.715h3.304v-2.806c0-6.165,3.058-8.422,8.422-8.422
			c1.604,0,2.81,0.154,4.114,0.301v6.214c-0.455-0.099-1.058-0.197-1.507-0.197c-2.053,0-2.908,0.652-2.908,2.153v2.756h4.416v5.715
			h-4.416v19.456h-8.121V140.841z"/>
		<path clip-path="url(#SVGID_2_)" fill="#FFEFC0" d="M238.785,144.501c0-1.002-0.055-2.202-0.4-3.156
			c-0.406-1.003-1.052-1.704-2.354-1.704c-2.713,0-3.009,3.304-3.009,8.319c0,5.667,0.898,7.525,3.009,7.525
			c2.853,0,3.105-2.91,3.105-4.818l6.311,0.906c-0.596,6.115-4.108,9.327-10.019,9.327c-7.321,0-11.128-6.423-11.128-12.638
			c0-6.868,3.807-13.733,11.479-13.733c8.624,0,9.92,7.463,9.92,9.973H238.785z"/>
		<path clip-path="url(#SVGID_2_)" fill="#FFF3D4" d="M242.243,144.52c1.796,0,3.266,1.47,3.266,3.274
			c0,1.796-1.469,3.273-3.266,3.273c-1.809,0-3.273-1.477-3.273-3.273C238.97,145.99,240.434,144.52,242.243,144.52z"/>
		<path clip-path="url(#SVGID_2_)" fill="#FFE387" d="M111.259,124.599h8.121v11.985h0.098c1.157-1.206,3.261-2.055,4.916-2.055
			c5.611,0,8.62,5.611,8.62,12.884c0,5.766-2.406,13.18-9.222,13.18c-3.156,0-5.217-1.501-6.817-3.907l-1.507,3.611h-4.208V124.599z
			 M119.38,152.225c-0.154,2.104,1.101,3.261,2.658,3.261c2.251,0,2.553-2.258,2.553-6.923v-1.907c0-5.009,0-7.618-2.504-7.618
			c-1.003,0-1.753,0.603-2.258,1.003l-0.449,0.449V152.225z"/>
		<path clip-path="url(#SVGID_2_)" fill="#FFE799" d="M128.356,124.599h8.127v11.985h0.098c1.151-1.206,3.255-2.055,4.91-2.055
			c5.617,0,8.619,5.611,8.619,12.884c0,5.766-2.405,13.18-9.222,13.18c-3.156,0-5.211-1.501-6.816-3.907l-1.507,3.611h-4.208
			V124.599z M136.483,152.225c-0.154,2.104,1.101,3.261,2.651,3.261c2.258,0,2.56-2.258,2.56-6.923v-1.907
			c0-5.009,0-7.618-2.51-7.618c-1.003,0-1.753,0.603-2.251,1.003l-0.449,0.449V152.225z"/>
		<path clip-path="url(#SVGID_2_)" fill="#FFEBAD" d="M145.687,140.841h-3.31v-5.715h3.31v-2.806c0-6.165,3.058-8.422,8.422-8.422
			c1.6,0,2.805,0.154,4.11,0.301v6.214c-0.449-0.099-1.052-0.197-1.501-0.197c-2.061,0-2.91,0.652-2.91,2.153v2.756h4.411v5.715
			h-4.411v19.456h-8.121V140.841z"/>
		<path clip-path="url(#SVGID_2_)" fill="#FFEFC0" d="M166.598,144.501c0-1.002-0.055-2.202-0.406-3.156
			c-0.4-1.003-1.052-1.704-2.356-1.704c-2.707,0-3.008,3.304-3.008,8.319c0,5.667,0.904,7.525,3.008,7.525
			c2.861,0,3.107-2.91,3.107-4.818l6.318,0.906c-0.603,6.115-4.11,9.327-10.028,9.327c-7.315,0-11.123-6.423-11.123-12.638
			c0-6.868,3.808-13.733,11.48-13.733c8.619,0,9.923,7.463,9.923,9.973H166.598z"/>
		<path clip-path="url(#SVGID_2_)" fill="#FFF3D4" d="M170.05,144.52c1.803,0,3.273,1.47,3.273,3.274
			c0,1.796-1.47,3.273-3.273,3.273s-3.267-1.477-3.267-3.273C166.783,145.99,168.247,144.52,170.05,144.52z"/>
		<path clip-path="url(#SVGID_2_)" fill="#FFE387" d="M39.063,124.599h8.121v11.985h0.099c1.156-1.206,3.261-2.055,4.916-2.055
			c5.617,0,8.625,5.611,8.625,12.884c0,5.766-2.406,13.18-9.229,13.18c-3.156,0-5.211-1.501-6.816-3.907l-1.501,3.611h-4.214
			V124.599z M47.184,152.225c-0.147,2.104,1.107,3.261,2.658,3.261c2.252,0,2.56-2.258,2.56-6.923v-1.907
			c0-5.009,0-7.618-2.51-7.618c-1.003,0-1.753,0.603-2.251,1.003l-0.456,0.449V152.225z"/>
		<path clip-path="url(#SVGID_2_)" fill="#FFE799" d="M56.167,124.599h8.121v11.985h0.099c1.15-1.206,3.261-2.055,4.916-2.055
			c5.611,0,8.619,5.611,8.619,12.884c0,5.766-2.405,13.18-9.222,13.18c-3.162,0-5.217-1.501-6.823-3.907l-1.501,3.611h-4.208
			V124.599z M64.287,152.225c-0.154,2.104,1.102,3.261,2.658,3.261c2.252,0,2.553-2.258,2.553-6.923v-1.907
			c0-5.009,0-7.618-2.504-7.618c-1.009,0-1.759,0.603-2.258,1.003l-0.449,0.449V152.225z"/>
		<path clip-path="url(#SVGID_2_)" fill="#FFEBAD" d="M73.491,140.841h-3.304v-5.715h3.304v-2.806c0-6.165,3.058-8.422,8.423-8.422
			c1.605,0,2.812,0.154,4.109,0.301v6.214c-0.449-0.099-1.052-0.197-1.501-0.197c-2.055,0-2.91,0.652-2.91,2.153v2.756h4.411v5.715
			h-4.411v19.456h-8.121V140.841z"/>
		<path clip-path="url(#SVGID_2_)" fill="#FFEFC0" d="M94.402,144.501c0-1.002-0.055-2.202-0.4-3.156
			c-0.406-1.003-1.058-1.704-2.356-1.704c-2.713,0-3.008,3.304-3.008,8.319c0,5.667,0.898,7.525,3.008,7.525
			c2.854,0,3.107-2.91,3.107-4.818l6.312,0.906c-0.597,6.115-4.109,9.327-10.021,9.327c-7.321,0-11.129-6.423-11.129-12.638
			c0-6.868,3.808-13.733,11.48-13.733c8.625,0,9.923,7.463,9.923,9.973H94.402z"/>
		<path clip-path="url(#SVGID_2_)" fill="#FFF3D4" d="M97.86,144.52c1.796,0,3.267,1.47,3.267,3.274c0,1.796-1.47,3.273-3.267,3.273
			c-1.809,0-3.273-1.477-3.273-3.273C94.587,145.99,96.051,144.52,97.86,144.52z"/>
		<path clip-path="url(#SVGID_2_)" fill="#FFE387" d="M255.641,124.599h8.121v11.985h0.098c1.157-1.206,3.261-2.055,4.916-2.055
			c5.617,0,8.625,5.611,8.625,12.884c0,5.766-2.412,13.18-9.228,13.18c-3.156,0-5.211-1.501-6.817-3.907l-1.501,3.611h-4.214
			V124.599z M263.762,152.225c-0.148,2.104,1.101,3.261,2.658,3.261c2.251,0,2.559-2.258,2.559-6.923v-1.907
			c0-5.009,0-7.618-2.51-7.618c-1.003,0-1.753,0.603-2.258,1.003l-0.449,0.449V152.225z"/>
		<path clip-path="url(#SVGID_2_)" fill="#FFE799" d="M272.744,124.599h8.121v11.985h0.099c1.15-1.206,3.254-2.055,4.916-2.055
			c5.611,0,8.619,5.611,8.619,12.884c0,5.766-2.406,13.18-9.222,13.18c-3.162,0-5.217-1.501-6.823-3.907l-1.501,3.611h-4.208
			V124.599z M280.865,152.225c-0.154,2.104,1.101,3.261,2.651,3.261c2.258,0,2.56-2.258,2.56-6.923v-1.907
			c0-5.009,0-7.618-2.504-7.618c-1.009,0-1.76,0.603-2.258,1.003l-0.449,0.449V152.225z"/>
		<path clip-path="url(#SVGID_2_)" fill="#FFEBAD" d="M290.068,140.841h-3.304v-5.715h3.304v-2.806c0-6.165,3.058-8.422,8.422-8.422
			c1.606,0,2.806,0.154,4.11,0.301v6.214c-0.449-0.099-1.052-0.197-1.501-0.197c-2.055,0-2.91,0.652-2.91,2.153v2.756h4.411v5.715
			h-4.411v19.456h-8.121V140.841z"/>
		<path clip-path="url(#SVGID_2_)" fill="#FFEFC0" d="M310.98,144.501c0-1.002-0.056-2.202-0.4-3.156
			c-0.406-1.003-1.058-1.704-2.362-1.704c-2.707,0-3.002,3.304-3.002,8.319c0,5.667,0.898,7.525,3.002,7.525
			c2.861,0,3.107-2.91,3.107-4.818l6.318,0.906c-0.597,6.115-4.11,9.327-10.022,9.327c-7.321,0-11.129-6.423-11.129-12.638
			c0-6.868,3.808-13.733,11.48-13.733c8.619,0,9.924,7.463,9.924,9.973H310.98z"/>
		<path clip-path="url(#SVGID_2_)" fill="#FFF3D4" d="M314.437,144.52c1.797,0,3.267,1.47,3.267,3.274
			c0,1.796-1.47,3.273-3.267,3.273c-1.809,0-3.272-1.477-3.272-3.273C311.165,145.99,312.628,144.52,314.437,144.52z"/>
		<path clip-path="url(#SVGID_2_)" fill="#FFE387" d="M328.28,124.599h8.127v11.985h0.099c1.156-1.206,3.254-2.055,4.909-2.055
			c5.617,0,8.625,5.611,8.625,12.884c0,5.766-2.405,13.18-9.222,13.18c-3.156,0-5.217-1.501-6.816-3.907l-1.507,3.611h-4.214
			V124.599z M336.407,152.225c-0.154,2.104,1.102,3.261,2.652,3.261c2.258,0,2.559-2.258,2.559-6.923v-1.907
			c0-5.009,0-7.618-2.51-7.618c-0.997,0-1.753,0.603-2.251,1.003l-0.449,0.449V152.225z"/>
		<path clip-path="url(#SVGID_2_)" fill="#FFE799" d="M345.383,124.599h8.121v11.985h0.098c1.157-1.206,3.261-2.055,4.916-2.055
			c5.617,0,8.619,5.611,8.619,12.884c0,5.766-2.406,13.18-9.222,13.18c-3.156,0-5.211-1.501-6.817-3.907l-1.507,3.611h-4.208
			V124.599z M353.504,152.225c-0.148,2.104,1.107,3.261,2.658,3.261c2.251,0,2.559-2.258,2.559-6.923v-1.907
			c0-5.009,0-7.618-2.51-7.618c-1.002,0-1.753,0.603-2.251,1.003l-0.455,0.449V152.225z"/>
		<path clip-path="url(#SVGID_2_)" fill="#FFEBAD" d="M362.713,140.841h-3.31v-5.715h3.31v-2.806c0-6.165,3.058-8.422,8.423-8.422
			c1.599,0,2.805,0.154,4.109,0.301v6.214c-0.449-0.099-1.052-0.197-1.507-0.197c-2.055,0-2.904,0.652-2.904,2.153v2.756h4.411
			v5.715h-4.411v19.456h-8.121V140.841z"/>
		<path clip-path="url(#SVGID_2_)" fill="#FFEFC0" d="M383.619,144.501c0-1.002-0.049-2.202-0.4-3.156
			c-0.4-1.003-1.052-1.704-2.356-1.704c-2.707,0-3.009,3.304-3.009,8.319c0,5.667,0.904,7.525,3.009,7.525
			c2.854,0,3.106-2.91,3.106-4.818l6.318,0.906c-0.603,6.115-4.116,9.327-10.028,9.327c-7.321,0-11.129-6.423-11.129-12.638
			c0-6.868,3.808-13.733,11.48-13.733c8.625,0,9.93,7.463,9.93,9.973H383.619z"/>
		<path clip-path="url(#SVGID_2_)" fill="#FFF3D4" d="M387.076,144.52c1.803,0,3.273,1.47,3.273,3.274
			c0,1.796-1.47,3.273-3.273,3.273c-1.809,0-3.273-1.477-3.273-3.273C383.803,145.99,385.268,144.52,387.076,144.52z"/>
		<path clip-path="url(#SVGID_2_)" fill="#FFE387" d="M183.449,83.465h8.121V95.45h0.098c1.157-1.206,3.261-2.055,4.916-2.055
			c5.617,0,8.625,5.611,8.625,12.883c0,5.764-2.405,13.184-9.228,13.184c-3.156,0-5.211-1.501-6.817-3.913l-1.501,3.611h-4.214
			V83.465z M191.57,111.088c-0.148,2.107,1.107,3.261,2.658,3.261c2.258,0,2.559-2.258,2.559-6.921v-1.904c0-5.011,0-7.62-2.51-7.62
			c-0.997,0-1.753,0.603-2.251,1.003l-0.455,0.452V111.088z"/>
		<path clip-path="url(#SVGID_2_)" fill="#FFE799" d="M200.552,83.465h8.121V95.45h0.099c1.15-1.206,3.26-2.055,4.916-2.055
			c5.611,0,8.619,5.611,8.619,12.883c0,5.764-2.406,13.184-9.222,13.184c-3.162,0-5.217-1.501-6.823-3.913l-1.501,3.611h-4.208
			V83.465z M208.673,111.088c-0.154,2.107,1.101,3.261,2.658,3.261c2.251,0,2.553-2.258,2.553-6.921v-1.904
			c0-5.011,0-7.62-2.504-7.62c-1.003,0-1.753,0.603-2.258,1.003l-0.449,0.452V111.088z"/>
		<path clip-path="url(#SVGID_2_)" fill="#FFEBAD" d="M217.877,99.707h-3.304v-5.712h3.304v-2.809c0-6.164,3.058-8.422,8.422-8.422
			c1.604,0,2.81,0.154,4.114,0.302v6.217c-0.455-0.102-1.058-0.2-1.507-0.2c-2.053,0-2.908,0.652-2.908,2.153v2.759h4.416v5.712
			h-4.416v19.453h-8.121V99.707z"/>
		<path clip-path="url(#SVGID_2_)" fill="#FFEFC0" d="M238.785,103.368c0-1-0.055-2.203-0.4-3.156
			c-0.406-1.003-1.052-1.704-2.354-1.704c-2.713,0-3.009,3.307-3.009,8.318c0,5.666,0.898,7.524,3.009,7.524
			c2.853,0,3.105-2.91,3.105-4.817l6.311,0.904c-0.596,6.115-4.108,9.327-10.019,9.327c-7.321,0-11.128-6.42-11.128-12.634
			c0-6.869,3.807-13.734,11.479-13.734c8.624,0,9.92,7.465,9.92,9.973H238.785z"/>
		<path clip-path="url(#SVGID_2_)" fill="#FFF3D4" d="M242.243,103.386c1.796,0,3.266,1.47,3.266,3.273
			c0,1.799-1.469,3.273-3.266,3.273c-1.809,0-3.273-1.474-3.273-3.273C238.97,104.856,240.434,103.386,242.243,103.386z"/>
		<path clip-path="url(#SVGID_2_)" fill="#FFE387" d="M111.259,83.465h8.121V95.45h0.098c1.157-1.206,3.261-2.055,4.916-2.055
			c5.611,0,8.62,5.611,8.62,12.883c0,5.764-2.406,13.184-9.222,13.184c-3.156,0-5.217-1.501-6.817-3.913l-1.507,3.611h-4.208V83.465
			z M119.38,111.088c-0.154,2.107,1.101,3.261,2.658,3.261c2.251,0,2.553-2.258,2.553-6.921v-1.904c0-5.011,0-7.62-2.504-7.62
			c-1.003,0-1.753,0.603-2.258,1.003l-0.449,0.452V111.088z"/>
		<path clip-path="url(#SVGID_2_)" fill="#FFE799" d="M128.356,83.465h8.127V95.45h0.098c1.151-1.206,3.255-2.055,4.91-2.055
			c5.617,0,8.619,5.611,8.619,12.883c0,5.764-2.405,13.184-9.222,13.184c-3.156,0-5.211-1.501-6.816-3.913l-1.507,3.611h-4.208
			V83.465z M136.483,111.088c-0.154,2.107,1.101,3.261,2.651,3.261c2.258,0,2.56-2.258,2.56-6.921v-1.904c0-5.011,0-7.62-2.51-7.62
			c-1.003,0-1.753,0.603-2.251,1.003l-0.449,0.452V111.088z"/>
		<path clip-path="url(#SVGID_2_)" fill="#FFEBAD" d="M145.687,99.707h-3.31v-5.712h3.31v-2.809c0-6.164,3.058-8.422,8.422-8.422
			c1.6,0,2.805,0.154,4.11,0.302v6.217c-0.449-0.102-1.052-0.2-1.501-0.2c-2.061,0-2.91,0.652-2.91,2.153v2.759h4.411v5.712h-4.411
			v19.453h-8.121V99.707z"/>
		<path clip-path="url(#SVGID_2_)" fill="#FFEFC0" d="M166.598,103.368c0-1-0.055-2.203-0.406-3.156
			c-0.4-1.003-1.052-1.704-2.356-1.704c-2.707,0-3.008,3.307-3.008,8.318c0,5.666,0.904,7.524,3.008,7.524
			c2.861,0,3.107-2.91,3.107-4.817l6.318,0.904c-0.603,6.115-4.11,9.327-10.028,9.327c-7.315,0-11.123-6.42-11.123-12.634
			c0-6.869,3.808-13.734,11.48-13.734c8.619,0,9.923,7.465,9.923,9.973H166.598z"/>
		<path clip-path="url(#SVGID_2_)" fill="#FFF3D4" d="M170.05,103.386c1.803,0,3.273,1.47,3.273,3.273
			c0,1.799-1.47,3.273-3.273,3.273s-3.267-1.474-3.267-3.273C166.783,104.856,168.247,103.386,170.05,103.386z"/>
		<path clip-path="url(#SVGID_2_)" fill="#FFE387" d="M39.063,83.465h8.121V95.45h0.099c1.156-1.206,3.261-2.055,4.916-2.055
			c5.617,0,8.625,5.611,8.625,12.883c0,5.764-2.406,13.184-9.229,13.184c-3.156,0-5.211-1.501-6.816-3.913l-1.501,3.611h-4.214
			V83.465z M47.184,111.088c-0.147,2.107,1.107,3.261,2.658,3.261c2.252,0,2.56-2.258,2.56-6.921v-1.904c0-5.011,0-7.62-2.51-7.62
			c-1.003,0-1.753,0.603-2.251,1.003l-0.456,0.452V111.088z"/>
		<path clip-path="url(#SVGID_2_)" fill="#FFE799" d="M56.167,83.465h8.121V95.45h0.099c1.15-1.206,3.261-2.055,4.916-2.055
			c5.611,0,8.619,5.611,8.619,12.883c0,5.764-2.405,13.184-9.222,13.184c-3.162,0-5.217-1.501-6.823-3.913l-1.501,3.611h-4.208
			V83.465z M64.287,111.088c-0.154,2.107,1.102,3.261,2.658,3.261c2.252,0,2.553-2.258,2.553-6.921v-1.904
			c0-5.011,0-7.62-2.504-7.62c-1.009,0-1.759,0.603-2.258,1.003l-0.449,0.452V111.088z"/>
		<path clip-path="url(#SVGID_2_)" fill="#FFEBAD" d="M73.491,99.707h-3.304v-5.712h3.304v-2.809c0-6.164,3.058-8.422,8.423-8.422
			c1.605,0,2.812,0.154,4.109,0.302v6.217c-0.449-0.102-1.052-0.2-1.501-0.2c-2.055,0-2.91,0.652-2.91,2.153v2.759h4.411v5.712
			h-4.411v19.453h-8.121V99.707z"/>
		<path clip-path="url(#SVGID_2_)" fill="#FFEFC0" d="M94.402,103.368c0-1-0.055-2.203-0.4-3.156
			c-0.406-1.003-1.058-1.704-2.356-1.704c-2.713,0-3.008,3.307-3.008,8.318c0,5.666,0.898,7.524,3.008,7.524
			c2.854,0,3.107-2.91,3.107-4.817l6.312,0.904c-0.597,6.115-4.109,9.327-10.021,9.327c-7.321,0-11.129-6.42-11.129-12.634
			c0-6.869,3.808-13.734,11.48-13.734c8.625,0,9.923,7.465,9.923,9.973H94.402z"/>
		<path clip-path="url(#SVGID_2_)" fill="#FFF3D4" d="M97.86,103.386c1.796,0,3.267,1.47,3.267,3.273
			c0,1.799-1.47,3.273-3.267,3.273c-1.809,0-3.273-1.474-3.273-3.273C94.587,104.856,96.051,103.386,97.86,103.386z"/>
		<path clip-path="url(#SVGID_2_)" fill="#FFE387" d="M255.641,83.465h8.121V95.45h0.098c1.157-1.206,3.261-2.055,4.916-2.055
			c5.617,0,8.625,5.611,8.625,12.883c0,5.764-2.412,13.184-9.228,13.184c-3.156,0-5.211-1.501-6.817-3.913l-1.501,3.611h-4.214
			V83.465z M263.762,111.088c-0.148,2.107,1.101,3.261,2.658,3.261c2.251,0,2.559-2.258,2.559-6.921v-1.904
			c0-5.011,0-7.62-2.51-7.62c-1.003,0-1.753,0.603-2.258,1.003l-0.449,0.452V111.088z"/>
		<path clip-path="url(#SVGID_2_)" fill="#FFE799" d="M272.744,83.465h8.121V95.45h0.099c1.15-1.206,3.254-2.055,4.916-2.055
			c5.611,0,8.619,5.611,8.619,12.883c0,5.764-2.406,13.184-9.222,13.184c-3.162,0-5.217-1.501-6.823-3.913l-1.501,3.611h-4.208
			V83.465z M280.865,111.088c-0.154,2.107,1.101,3.261,2.651,3.261c2.258,0,2.56-2.258,2.56-6.921v-1.904c0-5.011,0-7.62-2.504-7.62
			c-1.009,0-1.76,0.603-2.258,1.003l-0.449,0.452V111.088z"/>
		<path clip-path="url(#SVGID_2_)" fill="#FFEBAD" d="M290.068,99.707h-3.304v-5.712h3.304v-2.809c0-6.164,3.058-8.422,8.422-8.422
			c1.606,0,2.806,0.154,4.11,0.302v6.217c-0.449-0.102-1.052-0.2-1.501-0.2c-2.055,0-2.91,0.652-2.91,2.153v2.759h4.411v5.712
			h-4.411v19.453h-8.121V99.707z"/>
		<path clip-path="url(#SVGID_2_)" fill="#FFEFC0" d="M310.98,103.368c0-1-0.056-2.203-0.4-3.156
			c-0.406-1.003-1.058-1.704-2.362-1.704c-2.707,0-3.002,3.307-3.002,8.318c0,5.666,0.898,7.524,3.002,7.524
			c2.861,0,3.107-2.91,3.107-4.817l6.318,0.904c-0.597,6.115-4.11,9.327-10.022,9.327c-7.321,0-11.129-6.42-11.129-12.634
			c0-6.869,3.808-13.734,11.48-13.734c8.619,0,9.924,7.465,9.924,9.973H310.98z"/>
		<path clip-path="url(#SVGID_2_)" fill="#FFF3D4" d="M314.437,103.386c1.797,0,3.267,1.47,3.267,3.273
			c0,1.799-1.47,3.273-3.267,3.273c-1.809,0-3.272-1.474-3.272-3.273C311.165,104.856,312.628,103.386,314.437,103.386z"/>
		<path clip-path="url(#SVGID_2_)" fill="#FFE387" d="M328.28,83.465h8.127V95.45h0.099c1.156-1.206,3.254-2.055,4.909-2.055
			c5.617,0,8.625,5.611,8.625,12.883c0,5.764-2.405,13.184-9.222,13.184c-3.156,0-5.217-1.501-6.816-3.913l-1.507,3.611h-4.214
			V83.465z M336.407,111.088c-0.154,2.107,1.102,3.261,2.652,3.261c2.258,0,2.559-2.258,2.559-6.921v-1.904
			c0-5.011,0-7.62-2.51-7.62c-0.997,0-1.753,0.603-2.251,1.003l-0.449,0.452V111.088z"/>
		<path clip-path="url(#SVGID_2_)" fill="#FFE799" d="M345.383,83.465h8.121V95.45h0.098c1.157-1.206,3.261-2.055,4.916-2.055
			c5.617,0,8.619,5.611,8.619,12.883c0,5.764-2.406,13.184-9.222,13.184c-3.156,0-5.211-1.501-6.817-3.913l-1.507,3.611h-4.208
			V83.465z M353.504,111.088c-0.148,2.107,1.107,3.261,2.658,3.261c2.251,0,2.559-2.258,2.559-6.921v-1.904
			c0-5.011,0-7.62-2.51-7.62c-1.002,0-1.753,0.603-2.251,1.003l-0.455,0.452V111.088z"/>
		<path clip-path="url(#SVGID_2_)" fill="#FFEBAD" d="M362.713,99.707h-3.31v-5.712h3.31v-2.809c0-6.164,3.058-8.422,8.423-8.422
			c1.599,0,2.805,0.154,4.109,0.302v6.217c-0.449-0.102-1.052-0.2-1.507-0.2c-2.055,0-2.904,0.652-2.904,2.153v2.759h4.411v5.712
			h-4.411v19.453h-8.121V99.707z"/>
		<path clip-path="url(#SVGID_2_)" fill="#FFEFC0" d="M383.619,103.368c0-1-0.049-2.203-0.4-3.156
			c-0.4-1.003-1.052-1.704-2.356-1.704c-2.707,0-3.009,3.307-3.009,8.318c0,5.666,0.904,7.524,3.009,7.524
			c2.854,0,3.106-2.91,3.106-4.817l6.318,0.904c-0.603,6.115-4.116,9.327-10.028,9.327c-7.321,0-11.129-6.42-11.129-12.634
			c0-6.869,3.808-13.734,11.48-13.734c8.625,0,9.93,7.465,9.93,9.973H383.619z"/>
		<path clip-path="url(#SVGID_2_)" fill="#FFF3D4" d="M387.076,103.386c1.803,0,3.273,1.47,3.273,3.273
			c0,1.799-1.47,3.273-3.273,3.273c-1.809,0-3.273-1.474-3.273-3.273C383.803,104.856,385.268,103.386,387.076,103.386z"/>
		<path clip-path="url(#SVGID_2_)" fill="#FFE387" d="M183.449,42.332h8.121v11.984h0.098c1.157-1.206,3.261-2.055,4.916-2.055
			c5.617,0,8.625,5.614,8.625,12.883c0,5.765-2.405,13.184-9.228,13.184c-3.156,0-5.211-1.501-6.817-3.913l-1.501,3.611h-4.214
			V42.332z M191.57,69.955c-0.148,2.107,1.107,3.261,2.658,3.261c2.258,0,2.559-2.258,2.559-6.921V64.39c0-5.011,0-7.619-2.51-7.619
			c-0.997,0-1.753,0.603-2.251,1.002l-0.455,0.456V69.955z"/>
		<path clip-path="url(#SVGID_2_)" fill="#FFE799" d="M200.552,42.332h8.121v11.984h0.099c1.15-1.206,3.26-2.055,4.916-2.055
			c5.611,0,8.619,5.614,8.619,12.883c0,5.765-2.406,13.184-9.222,13.184c-3.162,0-5.217-1.501-6.823-3.913l-1.501,3.611h-4.208
			V42.332z M208.673,69.955c-0.154,2.107,1.101,3.261,2.658,3.261c2.251,0,2.553-2.258,2.553-6.921V64.39
			c0-5.011,0-7.619-2.504-7.619c-1.003,0-1.753,0.603-2.258,1.002l-0.449,0.456V69.955z"/>
		<path clip-path="url(#SVGID_2_)" fill="#FFEBAD" d="M217.877,58.573h-3.304v-5.709h3.304v-2.812c0-6.165,3.058-8.419,8.422-8.419
			c1.604,0,2.81,0.151,4.114,0.298v6.217c-0.455-0.102-1.058-0.2-1.507-0.2c-2.053,0-2.908,0.652-2.908,2.153v2.762h4.416v5.709
			h-4.416v19.454h-8.121V58.573z"/>
		<path clip-path="url(#SVGID_2_)" fill="#FFEFC0" d="M238.785,62.234c0-1-0.055-2.202-0.4-3.156
			c-0.406-1.002-1.052-1.704-2.354-1.704c-2.713,0-3.009,3.31-3.009,8.321c0,5.663,0.898,7.521,3.009,7.521
			c2.853,0,3.105-2.907,3.105-4.817l6.311,0.904c-0.596,6.115-4.108,9.327-10.019,9.327c-7.321,0-11.128-6.417-11.128-12.63
			c0-6.872,3.807-13.738,11.479-13.738c8.624,0,9.92,7.466,9.92,9.973H238.785z"/>
		<path clip-path="url(#SVGID_2_)" fill="#FFF3D4" d="M242.243,62.252c1.796,0,3.266,1.47,3.266,3.273
			c0,1.799-1.469,3.276-3.266,3.276c-1.809,0-3.273-1.477-3.273-3.276C238.97,63.723,240.434,62.252,242.243,62.252z"/>
		<path clip-path="url(#SVGID_2_)" fill="#FFE387" d="M111.259,42.332h8.121v11.984h0.098c1.157-1.206,3.261-2.055,4.916-2.055
			c5.611,0,8.62,5.614,8.62,12.883c0,5.765-2.406,13.184-9.222,13.184c-3.156,0-5.217-1.501-6.817-3.913l-1.507,3.611h-4.208V42.332
			z M119.38,69.955c-0.154,2.107,1.101,3.261,2.658,3.261c2.251,0,2.553-2.258,2.553-6.921V64.39c0-5.011,0-7.619-2.504-7.619
			c-1.003,0-1.753,0.603-2.258,1.002l-0.449,0.456V69.955z"/>
		<path clip-path="url(#SVGID_2_)" fill="#FFE799" d="M128.356,42.332h8.127v11.984h0.098c1.151-1.206,3.255-2.055,4.91-2.055
			c5.617,0,8.619,5.614,8.619,12.883c0,5.765-2.405,13.184-9.222,13.184c-3.156,0-5.211-1.501-6.816-3.913l-1.507,3.611h-4.208
			V42.332z M136.483,69.955c-0.154,2.107,1.101,3.261,2.651,3.261c2.258,0,2.56-2.258,2.56-6.921V64.39c0-5.011,0-7.619-2.51-7.619
			c-1.003,0-1.753,0.603-2.251,1.002l-0.449,0.456V69.955z"/>
		<path clip-path="url(#SVGID_2_)" fill="#FFEBAD" d="M145.687,58.573h-3.31v-5.709h3.31v-2.812c0-6.165,3.058-8.419,8.422-8.419
			c1.6,0,2.805,0.151,4.11,0.298v6.217c-0.449-0.102-1.052-0.2-1.501-0.2c-2.061,0-2.91,0.652-2.91,2.153v2.762h4.411v5.709h-4.411
			v19.454h-8.121V58.573z"/>
		<path clip-path="url(#SVGID_2_)" fill="#FFEFC0" d="M166.598,62.234c0-1-0.055-2.202-0.406-3.156
			c-0.4-1.002-1.052-1.704-2.356-1.704c-2.707,0-3.008,3.31-3.008,8.321c0,5.663,0.904,7.521,3.008,7.521
			c2.861,0,3.107-2.907,3.107-4.817l6.318,0.904c-0.603,6.115-4.11,9.327-10.028,9.327c-7.315,0-11.123-6.417-11.123-12.63
			c0-6.872,3.808-13.738,11.48-13.738c8.619,0,9.923,7.466,9.923,9.973H166.598z"/>
		<path clip-path="url(#SVGID_2_)" fill="#FFF3D4" d="M170.05,62.252c1.803,0,3.273,1.47,3.273,3.273
			c0,1.799-1.47,3.276-3.273,3.276s-3.267-1.477-3.267-3.276C166.783,63.723,168.247,62.252,170.05,62.252z"/>
		<path clip-path="url(#SVGID_2_)" fill="#FFE387" d="M255.641,42.332h8.121v11.984h0.098c1.157-1.206,3.261-2.055,4.916-2.055
			c5.617,0,8.625,5.614,8.625,12.883c0,5.765-2.412,13.184-9.228,13.184c-3.156,0-5.211-1.501-6.817-3.913l-1.501,3.611h-4.214
			V42.332z M263.762,69.955c-0.148,2.107,1.101,3.261,2.658,3.261c2.251,0,2.559-2.258,2.559-6.921V64.39
			c0-5.011,0-7.619-2.51-7.619c-1.003,0-1.753,0.603-2.258,1.002l-0.449,0.456V69.955z"/>
		<path clip-path="url(#SVGID_2_)" fill="#FFE799" d="M272.744,42.332h8.121v11.984h0.099c1.15-1.206,3.254-2.055,4.916-2.055
			c5.611,0,8.619,5.614,8.619,12.883c0,5.765-2.406,13.184-9.222,13.184c-3.162,0-5.217-1.501-6.823-3.913l-1.501,3.611h-4.208
			V42.332z M280.865,69.955c-0.154,2.107,1.101,3.261,2.651,3.261c2.258,0,2.56-2.258,2.56-6.921V64.39c0-5.011,0-7.619-2.504-7.619
			c-1.009,0-1.76,0.603-2.258,1.002l-0.449,0.456V69.955z"/>
		<path clip-path="url(#SVGID_2_)" fill="#FFEBAD" d="M290.068,58.573h-3.304v-5.709h3.304v-2.812c0-6.165,3.058-8.419,8.422-8.419
			c1.606,0,2.806,0.151,4.11,0.298v6.217c-0.449-0.102-1.052-0.2-1.501-0.2c-2.055,0-2.91,0.652-2.91,2.153v2.762h4.411v5.709
			h-4.411v19.454h-8.121V58.573z"/>
		<path clip-path="url(#SVGID_2_)" fill="#FFEFC0" d="M310.98,62.234c0-1-0.056-2.202-0.4-3.156
			c-0.406-1.002-1.058-1.704-2.362-1.704c-2.707,0-3.002,3.31-3.002,8.321c0,5.663,0.898,7.521,3.002,7.521
			c2.861,0,3.107-2.907,3.107-4.817l6.318,0.904c-0.597,6.115-4.11,9.327-10.022,9.327c-7.321,0-11.129-6.417-11.129-12.63
			c0-6.872,3.808-13.738,11.48-13.738c8.619,0,9.924,7.466,9.924,9.973H310.98z"/>
		<path clip-path="url(#SVGID_2_)" fill="#FFF3D4" d="M314.437,62.252c1.797,0,3.267,1.47,3.267,3.273
			c0,1.799-1.47,3.276-3.267,3.276c-1.809,0-3.272-1.477-3.272-3.276C311.165,63.723,312.628,62.252,314.437,62.252z"/>
	</g>
	<path fill="#231F20" d="M192.684,258.908h-17.226v40.884h-28.165V185.189h45.391c6.606,0,12.42,1.215,17.406,3.347l9.264,14.076
		l6.912-0.28c3.65,5.879,5.526,12.744,5.526,19.715C231.792,240.881,218.117,258.908,192.684,258.908z M191.398,210.458h-15.94
		v23.179h15.94c7.721,0,12.23-5.632,12.23-11.591C203.628,216.091,199.119,210.458,191.398,210.458z"/>
	<path fill="#231F20" d="M301.973,287.881c-9.819,10.139-20.764,12.876-33.32,12.876c-13.363,0-23.5-4.509-31.867-12.876
		c-12.074-12.07-11.587-28.171-11.587-45.391c0-17.227-0.486-33.32,11.587-45.392c8.367-8.373,18.024-12.876,31.867-12.876
		c29.457,0,42.007,19.151,44.745,37.983h-28.331c-2.252-8.693-6.755-12.877-16.414-12.877c-5.149,0-9.013,2.252-11.105,4.99
		c-2.578,3.383-4.189,7.247-4.189,28.171c0,20.923,1.612,24.946,4.189,28.33c2.092,2.732,5.956,4.823,11.105,4.823
		c5.955,0,9.979-1.766,12.557-4.503c3.217-3.218,4.343-7.887,4.343-12.236v-1.606h-16.9v-23.501h44.905v15.935
		C313.558,268.244,310.66,279.028,301.973,287.881z"/>
	<path fill="#FFFFFF" d="M183.754,249.978h-17.223v40.887h-28.168V176.262h45.391c25.433,0,39.112,18.025,39.112,36.857
		S209.187,249.978,183.754,249.978z M182.468,201.529h-15.937v23.182h15.937c7.724,0,12.234-5.636,12.234-11.591
		S190.192,201.529,182.468,201.529z"/>
	<path fill="#FFFFFF" d="M293.043,278.952c-9.819,10.142-20.764,12.876-33.32,12.876c-13.359,0-23.495-4.506-31.865-12.876
		c-12.072-12.071-11.589-28.168-11.589-45.392c0-17.223-0.483-33.316,11.589-45.391c8.37-8.37,18.023-12.877,31.865-12.877
		c29.457,0,42.007,19.155,44.745,37.987H276.14c-2.251-8.693-6.758-12.877-16.417-12.877c-5.149,0-9.013,2.252-11.104,4.989
		c-2.575,3.381-4.185,7.241-4.185,28.168s1.61,24.95,4.185,28.328c2.091,2.738,5.955,4.829,11.104,4.829
		c5.956,0,9.982-1.769,12.557-4.506c3.218-3.218,4.347-7.888,4.347-12.233v-1.609h-16.903v-23.498h44.905v15.934
		C304.627,259.314,301.73,270.098,293.043,278.952z"/>
</g>
</svg>
