<?xml version="1.0" encoding="utf-8"?>
<!-- Generator: Adobe Illustrator 16.0.0, SVG Export Plug-In . SVG Version: 6.00 Build 0)  -->
<!DOCTYPE svg PUBLIC "-//W3C//DTD SVG 1.1//EN" "http://www.w3.org/Graphics/SVG/1.1/DTD/svg11.dtd">
<svg version="1.1" id="Layer_1" xmlns="http://www.w3.org/2000/svg" xmlns:xlink="http://www.w3.org/1999/xlink" x="0px" y="0px"
	 width="362.508px" height="362.514px" viewBox="0 0 362.508 362.514" enable-background="new 0 0 362.508 362.514"
	 xml:space="preserve">
<g>
	<path fill="#FFFFFF" d="M359.83,181.258c0,98.625-79.954,178.58-178.574,178.58c-98.625,0-178.579-79.954-178.579-178.58
		c0-98.626,79.954-178.58,178.579-178.58C279.876,2.678,359.83,82.632,359.83,181.258z"/>
	<path fill="#231F20" d="M359.83,181.258h-2.678c-0.001,48.581-19.684,92.542-51.52,124.382
		c-31.839,31.834-75.797,51.519-124.376,51.521c-48.581-0.003-92.54-19.688-124.381-51.521
		C25.04,273.799,5.357,229.838,5.356,181.258c0.001-48.583,19.684-92.542,51.52-124.382c31.841-31.836,75.8-51.519,124.381-51.52
		c48.579,0.001,92.537,19.684,124.376,51.52c31.836,31.841,51.519,75.8,51.52,124.382H359.83h2.678
		C362.506,81.152,281.356,0.001,181.256,0C81.152,0.001,0.001,81.152,0,181.258c0.001,100.105,81.152,181.256,181.256,181.256
		c100.1,0,181.25-81.151,181.251-181.256H359.83z"/>
	<path fill="#F68A39" d="M341.97,181.258c0,88.764-71.956,160.72-160.714,160.72c-88.763,0-160.719-71.956-160.719-160.72
		s71.956-160.72,160.719-160.72C270.014,20.538,341.97,92.494,341.97,181.258z"/>
	<path fill="#F68A39" d="M165.543,352.523c-1.741-0.16-2.854-1.489-2.676-3.452c0.179-1.969,1.507-3.075,3.254-2.916
		c1.748,0.154,2.855,1.483,2.677,3.452C168.62,351.569,167.291,352.676,165.543,352.523z M166.86,350.092
		c-0.092,0.511-0.517,0.708-1.033,0.658c-0.671-0.055-1.052-0.713-0.979-1.525c0.08-0.867,0.511-1.359,1.212-1.298
		c0.462,0.043,0.874,0.271,0.923,0.806l1.046,0.092c-0.086-1.181-0.843-1.857-1.876-1.95c-1.458-0.129-2.455,0.831-2.584,2.258
		c-0.123,1.385,0.726,2.548,2.166,2.677c0.997,0.086,1.944-0.455,2.215-1.618L166.86,350.092z M161.526,348.948
		c-0.209,2.369,1.544,4.479,3.919,4.694c2.369,0.216,4.479-1.544,4.694-3.919c0.215-2.368-1.544-4.479-3.919-4.688
		C163.852,344.82,161.742,346.574,161.526,348.948z"/>
	<path fill="#F68A39" d="M170.41,353.901l6.786,0.283l0.086-1.981l-3.771-0.16v-0.024l2.338-1.458
		c0.879-0.535,1.563-1.255,1.605-2.301c0.043-1.003-0.621-2.522-3.187-2.627c-1.925-0.08-3.137,0.917-3.617,1.987l1.686,0.953
		c0.271-0.72,0.874-1.396,1.698-1.365c0.627,0.03,1.04,0.442,1.015,1.082c-0.025,0.572-0.745,1.237-1.12,1.52l-3.452,2.572
		L170.41,353.901z"/>
	<path fill="#F68A39" d="M183.225,350.055c0.012,2.24-0.461,2.707-1.175,2.707c-0.72,0.007-1.193-0.455-1.206-2.694
		c-0.006-2.239,0.461-2.701,1.181-2.707C182.739,347.361,183.219,347.823,183.225,350.055z M178.402,350.081
		c0.006,2.725,1.568,4.281,3.654,4.27c2.085-0.007,3.63-1.581,3.617-4.301c-0.006-1.734-0.91-4.288-3.654-4.275
		C179.275,345.786,178.389,348.351,178.402,350.081z"/>
	<path fill="#F68A39" d="M190.958,349.797c0.11,2.233-0.345,2.719-1.059,2.756c-0.713,0.031-1.212-0.406-1.322-2.639
		c-0.111-2.24,0.338-2.726,1.058-2.757C190.349,347.121,190.848,347.558,190.958,349.797z M186.135,350.031
		c0.135,2.72,1.766,4.208,3.845,4.104c2.08-0.099,3.556-1.741,3.421-4.46c-0.086-1.729-1.102-4.239-3.845-4.104
		C186.812,345.706,186.049,348.302,186.135,350.031z"/>
	<path fill="#F68A39" d="M194.428,353.741l6.761-0.64l-0.191-1.981l-3.753,0.357v-0.019l2.11-1.766
		c0.806-0.652,1.384-1.458,1.28-2.498c-0.092-1.003-0.959-2.412-3.513-2.172c-1.925,0.185-2.99,1.335-3.31,2.467l1.796,0.714
		c0.172-0.75,0.677-1.507,1.495-1.581c0.627-0.062,1.095,0.296,1.157,0.929c0.049,0.572-0.572,1.329-0.911,1.661l-3.064,3.015
		L194.428,353.741z"/>
	<g>
		<defs>
			<path id="SVGID_7_" d="M341.97,181.258c0,88.764-71.956,160.72-160.714,160.72c-88.763,0-160.719-71.956-160.719-160.72
				s71.956-160.72,160.719-160.72C270.014,20.538,341.97,92.494,341.97,181.258z"/>
		</defs>
		<clipPath id="SVGID_2_">
			<use xlink:href="#SVGID_7_"  overflow="visible"/>
		</clipPath>
		<path clip-path="url(#SVGID_2_)" fill="#FBB580" d="M151.424,308.011h8.121v11.984h0.098c1.157-1.205,3.261-2.061,4.916-2.061
			c5.617,0,8.625,5.617,8.625,12.889c0,5.759-2.406,13.178-9.228,13.178c-3.156,0-5.217-1.501-6.817-3.906l-1.507,3.605h-4.208
			V308.011z M159.545,335.635c-0.154,2.104,1.101,3.254,2.657,3.254c2.252,0,2.554-2.258,2.554-6.921v-1.901
			c0-5.014,0-7.622-2.504-7.622c-1.003,0-1.754,0.608-2.258,1.009l-0.449,0.449V335.635z"/>
		<path clip-path="url(#SVGID_2_)" fill="#FCC092" d="M168.527,308.011h8.121v11.984h0.098c1.15-1.205,3.261-2.061,4.916-2.061
			c5.61,0,8.619,5.617,8.619,12.889c0,5.759-2.406,13.178-9.222,13.178c-3.163,0-5.217-1.501-6.823-3.906l-1.501,3.605h-4.208
			V308.011z M176.648,335.635c-0.154,2.104,1.101,3.254,2.658,3.254c2.251,0,2.553-2.258,2.553-6.921v-1.901
			c0-5.014,0-7.622-2.504-7.622c-1.002,0-1.753,0.608-2.258,1.009l-0.449,0.449V335.635z"/>
		<path clip-path="url(#SVGID_2_)" fill="#FDCCA6" d="M185.852,324.248h-3.304v-5.71h3.304v-2.805c0-6.165,3.058-8.429,8.422-8.429
			c1.606,0,2.812,0.153,4.116,0.308v6.214c-0.455-0.104-1.058-0.203-1.507-0.203c-2.055,0-2.91,0.651-2.91,2.159v2.756h4.417v5.71
			h-4.417v19.453h-8.121V324.248z"/>
		<path clip-path="url(#SVGID_2_)" fill="#FED8B9" d="M206.762,327.914c0-1.003-0.055-2.208-0.4-3.156
			c-0.406-1.009-1.052-1.704-2.356-1.704c-2.711,0-3.007,3.304-3.007,8.318c0,5.666,0.898,7.518,3.007,7.518
			c2.855,0,3.107-2.903,3.107-4.811l6.311,0.898c-0.597,6.115-4.108,9.326-10.021,9.326c-7.32,0-11.128-6.417-11.128-12.631
			c0-6.865,3.808-13.737,11.479-13.737c8.624,0,9.922,7.469,9.922,9.979H206.762z"/>
		<path clip-path="url(#SVGID_2_)" fill="#FEE4CE" d="M210.219,327.932c1.795,0,3.266,1.471,3.266,3.273
			c0,1.796-1.471,3.272-3.266,3.272c-1.809,0-3.273-1.477-3.273-3.272C206.946,329.403,208.411,327.932,210.219,327.932z"/>
		<path clip-path="url(#SVGID_2_)" fill="#FBB580" d="M151.424,266.877h8.121v11.984h0.098c1.157-1.205,3.261-2.055,4.916-2.055
			c5.617,0,8.625,5.611,8.625,12.883c0,5.765-2.406,13.179-9.228,13.179c-3.156,0-5.217-1.502-6.817-3.907l-1.507,3.605h-4.208
			V266.877z M159.545,294.501c-0.154,2.104,1.101,3.254,2.657,3.254c2.252,0,2.554-2.251,2.554-6.915v-1.907
			c0-5.014,0-7.616-2.504-7.616c-1.003,0-1.754,0.604-2.258,1.003l-0.449,0.449V294.501z"/>
		<path clip-path="url(#SVGID_2_)" fill="#FCC092" d="M168.527,266.877h8.121v11.984h0.098c1.15-1.205,3.261-2.055,4.916-2.055
			c5.61,0,8.619,5.611,8.619,12.883c0,5.765-2.406,13.179-9.222,13.179c-3.163,0-5.217-1.502-6.823-3.907l-1.501,3.605h-4.208
			V266.877z M176.648,294.501c-0.154,2.104,1.101,3.254,2.658,3.254c2.251,0,2.553-2.251,2.553-6.915v-1.907
			c0-5.014,0-7.616-2.504-7.616c-1.002,0-1.753,0.604-2.258,1.003l-0.449,0.449V294.501z"/>
		<path clip-path="url(#SVGID_2_)" fill="#FDCCA6" d="M185.852,283.12h-3.304v-5.716h3.304v-2.805c0-6.165,3.058-8.423,8.422-8.423
			c1.606,0,2.812,0.154,4.116,0.302v6.214c-0.455-0.099-1.058-0.197-1.507-0.197c-2.055,0-2.91,0.646-2.91,2.153v2.756h4.417v5.716
			h-4.417v19.447h-8.121V283.12z"/>
		<path clip-path="url(#SVGID_2_)" fill="#FED8B9" d="M206.762,286.78c0-1.002-0.055-2.202-0.4-3.155
			c-0.406-1.01-1.052-1.704-2.356-1.704c-2.711,0-3.007,3.304-3.007,8.317c0,5.666,0.898,7.518,3.007,7.518
			c2.855,0,3.107-2.903,3.107-4.811l6.311,0.904c-0.597,6.115-4.108,9.327-10.021,9.327c-7.32,0-11.128-6.417-11.128-12.637
			c0-6.866,3.808-13.732,11.479-13.732c8.624,0,9.922,7.463,9.922,9.973H206.762z"/>
		<path clip-path="url(#SVGID_2_)" fill="#FEE4CE" d="M210.219,286.798c1.795,0,3.266,1.471,3.266,3.273
			c0,1.796-1.471,3.272-3.266,3.272c-1.809,0-3.273-1.477-3.273-3.272C206.946,288.269,208.411,286.798,210.219,286.798z"/>
		<path clip-path="url(#SVGID_2_)" fill="#FBB580" d="M151.424,225.745h8.121v11.978h0.098c1.157-1.205,3.261-2.055,4.916-2.055
			c5.617,0,8.625,5.617,8.625,12.883c0,5.765-2.406,13.185-9.228,13.185c-3.156,0-5.217-1.501-6.817-3.913l-1.507,3.617h-4.208
			V225.745z M159.545,253.362c-0.154,2.109,1.101,3.267,2.657,3.267c2.252,0,2.554-2.265,2.554-6.921V247.8
			c0-5.009,0-7.617-2.504-7.617c-1.003,0-1.754,0.597-2.258,1.003l-0.449,0.449V253.362z"/>
		<path clip-path="url(#SVGID_2_)" fill="#FCC092" d="M168.527,225.745h8.121v11.978h0.098c1.15-1.205,3.261-2.055,4.916-2.055
			c5.61,0,8.619,5.617,8.619,12.883c0,5.765-2.406,13.185-9.222,13.185c-3.163,0-5.217-1.501-6.823-3.913l-1.501,3.617h-4.208
			V225.745z M176.648,253.362c-0.154,2.109,1.101,3.267,2.658,3.267c2.251,0,2.553-2.265,2.553-6.921V247.8
			c0-5.009,0-7.617-2.504-7.617c-1.002,0-1.753,0.597-2.258,1.003l-0.449,0.449V253.362z"/>
		<path clip-path="url(#SVGID_2_)" fill="#FDCCA6" d="M185.852,241.986h-3.304v-5.715h3.304v-2.806c0-6.165,3.058-8.423,8.422-8.423
			c1.606,0,2.812,0.148,4.116,0.296v6.22c-0.455-0.104-1.058-0.203-1.507-0.203c-2.055,0-2.91,0.658-2.91,2.159v2.757h4.417v5.715
			h-4.417v19.453h-8.121V241.986z"/>
		<path clip-path="url(#SVGID_2_)" fill="#FED8B9" d="M206.762,245.64c0-0.996-0.055-2.202-0.4-3.155
			c-0.406-0.997-1.052-1.705-2.356-1.705c-2.711,0-3.007,3.311-3.007,8.324c0,5.66,0.898,7.524,3.007,7.524
			c2.855,0,3.107-2.91,3.107-4.823l6.311,0.904c-0.597,6.121-4.108,9.326-10.021,9.326c-7.32,0-11.128-6.416-11.128-12.63
			c0-6.872,3.808-13.738,11.479-13.738c8.624,0,9.922,7.469,9.922,9.973H206.762z"/>
		<path clip-path="url(#SVGID_2_)" fill="#FEE4CE" d="M210.219,245.659c1.795,0,3.266,1.471,3.266,3.279
			c0,1.797-1.471,3.273-3.266,3.273c-1.809,0-3.273-1.477-3.273-3.273C206.946,247.129,208.411,245.659,210.219,245.659z"/>
		<path clip-path="url(#SVGID_2_)" fill="#FBB580" d="M151.424,184.617h8.121v11.979h0.098c1.157-1.2,3.261-2.055,4.916-2.055
			c5.617,0,8.625,5.61,8.625,12.883c0,5.758-2.406,13.178-9.228,13.178c-3.156,0-5.217-1.501-6.817-3.907l-1.507,3.605h-4.208
			V184.617z M159.545,212.234c-0.154,2.104,1.101,3.255,2.657,3.255c2.252,0,2.554-2.258,2.554-6.915v-1.907
			c0-5.015,0-7.616-2.504-7.616c-1.003,0-1.754,0.603-2.258,1.002l-0.449,0.449V212.234z"/>
		<path clip-path="url(#SVGID_2_)" fill="#FCC092" d="M168.527,184.617h8.121v11.979h0.098c1.15-1.2,3.261-2.055,4.916-2.055
			c5.61,0,8.619,5.61,8.619,12.883c0,5.758-2.406,13.178-9.222,13.178c-3.163,0-5.217-1.501-6.823-3.907l-1.501,3.605h-4.208
			V184.617z M176.648,212.234c-0.154,2.104,1.101,3.255,2.658,3.255c2.251,0,2.553-2.258,2.553-6.915v-1.907
			c0-5.015,0-7.616-2.504-7.616c-1.002,0-1.753,0.603-2.258,1.002l-0.449,0.449V212.234z"/>
		<path clip-path="url(#SVGID_2_)" fill="#FDCCA6" d="M185.852,200.852h-3.304v-5.709h3.304v-2.806c0-6.164,3.058-8.422,8.422-8.422
			c1.606,0,2.812,0.147,4.116,0.295v6.219c-0.455-0.104-1.058-0.202-1.507-0.202c-2.055,0-2.91,0.651-2.91,2.159v2.756h4.417v5.709
			h-4.417v19.447h-8.121V200.852z"/>
		<path clip-path="url(#SVGID_2_)" fill="#FED8B9" d="M206.762,204.513c0-1.003-0.055-2.209-0.4-3.156
			c-0.406-1.003-1.052-1.704-2.356-1.704c-2.711,0-3.007,3.304-3.007,8.317c0,5.667,0.898,7.519,3.007,7.519
			c2.855,0,3.107-2.904,3.107-4.812l6.311,0.898c-0.597,6.121-4.108,9.327-10.021,9.327c-7.32,0-11.128-6.417-11.128-12.631
			c0-6.866,3.808-13.731,11.479-13.731c8.624,0,9.922,7.462,9.922,9.973H206.762z"/>
		<path clip-path="url(#SVGID_2_)" fill="#FEE4CE" d="M210.219,204.532c1.795,0,3.266,1.47,3.266,3.272
			c0,1.797-1.471,3.273-3.266,3.273c-1.809,0-3.273-1.477-3.273-3.273C206.946,206.001,208.411,204.532,210.219,204.532z"/>
		<path clip-path="url(#SVGID_2_)" fill="#FBB580" d="M79.23,308.011h8.121v11.984h0.099c1.157-1.205,3.26-2.061,4.916-2.061
			c5.617,0,8.625,5.617,8.625,12.889c0,5.759-2.406,13.178-9.229,13.178c-3.156,0-5.211-1.501-6.816-3.906l-1.501,3.605H79.23
			V308.011z M87.351,335.635c-0.147,2.104,1.107,3.254,2.658,3.254c2.258,0,2.56-2.258,2.56-6.921v-1.901
			c0-5.014,0-7.622-2.51-7.622c-0.997,0-1.753,0.608-2.251,1.009l-0.456,0.449V335.635z"/>
		<path clip-path="url(#SVGID_2_)" fill="#FCC092" d="M96.333,308.011h8.121v11.984h0.099c1.149-1.205,3.259-2.061,4.914-2.061
			c5.611,0,8.619,5.617,8.619,12.889c0,5.759-2.405,13.178-9.222,13.178c-3.162,0-5.215-1.501-6.821-3.906l-1.501,3.605h-4.208
			V308.011z M104.454,335.635c-0.154,2.104,1.1,3.254,2.656,3.254c2.252,0,2.553-2.258,2.553-6.921v-1.901
			c0-5.014,0-7.622-2.504-7.622c-1.003,0-1.753,0.608-2.256,1.009l-0.449,0.449V335.635z"/>
		<path clip-path="url(#SVGID_2_)" fill="#FDCCA6" d="M113.656,324.248h-3.304v-5.71h3.304v-2.805c0-6.165,3.058-8.429,8.422-8.429
			c1.606,0,2.812,0.153,4.116,0.308v6.214c-0.455-0.104-1.058-0.203-1.507-0.203c-2.055,0-2.91,0.651-2.91,2.159v2.756h4.417v5.71
			h-4.417v19.453h-8.121V324.248z"/>
		<path clip-path="url(#SVGID_2_)" fill="#FED8B9" d="M134.567,327.914c0-1.003-0.056-2.208-0.4-3.156
			c-0.406-1.009-1.052-1.704-2.356-1.704c-2.713,0-3.008,3.304-3.008,8.318c0,5.666,0.898,7.518,3.008,7.518
			c2.854,0,3.107-2.903,3.107-4.811l6.312,0.898c-0.597,6.115-4.109,9.326-10.022,9.326c-7.321,0-11.129-6.417-11.129-12.631
			c0-6.865,3.809-13.737,11.48-13.737c8.625,0,9.923,7.469,9.923,9.979H134.567z"/>
		<path clip-path="url(#SVGID_2_)" fill="#FEE4CE" d="M138.025,327.932c1.796,0,3.267,1.471,3.267,3.273
			c0,1.796-1.47,3.272-3.267,3.272c-1.809,0-3.273-1.477-3.273-3.272C134.752,329.403,136.216,327.932,138.025,327.932z"/>
		<path clip-path="url(#SVGID_2_)" fill="#FBB580" d="M79.23,266.877h8.121v11.984h0.099c1.157-1.205,3.26-2.055,4.916-2.055
			c5.617,0,8.625,5.611,8.625,12.883c0,5.765-2.406,13.179-9.229,13.179c-3.156,0-5.211-1.502-6.816-3.907l-1.501,3.605H79.23
			V266.877z M87.351,294.501c-0.147,2.104,1.107,3.254,2.658,3.254c2.258,0,2.56-2.251,2.56-6.915v-1.907
			c0-5.014,0-7.616-2.51-7.616c-0.997,0-1.753,0.604-2.251,1.003l-0.456,0.449V294.501z"/>
		<path clip-path="url(#SVGID_2_)" fill="#FCC092" d="M96.333,266.877h8.121v11.984h0.099c1.149-1.205,3.259-2.055,4.914-2.055
			c5.611,0,8.619,5.611,8.619,12.883c0,5.765-2.405,13.179-9.222,13.179c-3.162,0-5.215-1.502-6.821-3.907l-1.501,3.605h-4.208
			V266.877z M104.454,294.501c-0.154,2.104,1.1,3.254,2.656,3.254c2.252,0,2.553-2.251,2.553-6.915v-1.907
			c0-5.014,0-7.616-2.504-7.616c-1.003,0-1.753,0.604-2.256,1.003l-0.449,0.449V294.501z"/>
		<path clip-path="url(#SVGID_2_)" fill="#FDCCA6" d="M113.656,283.12h-3.304v-5.716h3.304v-2.805c0-6.165,3.058-8.423,8.422-8.423
			c1.606,0,2.812,0.154,4.116,0.302v6.214c-0.455-0.099-1.058-0.197-1.507-0.197c-2.055,0-2.91,0.646-2.91,2.153v2.756h4.417v5.716
			h-4.417v19.447h-8.121V283.12z"/>
		<path clip-path="url(#SVGID_2_)" fill="#FED8B9" d="M134.567,286.78c0-1.002-0.056-2.202-0.4-3.155
			c-0.406-1.01-1.052-1.704-2.356-1.704c-2.713,0-3.008,3.304-3.008,8.317c0,5.666,0.898,7.518,3.008,7.518
			c2.854,0,3.107-2.903,3.107-4.811l6.312,0.904c-0.597,6.115-4.109,9.327-10.022,9.327c-7.321,0-11.129-6.417-11.129-12.637
			c0-6.866,3.809-13.732,11.48-13.732c8.625,0,9.923,7.463,9.923,9.973H134.567z"/>
		<path clip-path="url(#SVGID_2_)" fill="#FEE4CE" d="M138.025,286.798c1.796,0,3.267,1.471,3.267,3.273
			c0,1.796-1.47,3.272-3.267,3.272c-1.809,0-3.273-1.477-3.273-3.272C134.752,288.269,136.216,286.798,138.025,286.798z"/>
		<path clip-path="url(#SVGID_2_)" fill="#FBB580" d="M79.23,225.745h8.121v11.978h0.099c1.157-1.205,3.26-2.055,4.916-2.055
			c5.617,0,8.625,5.617,8.625,12.883c0,5.765-2.406,13.185-9.229,13.185c-3.156,0-5.211-1.501-6.816-3.913l-1.501,3.617H79.23
			V225.745z M87.351,253.362c-0.147,2.109,1.107,3.267,2.658,3.267c2.258,0,2.56-2.265,2.56-6.921V247.8c0-5.009,0-7.617-2.51-7.617
			c-0.997,0-1.753,0.597-2.251,1.003l-0.456,0.449V253.362z"/>
		<path clip-path="url(#SVGID_2_)" fill="#FCC092" d="M96.333,225.745h8.121v11.978h0.099c1.149-1.205,3.259-2.055,4.914-2.055
			c5.611,0,8.619,5.617,8.619,12.883c0,5.765-2.405,13.185-9.222,13.185c-3.162,0-5.215-1.501-6.821-3.913l-1.501,3.617h-4.208
			V225.745z M104.454,253.362c-0.154,2.109,1.1,3.267,2.656,3.267c2.252,0,2.553-2.265,2.553-6.921V247.8
			c0-5.009,0-7.617-2.504-7.617c-1.003,0-1.753,0.597-2.256,1.003l-0.449,0.449V253.362z"/>
		<path clip-path="url(#SVGID_2_)" fill="#FDCCA6" d="M113.656,241.986h-3.304v-5.715h3.304v-2.806c0-6.165,3.058-8.423,8.422-8.423
			c1.606,0,2.812,0.148,4.116,0.296v6.22c-0.455-0.104-1.058-0.203-1.507-0.203c-2.055,0-2.91,0.658-2.91,2.159v2.757h4.417v5.715
			h-4.417v19.453h-8.121V241.986z"/>
		<path clip-path="url(#SVGID_2_)" fill="#FED8B9" d="M134.567,245.64c0-0.996-0.056-2.202-0.4-3.155
			c-0.406-0.997-1.052-1.705-2.356-1.705c-2.713,0-3.008,3.311-3.008,8.324c0,5.66,0.898,7.524,3.008,7.524
			c2.854,0,3.107-2.91,3.107-4.823l6.312,0.904c-0.597,6.121-4.109,9.326-10.022,9.326c-7.321,0-11.129-6.416-11.129-12.63
			c0-6.872,3.809-13.738,11.48-13.738c8.625,0,9.923,7.469,9.923,9.973H134.567z"/>
		<path clip-path="url(#SVGID_2_)" fill="#FEE4CE" d="M138.025,245.659c1.796,0,3.267,1.471,3.267,3.279
			c0,1.797-1.47,3.273-3.267,3.273c-1.809,0-3.273-1.477-3.273-3.273C134.752,247.129,136.216,245.659,138.025,245.659z"/>
		<path clip-path="url(#SVGID_2_)" fill="#FBB580" d="M79.23,184.617h8.121v11.979h0.099c1.157-1.2,3.26-2.055,4.916-2.055
			c5.617,0,8.625,5.61,8.625,12.883c0,5.758-2.406,13.178-9.229,13.178c-3.156,0-5.211-1.501-6.816-3.907l-1.501,3.605H79.23
			V184.617z M87.351,212.234c-0.147,2.104,1.107,3.255,2.658,3.255c2.258,0,2.56-2.258,2.56-6.915v-1.907
			c0-5.015,0-7.616-2.51-7.616c-0.997,0-1.753,0.603-2.251,1.002l-0.456,0.449V212.234z"/>
		<path clip-path="url(#SVGID_2_)" fill="#FCC092" d="M96.333,184.617h8.121v11.979h0.099c1.149-1.2,3.259-2.055,4.914-2.055
			c5.611,0,8.619,5.61,8.619,12.883c0,5.758-2.405,13.178-9.222,13.178c-3.162,0-5.215-1.501-6.821-3.907l-1.501,3.605h-4.208
			V184.617z M104.454,212.234c-0.154,2.104,1.1,3.255,2.656,3.255c2.252,0,2.553-2.258,2.553-6.915v-1.907
			c0-5.015,0-7.616-2.504-7.616c-1.003,0-1.753,0.603-2.256,1.002l-0.449,0.449V212.234z"/>
		<path clip-path="url(#SVGID_2_)" fill="#FDCCA6" d="M113.656,200.852h-3.304v-5.709h3.304v-2.806c0-6.164,3.058-8.422,8.422-8.422
			c1.606,0,2.812,0.147,4.116,0.295v6.219c-0.455-0.104-1.058-0.202-1.507-0.202c-2.055,0-2.91,0.651-2.91,2.159v2.756h4.417v5.709
			h-4.417v19.447h-8.121V200.852z"/>
		<path clip-path="url(#SVGID_2_)" fill="#FED8B9" d="M134.567,204.513c0-1.003-0.056-2.209-0.4-3.156
			c-0.406-1.003-1.052-1.704-2.356-1.704c-2.713,0-3.008,3.304-3.008,8.317c0,5.667,0.898,7.519,3.008,7.519
			c2.854,0,3.107-2.904,3.107-4.812l6.312,0.898c-0.597,6.121-4.109,9.327-10.022,9.327c-7.321,0-11.129-6.417-11.129-12.631
			c0-6.866,3.809-13.731,11.48-13.731c8.625,0,9.923,7.462,9.923,9.973H134.567z"/>
		<path clip-path="url(#SVGID_2_)" fill="#FEE4CE" d="M138.025,204.532c1.796,0,3.267,1.47,3.267,3.272
			c0,1.797-1.47,3.273-3.267,3.273c-1.809,0-3.273-1.477-3.273-3.273C134.752,206.001,136.216,204.532,138.025,204.532z"/>
		<path clip-path="url(#SVGID_2_)" fill="#FBB580" d="M7.04,266.877h8.121v11.984h0.099c1.156-1.205,3.261-2.055,4.916-2.055
			c5.611,0,8.619,5.611,8.619,12.883c0,5.765-2.405,13.179-9.222,13.179c-3.156,0-5.211-1.502-6.816-3.907l-1.501,3.605H7.04
			V266.877z M15.161,294.501c-0.154,2.104,1.102,3.254,2.658,3.254c2.252,0,2.553-2.251,2.553-6.915v-1.907
			c0-5.014,0-7.616-2.504-7.616c-1.003,0-1.753,0.604-2.258,1.003l-0.449,0.449V294.501z"/>
		<path clip-path="url(#SVGID_2_)" fill="#FCC092" d="M24.137,266.877h8.127v11.984h0.099c1.15-1.205,3.254-2.055,4.91-2.055
			c5.617,0,8.619,5.611,8.619,12.883c0,5.765-2.406,13.179-9.222,13.179c-3.156,0-5.211-1.502-6.817-3.907l-1.501,3.605h-4.214
			V266.877z M32.264,294.501c-0.154,2.104,1.102,3.254,2.652,3.254c2.258,0,2.559-2.251,2.559-6.915v-1.907
			c0-5.014,0-7.616-2.51-7.616c-1.003,0-1.753,0.604-2.252,1.003l-0.449,0.449V294.501z"/>
		<path clip-path="url(#SVGID_2_)" fill="#FDCCA6" d="M41.467,283.12h-3.31v-5.716h3.31v-2.805c0-6.165,3.058-8.423,8.423-8.423
			c1.605,0,2.805,0.154,4.109,0.302v6.214c-0.449-0.099-1.052-0.197-1.501-0.197c-2.061,0-2.91,0.646-2.91,2.153v2.756H54v5.716
			h-4.411v19.447h-8.121V283.12z"/>
		<path clip-path="url(#SVGID_2_)" fill="#FED8B9" d="M62.379,286.78c0-1.002-0.055-2.202-0.406-3.155
			c-0.4-1.01-1.052-1.704-2.356-1.704c-2.707,0-3.009,3.304-3.009,8.317c0,5.666,0.904,7.518,3.009,7.518
			c2.86,0,3.106-2.903,3.106-4.811l6.318,0.904c-0.603,6.115-4.109,9.327-10.028,9.327c-7.315,0-11.124-6.417-11.124-12.637
			c0-6.866,3.809-13.732,11.48-13.732c8.619,0,9.923,7.463,9.923,9.973H62.379z"/>
		<path clip-path="url(#SVGID_2_)" fill="#FEE4CE" d="M65.83,286.798c1.803,0,3.273,1.471,3.273,3.273
			c0,1.796-1.47,3.272-3.273,3.272c-1.802,0-3.267-1.477-3.267-3.272C62.563,288.269,64.028,286.798,65.83,286.798z"/>
		<path clip-path="url(#SVGID_2_)" fill="#FBB580" d="M7.04,225.745h8.121v11.978h0.099c1.156-1.205,3.261-2.055,4.916-2.055
			c5.611,0,8.619,5.617,8.619,12.883c0,5.765-2.405,13.185-9.222,13.185c-3.156,0-5.211-1.501-6.816-3.913l-1.501,3.617H7.04
			V225.745z M15.161,253.362c-0.154,2.109,1.102,3.267,2.658,3.267c2.252,0,2.553-2.265,2.553-6.921V247.8
			c0-5.009,0-7.617-2.504-7.617c-1.003,0-1.753,0.597-2.258,1.003l-0.449,0.449V253.362z"/>
		<path clip-path="url(#SVGID_2_)" fill="#FCC092" d="M24.137,225.745h8.127v11.978h0.099c1.15-1.205,3.254-2.055,4.91-2.055
			c5.617,0,8.619,5.617,8.619,12.883c0,5.765-2.406,13.185-9.222,13.185c-3.156,0-5.211-1.501-6.817-3.913l-1.501,3.617h-4.214
			V225.745z M32.264,253.362c-0.154,2.109,1.102,3.267,2.652,3.267c2.258,0,2.559-2.265,2.559-6.921V247.8
			c0-5.009,0-7.617-2.51-7.617c-1.003,0-1.753,0.597-2.252,1.003l-0.449,0.449V253.362z"/>
		<path clip-path="url(#SVGID_2_)" fill="#FDCCA6" d="M41.467,241.986h-3.31v-5.715h3.31v-2.806c0-6.165,3.058-8.423,8.423-8.423
			c1.605,0,2.805,0.148,4.109,0.296v6.22c-0.449-0.104-1.052-0.203-1.501-0.203c-2.061,0-2.91,0.658-2.91,2.159v2.757H54v5.715
			h-4.411v19.453h-8.121V241.986z"/>
		<path clip-path="url(#SVGID_2_)" fill="#FED8B9" d="M62.379,245.64c0-0.996-0.055-2.202-0.406-3.155
			c-0.4-0.997-1.052-1.705-2.356-1.705c-2.707,0-3.009,3.311-3.009,8.324c0,5.66,0.904,7.524,3.009,7.524
			c2.86,0,3.106-2.91,3.106-4.823l6.318,0.904c-0.603,6.121-4.109,9.326-10.028,9.326c-7.315,0-11.124-6.416-11.124-12.63
			c0-6.872,3.809-13.738,11.48-13.738c8.619,0,9.923,7.469,9.923,9.973H62.379z"/>
		<path clip-path="url(#SVGID_2_)" fill="#FEE4CE" d="M65.83,245.659c1.803,0,3.273,1.471,3.273,3.279
			c0,1.797-1.47,3.273-3.273,3.273c-1.802,0-3.267-1.477-3.267-3.273C62.563,247.129,64.028,245.659,65.83,245.659z"/>
		<path clip-path="url(#SVGID_2_)" fill="#FBB580" d="M7.04,184.617h8.121v11.979h0.099c1.156-1.2,3.261-2.055,4.916-2.055
			c5.611,0,8.619,5.61,8.619,12.883c0,5.758-2.405,13.178-9.222,13.178c-3.156,0-5.211-1.501-6.816-3.907l-1.501,3.605H7.04V184.617
			z M15.161,212.234c-0.154,2.104,1.102,3.255,2.658,3.255c2.252,0,2.553-2.258,2.553-6.915v-1.907c0-5.015,0-7.616-2.504-7.616
			c-1.003,0-1.753,0.603-2.258,1.002l-0.449,0.449V212.234z"/>
		<path clip-path="url(#SVGID_2_)" fill="#FCC092" d="M24.137,184.617h8.127v11.979h0.099c1.15-1.2,3.254-2.055,4.91-2.055
			c5.617,0,8.619,5.61,8.619,12.883c0,5.758-2.406,13.178-9.222,13.178c-3.156,0-5.211-1.501-6.817-3.907l-1.501,3.605h-4.214
			V184.617z M32.264,212.234c-0.154,2.104,1.102,3.255,2.652,3.255c2.258,0,2.559-2.258,2.559-6.915v-1.907
			c0-5.015,0-7.616-2.51-7.616c-1.003,0-1.753,0.603-2.252,1.002l-0.449,0.449V212.234z"/>
		<path clip-path="url(#SVGID_2_)" fill="#FDCCA6" d="M41.467,200.852h-3.31v-5.709h3.31v-2.806c0-6.164,3.058-8.422,8.423-8.422
			c1.605,0,2.805,0.147,4.109,0.295v6.219c-0.449-0.104-1.052-0.202-1.501-0.202c-2.061,0-2.91,0.651-2.91,2.159v2.756H54v5.709
			h-4.411v19.447h-8.121V200.852z"/>
		<path clip-path="url(#SVGID_2_)" fill="#FED8B9" d="M62.379,204.513c0-1.003-0.055-2.209-0.406-3.156
			c-0.4-1.003-1.052-1.704-2.356-1.704c-2.707,0-3.009,3.304-3.009,8.317c0,5.667,0.904,7.519,3.009,7.519
			c2.86,0,3.106-2.904,3.106-4.812l6.318,0.898c-0.603,6.121-4.109,9.327-10.028,9.327c-7.315,0-11.124-6.417-11.124-12.631
			c0-6.866,3.809-13.731,11.48-13.731c8.619,0,9.923,7.462,9.923,9.973H62.379z"/>
		<path clip-path="url(#SVGID_2_)" fill="#FEE4CE" d="M65.83,204.532c1.803,0,3.273,1.47,3.273,3.272
			c0,1.797-1.47,3.273-3.273,3.273c-1.802,0-3.267-1.477-3.267-3.273C62.563,206.001,64.028,204.532,65.83,204.532z"/>
		<path clip-path="url(#SVGID_2_)" fill="#FBB580" d="M223.616,308.011h8.119v11.984h0.099c1.157-1.205,3.261-2.061,4.916-2.061
			c5.617,0,8.625,5.617,8.625,12.889c0,5.759-2.412,13.178-9.229,13.178c-3.156,0-5.211-1.501-6.816-3.906l-1.5,3.605h-4.214
			V308.011z M231.735,335.635c-0.147,2.104,1.102,3.254,2.658,3.254c2.251,0,2.559-2.258,2.559-6.921v-1.901
			c0-5.014,0-7.622-2.51-7.622c-1.003,0-1.753,0.608-2.258,1.009l-0.449,0.449V335.635z"/>
		<path clip-path="url(#SVGID_2_)" fill="#FCC092" d="M240.717,308.011h8.121v11.984h0.098c1.151-1.205,3.254-2.061,4.916-2.061
			c5.611,0,8.619,5.617,8.619,12.889c0,5.759-2.405,13.178-9.222,13.178c-3.162,0-5.217-1.501-6.823-3.906l-1.501,3.605h-4.208
			V308.011z M248.838,335.635c-0.154,2.104,1.101,3.254,2.651,3.254c2.258,0,2.56-2.258,2.56-6.921v-1.901
			c0-5.014,0-7.622-2.504-7.622c-1.009,0-1.76,0.608-2.258,1.009l-0.449,0.449V335.635z"/>
		<path clip-path="url(#SVGID_2_)" fill="#FDCCA6" d="M258.042,324.248h-3.304v-5.71h3.304v-2.805c0-6.165,3.058-8.429,8.422-8.429
			c1.605,0,2.805,0.153,4.109,0.308v6.214c-0.449-0.104-1.052-0.203-1.501-0.203c-2.055,0-2.91,0.651-2.91,2.159v2.756h4.411v5.71
			h-4.411v19.453h-8.121V324.248z"/>
		<path clip-path="url(#SVGID_2_)" fill="#FED8B9" d="M278.953,327.914c0-1.003-0.055-2.208-0.4-3.156
			c-0.406-1.009-1.058-1.704-2.362-1.704c-2.707,0-3.002,3.304-3.002,8.318c0,5.666,0.898,7.518,3.002,7.518
			c2.861,0,3.107-2.903,3.107-4.811l6.318,0.898c-0.597,6.115-4.11,9.326-10.022,9.326c-7.321,0-11.129-6.417-11.129-12.631
			c0-6.865,3.808-13.737,11.48-13.737c8.619,0,9.923,7.469,9.923,9.979H278.953z"/>
		<path clip-path="url(#SVGID_2_)" fill="#FEE4CE" d="M282.411,327.932c1.796,0,3.267,1.471,3.267,3.273
			c0,1.796-1.471,3.272-3.267,3.272c-1.809,0-3.273-1.477-3.273-3.272C279.138,329.403,280.602,327.932,282.411,327.932z"/>
		<path clip-path="url(#SVGID_2_)" fill="#FBB580" d="M223.616,266.877h8.119v11.984h0.099c1.157-1.205,3.261-2.055,4.916-2.055
			c5.617,0,8.625,5.611,8.625,12.883c0,5.765-2.412,13.179-9.229,13.179c-3.156,0-5.211-1.502-6.816-3.907l-1.5,3.605h-4.214
			V266.877z M231.735,294.501c-0.147,2.104,1.102,3.254,2.658,3.254c2.251,0,2.559-2.251,2.559-6.915v-1.907
			c0-5.014,0-7.616-2.51-7.616c-1.003,0-1.753,0.604-2.258,1.003l-0.449,0.449V294.501z"/>
		<path clip-path="url(#SVGID_2_)" fill="#FCC092" d="M240.717,266.877h8.121v11.984h0.098c1.151-1.205,3.254-2.055,4.916-2.055
			c5.611,0,8.619,5.611,8.619,12.883c0,5.765-2.405,13.179-9.222,13.179c-3.162,0-5.217-1.502-6.823-3.907l-1.501,3.605h-4.208
			V266.877z M248.838,294.501c-0.154,2.104,1.101,3.254,2.651,3.254c2.258,0,2.56-2.251,2.56-6.915v-1.907
			c0-5.014,0-7.616-2.504-7.616c-1.009,0-1.76,0.604-2.258,1.003l-0.449,0.449V294.501z"/>
		<path clip-path="url(#SVGID_2_)" fill="#FDCCA6" d="M258.042,283.12h-3.304v-5.716h3.304v-2.805c0-6.165,3.058-8.423,8.422-8.423
			c1.605,0,2.805,0.154,4.109,0.302v6.214c-0.449-0.099-1.052-0.197-1.501-0.197c-2.055,0-2.91,0.646-2.91,2.153v2.756h4.411v5.716
			h-4.411v19.447h-8.121V283.12z"/>
		<path clip-path="url(#SVGID_2_)" fill="#FED8B9" d="M278.953,286.78c0-1.002-0.055-2.202-0.4-3.155
			c-0.406-1.01-1.058-1.704-2.362-1.704c-2.707,0-3.002,3.304-3.002,8.317c0,5.666,0.898,7.518,3.002,7.518
			c2.861,0,3.107-2.903,3.107-4.811l6.318,0.904c-0.597,6.115-4.11,9.327-10.022,9.327c-7.321,0-11.129-6.417-11.129-12.637
			c0-6.866,3.808-13.732,11.48-13.732c8.619,0,9.923,7.463,9.923,9.973H278.953z"/>
		<path clip-path="url(#SVGID_2_)" fill="#FEE4CE" d="M282.411,286.798c1.796,0,3.267,1.471,3.267,3.273
			c0,1.796-1.471,3.272-3.267,3.272c-1.809,0-3.273-1.477-3.273-3.272C279.138,288.269,280.602,286.798,282.411,286.798z"/>
		<path clip-path="url(#SVGID_2_)" fill="#FBB580" d="M223.616,225.745h8.119v11.978h0.099c1.157-1.205,3.261-2.055,4.916-2.055
			c5.617,0,8.625,5.617,8.625,12.883c0,5.765-2.412,13.185-9.229,13.185c-3.156,0-5.211-1.501-6.816-3.913l-1.5,3.617h-4.214
			V225.745z M231.735,253.362c-0.147,2.109,1.102,3.267,2.658,3.267c2.251,0,2.559-2.265,2.559-6.921V247.8
			c0-5.009,0-7.617-2.51-7.617c-1.003,0-1.753,0.597-2.258,1.003l-0.449,0.449V253.362z"/>
		<path clip-path="url(#SVGID_2_)" fill="#FCC092" d="M240.717,225.745h8.121v11.978h0.098c1.151-1.205,3.254-2.055,4.916-2.055
			c5.611,0,8.619,5.617,8.619,12.883c0,5.765-2.405,13.185-9.222,13.185c-3.162,0-5.217-1.501-6.823-3.913l-1.501,3.617h-4.208
			V225.745z M248.838,253.362c-0.154,2.109,1.101,3.267,2.651,3.267c2.258,0,2.56-2.265,2.56-6.921V247.8
			c0-5.009,0-7.617-2.504-7.617c-1.009,0-1.76,0.597-2.258,1.003l-0.449,0.449V253.362z"/>
		<path clip-path="url(#SVGID_2_)" fill="#FDCCA6" d="M258.042,241.986h-3.304v-5.715h3.304v-2.806c0-6.165,3.058-8.423,8.422-8.423
			c1.605,0,2.805,0.148,4.109,0.296v6.22c-0.449-0.104-1.052-0.203-1.501-0.203c-2.055,0-2.91,0.658-2.91,2.159v2.757h4.411v5.715
			h-4.411v19.453h-8.121V241.986z"/>
		<path clip-path="url(#SVGID_2_)" fill="#FED8B9" d="M278.953,245.64c0-0.996-0.055-2.202-0.4-3.155
			c-0.406-0.997-1.058-1.705-2.362-1.705c-2.707,0-3.002,3.311-3.002,8.324c0,5.66,0.898,7.524,3.002,7.524
			c2.861,0,3.107-2.91,3.107-4.823l6.318,0.904c-0.597,6.121-4.11,9.326-10.022,9.326c-7.321,0-11.129-6.416-11.129-12.63
			c0-6.872,3.808-13.738,11.48-13.738c8.619,0,9.923,7.469,9.923,9.973H278.953z"/>
		<path clip-path="url(#SVGID_2_)" fill="#FEE4CE" d="M282.411,245.659c1.796,0,3.267,1.471,3.267,3.279
			c0,1.797-1.471,3.273-3.267,3.273c-1.809,0-3.273-1.477-3.273-3.273C279.138,247.129,280.602,245.659,282.411,245.659z"/>
		<path clip-path="url(#SVGID_2_)" fill="#FBB580" d="M223.616,184.617h8.119v11.979h0.099c1.157-1.2,3.261-2.055,4.916-2.055
			c5.617,0,8.625,5.61,8.625,12.883c0,5.758-2.412,13.178-9.229,13.178c-3.156,0-5.211-1.501-6.816-3.907l-1.5,3.605h-4.214V184.617
			z M231.735,212.234c-0.147,2.104,1.102,3.255,2.658,3.255c2.251,0,2.559-2.258,2.559-6.915v-1.907c0-5.015,0-7.616-2.51-7.616
			c-1.003,0-1.753,0.603-2.258,1.002l-0.449,0.449V212.234z"/>
		<path clip-path="url(#SVGID_2_)" fill="#FCC092" d="M240.717,184.617h8.121v11.979h0.098c1.151-1.2,3.254-2.055,4.916-2.055
			c5.611,0,8.619,5.61,8.619,12.883c0,5.758-2.405,13.178-9.222,13.178c-3.162,0-5.217-1.501-6.823-3.907l-1.501,3.605h-4.208
			V184.617z M248.838,212.234c-0.154,2.104,1.101,3.255,2.651,3.255c2.258,0,2.56-2.258,2.56-6.915v-1.907
			c0-5.015,0-7.616-2.504-7.616c-1.009,0-1.76,0.603-2.258,1.002l-0.449,0.449V212.234z"/>
		<path clip-path="url(#SVGID_2_)" fill="#FDCCA6" d="M258.042,200.852h-3.304v-5.709h3.304v-2.806c0-6.164,3.058-8.422,8.422-8.422
			c1.605,0,2.805,0.147,4.109,0.295v6.219c-0.449-0.104-1.052-0.202-1.501-0.202c-2.055,0-2.91,0.651-2.91,2.159v2.756h4.411v5.709
			h-4.411v19.447h-8.121V200.852z"/>
		<path clip-path="url(#SVGID_2_)" fill="#FED8B9" d="M278.953,204.513c0-1.003-0.055-2.209-0.4-3.156
			c-0.406-1.003-1.058-1.704-2.362-1.704c-2.707,0-3.002,3.304-3.002,8.317c0,5.667,0.898,7.519,3.002,7.519
			c2.861,0,3.107-2.904,3.107-4.812l6.318,0.898c-0.597,6.121-4.11,9.327-10.022,9.327c-7.321,0-11.129-6.417-11.129-12.631
			c0-6.866,3.808-13.731,11.48-13.731c8.619,0,9.923,7.462,9.923,9.973H278.953z"/>
		<path clip-path="url(#SVGID_2_)" fill="#FEE4CE" d="M282.411,204.532c1.796,0,3.267,1.47,3.267,3.272
			c0,1.797-1.471,3.273-3.267,3.273c-1.809,0-3.273-1.477-3.273-3.273C279.138,206.001,280.602,204.532,282.411,204.532z"/>
		<path clip-path="url(#SVGID_2_)" fill="#FBB580" d="M296.253,266.877h8.127v11.984h0.099c1.156-1.205,3.254-2.055,4.909-2.055
			c5.617,0,8.625,5.611,8.625,12.883c0,5.765-2.406,13.179-9.222,13.179c-3.156,0-5.217-1.502-6.817-3.907l-1.507,3.605h-4.214
			V266.877z M304.38,294.501c-0.154,2.104,1.101,3.254,2.651,3.254c2.258,0,2.56-2.251,2.56-6.915v-1.907
			c0-5.014,0-7.616-2.51-7.616c-0.997,0-1.753,0.604-2.251,1.003l-0.449,0.449V294.501z"/>
		<path clip-path="url(#SVGID_2_)" fill="#FCC092" d="M313.356,266.877h8.121v11.984h0.099c1.157-1.205,3.261-2.055,4.916-2.055
			c5.617,0,8.619,5.611,8.619,12.883c0,5.765-2.405,13.179-9.222,13.179c-3.156,0-5.211-1.502-6.816-3.907l-1.507,3.605h-4.208
			V266.877z M321.477,294.501c-0.147,2.104,1.107,3.254,2.658,3.254c2.251,0,2.559-2.251,2.559-6.915v-1.907
			c0-5.014,0-7.616-2.51-7.616c-1.003,0-1.753,0.604-2.251,1.003l-0.456,0.449V294.501z"/>
		<path clip-path="url(#SVGID_2_)" fill="#FDCCA6" d="M330.687,283.12h-3.31v-5.716h3.31v-2.805c0-6.165,3.058-8.423,8.422-8.423
			c1.6,0,2.805,0.154,4.11,0.302v6.214c-0.449-0.099-1.052-0.197-1.507-0.197c-2.055,0-2.904,0.646-2.904,2.153v2.756h4.411v5.716
			h-4.411v19.447h-8.121V283.12z"/>
		<path clip-path="url(#SVGID_2_)" fill="#FED8B9" d="M351.592,286.78c0-1.002-0.049-2.202-0.4-3.155
			c-0.4-1.01-1.052-1.704-2.356-1.704c-2.707,0-3.008,3.304-3.008,8.317c0,5.666,0.904,7.518,3.008,7.518
			c2.855,0,3.107-2.903,3.107-4.811l6.318,0.904c-0.603,6.115-4.116,9.327-10.028,9.327c-7.321,0-11.129-6.417-11.129-12.637
			c0-6.866,3.808-13.732,11.48-13.732c8.625,0,9.929,7.463,9.929,9.973H351.592z"/>
		<path clip-path="url(#SVGID_2_)" fill="#FBB580" d="M296.253,225.745h8.127v11.978h0.099c1.156-1.205,3.254-2.055,4.909-2.055
			c5.617,0,8.625,5.617,8.625,12.883c0,5.765-2.406,13.185-9.222,13.185c-3.156,0-5.217-1.501-6.817-3.913l-1.507,3.617h-4.214
			V225.745z M304.38,253.362c-0.154,2.109,1.101,3.267,2.651,3.267c2.258,0,2.56-2.265,2.56-6.921V247.8c0-5.009,0-7.617-2.51-7.617
			c-0.997,0-1.753,0.597-2.251,1.003l-0.449,0.449V253.362z"/>
		<path clip-path="url(#SVGID_2_)" fill="#FCC092" d="M313.356,225.745h8.121v11.978h0.099c1.157-1.205,3.261-2.055,4.916-2.055
			c5.617,0,8.619,5.617,8.619,12.883c0,5.765-2.405,13.185-9.222,13.185c-3.156,0-5.211-1.501-6.816-3.913l-1.507,3.617h-4.208
			V225.745z M321.477,253.362c-0.147,2.109,1.107,3.267,2.658,3.267c2.251,0,2.559-2.265,2.559-6.921V247.8
			c0-5.009,0-7.617-2.51-7.617c-1.003,0-1.753,0.597-2.251,1.003l-0.456,0.449V253.362z"/>
		<path clip-path="url(#SVGID_2_)" fill="#FDCCA6" d="M330.687,241.986h-3.31v-5.715h3.31v-2.806c0-6.165,3.058-8.423,8.422-8.423
			c1.6,0,2.805,0.148,4.11,0.296v6.22c-0.449-0.104-1.052-0.203-1.507-0.203c-2.055,0-2.904,0.658-2.904,2.159v2.757h4.411v5.715
			h-4.411v19.453h-8.121V241.986z"/>
		<path clip-path="url(#SVGID_2_)" fill="#FED8B9" d="M351.592,245.64c0-0.996-0.049-2.202-0.4-3.155
			c-0.4-0.997-1.052-1.705-2.356-1.705c-2.707,0-3.008,3.311-3.008,8.324c0,5.66,0.904,7.524,3.008,7.524
			c2.855,0,3.107-2.91,3.107-4.823l6.318,0.904c-0.603,6.121-4.116,9.326-10.028,9.326c-7.321,0-11.129-6.416-11.129-12.63
			c0-6.872,3.808-13.738,11.48-13.738c8.625,0,9.929,7.469,9.929,9.973H351.592z"/>
		<path clip-path="url(#SVGID_2_)" fill="#FBB580" d="M296.253,184.617h8.127v11.979h0.099c1.156-1.2,3.254-2.055,4.909-2.055
			c5.617,0,8.625,5.61,8.625,12.883c0,5.758-2.406,13.178-9.222,13.178c-3.156,0-5.217-1.501-6.817-3.907l-1.507,3.605h-4.214
			V184.617z M304.38,212.234c-0.154,2.104,1.101,3.255,2.651,3.255c2.258,0,2.56-2.258,2.56-6.915v-1.907
			c0-5.015,0-7.616-2.51-7.616c-0.997,0-1.753,0.603-2.251,1.002l-0.449,0.449V212.234z"/>
		<path clip-path="url(#SVGID_2_)" fill="#FCC092" d="M313.356,184.617h8.121v11.979h0.099c1.157-1.2,3.261-2.055,4.916-2.055
			c5.617,0,8.619,5.61,8.619,12.883c0,5.758-2.405,13.178-9.222,13.178c-3.156,0-5.211-1.501-6.816-3.907l-1.507,3.605h-4.208
			V184.617z M321.477,212.234c-0.147,2.104,1.107,3.255,2.658,3.255c2.251,0,2.559-2.258,2.559-6.915v-1.907
			c0-5.015,0-7.616-2.51-7.616c-1.003,0-1.753,0.603-2.251,1.002l-0.456,0.449V212.234z"/>
		<path clip-path="url(#SVGID_2_)" fill="#FDCCA6" d="M330.687,200.852h-3.31v-5.709h3.31v-2.806c0-6.164,3.058-8.422,8.422-8.422
			c1.6,0,2.805,0.147,4.11,0.295v6.219c-0.449-0.104-1.052-0.202-1.507-0.202c-2.055,0-2.904,0.651-2.904,2.159v2.756h4.411v5.709
			h-4.411v19.447h-8.121V200.852z"/>
		<path clip-path="url(#SVGID_2_)" fill="#FED8B9" d="M351.592,204.513c0-1.003-0.049-2.209-0.4-3.156
			c-0.4-1.003-1.052-1.704-2.356-1.704c-2.707,0-3.008,3.304-3.008,8.317c0,5.667,0.904,7.519,3.008,7.519
			c2.855,0,3.107-2.904,3.107-4.812l6.318,0.898c-0.603,6.121-4.116,9.327-10.028,9.327c-7.321,0-11.129-6.417-11.129-12.631
			c0-6.866,3.808-13.731,11.48-13.731c8.625,0,9.929,7.462,9.929,9.973H351.592z"/>
		<path clip-path="url(#SVGID_2_)" fill="#FBB580" d="M151.424,143.483h8.121v11.985h0.098c1.157-1.206,3.261-2.061,4.916-2.061
			c5.617,0,8.625,5.617,8.625,12.889c0,5.765-2.406,13.178-9.228,13.178c-3.156,0-5.217-1.501-6.817-3.907l-1.507,3.605h-4.208
			V143.483z M159.545,171.106c-0.154,2.104,1.101,3.254,2.657,3.254c2.252,0,2.554-2.251,2.554-6.915v-1.907
			c0-5.008,0-7.616-2.504-7.616c-1.003,0-1.754,0.603-2.258,1.003l-0.449,0.449V171.106z"/>
		<path clip-path="url(#SVGID_2_)" fill="#FCC092" d="M168.527,143.483h8.121v11.985h0.098c1.15-1.206,3.261-2.061,4.916-2.061
			c5.61,0,8.619,5.617,8.619,12.889c0,5.765-2.406,13.178-9.222,13.178c-3.163,0-5.217-1.501-6.823-3.907l-1.501,3.605h-4.208
			V143.483z M176.648,171.106c-0.154,2.104,1.101,3.254,2.658,3.254c2.251,0,2.553-2.251,2.553-6.915v-1.907
			c0-5.008,0-7.616-2.504-7.616c-1.002,0-1.753,0.603-2.258,1.003l-0.449,0.449V171.106z"/>
		<path clip-path="url(#SVGID_2_)" fill="#FDCCA6" d="M185.852,159.725h-3.304v-5.715h3.304v-2.806c0-6.165,3.058-8.422,8.422-8.422
			c1.606,0,2.812,0.154,4.116,0.302v6.213c-0.455-0.098-1.058-0.197-1.507-0.197c-2.055,0-2.91,0.652-2.91,2.153v2.756h4.417v5.715
			h-4.417v19.447h-8.121V159.725z"/>
		<path clip-path="url(#SVGID_2_)" fill="#FED8B9" d="M206.762,163.386c0-1.003-0.055-2.209-0.4-3.156
			c-0.406-1.003-1.052-1.704-2.356-1.704c-2.711,0-3.007,3.304-3.007,8.318c0,5.666,0.898,7.518,3.007,7.518
			c2.855,0,3.107-2.904,3.107-4.811l6.311,0.898c-0.597,6.122-4.108,9.333-10.021,9.333c-7.32,0-11.128-6.423-11.128-12.637
			c0-6.866,3.808-13.738,11.479-13.738c8.624,0,9.922,7.469,9.922,9.979H206.762z"/>
		<path clip-path="url(#SVGID_2_)" fill="#FEE4CE" d="M210.219,163.404c1.795,0,3.266,1.471,3.266,3.273
			c0,1.796-1.471,3.273-3.266,3.273c-1.809,0-3.273-1.477-3.273-3.273C206.946,164.875,208.411,163.404,210.219,163.404z"/>
		<path clip-path="url(#SVGID_2_)" fill="#FBB580" d="M79.23,143.483h8.121v11.985h0.099c1.157-1.206,3.26-2.061,4.916-2.061
			c5.617,0,8.625,5.617,8.625,12.889c0,5.765-2.406,13.178-9.229,13.178c-3.156,0-5.211-1.501-6.816-3.907l-1.501,3.605H79.23
			V143.483z M87.351,171.106c-0.147,2.104,1.107,3.254,2.658,3.254c2.258,0,2.56-2.251,2.56-6.915v-1.907
			c0-5.008,0-7.616-2.51-7.616c-0.997,0-1.753,0.603-2.251,1.003l-0.456,0.449V171.106z"/>
		<path clip-path="url(#SVGID_2_)" fill="#FCC092" d="M96.333,143.483h8.121v11.985h0.099c1.149-1.206,3.259-2.061,4.914-2.061
			c5.611,0,8.619,5.617,8.619,12.889c0,5.765-2.405,13.178-9.222,13.178c-3.162,0-5.215-1.501-6.821-3.907l-1.501,3.605h-4.208
			V143.483z M104.454,171.106c-0.154,2.104,1.1,3.254,2.656,3.254c2.252,0,2.553-2.251,2.553-6.915v-1.907
			c0-5.008,0-7.616-2.504-7.616c-1.003,0-1.753,0.603-2.256,1.003l-0.449,0.449V171.106z"/>
		<path clip-path="url(#SVGID_2_)" fill="#FDCCA6" d="M113.656,159.725h-3.304v-5.715h3.304v-2.806c0-6.165,3.058-8.422,8.422-8.422
			c1.606,0,2.812,0.154,4.116,0.302v6.213c-0.455-0.098-1.058-0.197-1.507-0.197c-2.055,0-2.91,0.652-2.91,2.153v2.756h4.417v5.715
			h-4.417v19.447h-8.121V159.725z"/>
		<path clip-path="url(#SVGID_2_)" fill="#FED8B9" d="M134.567,163.386c0-1.003-0.056-2.209-0.4-3.156
			c-0.406-1.003-1.052-1.704-2.356-1.704c-2.713,0-3.008,3.304-3.008,8.318c0,5.666,0.898,7.518,3.008,7.518
			c2.854,0,3.107-2.904,3.107-4.811l6.312,0.898c-0.597,6.122-4.109,9.333-10.022,9.333c-7.321,0-11.129-6.423-11.129-12.637
			c0-6.866,3.809-13.738,11.48-13.738c8.625,0,9.923,7.469,9.923,9.979H134.567z"/>
		<path clip-path="url(#SVGID_2_)" fill="#FEE4CE" d="M138.025,163.404c1.796,0,3.267,1.471,3.267,3.273
			c0,1.796-1.47,3.273-3.267,3.273c-1.809,0-3.273-1.477-3.273-3.273C134.752,164.875,136.216,163.404,138.025,163.404z"/>
		<path clip-path="url(#SVGID_2_)" fill="#FBB580" d="M7.04,143.483h8.121v11.985h0.099c1.156-1.206,3.261-2.061,4.916-2.061
			c5.611,0,8.619,5.617,8.619,12.889c0,5.765-2.405,13.178-9.222,13.178c-3.156,0-5.211-1.501-6.816-3.907l-1.501,3.605H7.04
			V143.483z M15.161,171.106c-0.154,2.104,1.102,3.254,2.658,3.254c2.252,0,2.553-2.251,2.553-6.915v-1.907
			c0-5.008,0-7.616-2.504-7.616c-1.003,0-1.753,0.603-2.258,1.003l-0.449,0.449V171.106z"/>
		<path clip-path="url(#SVGID_2_)" fill="#FCC092" d="M24.137,143.483h8.127v11.985h0.099c1.15-1.206,3.254-2.061,4.91-2.061
			c5.617,0,8.619,5.617,8.619,12.889c0,5.765-2.406,13.178-9.222,13.178c-3.156,0-5.211-1.501-6.817-3.907l-1.501,3.605h-4.214
			V143.483z M32.264,171.106c-0.154,2.104,1.102,3.254,2.652,3.254c2.258,0,2.559-2.251,2.559-6.915v-1.907
			c0-5.008,0-7.616-2.51-7.616c-1.003,0-1.753,0.603-2.252,1.003l-0.449,0.449V171.106z"/>
		<path clip-path="url(#SVGID_2_)" fill="#FDCCA6" d="M41.467,159.725h-3.31v-5.715h3.31v-2.806c0-6.165,3.058-8.422,8.423-8.422
			c1.605,0,2.805,0.154,4.109,0.302v6.213c-0.449-0.098-1.052-0.197-1.501-0.197c-2.061,0-2.91,0.652-2.91,2.153v2.756H54v5.715
			h-4.411v19.447h-8.121V159.725z"/>
		<path clip-path="url(#SVGID_2_)" fill="#FED8B9" d="M62.379,163.386c0-1.003-0.055-2.209-0.406-3.156
			c-0.4-1.003-1.052-1.704-2.356-1.704c-2.707,0-3.009,3.304-3.009,8.318c0,5.666,0.904,7.518,3.009,7.518
			c2.86,0,3.106-2.904,3.106-4.811l6.318,0.898c-0.603,6.122-4.109,9.333-10.028,9.333c-7.315,0-11.124-6.423-11.124-12.637
			c0-6.866,3.809-13.738,11.48-13.738c8.619,0,9.923,7.469,9.923,9.979H62.379z"/>
		<path clip-path="url(#SVGID_2_)" fill="#FEE4CE" d="M65.83,163.404c1.803,0,3.273,1.471,3.273,3.273
			c0,1.796-1.47,3.273-3.273,3.273c-1.802,0-3.267-1.477-3.267-3.273C62.563,164.875,64.028,163.404,65.83,163.404z"/>
		<path clip-path="url(#SVGID_2_)" fill="#FBB580" d="M223.616,143.483h8.119v11.985h0.099c1.157-1.206,3.261-2.061,4.916-2.061
			c5.617,0,8.625,5.617,8.625,12.889c0,5.765-2.412,13.178-9.229,13.178c-3.156,0-5.211-1.501-6.816-3.907l-1.5,3.605h-4.214
			V143.483z M231.735,171.106c-0.147,2.104,1.102,3.254,2.658,3.254c2.251,0,2.559-2.251,2.559-6.915v-1.907
			c0-5.008,0-7.616-2.51-7.616c-1.003,0-1.753,0.603-2.258,1.003l-0.449,0.449V171.106z"/>
		<path clip-path="url(#SVGID_2_)" fill="#FCC092" d="M240.717,143.483h8.121v11.985h0.098c1.151-1.206,3.254-2.061,4.916-2.061
			c5.611,0,8.619,5.617,8.619,12.889c0,5.765-2.405,13.178-9.222,13.178c-3.162,0-5.217-1.501-6.823-3.907l-1.501,3.605h-4.208
			V143.483z M248.838,171.106c-0.154,2.104,1.101,3.254,2.651,3.254c2.258,0,2.56-2.251,2.56-6.915v-1.907
			c0-5.008,0-7.616-2.504-7.616c-1.009,0-1.76,0.603-2.258,1.003l-0.449,0.449V171.106z"/>
		<path clip-path="url(#SVGID_2_)" fill="#FDCCA6" d="M258.042,159.725h-3.304v-5.715h3.304v-2.806c0-6.165,3.058-8.422,8.422-8.422
			c1.605,0,2.805,0.154,4.109,0.302v6.213c-0.449-0.098-1.052-0.197-1.501-0.197c-2.055,0-2.91,0.652-2.91,2.153v2.756h4.411v5.715
			h-4.411v19.447h-8.121V159.725z"/>
		<path clip-path="url(#SVGID_2_)" fill="#FED8B9" d="M278.953,163.386c0-1.003-0.055-2.209-0.4-3.156
			c-0.406-1.003-1.058-1.704-2.362-1.704c-2.707,0-3.002,3.304-3.002,8.318c0,5.666,0.898,7.518,3.002,7.518
			c2.861,0,3.107-2.904,3.107-4.811l6.318,0.898c-0.597,6.122-4.11,9.333-10.022,9.333c-7.321,0-11.129-6.423-11.129-12.637
			c0-6.866,3.808-13.738,11.48-13.738c8.619,0,9.923,7.469,9.923,9.979H278.953z"/>
		<path clip-path="url(#SVGID_2_)" fill="#FEE4CE" d="M282.411,163.404c1.796,0,3.267,1.471,3.267,3.273
			c0,1.796-1.471,3.273-3.267,3.273c-1.809,0-3.273-1.477-3.273-3.273C279.138,164.875,280.602,163.404,282.411,163.404z"/>
		<path clip-path="url(#SVGID_2_)" fill="#FBB580" d="M296.253,143.483h8.127v11.985h0.099c1.156-1.206,3.254-2.061,4.909-2.061
			c5.617,0,8.625,5.617,8.625,12.889c0,5.765-2.406,13.178-9.222,13.178c-3.156,0-5.217-1.501-6.817-3.907l-1.507,3.605h-4.214
			V143.483z M304.38,171.106c-0.154,2.104,1.101,3.254,2.651,3.254c2.258,0,2.56-2.251,2.56-6.915v-1.907
			c0-5.008,0-7.616-2.51-7.616c-0.997,0-1.753,0.603-2.251,1.003l-0.449,0.449V171.106z"/>
		<path clip-path="url(#SVGID_2_)" fill="#FCC092" d="M313.356,143.483h8.121v11.985h0.099c1.157-1.206,3.261-2.061,4.916-2.061
			c5.617,0,8.619,5.617,8.619,12.889c0,5.765-2.405,13.178-9.222,13.178c-3.156,0-5.211-1.501-6.816-3.907l-1.507,3.605h-4.208
			V143.483z M321.477,171.106c-0.147,2.104,1.107,3.254,2.658,3.254c2.251,0,2.559-2.251,2.559-6.915v-1.907
			c0-5.008,0-7.616-2.51-7.616c-1.003,0-1.753,0.603-2.251,1.003l-0.456,0.449V171.106z"/>
		<path clip-path="url(#SVGID_2_)" fill="#FDCCA6" d="M330.687,159.725h-3.31v-5.715h3.31v-2.806c0-6.165,3.058-8.422,8.422-8.422
			c1.6,0,2.805,0.154,4.11,0.302v6.213c-0.449-0.098-1.052-0.197-1.507-0.197c-2.055,0-2.904,0.652-2.904,2.153v2.756h4.411v5.715
			h-4.411v19.447h-8.121V159.725z"/>
		<path clip-path="url(#SVGID_2_)" fill="#FED8B9" d="M351.592,163.386c0-1.003-0.049-2.209-0.4-3.156
			c-0.4-1.003-1.052-1.704-2.356-1.704c-2.707,0-3.008,3.304-3.008,8.318c0,5.666,0.904,7.518,3.008,7.518
			c2.855,0,3.107-2.904,3.107-4.811l6.318,0.898c-0.603,6.122-4.116,9.333-10.028,9.333c-7.321,0-11.129-6.423-11.129-12.637
			c0-6.866,3.808-13.738,11.48-13.738c8.625,0,9.929,7.469,9.929,9.979H351.592z"/>
		<path clip-path="url(#SVGID_2_)" fill="#FBB580" d="M151.424,102.347h8.121v11.984h0.098c1.157-1.206,3.261-2.055,4.916-2.055
			c5.617,0,8.625,5.611,8.625,12.886c0,5.764-2.406,13.178-9.228,13.178c-3.156,0-5.217-1.501-6.817-3.907l-1.507,3.611h-4.208
			V102.347z M159.545,129.973c-0.154,2.104,1.101,3.26,2.657,3.26c2.252,0,2.554-2.258,2.554-6.921v-1.907
			c0-5.011,0-7.62-2.504-7.62c-1.003,0-1.754,0.603-2.258,1.003l-0.449,0.449V129.973z"/>
		<path clip-path="url(#SVGID_2_)" fill="#FCC092" d="M168.527,102.347h8.121v11.984h0.098c1.15-1.206,3.261-2.055,4.916-2.055
			c5.61,0,8.619,5.611,8.619,12.886c0,5.764-2.406,13.178-9.222,13.178c-3.163,0-5.217-1.501-6.823-3.907l-1.501,3.611h-4.208
			V102.347z M176.648,129.973c-0.154,2.104,1.101,3.26,2.658,3.26c2.251,0,2.553-2.258,2.553-6.921v-1.907
			c0-5.011,0-7.62-2.504-7.62c-1.002,0-1.753,0.603-2.258,1.003l-0.449,0.449V129.973z"/>
		<path clip-path="url(#SVGID_2_)" fill="#FDCCA6" d="M185.852,118.588h-3.304v-5.715h3.304v-2.806c0-6.165,3.058-8.422,8.422-8.422
			c1.606,0,2.812,0.154,4.116,0.302v6.213c-0.455-0.098-1.058-0.197-1.507-0.197c-2.055,0-2.91,0.652-2.91,2.153v2.756h4.417v5.715
			h-4.417v19.456h-8.121V118.588z"/>
		<path clip-path="url(#SVGID_2_)" fill="#FED8B9" d="M206.762,122.249c0-1.003-0.055-2.203-0.4-3.156
			c-0.406-1.003-1.052-1.704-2.356-1.704c-2.711,0-3.007,3.304-3.007,8.321c0,5.666,0.898,7.524,3.007,7.524
			c2.855,0,3.107-2.91,3.107-4.817l6.311,0.904c-0.597,6.115-4.108,9.327-10.021,9.327c-7.32,0-11.128-6.423-11.128-12.637
			c0-6.869,3.808-13.735,11.479-13.735c8.624,0,9.922,7.463,9.922,9.973H206.762z"/>
		<path clip-path="url(#SVGID_2_)" fill="#FEE4CE" d="M210.219,122.267c1.795,0,3.266,1.471,3.266,3.276
			c0,1.796-1.471,3.273-3.266,3.273c-1.809,0-3.273-1.477-3.273-3.273C206.946,123.738,208.411,122.267,210.219,122.267z"/>
		<path clip-path="url(#SVGID_2_)" fill="#FBB580" d="M79.23,102.347h8.121v11.984h0.099c1.157-1.206,3.26-2.055,4.916-2.055
			c5.617,0,8.625,5.611,8.625,12.886c0,5.764-2.406,13.178-9.229,13.178c-3.156,0-5.211-1.501-6.816-3.907l-1.501,3.611H79.23
			V102.347z M87.351,129.973c-0.147,2.104,1.107,3.26,2.658,3.26c2.258,0,2.56-2.258,2.56-6.921v-1.907c0-5.011,0-7.62-2.51-7.62
			c-0.997,0-1.753,0.603-2.251,1.003l-0.456,0.449V129.973z"/>
		<path clip-path="url(#SVGID_2_)" fill="#FCC092" d="M96.333,102.347h8.121v11.984h0.099c1.149-1.206,3.259-2.055,4.914-2.055
			c5.611,0,8.619,5.611,8.619,12.886c0,5.764-2.405,13.178-9.222,13.178c-3.162,0-5.215-1.501-6.821-3.907l-1.501,3.611h-4.208
			V102.347z M104.454,129.973c-0.154,2.104,1.1,3.26,2.656,3.26c2.252,0,2.553-2.258,2.553-6.921v-1.907c0-5.011,0-7.62-2.504-7.62
			c-1.003,0-1.753,0.603-2.256,1.003l-0.449,0.449V129.973z"/>
		<path clip-path="url(#SVGID_2_)" fill="#FDCCA6" d="M113.656,118.588h-3.304v-5.715h3.304v-2.806c0-6.165,3.058-8.422,8.422-8.422
			c1.606,0,2.812,0.154,4.116,0.302v6.213c-0.455-0.098-1.058-0.197-1.507-0.197c-2.055,0-2.91,0.652-2.91,2.153v2.756h4.417v5.715
			h-4.417v19.456h-8.121V118.588z"/>
		<path clip-path="url(#SVGID_2_)" fill="#FED8B9" d="M134.567,122.249c0-1.003-0.056-2.203-0.4-3.156
			c-0.406-1.003-1.052-1.704-2.356-1.704c-2.713,0-3.008,3.304-3.008,8.321c0,5.666,0.898,7.524,3.008,7.524
			c2.854,0,3.107-2.91,3.107-4.817l6.312,0.904c-0.597,6.115-4.109,9.327-10.022,9.327c-7.321,0-11.129-6.423-11.129-12.637
			c0-6.869,3.809-13.735,11.48-13.735c8.625,0,9.923,7.463,9.923,9.973H134.567z"/>
		<path clip-path="url(#SVGID_2_)" fill="#FEE4CE" d="M138.025,122.267c1.796,0,3.267,1.471,3.267,3.276
			c0,1.796-1.47,3.273-3.267,3.273c-1.809,0-3.273-1.477-3.273-3.273C134.752,123.738,136.216,122.267,138.025,122.267z"/>
		<path clip-path="url(#SVGID_2_)" fill="#FBB580" d="M7.04,102.347h8.121v11.984h0.099c1.156-1.206,3.261-2.055,4.916-2.055
			c5.611,0,8.619,5.611,8.619,12.886c0,5.764-2.405,13.178-9.222,13.178c-3.156,0-5.211-1.501-6.816-3.907l-1.501,3.611H7.04
			V102.347z M15.161,129.973c-0.154,2.104,1.102,3.26,2.658,3.26c2.252,0,2.553-2.258,2.553-6.921v-1.907c0-5.011,0-7.62-2.504-7.62
			c-1.003,0-1.753,0.603-2.258,1.003l-0.449,0.449V129.973z"/>
		<path clip-path="url(#SVGID_2_)" fill="#FCC092" d="M24.137,102.347h8.127v11.984h0.099c1.15-1.206,3.254-2.055,4.91-2.055
			c5.617,0,8.619,5.611,8.619,12.886c0,5.764-2.406,13.178-9.222,13.178c-3.156,0-5.211-1.501-6.817-3.907l-1.501,3.611h-4.214
			V102.347z M32.264,129.973c-0.154,2.104,1.102,3.26,2.652,3.26c2.258,0,2.559-2.258,2.559-6.921v-1.907c0-5.011,0-7.62-2.51-7.62
			c-1.003,0-1.753,0.603-2.252,1.003l-0.449,0.449V129.973z"/>
		<path clip-path="url(#SVGID_2_)" fill="#FDCCA6" d="M41.467,118.588h-3.31v-5.715h3.31v-2.806c0-6.165,3.058-8.422,8.423-8.422
			c1.605,0,2.805,0.154,4.109,0.302v6.213c-0.449-0.098-1.052-0.197-1.501-0.197c-2.061,0-2.91,0.652-2.91,2.153v2.756H54v5.715
			h-4.411v19.456h-8.121V118.588z"/>
		<path clip-path="url(#SVGID_2_)" fill="#FED8B9" d="M62.379,122.249c0-1.003-0.055-2.203-0.406-3.156
			c-0.4-1.003-1.052-1.704-2.356-1.704c-2.707,0-3.009,3.304-3.009,8.321c0,5.666,0.904,7.524,3.009,7.524
			c2.86,0,3.106-2.91,3.106-4.817l6.318,0.904c-0.603,6.115-4.109,9.327-10.028,9.327c-7.315,0-11.124-6.423-11.124-12.637
			c0-6.869,3.809-13.735,11.48-13.735c8.619,0,9.923,7.463,9.923,9.973H62.379z"/>
		<path clip-path="url(#SVGID_2_)" fill="#FEE4CE" d="M65.83,122.267c1.803,0,3.273,1.471,3.273,3.276
			c0,1.796-1.47,3.273-3.273,3.273c-1.802,0-3.267-1.477-3.267-3.273C62.563,123.738,64.028,122.267,65.83,122.267z"/>
		<path clip-path="url(#SVGID_2_)" fill="#FBB580" d="M223.616,102.347h8.119v11.984h0.099c1.157-1.206,3.261-2.055,4.916-2.055
			c5.617,0,8.625,5.611,8.625,12.886c0,5.764-2.412,13.178-9.229,13.178c-3.156,0-5.211-1.501-6.816-3.907l-1.5,3.611h-4.214
			V102.347z M231.735,129.973c-0.147,2.104,1.102,3.26,2.658,3.26c2.251,0,2.559-2.258,2.559-6.921v-1.907c0-5.011,0-7.62-2.51-7.62
			c-1.003,0-1.753,0.603-2.258,1.003l-0.449,0.449V129.973z"/>
		<path clip-path="url(#SVGID_2_)" fill="#FCC092" d="M240.717,102.347h8.121v11.984h0.098c1.151-1.206,3.254-2.055,4.916-2.055
			c5.611,0,8.619,5.611,8.619,12.886c0,5.764-2.405,13.178-9.222,13.178c-3.162,0-5.217-1.501-6.823-3.907l-1.501,3.611h-4.208
			V102.347z M248.838,129.973c-0.154,2.104,1.101,3.26,2.651,3.26c2.258,0,2.56-2.258,2.56-6.921v-1.907c0-5.011,0-7.62-2.504-7.62
			c-1.009,0-1.76,0.603-2.258,1.003l-0.449,0.449V129.973z"/>
		<path clip-path="url(#SVGID_2_)" fill="#FDCCA6" d="M258.042,118.588h-3.304v-5.715h3.304v-2.806c0-6.165,3.058-8.422,8.422-8.422
			c1.605,0,2.805,0.154,4.109,0.302v6.213c-0.449-0.098-1.052-0.197-1.501-0.197c-2.055,0-2.91,0.652-2.91,2.153v2.756h4.411v5.715
			h-4.411v19.456h-8.121V118.588z"/>
		<path clip-path="url(#SVGID_2_)" fill="#FED8B9" d="M278.953,122.249c0-1.003-0.055-2.203-0.4-3.156
			c-0.406-1.003-1.058-1.704-2.362-1.704c-2.707,0-3.002,3.304-3.002,8.321c0,5.666,0.898,7.524,3.002,7.524
			c2.861,0,3.107-2.91,3.107-4.817l6.318,0.904c-0.597,6.115-4.11,9.327-10.022,9.327c-7.321,0-11.129-6.423-11.129-12.637
			c0-6.869,3.808-13.735,11.48-13.735c8.619,0,9.923,7.463,9.923,9.973H278.953z"/>
		<path clip-path="url(#SVGID_2_)" fill="#FEE4CE" d="M282.411,122.267c1.796,0,3.267,1.471,3.267,3.276
			c0,1.796-1.471,3.273-3.267,3.273c-1.809,0-3.273-1.477-3.273-3.273C279.138,123.738,280.602,122.267,282.411,122.267z"/>
		<path clip-path="url(#SVGID_2_)" fill="#FBB580" d="M296.253,102.347h8.127v11.984h0.099c1.156-1.206,3.254-2.055,4.909-2.055
			c5.617,0,8.625,5.611,8.625,12.886c0,5.764-2.406,13.178-9.222,13.178c-3.156,0-5.217-1.501-6.817-3.907l-1.507,3.611h-4.214
			V102.347z M304.38,129.973c-0.154,2.104,1.101,3.26,2.651,3.26c2.258,0,2.56-2.258,2.56-6.921v-1.907c0-5.011,0-7.62-2.51-7.62
			c-0.997,0-1.753,0.603-2.251,1.003l-0.449,0.449V129.973z"/>
		<path clip-path="url(#SVGID_2_)" fill="#FCC092" d="M313.356,102.347h8.121v11.984h0.099c1.157-1.206,3.261-2.055,4.916-2.055
			c5.617,0,8.619,5.611,8.619,12.886c0,5.764-2.405,13.178-9.222,13.178c-3.156,0-5.211-1.501-6.816-3.907l-1.507,3.611h-4.208
			V102.347z M321.477,129.973c-0.147,2.104,1.107,3.26,2.658,3.26c2.251,0,2.559-2.258,2.559-6.921v-1.907c0-5.011,0-7.62-2.51-7.62
			c-1.003,0-1.753,0.603-2.251,1.003l-0.456,0.449V129.973z"/>
		<path clip-path="url(#SVGID_2_)" fill="#FDCCA6" d="M330.687,118.588h-3.31v-5.715h3.31v-2.806c0-6.165,3.058-8.422,8.422-8.422
			c1.6,0,2.805,0.154,4.11,0.302v6.213c-0.449-0.098-1.052-0.197-1.507-0.197c-2.055,0-2.904,0.652-2.904,2.153v2.756h4.411v5.715
			h-4.411v19.456h-8.121V118.588z"/>
		<path clip-path="url(#SVGID_2_)" fill="#FED8B9" d="M351.592,122.249c0-1.003-0.049-2.203-0.4-3.156
			c-0.4-1.003-1.052-1.704-2.356-1.704c-2.707,0-3.008,3.304-3.008,8.321c0,5.666,0.904,7.524,3.008,7.524
			c2.855,0,3.107-2.91,3.107-4.817l6.318,0.904c-0.603,6.115-4.116,9.327-10.028,9.327c-7.321,0-11.129-6.423-11.129-12.637
			c0-6.869,3.808-13.735,11.48-13.735c8.625,0,9.929,7.463,9.929,9.973H351.592z"/>
		<path clip-path="url(#SVGID_2_)" fill="#FBB580" d="M151.424,61.213h8.121v11.984h0.098c1.157-1.206,3.261-2.055,4.916-2.055
			c5.617,0,8.625,5.611,8.625,12.883c0,5.765-2.406,13.184-9.228,13.184c-3.156,0-5.217-1.501-6.817-3.913l-1.507,3.611h-4.208
			V61.213z M159.545,88.836c-0.154,2.11,1.101,3.261,2.657,3.261c2.252,0,2.554-2.258,2.554-6.921v-1.901
			c0-5.014,0-7.623-2.504-7.623c-1.003,0-1.754,0.603-2.258,1.003l-0.449,0.456V88.836z"/>
		<path clip-path="url(#SVGID_2_)" fill="#FCC092" d="M168.527,61.213h8.121v11.984h0.098c1.15-1.206,3.261-2.055,4.916-2.055
			c5.61,0,8.619,5.611,8.619,12.883c0,5.765-2.406,13.184-9.222,13.184c-3.163,0-5.217-1.501-6.823-3.913l-1.501,3.611h-4.208
			V61.213z M176.648,88.836c-0.154,2.11,1.101,3.261,2.658,3.261c2.251,0,2.553-2.258,2.553-6.921v-1.901
			c0-5.014,0-7.623-2.504-7.623c-1.002,0-1.753,0.603-2.258,1.003l-0.449,0.456V88.836z"/>
		<path clip-path="url(#SVGID_2_)" fill="#FDCCA6" d="M185.852,77.455h-3.304v-5.709h3.304v-2.812c0-6.165,3.058-8.422,8.422-8.422
			c1.606,0,2.812,0.154,4.116,0.301v6.22c-0.455-0.104-1.058-0.203-1.507-0.203c-2.055,0-2.91,0.652-2.91,2.153v2.763h4.417v5.709
			h-4.417v19.453h-8.121V77.455z"/>
		<path clip-path="url(#SVGID_2_)" fill="#FED8B9" d="M206.762,81.115c0-0.997-0.055-2.203-0.4-3.156
			c-0.406-1.002-1.052-1.704-2.356-1.704c-2.711,0-3.007,3.31-3.007,8.318c0,5.666,0.898,7.524,3.007,7.524
			c2.855,0,3.107-2.91,3.107-4.817l6.311,0.904c-0.597,6.115-4.108,9.327-10.021,9.327c-7.32,0-11.128-6.417-11.128-12.63
			c0-6.872,3.808-13.738,11.479-13.738c8.624,0,9.922,7.469,9.922,9.973H206.762z"/>
		<path clip-path="url(#SVGID_2_)" fill="#FEE4CE" d="M210.219,81.134c1.795,0,3.266,1.47,3.266,3.273s-1.471,3.273-3.266,3.273
			c-1.809,0-3.273-1.47-3.273-3.273S208.411,81.134,210.219,81.134z"/>
		<path clip-path="url(#SVGID_2_)" fill="#FBB580" d="M79.23,61.213h8.121v11.984h0.099c1.157-1.206,3.26-2.055,4.916-2.055
			c5.617,0,8.625,5.611,8.625,12.883c0,5.765-2.406,13.184-9.229,13.184c-3.156,0-5.211-1.501-6.816-3.913l-1.501,3.611H79.23
			V61.213z M87.351,88.836c-0.147,2.11,1.107,3.261,2.658,3.261c2.258,0,2.56-2.258,2.56-6.921v-1.901c0-5.014,0-7.623-2.51-7.623
			c-0.997,0-1.753,0.603-2.251,1.003l-0.456,0.456V88.836z"/>
		<path clip-path="url(#SVGID_2_)" fill="#FCC092" d="M96.333,61.213h8.121v11.984h0.099c1.149-1.206,3.259-2.055,4.914-2.055
			c5.611,0,8.619,5.611,8.619,12.883c0,5.765-2.405,13.184-9.222,13.184c-3.162,0-5.215-1.501-6.821-3.913l-1.501,3.611h-4.208
			V61.213z M104.454,88.836c-0.154,2.11,1.1,3.261,2.656,3.261c2.252,0,2.553-2.258,2.553-6.921v-1.901c0-5.014,0-7.623-2.504-7.623
			c-1.003,0-1.753,0.603-2.256,1.003l-0.449,0.456V88.836z"/>
		<path clip-path="url(#SVGID_2_)" fill="#FDCCA6" d="M113.656,77.455h-3.304v-5.709h3.304v-2.812c0-6.165,3.058-8.422,8.422-8.422
			c1.606,0,2.812,0.154,4.116,0.301v6.22c-0.455-0.104-1.058-0.203-1.507-0.203c-2.055,0-2.91,0.652-2.91,2.153v2.763h4.417v5.709
			h-4.417v19.453h-8.121V77.455z"/>
		<path clip-path="url(#SVGID_2_)" fill="#FED8B9" d="M134.567,81.115c0-0.997-0.056-2.203-0.4-3.156
			c-0.406-1.002-1.052-1.704-2.356-1.704c-2.713,0-3.008,3.31-3.008,8.318c0,5.666,0.898,7.524,3.008,7.524
			c2.854,0,3.107-2.91,3.107-4.817l6.312,0.904c-0.597,6.115-4.109,9.327-10.022,9.327c-7.321,0-11.129-6.417-11.129-12.63
			c0-6.872,3.809-13.738,11.48-13.738c8.625,0,9.923,7.469,9.923,9.973H134.567z"/>
		<path clip-path="url(#SVGID_2_)" fill="#FEE4CE" d="M138.025,81.134c1.796,0,3.267,1.47,3.267,3.273s-1.47,3.273-3.267,3.273
			c-1.809,0-3.273-1.47-3.273-3.273S136.216,81.134,138.025,81.134z"/>
		<path clip-path="url(#SVGID_2_)" fill="#FBB580" d="M7.04,61.213h8.121v11.984h0.099c1.156-1.206,3.261-2.055,4.916-2.055
			c5.611,0,8.619,5.611,8.619,12.883c0,5.765-2.405,13.184-9.222,13.184c-3.156,0-5.211-1.501-6.816-3.913l-1.501,3.611H7.04V61.213
			z M15.161,88.836c-0.154,2.11,1.102,3.261,2.658,3.261c2.252,0,2.553-2.258,2.553-6.921v-1.901c0-5.014,0-7.623-2.504-7.623
			c-1.003,0-1.753,0.603-2.258,1.003l-0.449,0.456V88.836z"/>
		<path clip-path="url(#SVGID_2_)" fill="#FCC092" d="M24.137,61.213h8.127v11.984h0.099c1.15-1.206,3.254-2.055,4.91-2.055
			c5.617,0,8.619,5.611,8.619,12.883c0,5.765-2.406,13.184-9.222,13.184c-3.156,0-5.211-1.501-6.817-3.913l-1.501,3.611h-4.214
			V61.213z M32.264,88.836c-0.154,2.11,1.102,3.261,2.652,3.261c2.258,0,2.559-2.258,2.559-6.921v-1.901c0-5.014,0-7.623-2.51-7.623
			c-1.003,0-1.753,0.603-2.252,1.003l-0.449,0.456V88.836z"/>
		<path clip-path="url(#SVGID_2_)" fill="#FDCCA6" d="M41.467,77.455h-3.31v-5.709h3.31v-2.812c0-6.165,3.058-8.422,8.423-8.422
			c1.605,0,2.805,0.154,4.109,0.301v6.22c-0.449-0.104-1.052-0.203-1.501-0.203c-2.061,0-2.91,0.652-2.91,2.153v2.763H54v5.709
			h-4.411v19.453h-8.121V77.455z"/>
		<path clip-path="url(#SVGID_2_)" fill="#FED8B9" d="M62.379,81.115c0-0.997-0.055-2.203-0.406-3.156
			c-0.4-1.002-1.052-1.704-2.356-1.704c-2.707,0-3.009,3.31-3.009,8.318c0,5.666,0.904,7.524,3.009,7.524
			c2.86,0,3.106-2.91,3.106-4.817l6.318,0.904c-0.603,6.115-4.109,9.327-10.028,9.327c-7.315,0-11.124-6.417-11.124-12.63
			c0-6.872,3.809-13.738,11.48-13.738c8.619,0,9.923,7.469,9.923,9.973H62.379z"/>
		<path clip-path="url(#SVGID_2_)" fill="#FEE4CE" d="M65.83,81.134c1.803,0,3.273,1.47,3.273,3.273s-1.47,3.273-3.273,3.273
			c-1.802,0-3.267-1.47-3.267-3.273S64.028,81.134,65.83,81.134z"/>
		<path clip-path="url(#SVGID_2_)" fill="#FBB580" d="M223.616,61.213h8.119v11.984h0.099c1.157-1.206,3.261-2.055,4.916-2.055
			c5.617,0,8.625,5.611,8.625,12.883c0,5.765-2.412,13.184-9.229,13.184c-3.156,0-5.211-1.501-6.816-3.913l-1.5,3.611h-4.214V61.213
			z M231.735,88.836c-0.147,2.11,1.102,3.261,2.658,3.261c2.251,0,2.559-2.258,2.559-6.921v-1.901c0-5.014,0-7.623-2.51-7.623
			c-1.003,0-1.753,0.603-2.258,1.003l-0.449,0.456V88.836z"/>
		<path clip-path="url(#SVGID_2_)" fill="#FCC092" d="M240.717,61.213h8.121v11.984h0.098c1.151-1.206,3.254-2.055,4.916-2.055
			c5.611,0,8.619,5.611,8.619,12.883c0,5.765-2.405,13.184-9.222,13.184c-3.162,0-5.217-1.501-6.823-3.913l-1.501,3.611h-4.208
			V61.213z M248.838,88.836c-0.154,2.11,1.101,3.261,2.651,3.261c2.258,0,2.56-2.258,2.56-6.921v-1.901c0-5.014,0-7.623-2.504-7.623
			c-1.009,0-1.76,0.603-2.258,1.003l-0.449,0.456V88.836z"/>
		<path clip-path="url(#SVGID_2_)" fill="#FDCCA6" d="M258.042,77.455h-3.304v-5.709h3.304v-2.812c0-6.165,3.058-8.422,8.422-8.422
			c1.605,0,2.805,0.154,4.109,0.301v6.22c-0.449-0.104-1.052-0.203-1.501-0.203c-2.055,0-2.91,0.652-2.91,2.153v2.763h4.411v5.709
			h-4.411v19.453h-8.121V77.455z"/>
		<path clip-path="url(#SVGID_2_)" fill="#FED8B9" d="M278.953,81.115c0-0.997-0.055-2.203-0.4-3.156
			c-0.406-1.002-1.058-1.704-2.362-1.704c-2.707,0-3.002,3.31-3.002,8.318c0,5.666,0.898,7.524,3.002,7.524
			c2.861,0,3.107-2.91,3.107-4.817l6.318,0.904c-0.597,6.115-4.11,9.327-10.022,9.327c-7.321,0-11.129-6.417-11.129-12.63
			c0-6.872,3.808-13.738,11.48-13.738c8.619,0,9.923,7.469,9.923,9.973H278.953z"/>
		<path clip-path="url(#SVGID_2_)" fill="#FEE4CE" d="M282.411,81.134c1.796,0,3.267,1.47,3.267,3.273s-1.471,3.273-3.267,3.273
			c-1.809,0-3.273-1.47-3.273-3.273S280.602,81.134,282.411,81.134z"/>
		<path clip-path="url(#SVGID_2_)" fill="#FBB580" d="M296.253,61.213h8.127v11.984h0.099c1.156-1.206,3.254-2.055,4.909-2.055
			c5.617,0,8.625,5.611,8.625,12.883c0,5.765-2.406,13.184-9.222,13.184c-3.156,0-5.217-1.501-6.817-3.913l-1.507,3.611h-4.214
			V61.213z M304.38,88.836c-0.154,2.11,1.101,3.261,2.651,3.261c2.258,0,2.56-2.258,2.56-6.921v-1.901c0-5.014,0-7.623-2.51-7.623
			c-0.997,0-1.753,0.603-2.251,1.003l-0.449,0.456V88.836z"/>
		<path clip-path="url(#SVGID_2_)" fill="#FCC092" d="M313.356,61.213h8.121v11.984h0.099c1.157-1.206,3.261-2.055,4.916-2.055
			c5.617,0,8.619,5.611,8.619,12.883c0,5.765-2.405,13.184-9.222,13.184c-3.156,0-5.211-1.501-6.816-3.913l-1.507,3.611h-4.208
			V61.213z M321.477,88.836c-0.147,2.11,1.107,3.261,2.658,3.261c2.251,0,2.559-2.258,2.559-6.921v-1.901
			c0-5.014,0-7.623-2.51-7.623c-1.003,0-1.753,0.603-2.251,1.003l-0.456,0.456V88.836z"/>
		<path clip-path="url(#SVGID_2_)" fill="#FDCCA6" d="M330.687,77.455h-3.31v-5.709h3.31v-2.812c0-6.165,3.058-8.422,8.422-8.422
			c1.6,0,2.805,0.154,4.11,0.301v6.22c-0.449-0.104-1.052-0.203-1.507-0.203c-2.055,0-2.904,0.652-2.904,2.153v2.763h4.411v5.709
			h-4.411v19.453h-8.121V77.455z"/>
		<path clip-path="url(#SVGID_2_)" fill="#FED8B9" d="M351.592,81.115c0-0.997-0.049-2.203-0.4-3.156
			c-0.4-1.002-1.052-1.704-2.356-1.704c-2.707,0-3.008,3.31-3.008,8.318c0,5.666,0.904,7.524,3.008,7.524
			c2.855,0,3.107-2.91,3.107-4.817l6.318,0.904c-0.603,6.115-4.116,9.327-10.028,9.327c-7.321,0-11.129-6.417-11.129-12.63
			c0-6.872,3.808-13.738,11.48-13.738c8.625,0,9.929,7.469,9.929,9.973H351.592z"/>
		<path clip-path="url(#SVGID_2_)" fill="#FBB580" d="M151.424,20.079h8.121v11.985h0.098c1.157-1.206,3.261-2.055,4.916-2.055
			c5.617,0,8.625,5.617,8.625,12.883c0,5.765-2.406,13.184-9.228,13.184c-3.156,0-5.217-1.501-6.817-3.913l-1.507,3.611h-4.208
			V20.079z M159.545,47.703c-0.154,2.11,1.101,3.261,2.657,3.261c2.252,0,2.554-2.258,2.554-6.921v-1.901
			c0-5.014,0-7.623-2.504-7.623c-1.003,0-1.754,0.603-2.258,1.003l-0.449,0.455V47.703z"/>
		<path clip-path="url(#SVGID_2_)" fill="#FCC092" d="M168.527,20.079h8.121v11.985h0.098c1.15-1.206,3.261-2.055,4.916-2.055
			c5.61,0,8.619,5.617,8.619,12.883c0,5.765-2.406,13.184-9.222,13.184c-3.163,0-5.217-1.501-6.823-3.913l-1.501,3.611h-4.208
			V20.079z M176.648,47.703c-0.154,2.11,1.101,3.261,2.658,3.261c2.251,0,2.553-2.258,2.553-6.921v-1.901
			c0-5.014,0-7.623-2.504-7.623c-1.002,0-1.753,0.603-2.258,1.003l-0.449,0.455V47.703z"/>
		<path clip-path="url(#SVGID_2_)" fill="#FDCCA6" d="M185.852,36.321h-3.304v-5.709h3.304V27.8c0-6.165,3.058-8.416,8.422-8.416
			c1.606,0,2.812,0.147,4.116,0.295v6.22c-0.455-0.105-1.058-0.203-1.507-0.203c-2.055,0-2.91,0.652-2.91,2.153v2.762h4.417v5.709
			h-4.417v19.454h-8.121V36.321z"/>
		<path clip-path="url(#SVGID_2_)" fill="#FED8B9" d="M206.762,39.981c0-0.997-0.055-2.202-0.4-3.156
			c-0.406-1.003-1.052-1.704-2.356-1.704c-2.711,0-3.007,3.31-3.007,8.324c0,5.66,0.898,7.518,3.007,7.518
			c2.855,0,3.107-2.904,3.107-4.817l6.311,0.904c-0.597,6.115-4.108,9.327-10.021,9.327c-7.32,0-11.128-6.417-11.128-12.631
			c0-6.872,3.808-13.738,11.479-13.738c8.624,0,9.922,7.469,9.922,9.973H206.762z"/>
		<path clip-path="url(#SVGID_2_)" fill="#FEE4CE" d="M210.219,40c1.795,0,3.266,1.47,3.266,3.273s-1.471,3.279-3.266,3.279
			c-1.809,0-3.273-1.477-3.273-3.279S208.411,40,210.219,40z"/>
		<path clip-path="url(#SVGID_2_)" fill="#FBB580" d="M79.23,20.079h8.121v11.985h0.099c1.157-1.206,3.26-2.055,4.916-2.055
			c5.617,0,8.625,5.617,8.625,12.883c0,5.765-2.406,13.184-9.229,13.184c-3.156,0-5.211-1.501-6.816-3.913l-1.501,3.611H79.23
			V20.079z M87.351,47.703c-0.147,2.11,1.107,3.261,2.658,3.261c2.258,0,2.56-2.258,2.56-6.921v-1.901c0-5.014,0-7.623-2.51-7.623
			c-0.997,0-1.753,0.603-2.251,1.003l-0.456,0.455V47.703z"/>
		<path clip-path="url(#SVGID_2_)" fill="#FCC092" d="M96.333,20.079h8.121v11.985h0.099c1.149-1.206,3.259-2.055,4.914-2.055
			c5.611,0,8.619,5.617,8.619,12.883c0,5.765-2.405,13.184-9.222,13.184c-3.162,0-5.215-1.501-6.821-3.913l-1.501,3.611h-4.208
			V20.079z M104.454,47.703c-0.154,2.11,1.1,3.261,2.656,3.261c2.252,0,2.553-2.258,2.553-6.921v-1.901c0-5.014,0-7.623-2.504-7.623
			c-1.003,0-1.753,0.603-2.256,1.003l-0.449,0.455V47.703z"/>
		<path clip-path="url(#SVGID_2_)" fill="#FDCCA6" d="M113.656,36.321h-3.304v-5.709h3.304V27.8c0-6.165,3.058-8.416,8.422-8.416
			c1.606,0,2.812,0.147,4.116,0.295v6.22c-0.455-0.105-1.058-0.203-1.507-0.203c-2.055,0-2.91,0.652-2.91,2.153v2.762h4.417v5.709
			h-4.417v19.454h-8.121V36.321z"/>
		<path clip-path="url(#SVGID_2_)" fill="#FED8B9" d="M134.567,39.981c0-0.997-0.056-2.202-0.4-3.156
			c-0.406-1.003-1.052-1.704-2.356-1.704c-2.713,0-3.008,3.31-3.008,8.324c0,5.66,0.898,7.518,3.008,7.518
			c2.854,0,3.107-2.904,3.107-4.817l6.312,0.904c-0.597,6.115-4.109,9.327-10.022,9.327c-7.321,0-11.129-6.417-11.129-12.631
			c0-6.872,3.809-13.738,11.48-13.738c8.625,0,9.923,7.469,9.923,9.973H134.567z"/>
		<path clip-path="url(#SVGID_2_)" fill="#FEE4CE" d="M138.025,40c1.796,0,3.267,1.47,3.267,3.273s-1.47,3.279-3.267,3.279
			c-1.809,0-3.273-1.477-3.273-3.279S136.216,40,138.025,40z"/>
		<path clip-path="url(#SVGID_2_)" fill="#FBB580" d="M223.616,20.079h8.119v11.985h0.099c1.157-1.206,3.261-2.055,4.916-2.055
			c5.617,0,8.625,5.617,8.625,12.883c0,5.765-2.412,13.184-9.229,13.184c-3.156,0-5.211-1.501-6.816-3.913l-1.5,3.611h-4.214V20.079
			z M231.735,47.703c-0.147,2.11,1.102,3.261,2.658,3.261c2.251,0,2.559-2.258,2.559-6.921v-1.901c0-5.014,0-7.623-2.51-7.623
			c-1.003,0-1.753,0.603-2.258,1.003l-0.449,0.455V47.703z"/>
		<path clip-path="url(#SVGID_2_)" fill="#FCC092" d="M240.717,20.079h8.121v11.985h0.098c1.151-1.206,3.254-2.055,4.916-2.055
			c5.611,0,8.619,5.617,8.619,12.883c0,5.765-2.405,13.184-9.222,13.184c-3.162,0-5.217-1.501-6.823-3.913l-1.501,3.611h-4.208
			V20.079z M248.838,47.703c-0.154,2.11,1.101,3.261,2.651,3.261c2.258,0,2.56-2.258,2.56-6.921v-1.901c0-5.014,0-7.623-2.504-7.623
			c-1.009,0-1.76,0.603-2.258,1.003l-0.449,0.455V47.703z"/>
		<path clip-path="url(#SVGID_2_)" fill="#FDCCA6" d="M258.042,36.321h-3.304v-5.709h3.304V27.8c0-6.165,3.058-8.416,8.422-8.416
			c1.605,0,2.805,0.147,4.109,0.295v6.22c-0.449-0.105-1.052-0.203-1.501-0.203c-2.055,0-2.91,0.652-2.91,2.153v2.762h4.411v5.709
			h-4.411v19.454h-8.121V36.321z"/>
		<path clip-path="url(#SVGID_2_)" fill="#FED8B9" d="M278.953,39.981c0-0.997-0.055-2.202-0.4-3.156
			c-0.406-1.003-1.058-1.704-2.362-1.704c-2.707,0-3.002,3.31-3.002,8.324c0,5.66,0.898,7.518,3.002,7.518
			c2.861,0,3.107-2.904,3.107-4.817l6.318,0.904c-0.597,6.115-4.11,9.327-10.022,9.327c-7.321,0-11.129-6.417-11.129-12.631
			c0-6.872,3.808-13.738,11.48-13.738c8.619,0,9.923,7.469,9.923,9.973H278.953z"/>
		<path clip-path="url(#SVGID_2_)" fill="#FEE4CE" d="M282.411,40c1.796,0,3.267,1.47,3.267,3.273s-1.471,3.279-3.267,3.279
			c-1.809,0-3.273-1.477-3.273-3.279S280.602,40,282.411,40z"/>
	</g>
	<polygon fill="#231F20" points="90.962,241.866 90.962,155.154 72.85,170.817 72.85,142.926 90.962,127.263 117.101,127.263 
		117.101,241.866 	"/>
	<path fill="#231F20" d="M255.957,130.277h-21.164l-31.919,87.758H161.71l27.365-28.971c9.173-9.653,14.161-16.091,14.161-28.165
		c0-21.566-15.453-34.603-36.69-34.603c-19.964,0-37.024,12.394-37.024,34.926h26.399c0-8.85,5.789-11.108,10.625-11.108
		c6.755,0,10.299,4.347,10.299,10.625c0,4.83-1.612,7.727-5.795,12.233l-41.527,45.062v23.821h93.367l5.482-16.611h34.321
		l5.174,16.611h28.682L255.957,130.277z M236.054,202.366l10.028-29.776l9.4,29.776H236.054z"/>
	<polygon fill="#FFFFFF" points="82.035,232.936 82.035,146.227 63.923,161.891 63.923,133.997 82.035,118.336 108.174,118.336 
		108.174,232.936 	"/>
	<path fill="#FFFFFF" d="M247.023,121.351h-21.156l-31.919,87.758h-41.165l27.365-28.971c9.167-9.656,14.156-16.094,14.156-28.165
		c0-21.569-15.448-34.603-36.692-34.603c-19.958,0-37.018,12.391-37.018,34.923h26.393c0-8.85,5.795-11.104,10.625-11.104
		c6.761,0,10.299,4.343,10.299,10.625c0,4.827-1.606,7.725-5.795,12.231l-41.521,45.065v23.818h93.363l5.487-16.611h34.32
		l5.168,16.611h28.682L247.023,121.351z M227.547,193.04l10.131-30.079l9.493,30.079H227.547z"/>
</g>
</svg>
