<?xml version="1.0" encoding="utf-8"?>
<!-- Generator: Adobe Illustrator 16.0.0, SVG Export Plug-In . SVG Version: 6.00 Build 0)  -->
<!DOCTYPE svg PUBLIC "-//W3C//DTD SVG 1.1//EN" "http://www.w3.org/Graphics/SVG/1.1/DTD/svg11.dtd">
<svg version="1.1" id="Layer_1" xmlns="http://www.w3.org/2000/svg" xmlns:xlink="http://www.w3.org/1999/xlink" x="0px" y="0px"
	 width="389.12px" height="320.175px" viewBox="0 0 389.12 320.175" enable-background="new 0 0 389.12 320.175"
	 xml:space="preserve">
<g>
	<rect x="2.679" y="2.679" fill="#FFFFFF" width="383.763" height="314.816"/>
	<polygon fill="#231F20" points="386.441,317.495 386.441,314.815 5.358,314.815 5.358,5.359 383.762,5.359 383.762,317.495 
		386.441,317.495 386.441,314.815 386.441,317.495 389.12,317.495 389.12,0 0,0 0,320.175 389.12,320.175 389.12,317.495 	"/>
	<rect x="18.788" y="18.811" fill="#0668B3" width="351.54" height="282.548"/>
	<path fill="#0668B3" d="M336.78,308.74c-0.166,1.182-1.058,1.81-2.063,1.81c-1.443,0-2.391-1.083-2.391-2.474
		c0-1.434,0.904-2.479,2.369-2.479c1.036,0,1.852,0.609,2.039,1.778h-1.046c-0.099-0.529-0.529-0.72-0.993-0.72
		c-0.705,0-1.09,0.529-1.09,1.402c0,0.813,0.439,1.434,1.111,1.434c0.52,0,0.928-0.233,0.972-0.751H336.78z M334.596,303.757
		c2.381,0,4.322,1.938,4.322,4.319s-1.941,4.325-4.322,4.325s-4.321-1.944-4.321-4.325S332.215,303.757,334.596,303.757z
		 M337.574,308.076c0-1.969-1.225-3.193-2.979-3.193c-1.753,0-2.977,1.225-2.977,3.193c0,1.975,1.224,3.199,2.977,3.199
		C336.35,311.275,337.574,310.051,337.574,308.076z"/>
	<path fill="#0668B3" d="M339.524,310.722l3.341-2.707c0.363-0.302,1.058-0.997,1.058-1.568c0-0.641-0.431-1.034-1.058-1.034
		c-0.828,0-1.4,0.701-1.643,1.434l-1.721-0.886c0.432-1.089,1.6-2.135,3.529-2.135c2.568,0,3.295,1.488,3.295,2.491
		c0,1.046-0.65,1.797-1.512,2.369l-2.27,1.556v0.019h3.771v1.987h-6.792V310.722z"/>
	<path fill="#0668B3" d="M350.945,303.825c2.744,0,3.64,2.553,3.64,4.288c0,2.719-1.557,4.288-3.64,4.288
		c-2.082,0-3.639-1.569-3.639-4.288C347.307,306.378,348.201,303.825,350.945,303.825z M350.945,305.412
		c-0.717,0-1.189,0.462-1.189,2.701s0.473,2.7,1.189,2.7s1.191-0.461,1.191-2.7S351.662,305.412,350.945,305.412z"/>
	<path fill="#0668B3" d="M360.098,308.113c0,2.239-0.475,2.7-1.191,2.7s-1.189-0.461-1.189-2.7s0.473-2.701,1.189-2.701
		S360.098,305.874,360.098,308.113z M355.268,308.113c0,2.719,1.554,4.288,3.639,4.288c2.083,0,3.637-1.569,3.637-4.288
		c0-1.735-0.893-4.288-3.637-4.288C356.16,303.825,355.268,306.378,355.268,308.113z"/>
	<path fill="#0668B3" d="M363.404,310.722l3.34-2.707c0.363-0.302,1.059-0.997,1.059-1.568c0-0.641-0.431-1.034-1.059-1.034
		c-0.827,0-1.399,0.701-1.643,1.434l-1.719-0.886c0.428-1.089,1.596-2.135,3.527-2.135c2.568,0,3.295,1.488,3.295,2.491
		c0,1.046-0.648,1.797-1.51,2.369l-2.271,1.556v0.019h3.771v1.987h-6.791V310.722z"/>
	<g>
		<defs>
			<rect id="SVGID_15_" x="18.788" y="18.811" width="351.54" height="282.548"/>
		</defs>
		<clipPath id="SVGID_2_">
			<use xlink:href="#SVGID_15_"  overflow="visible"/>
		</clipPath>
		<path clip-path="url(#SVGID_2_)" fill="#7794CC" d="M163.605,264.313h8.013v11.827h0.099c1.142-1.187,3.218-2.029,4.851-2.029
			c5.547,0,8.515,5.543,8.515,12.716c0,5.691-2.374,13.012-9.108,13.012c-3.115,0-5.146-1.482-6.727-3.857l-1.486,3.563h-4.155
			V264.313z M171.618,291.576c-0.147,2.079,1.092,3.211,2.624,3.211c2.228,0,2.522-2.224,2.522-6.825v-1.877
			c0-4.952,0-7.524-2.474-7.524c-0.99,0-1.734,0.601-2.224,0.994l-0.449,0.446V291.576z"/>
		<path clip-path="url(#SVGID_2_)" fill="#8BA2D3" d="M180.486,264.313h8.014v11.827h0.099c1.141-1.187,3.218-2.029,4.851-2.029
			c5.543,0,8.509,5.543,8.509,12.716c0,5.691-2.375,13.012-9.103,13.012c-3.116,0-5.143-1.482-6.73-3.857l-1.485,3.563h-4.153
			V264.313z M188.5,291.576c-0.145,2.079,1.089,3.211,2.624,3.211c2.221,0,2.525-2.224,2.525-6.825v-1.877
			c0-4.952,0-7.524-2.477-7.524c-0.99,0-1.731,0.601-2.229,0.994l-0.443,0.446V291.576z"/>
		<path clip-path="url(#SVGID_2_)" fill="#9FB1DB" d="M197.59,280.342h-3.267V274.7h3.267v-2.769c0-6.084,3.018-8.314,8.314-8.314
			c1.578,0,2.769,0.157,4.055,0.302v6.131c-0.449-0.096-1.037-0.191-1.486-0.191c-2.03,0-2.873,0.634-2.873,2.123v2.719h4.359v5.642
			H205.6v19.201h-8.01V280.342z"/>
		<path clip-path="url(#SVGID_2_)" fill="#B5C2E3" d="M218.225,283.956c0-0.987-0.05-2.175-0.394-3.115
			c-0.397-0.991-1.04-1.68-2.326-1.68c-2.673,0-2.972,3.261-2.972,8.213c0,5.586,0.893,7.413,2.972,7.413
			c2.818,0,3.064-2.86,3.064-4.746l6.238,0.889c-0.598,6.035-4.063,9.204-9.899,9.204c-7.226,0-10.984-6.331-10.984-12.465
			c0-6.779,3.759-13.559,11.332-13.559c8.512,0,9.801,7.37,9.801,9.846H218.225z"/>
		<path clip-path="url(#SVGID_2_)" fill="#CBD4EC" d="M221.636,283.975c1.781,0,3.229,1.449,3.229,3.23
			c0,1.774-1.448,3.232-3.229,3.232c-1.784,0-3.229-1.458-3.229-3.232C218.406,285.424,219.852,283.975,221.636,283.975z"/>
		<path clip-path="url(#SVGID_2_)" fill="#7794CC" d="M163.605,223.717h8.013v11.831h0.099c1.142-1.193,3.218-2.033,4.851-2.033
			c5.547,0,8.515,5.54,8.515,12.72c0,5.685-2.374,13.009-9.108,13.009c-3.115,0-5.146-1.482-6.727-3.86l-1.486,3.559h-4.155V223.717
			z M171.618,250.98c-0.147,2.083,1.092,3.215,2.624,3.215c2.228,0,2.522-2.228,2.522-6.829v-1.876c0-4.953,0-7.524-2.474-7.524
			c-0.99,0-1.734,0.597-2.224,0.99l-0.449,0.449V250.98z"/>
		<path clip-path="url(#SVGID_2_)" fill="#8BA2D3" d="M180.486,223.717h8.014v11.831h0.099c1.141-1.193,3.218-2.033,4.851-2.033
			c5.543,0,8.509,5.54,8.509,12.72c0,5.685-2.375,13.009-9.103,13.009c-3.116,0-5.143-1.482-6.73-3.86l-1.485,3.559h-4.153V223.717z
			 M188.5,250.98c-0.145,2.083,1.089,3.215,2.624,3.215c2.221,0,2.525-2.228,2.525-6.829v-1.876c0-4.953,0-7.524-2.477-7.524
			c-0.99,0-1.731,0.597-2.229,0.99l-0.443,0.449V250.98z"/>
		<path clip-path="url(#SVGID_2_)" fill="#9FB1DB" d="M197.59,239.743h-3.267v-5.635h3.267v-2.769c0-6.085,3.018-8.317,8.314-8.317
			c1.578,0,2.769,0.153,4.055,0.295v6.14c-0.449-0.102-1.037-0.2-1.486-0.2c-2.03,0-2.873,0.644-2.873,2.129v2.723h4.359v5.635
			H205.6v19.198h-8.01V239.743z"/>
		<path clip-path="url(#SVGID_2_)" fill="#B5C2E3" d="M218.225,243.361c0-0.99-0.05-2.178-0.394-3.116
			c-0.397-0.994-1.04-1.683-2.326-1.683c-2.673,0-2.972,3.261-2.972,8.21c0,5.596,0.893,7.423,2.972,7.423
			c2.818,0,3.064-2.867,3.064-4.75l6.238,0.89c-0.598,6.035-4.063,9.206-9.899,9.206c-7.226,0-10.984-6.336-10.984-12.467
			c0-6.78,3.759-13.56,11.332-13.56c8.512,0,9.801,7.373,9.801,9.847H218.225z"/>
		<path clip-path="url(#SVGID_2_)" fill="#CBD4EC" d="M221.636,243.38c1.781,0,3.229,1.451,3.229,3.229
			c0,1.772-1.448,3.23-3.229,3.23c-1.784,0-3.229-1.458-3.229-3.23C218.406,244.831,219.852,243.38,221.636,243.38z"/>
		<path clip-path="url(#SVGID_2_)" fill="#7794CC" d="M163.605,183.119h8.013v11.824h0.099c1.142-1.188,3.218-2.027,4.851-2.027
			c5.547,0,8.515,5.54,8.515,12.714c0,5.69-2.374,13.012-9.108,13.012c-3.115,0-5.146-1.482-6.727-3.86l-1.486,3.565h-4.155V183.119
			z M171.618,210.382c-0.147,2.077,1.092,3.215,2.624,3.215c2.228,0,2.522-2.227,2.522-6.829v-1.882c0-4.947,0-7.519-2.474-7.519
			c-0.99,0-1.734,0.594-2.224,0.99l-0.449,0.443V210.382z"/>
		<path clip-path="url(#SVGID_2_)" fill="#8BA2D3" d="M180.486,183.119h8.014v11.824h0.099c1.141-1.188,3.218-2.027,4.851-2.027
			c5.543,0,8.509,5.54,8.509,12.714c0,5.69-2.375,13.012-9.103,13.012c-3.116,0-5.143-1.482-6.73-3.86l-1.485,3.565h-4.153V183.119z
			 M188.5,210.382c-0.145,2.077,1.089,3.215,2.624,3.215c2.221,0,2.525-2.227,2.525-6.829v-1.882c0-4.947,0-7.519-2.477-7.519
			c-0.99,0-1.731,0.594-2.229,0.99l-0.443,0.443V210.382z"/>
		<path clip-path="url(#SVGID_2_)" fill="#9FB1DB" d="M197.59,199.148h-3.267v-5.639h3.267v-2.771c0-6.085,3.018-8.314,8.314-8.314
			c1.578,0,2.769,0.15,4.055,0.295v6.137c-0.449-0.102-1.037-0.196-1.486-0.196c-2.03,0-2.873,0.643-2.873,2.128v2.723h4.359v5.639
			H205.6v19.198h-8.01V199.148z"/>
		<path clip-path="url(#SVGID_2_)" fill="#B5C2E3" d="M218.225,202.763c0-0.99-0.05-2.178-0.394-3.119
			c-0.397-0.99-1.04-1.683-2.326-1.683c-2.673,0-2.972,3.264-2.972,8.213c0,5.59,0.893,7.423,2.972,7.423
			c2.818,0,3.064-2.867,3.064-4.756l6.238,0.896c-0.598,6.038-4.063,9.207-9.899,9.207c-7.226,0-10.984-6.337-10.984-12.471
			c0-6.78,3.759-13.557,11.332-13.557c8.512,0,9.801,7.367,9.801,9.847H218.225z"/>
		<path clip-path="url(#SVGID_2_)" fill="#CBD4EC" d="M221.636,202.781c1.781,0,3.229,1.445,3.229,3.229
			c0,1.772-1.448,3.23-3.229,3.23c-1.784,0-3.229-1.458-3.229-3.23C218.406,204.227,219.852,202.781,221.636,202.781z"/>
		<path clip-path="url(#SVGID_2_)" fill="#7794CC" d="M92.351,264.313h8.016v11.827h0.096c1.142-1.187,3.218-2.029,4.852-2.029
			c5.543,0,8.511,5.543,8.511,12.716c0,5.691-2.374,13.012-9.104,13.012c-3.116,0-5.146-1.482-6.728-3.857l-1.486,3.563h-4.155
			V264.313z M100.366,291.576c-0.15,2.079,1.09,3.211,2.621,3.211c2.228,0,2.525-2.224,2.525-6.825v-1.877
			c0-4.952,0-7.524-2.476-7.524c-0.991,0-1.732,0.601-2.225,0.994l-0.446,0.446V291.576z"/>
		<path clip-path="url(#SVGID_2_)" fill="#8BA2D3" d="M109.229,264.313h8.014v11.827h0.102c1.135-1.187,3.215-2.029,4.848-2.029
			c5.54,0,8.509,5.543,8.509,12.716c0,5.691-2.375,13.012-9.103,13.012c-3.119,0-5.146-1.482-6.733-3.857l-1.482,3.563h-4.153
			V264.313z M117.242,291.576c-0.147,2.079,1.092,3.211,2.624,3.211c2.227,0,2.522-2.224,2.522-6.825v-1.877
			c0-4.952,0-7.524-2.474-7.524c-0.99,0-1.731,0.601-2.227,0.994l-0.446,0.446V291.576z"/>
		<path clip-path="url(#SVGID_2_)" fill="#9FB1DB" d="M126.329,280.342h-3.264V274.7h3.264v-2.769c0-6.084,3.018-8.314,8.314-8.314
			c1.581,0,2.771,0.157,4.058,0.302v6.131c-0.446-0.096-1.04-0.191-1.482-0.191c-2.034,0-2.873,0.634-2.873,2.123v2.719h4.355v5.642
			h-4.355v19.201h-8.017V280.342z"/>
		<path clip-path="url(#SVGID_2_)" fill="#B5C2E3" d="M146.967,283.956c0-0.987-0.053-2.175-0.395-3.115
			c-0.399-0.991-1.039-1.68-2.325-1.68c-2.676,0-2.972,3.261-2.972,8.213c0,5.586,0.893,7.413,2.972,7.413
			c2.821,0,3.067-2.86,3.067-4.746l6.231,0.889c-0.594,6.035-4.057,9.204-9.896,9.204c-7.223,0-10.981-6.331-10.981-12.465
			c0-6.779,3.759-13.559,11.332-13.559c8.509,0,9.795,7.37,9.795,9.846H146.967z"/>
		<path clip-path="url(#SVGID_2_)" fill="#CBD4EC" d="M150.378,283.975c1.778,0,3.229,1.449,3.229,3.23
			c0,1.774-1.451,3.232-3.229,3.232c-1.781,0-3.227-1.458-3.227-3.232C147.151,285.424,148.597,283.975,150.378,283.975z"/>
		<path clip-path="url(#SVGID_2_)" fill="#7794CC" d="M92.351,223.717h8.016v11.831h0.096c1.142-1.193,3.218-2.033,4.852-2.033
			c5.543,0,8.511,5.54,8.511,12.72c0,5.685-2.374,13.009-9.104,13.009c-3.116,0-5.146-1.482-6.728-3.86l-1.486,3.559h-4.155V223.717
			z M100.366,250.98c-0.15,2.083,1.09,3.215,2.621,3.215c2.228,0,2.525-2.228,2.525-6.829v-1.876c0-4.953,0-7.524-2.476-7.524
			c-0.991,0-1.732,0.597-2.225,0.99l-0.446,0.449V250.98z"/>
		<path clip-path="url(#SVGID_2_)" fill="#8BA2D3" d="M109.229,223.717h8.014v11.831h0.102c1.135-1.193,3.215-2.033,4.848-2.033
			c5.54,0,8.509,5.54,8.509,12.72c0,5.685-2.375,13.009-9.103,13.009c-3.119,0-5.146-1.482-6.733-3.86l-1.482,3.559h-4.153V223.717z
			 M117.242,250.98c-0.147,2.083,1.092,3.215,2.624,3.215c2.227,0,2.522-2.228,2.522-6.829v-1.876c0-4.953,0-7.524-2.474-7.524
			c-0.99,0-1.731,0.597-2.227,0.99l-0.446,0.449V250.98z"/>
		<path clip-path="url(#SVGID_2_)" fill="#9FB1DB" d="M126.329,239.743h-3.264v-5.635h3.264v-2.769c0-6.085,3.018-8.317,8.314-8.317
			c1.581,0,2.771,0.153,4.058,0.295v6.14c-0.446-0.102-1.04-0.2-1.482-0.2c-2.034,0-2.873,0.644-2.873,2.129v2.723h4.355v5.635
			h-4.355v19.198h-8.017V239.743z"/>
		<path clip-path="url(#SVGID_2_)" fill="#B5C2E3" d="M146.967,243.361c0-0.99-0.053-2.178-0.395-3.116
			c-0.399-0.994-1.039-1.683-2.325-1.683c-2.676,0-2.972,3.261-2.972,8.21c0,5.596,0.893,7.423,2.972,7.423
			c2.821,0,3.067-2.867,3.067-4.75l6.231,0.89c-0.594,6.035-4.057,9.206-9.896,9.206c-7.223,0-10.981-6.336-10.981-12.467
			c0-6.78,3.759-13.56,11.332-13.56c8.509,0,9.795,7.373,9.795,9.847H146.967z"/>
		<path clip-path="url(#SVGID_2_)" fill="#CBD4EC" d="M150.378,243.38c1.778,0,3.229,1.451,3.229,3.229
			c0,1.772-1.451,3.23-3.229,3.23c-1.781,0-3.227-1.458-3.227-3.23C147.151,244.831,148.597,243.38,150.378,243.38z"/>
		<path clip-path="url(#SVGID_2_)" fill="#7794CC" d="M92.351,183.119h8.016v11.824h0.096c1.142-1.188,3.218-2.027,4.852-2.027
			c5.543,0,8.511,5.54,8.511,12.714c0,5.69-2.374,13.012-9.104,13.012c-3.116,0-5.146-1.482-6.728-3.86l-1.486,3.565h-4.155V183.119
			z M100.366,210.382c-0.15,2.077,1.09,3.215,2.621,3.215c2.228,0,2.525-2.227,2.525-6.829v-1.882c0-4.947,0-7.519-2.476-7.519
			c-0.991,0-1.732,0.594-2.225,0.99l-0.446,0.443V210.382z"/>
		<path clip-path="url(#SVGID_2_)" fill="#8BA2D3" d="M109.229,183.119h8.014v11.824h0.102c1.135-1.188,3.215-2.027,4.848-2.027
			c5.54,0,8.509,5.54,8.509,12.714c0,5.69-2.375,13.012-9.103,13.012c-3.119,0-5.146-1.482-6.733-3.86l-1.482,3.565h-4.153V183.119z
			 M117.242,210.382c-0.147,2.077,1.092,3.215,2.624,3.215c2.227,0,2.522-2.227,2.522-6.829v-1.882c0-4.947,0-7.519-2.474-7.519
			c-0.99,0-1.731,0.594-2.227,0.99l-0.446,0.443V210.382z"/>
		<path clip-path="url(#SVGID_2_)" fill="#9FB1DB" d="M126.329,199.148h-3.264v-5.639h3.264v-2.771c0-6.085,3.018-8.314,8.314-8.314
			c1.581,0,2.771,0.15,4.058,0.295v6.137c-0.446-0.102-1.04-0.196-1.482-0.196c-2.034,0-2.873,0.643-2.873,2.128v2.723h4.355v5.639
			h-4.355v19.198h-8.017V199.148z"/>
		<path clip-path="url(#SVGID_2_)" fill="#B5C2E3" d="M146.967,202.763c0-0.99-0.053-2.178-0.395-3.119
			c-0.399-0.99-1.039-1.683-2.325-1.683c-2.676,0-2.972,3.264-2.972,8.213c0,5.59,0.893,7.423,2.972,7.423
			c2.821,0,3.067-2.867,3.067-4.756l6.231,0.896c-0.594,6.038-4.057,9.207-9.896,9.207c-7.223,0-10.981-6.337-10.981-12.471
			c0-6.78,3.759-13.557,11.332-13.557c8.509,0,9.795,7.367,9.795,9.847H146.967z"/>
		<path clip-path="url(#SVGID_2_)" fill="#CBD4EC" d="M150.378,202.781c1.778,0,3.229,1.445,3.229,3.229
			c0,1.772-1.451,3.23-3.229,3.23c-1.781,0-3.227-1.458-3.227-3.23C147.151,204.227,148.597,202.781,150.378,202.781z"/>
		<path clip-path="url(#SVGID_2_)" fill="#7794CC" d="M21.096,264.313h8.02v11.827h0.095c1.139-1.187,3.215-2.029,4.849-2.029
			c5.543,0,8.511,5.543,8.511,12.716c0,5.691-2.374,13.012-9.104,13.012c-3.116,0-5.146-1.482-6.728-3.857l-1.486,3.563h-4.155
			V264.313z M29.115,291.576c-0.154,2.079,1.086,3.211,2.617,3.211c2.228,0,2.525-2.224,2.525-6.825v-1.877
			c0-4.952,0-7.524-2.476-7.524c-0.987,0-1.729,0.601-2.225,0.994l-0.442,0.446V291.576z"/>
		<path clip-path="url(#SVGID_2_)" fill="#8BA2D3" d="M37.974,264.313h8.017v11.827h0.099c1.135-1.187,3.215-2.029,4.848-2.029
			c5.54,0,8.509,5.543,8.509,12.716c0,5.691-2.375,13.012-9.103,13.012c-3.119,0-5.143-1.482-6.728-3.857l-1.485,3.563h-4.156
			V264.313z M45.99,291.576c-0.15,2.079,1.089,3.211,2.621,3.211c2.227,0,2.522-2.224,2.522-6.825v-1.877
			c0-4.952,0-7.524-2.474-7.524c-0.99,0-1.731,0.601-2.227,0.994l-0.443,0.446V291.576z"/>
		<path clip-path="url(#SVGID_2_)" fill="#9FB1DB" d="M55.077,280.342h-3.267V274.7h3.267v-2.769c0-6.084,3.021-8.314,8.312-8.314
			c1.584,0,2.771,0.157,4.061,0.302v6.131c-0.449-0.096-1.043-0.191-1.485-0.191c-2.03,0-2.873,0.634-2.873,2.123v2.719h4.358v5.642
			h-4.358v19.201h-8.014V280.342z"/>
		<path clip-path="url(#SVGID_2_)" fill="#B5C2E3" d="M75.715,283.956c0-0.987-0.053-2.175-0.396-3.115
			c-0.395-0.991-1.04-1.68-2.326-1.68c-2.673,0-2.972,3.261-2.972,8.213c0,5.586,0.893,7.413,2.972,7.413
			c2.821,0,3.067-2.86,3.067-4.746l6.231,0.889c-0.593,6.035-4.057,9.204-9.896,9.204c-7.223,0-10.981-6.331-10.981-12.465
			c0-6.779,3.759-13.559,11.332-13.559c8.509,0,9.795,7.37,9.795,9.846H75.715z"/>
		<path clip-path="url(#SVGID_2_)" fill="#CBD4EC" d="M79.126,283.975c1.775,0,3.227,1.449,3.227,3.23
			c0,1.774-1.451,3.232-3.227,3.232c-1.784,0-3.229-1.458-3.229-3.232C75.896,285.424,77.342,283.975,79.126,283.975z"/>
		<path clip-path="url(#SVGID_2_)" fill="#7794CC" d="M21.096,223.717h8.02v11.831h0.095c1.139-1.193,3.215-2.033,4.849-2.033
			c5.543,0,8.511,5.54,8.511,12.72c0,5.685-2.374,13.009-9.104,13.009c-3.116,0-5.146-1.482-6.728-3.86l-1.486,3.559h-4.155V223.717
			z M29.115,250.98c-0.154,2.083,1.086,3.215,2.617,3.215c2.228,0,2.525-2.228,2.525-6.829v-1.876c0-4.953,0-7.524-2.476-7.524
			c-0.987,0-1.729,0.597-2.225,0.99l-0.442,0.449V250.98z"/>
		<path clip-path="url(#SVGID_2_)" fill="#8BA2D3" d="M37.974,223.717h8.017v11.831h0.099c1.135-1.193,3.215-2.033,4.848-2.033
			c5.54,0,8.509,5.54,8.509,12.72c0,5.685-2.375,13.009-9.103,13.009c-3.119,0-5.143-1.482-6.728-3.86l-1.485,3.559h-4.156V223.717z
			 M45.99,250.98c-0.15,2.083,1.089,3.215,2.621,3.215c2.227,0,2.522-2.228,2.522-6.829v-1.876c0-4.953,0-7.524-2.474-7.524
			c-0.99,0-1.731,0.597-2.227,0.99l-0.443,0.449V250.98z"/>
		<path clip-path="url(#SVGID_2_)" fill="#9FB1DB" d="M55.077,239.743h-3.267v-5.635h3.267v-2.769c0-6.085,3.021-8.317,8.312-8.317
			c1.584,0,2.771,0.153,4.061,0.295v6.14c-0.449-0.102-1.043-0.2-1.485-0.2c-2.03,0-2.873,0.644-2.873,2.129v2.723h4.358v5.635
			h-4.358v19.198h-8.014V239.743z"/>
		<path clip-path="url(#SVGID_2_)" fill="#B5C2E3" d="M75.715,243.361c0-0.99-0.053-2.178-0.396-3.116
			c-0.395-0.994-1.04-1.683-2.326-1.683c-2.673,0-2.972,3.261-2.972,8.21c0,5.596,0.893,7.423,2.972,7.423
			c2.821,0,3.067-2.867,3.067-4.75l6.231,0.89c-0.593,6.035-4.057,9.206-9.896,9.206c-7.223,0-10.981-6.336-10.981-12.467
			c0-6.78,3.759-13.56,11.332-13.56c8.509,0,9.795,7.373,9.795,9.847H75.715z"/>
		<path clip-path="url(#SVGID_2_)" fill="#CBD4EC" d="M79.126,243.38c1.775,0,3.227,1.451,3.227,3.229
			c0,1.772-1.451,3.23-3.227,3.23c-1.784,0-3.229-1.458-3.229-3.23C75.896,244.831,77.342,243.38,79.126,243.38z"/>
		<path clip-path="url(#SVGID_2_)" fill="#7794CC" d="M21.096,183.119h8.02v11.824h0.095c1.139-1.188,3.215-2.027,4.849-2.027
			c5.543,0,8.511,5.54,8.511,12.714c0,5.69-2.374,13.012-9.104,13.012c-3.116,0-5.146-1.482-6.728-3.86l-1.486,3.565h-4.155V183.119
			z M29.115,210.382c-0.154,2.077,1.086,3.215,2.617,3.215c2.228,0,2.525-2.227,2.525-6.829v-1.882c0-4.947,0-7.519-2.476-7.519
			c-0.987,0-1.729,0.594-2.225,0.99l-0.442,0.443V210.382z"/>
		<path clip-path="url(#SVGID_2_)" fill="#8BA2D3" d="M37.974,183.119h8.017v11.824h0.099c1.135-1.188,3.215-2.027,4.848-2.027
			c5.54,0,8.509,5.54,8.509,12.714c0,5.69-2.375,13.012-9.103,13.012c-3.119,0-5.143-1.482-6.728-3.86l-1.485,3.565h-4.156V183.119z
			 M45.99,210.382c-0.15,2.077,1.089,3.215,2.621,3.215c2.227,0,2.522-2.227,2.522-6.829v-1.882c0-4.947,0-7.519-2.474-7.519
			c-0.99,0-1.731,0.594-2.227,0.99l-0.443,0.443V210.382z"/>
		<path clip-path="url(#SVGID_2_)" fill="#9FB1DB" d="M55.077,199.148h-3.267v-5.639h3.267v-2.771c0-6.085,3.021-8.314,8.312-8.314
			c1.584,0,2.771,0.15,4.061,0.295v6.137c-0.449-0.102-1.043-0.196-1.485-0.196c-2.03,0-2.873,0.643-2.873,2.128v2.723h4.358v5.639
			h-4.358v19.198h-8.014V199.148z"/>
		<path clip-path="url(#SVGID_2_)" fill="#B5C2E3" d="M75.715,202.763c0-0.99-0.053-2.178-0.396-3.119
			c-0.395-0.99-1.04-1.683-2.326-1.683c-2.673,0-2.972,3.264-2.972,8.213c0,5.59,0.893,7.423,2.972,7.423
			c2.821,0,3.067-2.867,3.067-4.756l6.231,0.896c-0.593,6.038-4.057,9.207-9.896,9.207c-7.223,0-10.981-6.337-10.981-12.471
			c0-6.78,3.759-13.557,11.332-13.557c8.509,0,9.795,7.367,9.795,9.847H75.715z"/>
		<path clip-path="url(#SVGID_2_)" fill="#CBD4EC" d="M79.126,202.781c1.775,0,3.227,1.445,3.227,3.229
			c0,1.772-1.451,3.23-3.227,3.23c-1.784,0-3.229-1.458-3.229-3.23C75.896,204.227,77.342,202.781,79.126,202.781z"/>
		<path clip-path="url(#SVGID_2_)" fill="#7794CC" d="M234.863,264.313h8.013v11.827h0.099c1.142-1.187,3.218-2.029,4.851-2.029
			c5.544,0,8.515,5.543,8.515,12.716c0,5.691-2.374,13.012-9.107,13.012c-3.116,0-5.144-1.482-6.728-3.857l-1.483,3.563h-4.158
			V264.313z M242.876,291.576c-0.145,2.079,1.096,3.211,2.624,3.211c2.23,0,2.525-2.224,2.525-6.825v-1.877
			c0-4.952,0-7.524-2.476-7.524c-0.991,0-1.732,0.601-2.225,0.994l-0.449,0.446V291.576z"/>
		<path clip-path="url(#SVGID_2_)" fill="#8BA2D3" d="M251.741,264.313h8.017v11.827h0.099c1.135-1.187,3.218-2.029,4.851-2.029
			c5.537,0,8.506,5.543,8.506,12.716c0,5.691-2.372,13.012-9.103,13.012c-3.119,0-5.149-1.482-6.733-3.857l-1.479,3.563h-4.156
			V264.313z M259.758,291.576c-0.15,2.079,1.086,3.211,2.624,3.211c2.221,0,2.52-2.224,2.52-6.825v-1.877
			c0-4.952,0-7.524-2.471-7.524c-0.99,0-1.731,0.601-2.229,0.994l-0.443,0.446V291.576z"/>
		<path clip-path="url(#SVGID_2_)" fill="#9FB1DB" d="M268.842,280.342h-3.261V274.7h3.261v-2.769c0-6.084,3.018-8.314,8.314-8.314
			c1.584,0,2.774,0.157,4.061,0.302v6.131c-0.449-0.096-1.043-0.191-1.486-0.191c-2.029,0-2.873,0.634-2.873,2.123v2.719h4.359
			v5.642h-4.359v19.201h-8.016V280.342z"/>
		<path clip-path="url(#SVGID_2_)" fill="#B5C2E3" d="M289.482,283.956c0-0.987-0.056-2.175-0.395-3.115
			c-0.402-0.991-1.039-1.68-2.328-1.68c-2.676,0-2.969,3.261-2.969,8.213c0,5.586,0.887,7.413,2.969,7.413
			c2.818,0,3.066-2.86,3.066-4.746l6.232,0.889c-0.59,6.035-4.057,9.204-9.893,9.204c-7.226,0-10.984-6.331-10.984-12.465
			c0-6.779,3.759-13.559,11.332-13.559c8.512,0,9.795,7.37,9.795,9.846H289.482z"/>
		<path clip-path="url(#SVGID_2_)" fill="#CBD4EC" d="M292.894,283.975c1.774,0,3.224,1.449,3.224,3.23
			c0,1.774-1.449,3.232-3.224,3.232c-1.784,0-3.229-1.458-3.229-3.232C289.664,285.424,291.109,283.975,292.894,283.975z"/>
		<path clip-path="url(#SVGID_2_)" fill="#7794CC" d="M234.863,223.717h8.013v11.831h0.099c1.142-1.193,3.218-2.033,4.851-2.033
			c5.544,0,8.515,5.54,8.515,12.72c0,5.685-2.374,13.009-9.107,13.009c-3.116,0-5.144-1.482-6.728-3.86l-1.483,3.559h-4.158V223.717
			z M242.876,250.98c-0.145,2.083,1.096,3.215,2.624,3.215c2.23,0,2.525-2.228,2.525-6.829v-1.876c0-4.953,0-7.524-2.476-7.524
			c-0.991,0-1.732,0.597-2.225,0.99l-0.449,0.449V250.98z"/>
		<path clip-path="url(#SVGID_2_)" fill="#8BA2D3" d="M251.741,223.717h8.017v11.831h0.099c1.135-1.193,3.218-2.033,4.851-2.033
			c5.537,0,8.506,5.54,8.506,12.72c0,5.685-2.372,13.009-9.103,13.009c-3.119,0-5.149-1.482-6.733-3.86l-1.479,3.559h-4.156V223.717
			z M259.758,250.98c-0.15,2.083,1.086,3.215,2.624,3.215c2.221,0,2.52-2.228,2.52-6.829v-1.876c0-4.953,0-7.524-2.471-7.524
			c-0.99,0-1.731,0.597-2.229,0.99l-0.443,0.449V250.98z"/>
		<path clip-path="url(#SVGID_2_)" fill="#9FB1DB" d="M268.842,239.743h-3.261v-5.635h3.261v-2.769c0-6.085,3.018-8.317,8.314-8.317
			c1.584,0,2.774,0.153,4.061,0.295v6.14c-0.449-0.102-1.043-0.2-1.486-0.2c-2.029,0-2.873,0.644-2.873,2.129v2.723h4.359v5.635
			h-4.359v19.198h-8.016V239.743z"/>
		<path clip-path="url(#SVGID_2_)" fill="#B5C2E3" d="M289.482,243.361c0-0.99-0.056-2.178-0.395-3.116
			c-0.402-0.994-1.039-1.683-2.328-1.683c-2.676,0-2.969,3.261-2.969,8.21c0,5.596,0.887,7.423,2.969,7.423
			c2.818,0,3.066-2.867,3.066-4.75l6.232,0.89c-0.59,6.035-4.057,9.206-9.893,9.206c-7.226,0-10.984-6.336-10.984-12.467
			c0-6.78,3.759-13.56,11.332-13.56c8.512,0,9.795,7.373,9.795,9.847H289.482z"/>
		<path clip-path="url(#SVGID_2_)" fill="#CBD4EC" d="M292.894,243.38c1.774,0,3.224,1.451,3.224,3.229
			c0,1.772-1.449,3.23-3.224,3.23c-1.784,0-3.229-1.458-3.229-3.23C289.664,244.831,291.109,243.38,292.894,243.38z"/>
		<path clip-path="url(#SVGID_2_)" fill="#7794CC" d="M234.863,183.119h8.013v11.824h0.099c1.142-1.188,3.218-2.027,4.851-2.027
			c5.544,0,8.515,5.54,8.515,12.714c0,5.69-2.374,13.012-9.107,13.012c-3.116,0-5.144-1.482-6.728-3.86l-1.483,3.565h-4.158V183.119
			z M242.876,210.382c-0.145,2.077,1.096,3.215,2.624,3.215c2.23,0,2.525-2.227,2.525-6.829v-1.882c0-4.947,0-7.519-2.476-7.519
			c-0.991,0-1.732,0.594-2.225,0.99l-0.449,0.443V210.382z"/>
		<path clip-path="url(#SVGID_2_)" fill="#8BA2D3" d="M251.741,183.119h8.017v11.824h0.099c1.135-1.188,3.218-2.027,4.851-2.027
			c5.537,0,8.506,5.54,8.506,12.714c0,5.69-2.372,13.012-9.103,13.012c-3.119,0-5.149-1.482-6.733-3.86l-1.479,3.565h-4.156V183.119
			z M259.758,210.382c-0.15,2.077,1.086,3.215,2.624,3.215c2.221,0,2.52-2.227,2.52-6.829v-1.882c0-4.947,0-7.519-2.471-7.519
			c-0.99,0-1.731,0.594-2.229,0.99l-0.443,0.443V210.382z"/>
		<path clip-path="url(#SVGID_2_)" fill="#9FB1DB" d="M268.842,199.148h-3.261v-5.639h3.261v-2.771c0-6.085,3.018-8.314,8.314-8.314
			c1.584,0,2.774,0.15,4.061,0.295v6.137c-0.449-0.102-1.043-0.196-1.486-0.196c-2.029,0-2.873,0.643-2.873,2.128v2.723h4.359v5.639
			h-4.359v19.198h-8.016V199.148z"/>
		<path clip-path="url(#SVGID_2_)" fill="#B5C2E3" d="M289.482,202.763c0-0.99-0.056-2.178-0.395-3.119
			c-0.402-0.99-1.039-1.683-2.328-1.683c-2.676,0-2.969,3.264-2.969,8.213c0,5.59,0.887,7.423,2.969,7.423
			c2.818,0,3.066-2.867,3.066-4.756l6.232,0.896c-0.59,6.038-4.057,9.207-9.893,9.207c-7.226,0-10.984-6.337-10.984-12.471
			c0-6.78,3.759-13.557,11.332-13.557c8.512,0,9.795,7.367,9.795,9.847H289.482z"/>
		<path clip-path="url(#SVGID_2_)" fill="#CBD4EC" d="M292.894,202.781c1.774,0,3.224,1.445,3.224,3.229
			c0,1.772-1.449,3.23-3.224,3.23c-1.784,0-3.229-1.458-3.229-3.23C289.664,204.227,291.109,202.781,292.894,202.781z"/>
		<path clip-path="url(#SVGID_2_)" fill="#7794CC" d="M306.564,264.313h8.013v11.827h0.099c1.141-1.187,3.217-2.029,4.851-2.029
			c5.537,0,8.509,5.543,8.509,12.716c0,5.691-2.375,13.012-9.103,13.012c-3.116,0-5.149-1.482-6.728-3.857l-1.488,3.563h-4.152
			V264.313z M314.577,291.576c-0.151,2.079,1.089,3.211,2.624,3.211c2.224,0,2.52-2.224,2.52-6.825v-1.877
			c0-4.952,0-7.524-2.471-7.524c-0.99,0-1.732,0.601-2.23,0.994l-0.442,0.446V291.576z"/>
		<path clip-path="url(#SVGID_2_)" fill="#8BA2D3" d="M323.436,264.313h8.018v11.827h0.104c1.136-1.187,3.212-2.029,4.846-2.029
			c5.543,0,8.505,5.543,8.505,12.716c0,5.691-2.372,13.012-9.103,13.012c-3.112,0-5.143-1.482-6.727-3.857l-1.486,3.563h-4.156
			V264.313z M331.453,291.576c-0.145,2.079,1.092,3.211,2.623,3.211c2.228,0,2.525-2.224,2.525-6.825v-1.877
			c0-4.952,0-7.524-2.477-7.524c-0.99,0-1.731,0.601-2.224,0.994l-0.448,0.446V291.576z"/>
		<path clip-path="url(#SVGID_2_)" fill="#9FB1DB" d="M340.543,280.342h-3.268V274.7h3.268v-2.769c0-6.084,3.018-8.314,8.314-8.314
			c1.578,0,2.768,0.157,4.054,0.302v6.131c-0.442-0.096-1.036-0.191-1.479-0.191c-2.036,0-2.873,0.634-2.873,2.123v2.719h4.353
			v5.642h-4.353v19.201h-8.016V280.342z"/>
		<path clip-path="url(#SVGID_2_)" fill="#B5C2E3" d="M361.184,283.956c0-0.987-0.057-2.175-0.4-3.115
			c-0.396-0.991-1.04-1.68-2.328-1.68c-2.67,0-2.969,3.261-2.969,8.213c0,5.586,0.892,7.413,2.969,7.413
			c2.823,0,3.066-2.86,3.066-4.746l6.238,0.889c-0.597,6.035-4.058,9.204-9.898,9.204c-7.221,0-10.979-6.331-10.979-12.465
			c0-6.779,3.758-13.559,11.332-13.559c8.506,0,9.794,7.37,9.794,9.846H361.184z"/>
		<path clip-path="url(#SVGID_2_)" fill="#CBD4EC" d="M364.588,283.975c1.781,0,3.23,1.449,3.23,3.23
			c0,1.774-1.449,3.232-3.23,3.232c-1.777,0-3.224-1.458-3.224-3.232C361.364,285.424,362.811,283.975,364.588,283.975z"/>
		<path clip-path="url(#SVGID_2_)" fill="#7794CC" d="M306.564,223.717h8.013v11.831h0.099c1.141-1.193,3.217-2.033,4.851-2.033
			c5.537,0,8.509,5.54,8.509,12.72c0,5.685-2.375,13.009-9.103,13.009c-3.116,0-5.149-1.482-6.728-3.86l-1.488,3.559h-4.152V223.717
			z M314.577,250.98c-0.151,2.083,1.089,3.215,2.624,3.215c2.224,0,2.52-2.228,2.52-6.829v-1.876c0-4.953,0-7.524-2.471-7.524
			c-0.99,0-1.732,0.597-2.23,0.99l-0.442,0.449V250.98z"/>
		<path clip-path="url(#SVGID_2_)" fill="#8BA2D3" d="M323.436,223.717h8.018v11.831h0.104c1.136-1.193,3.212-2.033,4.846-2.033
			c5.543,0,8.505,5.54,8.505,12.72c0,5.685-2.372,13.009-9.103,13.009c-3.112,0-5.143-1.482-6.727-3.86l-1.486,3.559h-4.156V223.717
			z M331.453,250.98c-0.145,2.083,1.092,3.215,2.623,3.215c2.228,0,2.525-2.228,2.525-6.829v-1.876c0-4.953,0-7.524-2.477-7.524
			c-0.99,0-1.731,0.597-2.224,0.99l-0.448,0.449V250.98z"/>
		<path clip-path="url(#SVGID_2_)" fill="#9FB1DB" d="M340.543,239.743h-3.268v-5.635h3.268v-2.769c0-6.085,3.018-8.317,8.314-8.317
			c1.578,0,2.768,0.153,4.054,0.295v6.14c-0.442-0.102-1.036-0.2-1.479-0.2c-2.036,0-2.873,0.644-2.873,2.129v2.723h4.353v5.635
			h-4.353v19.198h-8.016V239.743z"/>
		<path clip-path="url(#SVGID_2_)" fill="#B5C2E3" d="M361.184,243.361c0-0.99-0.057-2.178-0.4-3.116
			c-0.396-0.994-1.04-1.683-2.328-1.683c-2.67,0-2.969,3.261-2.969,8.21c0,5.596,0.892,7.423,2.969,7.423
			c2.823,0,3.066-2.867,3.066-4.75l6.238,0.89c-0.597,6.035-4.058,9.206-9.898,9.206c-7.221,0-10.979-6.336-10.979-12.467
			c0-6.78,3.758-13.56,11.332-13.56c8.506,0,9.794,7.373,9.794,9.847H361.184z"/>
		<path clip-path="url(#SVGID_2_)" fill="#CBD4EC" d="M364.588,243.38c1.781,0,3.23,1.451,3.23,3.229c0,1.772-1.449,3.23-3.23,3.23
			c-1.777,0-3.224-1.458-3.224-3.23C361.364,244.831,362.811,243.38,364.588,243.38z"/>
		<path clip-path="url(#SVGID_2_)" fill="#7794CC" d="M306.564,183.119h8.013v11.824h0.099c1.141-1.188,3.217-2.027,4.851-2.027
			c5.537,0,8.509,5.54,8.509,12.714c0,5.69-2.375,13.012-9.103,13.012c-3.116,0-5.149-1.482-6.728-3.86l-1.488,3.565h-4.152V183.119
			z M314.577,210.382c-0.151,2.077,1.089,3.215,2.624,3.215c2.224,0,2.52-2.227,2.52-6.829v-1.882c0-4.947,0-7.519-2.471-7.519
			c-0.99,0-1.732,0.594-2.23,0.99l-0.442,0.443V210.382z"/>
		<path clip-path="url(#SVGID_2_)" fill="#8BA2D3" d="M323.436,183.119h8.018v11.824h0.104c1.136-1.188,3.212-2.027,4.846-2.027
			c5.543,0,8.505,5.54,8.505,12.714c0,5.69-2.372,13.012-9.103,13.012c-3.112,0-5.143-1.482-6.727-3.86l-1.486,3.565h-4.156V183.119
			z M331.453,210.382c-0.145,2.077,1.092,3.215,2.623,3.215c2.228,0,2.525-2.227,2.525-6.829v-1.882c0-4.947,0-7.519-2.477-7.519
			c-0.99,0-1.731,0.594-2.224,0.99l-0.448,0.443V210.382z"/>
		<path clip-path="url(#SVGID_2_)" fill="#9FB1DB" d="M340.543,199.148h-3.268v-5.639h3.268v-2.771c0-6.085,3.018-8.314,8.314-8.314
			c1.578,0,2.768,0.15,4.054,0.295v6.137c-0.442-0.102-1.036-0.196-1.479-0.196c-2.036,0-2.873,0.643-2.873,2.128v2.723h4.353v5.639
			h-4.353v19.198h-8.016V199.148z"/>
		<path clip-path="url(#SVGID_2_)" fill="#B5C2E3" d="M361.184,202.763c0-0.99-0.057-2.178-0.4-3.119
			c-0.396-0.99-1.04-1.683-2.328-1.683c-2.67,0-2.969,3.264-2.969,8.213c0,5.59,0.892,7.423,2.969,7.423
			c2.823,0,3.066-2.867,3.066-4.756l6.238,0.896c-0.597,6.038-4.058,9.207-9.898,9.207c-7.221,0-10.979-6.337-10.979-12.471
			c0-6.78,3.758-13.557,11.332-13.557c8.506,0,9.794,7.367,9.794,9.847H361.184z"/>
		<path clip-path="url(#SVGID_2_)" fill="#CBD4EC" d="M364.588,202.781c1.781,0,3.23,1.445,3.23,3.229c0,1.772-1.449,3.23-3.23,3.23
			c-1.777,0-3.224-1.458-3.224-3.23C361.364,204.227,362.811,202.781,364.588,202.781z"/>
		<path clip-path="url(#SVGID_2_)" fill="#7794CC" d="M163.605,142.516h8.013v11.829h0.099c1.142-1.19,3.218-2.031,4.851-2.031
			c5.547,0,8.515,5.544,8.515,12.718c0,5.688-2.374,13.012-9.108,13.012c-3.115,0-5.146-1.482-6.727-3.86l-1.486,3.565h-4.155
			V142.516z M171.618,169.781c-0.147,2.079,1.092,3.217,2.624,3.217c2.228,0,2.522-2.227,2.522-6.828v-1.883
			c0-4.942,0-7.517-2.474-7.517c-0.99,0-1.734,0.592-2.224,0.987l-0.449,0.446V169.781z"/>
		<path clip-path="url(#SVGID_2_)" fill="#8BA2D3" d="M180.486,142.516h8.014v11.829h0.099c1.141-1.19,3.218-2.031,4.851-2.031
			c5.543,0,8.509,5.544,8.509,12.718c0,5.688-2.375,13.012-9.103,13.012c-3.116,0-5.143-1.482-6.73-3.86l-1.485,3.565h-4.153
			V142.516z M188.5,169.781c-0.145,2.079,1.089,3.217,2.624,3.217c2.221,0,2.525-2.227,2.525-6.828v-1.883
			c0-4.942,0-7.517-2.477-7.517c-0.99,0-1.731,0.592-2.229,0.987l-0.443,0.446V169.781z"/>
		<path clip-path="url(#SVGID_2_)" fill="#9FB1DB" d="M197.59,158.55h-3.267v-5.638h3.267v-2.775c0-6.084,3.018-8.307,8.314-8.307
			c1.578,0,2.769,0.146,4.055,0.292v6.138c-0.449-0.103-1.037-0.2-1.486-0.2c-2.03,0-2.873,0.646-2.873,2.128v2.723h4.359v5.638
			H205.6v19.198h-8.01V158.55z"/>
		<path clip-path="url(#SVGID_2_)" fill="#B5C2E3" d="M218.225,162.158c0-0.984-0.05-2.175-0.394-3.113
			c-0.397-0.988-1.04-1.683-2.326-1.683c-2.673,0-2.972,3.267-2.972,8.213c0,5.589,0.893,7.422,2.972,7.422
			c2.818,0,3.064-2.866,3.064-4.755l6.238,0.892c-0.598,6.042-4.063,9.204-9.899,9.204c-7.226,0-10.984-6.331-10.984-12.465
			c0-6.781,3.759-13.561,11.332-13.561c8.512,0,9.801,7.372,9.801,9.845H218.225z"/>
		<path clip-path="url(#SVGID_2_)" fill="#CBD4EC" d="M221.636,162.177c1.781,0,3.229,1.452,3.229,3.229
			c0,1.778-1.448,3.236-3.229,3.236c-1.784,0-3.229-1.458-3.229-3.236C218.406,163.629,219.852,162.177,221.636,162.177z"/>
		<path clip-path="url(#SVGID_2_)" fill="#7794CC" d="M92.351,142.516h8.016v11.829h0.096c1.142-1.19,3.218-2.031,4.852-2.031
			c5.543,0,8.511,5.544,8.511,12.718c0,5.688-2.374,13.012-9.104,13.012c-3.116,0-5.146-1.482-6.728-3.86l-1.486,3.565h-4.155
			V142.516z M100.366,169.781c-0.15,2.079,1.09,3.217,2.621,3.217c2.228,0,2.525-2.227,2.525-6.828v-1.883
			c0-4.942,0-7.517-2.476-7.517c-0.991,0-1.732,0.592-2.225,0.987l-0.446,0.446V169.781z"/>
		<path clip-path="url(#SVGID_2_)" fill="#8BA2D3" d="M109.229,142.516h8.014v11.829h0.102c1.135-1.19,3.215-2.031,4.848-2.031
			c5.54,0,8.509,5.544,8.509,12.718c0,5.688-2.375,13.012-9.103,13.012c-3.119,0-5.146-1.482-6.733-3.86l-1.482,3.565h-4.153
			V142.516z M117.242,169.781c-0.147,2.079,1.092,3.217,2.624,3.217c2.227,0,2.522-2.227,2.522-6.828v-1.883
			c0-4.942,0-7.517-2.474-7.517c-0.99,0-1.731,0.592-2.227,0.987l-0.446,0.446V169.781z"/>
		<path clip-path="url(#SVGID_2_)" fill="#9FB1DB" d="M126.329,158.55h-3.264v-5.638h3.264v-2.775c0-6.084,3.018-8.307,8.314-8.307
			c1.581,0,2.771,0.146,4.058,0.292v6.138c-0.446-0.103-1.04-0.2-1.482-0.2c-2.034,0-2.873,0.646-2.873,2.128v2.723h4.355v5.638
			h-4.355v19.198h-8.017V158.55z"/>
		<path clip-path="url(#SVGID_2_)" fill="#B5C2E3" d="M146.967,162.158c0-0.984-0.053-2.175-0.395-3.113
			c-0.399-0.988-1.039-1.683-2.325-1.683c-2.676,0-2.972,3.267-2.972,8.213c0,5.589,0.893,7.422,2.972,7.422
			c2.821,0,3.067-2.866,3.067-4.755l6.231,0.892c-0.594,6.042-4.057,9.204-9.896,9.204c-7.223,0-10.981-6.331-10.981-12.465
			c0-6.781,3.759-13.561,11.332-13.561c8.509,0,9.795,7.372,9.795,9.845H146.967z"/>
		<path clip-path="url(#SVGID_2_)" fill="#CBD4EC" d="M150.378,162.177c1.778,0,3.229,1.452,3.229,3.229
			c0,1.778-1.451,3.236-3.229,3.236c-1.781,0-3.227-1.458-3.227-3.236C147.151,163.629,148.597,162.177,150.378,162.177z"/>
		<path clip-path="url(#SVGID_2_)" fill="#7794CC" d="M21.096,142.516h8.02v11.829h0.095c1.139-1.19,3.215-2.031,4.849-2.031
			c5.543,0,8.511,5.544,8.511,12.718c0,5.688-2.374,13.012-9.104,13.012c-3.116,0-5.146-1.482-6.728-3.86l-1.486,3.565h-4.155
			V142.516z M29.115,169.781c-0.154,2.079,1.086,3.217,2.617,3.217c2.228,0,2.525-2.227,2.525-6.828v-1.883
			c0-4.942,0-7.517-2.476-7.517c-0.987,0-1.729,0.592-2.225,0.987l-0.442,0.446V169.781z"/>
		<path clip-path="url(#SVGID_2_)" fill="#8BA2D3" d="M37.974,142.516h8.017v11.829h0.099c1.135-1.19,3.215-2.031,4.848-2.031
			c5.54,0,8.509,5.544,8.509,12.718c0,5.688-2.375,13.012-9.103,13.012c-3.119,0-5.143-1.482-6.728-3.86l-1.485,3.565h-4.156
			V142.516z M45.99,169.781c-0.15,2.079,1.089,3.217,2.621,3.217c2.227,0,2.522-2.227,2.522-6.828v-1.883
			c0-4.942,0-7.517-2.474-7.517c-0.99,0-1.731,0.592-2.227,0.987l-0.443,0.446V169.781z"/>
		<path clip-path="url(#SVGID_2_)" fill="#9FB1DB" d="M55.077,158.55h-3.267v-5.638h3.267v-2.775c0-6.084,3.021-8.307,8.312-8.307
			c1.584,0,2.771,0.146,4.061,0.292v6.138c-0.449-0.103-1.043-0.2-1.485-0.2c-2.03,0-2.873,0.646-2.873,2.128v2.723h4.358v5.638
			h-4.358v19.198h-8.014V158.55z"/>
		<path clip-path="url(#SVGID_2_)" fill="#B5C2E3" d="M75.715,162.158c0-0.984-0.053-2.175-0.396-3.113
			c-0.395-0.988-1.04-1.683-2.326-1.683c-2.673,0-2.972,3.267-2.972,8.213c0,5.589,0.893,7.422,2.972,7.422
			c2.821,0,3.067-2.866,3.067-4.755l6.231,0.892c-0.593,6.042-4.057,9.204-9.896,9.204c-7.223,0-10.981-6.331-10.981-12.465
			c0-6.781,3.759-13.561,11.332-13.561c8.509,0,9.795,7.372,9.795,9.845H75.715z"/>
		<path clip-path="url(#SVGID_2_)" fill="#CBD4EC" d="M79.126,162.177c1.775,0,3.227,1.452,3.227,3.229
			c0,1.778-1.451,3.236-3.227,3.236c-1.784,0-3.229-1.458-3.229-3.236C75.896,163.629,77.342,162.177,79.126,162.177z"/>
		<path clip-path="url(#SVGID_2_)" fill="#7794CC" d="M234.863,142.516h8.013v11.829h0.099c1.142-1.19,3.218-2.031,4.851-2.031
			c5.544,0,8.515,5.544,8.515,12.718c0,5.688-2.374,13.012-9.107,13.012c-3.116,0-5.144-1.482-6.728-3.86l-1.483,3.565h-4.158
			V142.516z M242.876,169.781c-0.145,2.079,1.096,3.217,2.624,3.217c2.23,0,2.525-2.227,2.525-6.828v-1.883
			c0-4.942,0-7.517-2.476-7.517c-0.991,0-1.732,0.592-2.225,0.987l-0.449,0.446V169.781z"/>
		<path clip-path="url(#SVGID_2_)" fill="#8BA2D3" d="M251.741,142.516h8.017v11.829h0.099c1.135-1.19,3.218-2.031,4.851-2.031
			c5.537,0,8.506,5.544,8.506,12.718c0,5.688-2.372,13.012-9.103,13.012c-3.119,0-5.149-1.482-6.733-3.86l-1.479,3.565h-4.156
			V142.516z M259.758,169.781c-0.15,2.079,1.086,3.217,2.624,3.217c2.221,0,2.52-2.227,2.52-6.828v-1.883
			c0-4.942,0-7.517-2.471-7.517c-0.99,0-1.731,0.592-2.229,0.987l-0.443,0.446V169.781z"/>
		<path clip-path="url(#SVGID_2_)" fill="#9FB1DB" d="M268.842,158.55h-3.261v-5.638h3.261v-2.775c0-6.084,3.018-8.307,8.314-8.307
			c1.584,0,2.774,0.146,4.061,0.292v6.138c-0.449-0.103-1.043-0.2-1.486-0.2c-2.029,0-2.873,0.646-2.873,2.128v2.723h4.359v5.638
			h-4.359v19.198h-8.016V158.55z"/>
		<path clip-path="url(#SVGID_2_)" fill="#B5C2E3" d="M289.482,162.158c0-0.984-0.056-2.175-0.395-3.113
			c-0.402-0.988-1.039-1.683-2.328-1.683c-2.676,0-2.969,3.267-2.969,8.213c0,5.589,0.887,7.422,2.969,7.422
			c2.818,0,3.066-2.866,3.066-4.755l6.232,0.892c-0.59,6.042-4.057,9.204-9.893,9.204c-7.226,0-10.984-6.331-10.984-12.465
			c0-6.781,3.759-13.561,11.332-13.561c8.512,0,9.795,7.372,9.795,9.845H289.482z"/>
		<path clip-path="url(#SVGID_2_)" fill="#CBD4EC" d="M292.894,162.177c1.774,0,3.224,1.452,3.224,3.229
			c0,1.778-1.449,3.236-3.224,3.236c-1.784,0-3.229-1.458-3.229-3.236C289.664,163.629,291.109,162.177,292.894,162.177z"/>
		<path clip-path="url(#SVGID_2_)" fill="#7794CC" d="M306.564,142.516h8.013v11.829h0.099c1.141-1.19,3.217-2.031,4.851-2.031
			c5.537,0,8.509,5.544,8.509,12.718c0,5.688-2.375,13.012-9.103,13.012c-3.116,0-5.149-1.482-6.728-3.86l-1.488,3.565h-4.152
			V142.516z M314.577,169.781c-0.151,2.079,1.089,3.217,2.624,3.217c2.224,0,2.52-2.227,2.52-6.828v-1.883
			c0-4.942,0-7.517-2.471-7.517c-0.99,0-1.732,0.592-2.23,0.987l-0.442,0.446V169.781z"/>
		<path clip-path="url(#SVGID_2_)" fill="#8BA2D3" d="M323.436,142.516h8.018v11.829h0.104c1.136-1.19,3.212-2.031,4.846-2.031
			c5.543,0,8.505,5.544,8.505,12.718c0,5.688-2.372,13.012-9.103,13.012c-3.112,0-5.143-1.482-6.727-3.86l-1.486,3.565h-4.156
			V142.516z M331.453,169.781c-0.145,2.079,1.092,3.217,2.623,3.217c2.228,0,2.525-2.227,2.525-6.828v-1.883
			c0-4.942,0-7.517-2.477-7.517c-0.99,0-1.731,0.592-2.224,0.987l-0.448,0.446V169.781z"/>
		<path clip-path="url(#SVGID_2_)" fill="#9FB1DB" d="M340.543,158.55h-3.268v-5.638h3.268v-2.775c0-6.084,3.018-8.307,8.314-8.307
			c1.578,0,2.768,0.146,4.054,0.292v6.138c-0.442-0.103-1.036-0.2-1.479-0.2c-2.036,0-2.873,0.646-2.873,2.128v2.723h4.353v5.638
			h-4.353v19.198h-8.016V158.55z"/>
		<path clip-path="url(#SVGID_2_)" fill="#B5C2E3" d="M361.184,162.158c0-0.984-0.057-2.175-0.4-3.113
			c-0.396-0.988-1.04-1.683-2.328-1.683c-2.67,0-2.969,3.267-2.969,8.213c0,5.589,0.892,7.422,2.969,7.422
			c2.823,0,3.066-2.866,3.066-4.755l6.238,0.892c-0.597,6.042-4.058,9.204-9.898,9.204c-7.221,0-10.979-6.331-10.979-12.465
			c0-6.781,3.758-13.561,11.332-13.561c8.506,0,9.794,7.372,9.794,9.845H361.184z"/>
		<path clip-path="url(#SVGID_2_)" fill="#CBD4EC" d="M364.588,162.177c1.781,0,3.23,1.452,3.23,3.229
			c0,1.778-1.449,3.236-3.23,3.236c-1.777,0-3.224-1.458-3.224-3.236C361.364,163.629,362.811,162.177,364.588,162.177z"/>
		<path clip-path="url(#SVGID_2_)" fill="#7794CC" d="M163.605,101.92h8.013v11.829h0.099c1.142-1.19,3.218-2.032,4.851-2.032
			c5.547,0,8.515,5.542,8.515,12.718c0,5.686-2.374,13.01-9.108,13.01c-3.115,0-5.146-1.482-6.727-3.859l-1.486,3.561h-4.155V101.92
			z M171.618,129.184c-0.147,2.081,1.092,3.216,2.624,3.216c2.228,0,2.522-2.229,2.522-6.829v-1.88c0-4.948,0-7.52-2.474-7.52
			c-0.99,0-1.734,0.596-2.224,0.989l-0.449,0.447V129.184z"/>
		<path clip-path="url(#SVGID_2_)" fill="#8BA2D3" d="M180.486,101.92h8.014v11.829h0.099c1.141-1.19,3.218-2.032,4.851-2.032
			c5.543,0,8.509,5.542,8.509,12.718c0,5.686-2.375,13.01-9.103,13.01c-3.116,0-5.143-1.482-6.73-3.859l-1.485,3.561h-4.153V101.92z
			 M188.5,129.184c-0.145,2.081,1.089,3.216,2.624,3.216c2.221,0,2.525-2.229,2.525-6.829v-1.88c0-4.948,0-7.52-2.477-7.52
			c-0.99,0-1.731,0.596-2.229,0.989l-0.443,0.447V129.184z"/>
		<path clip-path="url(#SVGID_2_)" fill="#9FB1DB" d="M197.59,117.952h-3.267v-5.639h3.267v-2.771c0-6.084,3.018-8.313,8.314-8.313
			c1.578,0,2.769,0.149,4.055,0.297v6.137c-0.449-0.1-1.037-0.202-1.486-0.202c-2.03,0-2.873,0.645-2.873,2.129v2.724h4.359v5.639
			H205.6v19.196h-8.01V117.952z"/>
		<path clip-path="url(#SVGID_2_)" fill="#B5C2E3" d="M218.225,121.564c0-0.987-0.05-2.178-0.394-3.116
			c-0.397-0.989-1.04-1.681-2.326-1.681c-2.673,0-2.972,3.264-2.972,8.208c0,5.594,0.893,7.424,2.972,7.424
			c2.818,0,3.064-2.87,3.064-4.751l6.238,0.889c-0.598,6.038-4.063,9.205-9.899,9.205c-7.226,0-10.984-6.333-10.984-12.466
			c0-6.78,3.759-13.56,11.332-13.56c8.512,0,9.801,7.372,9.801,9.847H218.225z"/>
		<path clip-path="url(#SVGID_2_)" fill="#CBD4EC" d="M221.636,121.582c1.781,0,3.229,1.452,3.229,3.231
			c0,1.776-1.448,3.23-3.229,3.23c-1.784,0-3.229-1.454-3.229-3.23C218.406,123.033,219.852,121.582,221.636,121.582z"/>
		<path clip-path="url(#SVGID_2_)" fill="#7794CC" d="M92.351,101.92h8.016v11.829h0.096c1.142-1.19,3.218-2.032,4.852-2.032
			c5.543,0,8.511,5.542,8.511,12.718c0,5.686-2.374,13.01-9.104,13.01c-3.116,0-5.146-1.482-6.728-3.859l-1.486,3.561h-4.155V101.92
			z M100.366,129.184c-0.15,2.081,1.09,3.216,2.621,3.216c2.228,0,2.525-2.229,2.525-6.829v-1.88c0-4.948,0-7.52-2.476-7.52
			c-0.991,0-1.732,0.596-2.225,0.989l-0.446,0.447V129.184z"/>
		<path clip-path="url(#SVGID_2_)" fill="#8BA2D3" d="M109.229,101.92h8.014v11.829h0.102c1.135-1.19,3.215-2.032,4.848-2.032
			c5.54,0,8.509,5.542,8.509,12.718c0,5.686-2.375,13.01-9.103,13.01c-3.119,0-5.146-1.482-6.733-3.859l-1.482,3.561h-4.153V101.92z
			 M117.242,129.184c-0.147,2.081,1.092,3.216,2.624,3.216c2.227,0,2.522-2.229,2.522-6.829v-1.88c0-4.948,0-7.52-2.474-7.52
			c-0.99,0-1.731,0.596-2.227,0.989l-0.446,0.447V129.184z"/>
		<path clip-path="url(#SVGID_2_)" fill="#9FB1DB" d="M126.329,117.952h-3.264v-5.639h3.264v-2.771c0-6.084,3.018-8.313,8.314-8.313
			c1.581,0,2.771,0.149,4.058,0.297v6.137c-0.446-0.1-1.04-0.202-1.482-0.202c-2.034,0-2.873,0.645-2.873,2.129v2.724h4.355v5.639
			h-4.355v19.196h-8.017V117.952z"/>
		<path clip-path="url(#SVGID_2_)" fill="#B5C2E3" d="M146.967,121.564c0-0.987-0.053-2.178-0.395-3.116
			c-0.399-0.989-1.039-1.681-2.325-1.681c-2.676,0-2.972,3.264-2.972,8.208c0,5.594,0.893,7.424,2.972,7.424
			c2.821,0,3.067-2.87,3.067-4.751l6.231,0.889c-0.594,6.038-4.057,9.205-9.896,9.205c-7.223,0-10.981-6.333-10.981-12.466
			c0-6.78,3.759-13.56,11.332-13.56c8.509,0,9.795,7.372,9.795,9.847H146.967z"/>
		<path clip-path="url(#SVGID_2_)" fill="#CBD4EC" d="M150.378,121.582c1.778,0,3.229,1.452,3.229,3.231
			c0,1.776-1.451,3.23-3.229,3.23c-1.781,0-3.227-1.454-3.227-3.23C147.151,123.033,148.597,121.582,150.378,121.582z"/>
		<path clip-path="url(#SVGID_2_)" fill="#7794CC" d="M21.096,101.92h8.02v11.829h0.095c1.139-1.19,3.215-2.032,4.849-2.032
			c5.543,0,8.511,5.542,8.511,12.718c0,5.686-2.374,13.01-9.104,13.01c-3.116,0-5.146-1.482-6.728-3.859l-1.486,3.561h-4.155V101.92
			z M29.115,129.184c-0.154,2.081,1.086,3.216,2.617,3.216c2.228,0,2.525-2.229,2.525-6.829v-1.88c0-4.948,0-7.52-2.476-7.52
			c-0.987,0-1.729,0.596-2.225,0.989l-0.442,0.447V129.184z"/>
		<path clip-path="url(#SVGID_2_)" fill="#8BA2D3" d="M37.974,101.92h8.017v11.829h0.099c1.135-1.19,3.215-2.032,4.848-2.032
			c5.54,0,8.509,5.542,8.509,12.718c0,5.686-2.375,13.01-9.103,13.01c-3.119,0-5.143-1.482-6.728-3.859l-1.485,3.561h-4.156V101.92z
			 M45.99,129.184c-0.15,2.081,1.089,3.216,2.621,3.216c2.227,0,2.522-2.229,2.522-6.829v-1.88c0-4.948,0-7.52-2.474-7.52
			c-0.99,0-1.731,0.596-2.227,0.989l-0.443,0.447V129.184z"/>
		<path clip-path="url(#SVGID_2_)" fill="#9FB1DB" d="M55.077,117.952h-3.267v-5.639h3.267v-2.771c0-6.084,3.021-8.313,8.312-8.313
			c1.584,0,2.771,0.149,4.061,0.297v6.137c-0.449-0.1-1.043-0.202-1.485-0.202c-2.03,0-2.873,0.645-2.873,2.129v2.724h4.358v5.639
			h-4.358v19.196h-8.014V117.952z"/>
		<path clip-path="url(#SVGID_2_)" fill="#B5C2E3" d="M75.715,121.564c0-0.987-0.053-2.178-0.396-3.116
			c-0.395-0.989-1.04-1.681-2.326-1.681c-2.673,0-2.972,3.264-2.972,8.208c0,5.594,0.893,7.424,2.972,7.424
			c2.821,0,3.067-2.87,3.067-4.751l6.231,0.889c-0.593,6.038-4.057,9.205-9.896,9.205c-7.223,0-10.981-6.333-10.981-12.466
			c0-6.78,3.759-13.56,11.332-13.56c8.509,0,9.795,7.372,9.795,9.847H75.715z"/>
		<path clip-path="url(#SVGID_2_)" fill="#CBD4EC" d="M79.126,121.582c1.775,0,3.227,1.452,3.227,3.231
			c0,1.776-1.451,3.23-3.227,3.23c-1.784,0-3.229-1.454-3.229-3.23C75.896,123.033,77.342,121.582,79.126,121.582z"/>
		<path clip-path="url(#SVGID_2_)" fill="#7794CC" d="M234.863,101.92h8.013v11.829h0.099c1.142-1.19,3.218-2.032,4.851-2.032
			c5.544,0,8.515,5.542,8.515,12.718c0,5.686-2.374,13.01-9.107,13.01c-3.116,0-5.144-1.482-6.728-3.859l-1.483,3.561h-4.158V101.92
			z M242.876,129.184c-0.145,2.081,1.096,3.216,2.624,3.216c2.23,0,2.525-2.229,2.525-6.829v-1.88c0-4.948,0-7.52-2.476-7.52
			c-0.991,0-1.732,0.596-2.225,0.989l-0.449,0.447V129.184z"/>
		<path clip-path="url(#SVGID_2_)" fill="#8BA2D3" d="M251.741,101.92h8.017v11.829h0.099c1.135-1.19,3.218-2.032,4.851-2.032
			c5.537,0,8.506,5.542,8.506,12.718c0,5.686-2.372,13.01-9.103,13.01c-3.119,0-5.149-1.482-6.733-3.859l-1.479,3.561h-4.156V101.92
			z M259.758,129.184c-0.15,2.081,1.086,3.216,2.624,3.216c2.221,0,2.52-2.229,2.52-6.829v-1.88c0-4.948,0-7.52-2.471-7.52
			c-0.99,0-1.731,0.596-2.229,0.989l-0.443,0.447V129.184z"/>
		<path clip-path="url(#SVGID_2_)" fill="#9FB1DB" d="M268.842,117.952h-3.261v-5.639h3.261v-2.771c0-6.084,3.018-8.313,8.314-8.313
			c1.584,0,2.774,0.149,4.061,0.297v6.137c-0.449-0.1-1.043-0.202-1.486-0.202c-2.029,0-2.873,0.645-2.873,2.129v2.724h4.359v5.639
			h-4.359v19.196h-8.016V117.952z"/>
		<path clip-path="url(#SVGID_2_)" fill="#B5C2E3" d="M289.482,121.564c0-0.987-0.056-2.178-0.395-3.116
			c-0.402-0.989-1.039-1.681-2.328-1.681c-2.676,0-2.969,3.264-2.969,8.208c0,5.594,0.887,7.424,2.969,7.424
			c2.818,0,3.066-2.87,3.066-4.751l6.232,0.889c-0.59,6.038-4.057,9.205-9.893,9.205c-7.226,0-10.984-6.333-10.984-12.466
			c0-6.78,3.759-13.56,11.332-13.56c8.512,0,9.795,7.372,9.795,9.847H289.482z"/>
		<path clip-path="url(#SVGID_2_)" fill="#CBD4EC" d="M292.894,121.582c1.774,0,3.224,1.452,3.224,3.231
			c0,1.776-1.449,3.23-3.224,3.23c-1.784,0-3.229-1.454-3.229-3.23C289.664,123.033,291.109,121.582,292.894,121.582z"/>
		<path clip-path="url(#SVGID_2_)" fill="#7794CC" d="M306.564,101.92h8.013v11.829h0.099c1.141-1.19,3.217-2.032,4.851-2.032
			c5.537,0,8.509,5.542,8.509,12.718c0,5.686-2.375,13.01-9.103,13.01c-3.116,0-5.149-1.482-6.728-3.859l-1.488,3.561h-4.152V101.92
			z M314.577,129.184c-0.151,2.081,1.089,3.216,2.624,3.216c2.224,0,2.52-2.229,2.52-6.829v-1.88c0-4.948,0-7.52-2.471-7.52
			c-0.99,0-1.732,0.596-2.23,0.989l-0.442,0.447V129.184z"/>
		<path clip-path="url(#SVGID_2_)" fill="#8BA2D3" d="M323.436,101.92h8.018v11.829h0.104c1.136-1.19,3.212-2.032,4.846-2.032
			c5.543,0,8.505,5.542,8.505,12.718c0,5.686-2.372,13.01-9.103,13.01c-3.112,0-5.143-1.482-6.727-3.859l-1.486,3.561h-4.156V101.92
			z M331.453,129.184c-0.145,2.081,1.092,3.216,2.623,3.216c2.228,0,2.525-2.229,2.525-6.829v-1.88c0-4.948,0-7.52-2.477-7.52
			c-0.99,0-1.731,0.596-2.224,0.989l-0.448,0.447V129.184z"/>
		<path clip-path="url(#SVGID_2_)" fill="#9FB1DB" d="M340.543,117.952h-3.268v-5.639h3.268v-2.771c0-6.084,3.018-8.313,8.314-8.313
			c1.578,0,2.768,0.149,4.054,0.297v6.137c-0.442-0.1-1.036-0.202-1.479-0.202c-2.036,0-2.873,0.645-2.873,2.129v2.724h4.353v5.639
			h-4.353v19.196h-8.016V117.952z"/>
		<path clip-path="url(#SVGID_2_)" fill="#B5C2E3" d="M361.184,121.564c0-0.987-0.057-2.178-0.4-3.116
			c-0.396-0.989-1.04-1.681-2.328-1.681c-2.67,0-2.969,3.264-2.969,8.208c0,5.594,0.892,7.424,2.969,7.424
			c2.823,0,3.066-2.87,3.066-4.751l6.238,0.889c-0.597,6.038-4.058,9.205-9.898,9.205c-7.221,0-10.979-6.333-10.979-12.466
			c0-6.78,3.758-13.56,11.332-13.56c8.506,0,9.794,7.372,9.794,9.847H361.184z"/>
		<path clip-path="url(#SVGID_2_)" fill="#CBD4EC" d="M364.588,121.582c1.781,0,3.23,1.452,3.23,3.231c0,1.776-1.449,3.23-3.23,3.23
			c-1.777,0-3.224-1.454-3.224-3.23C361.364,123.033,362.811,121.582,364.588,121.582z"/>
		<path clip-path="url(#SVGID_2_)" fill="#7794CC" d="M163.605,61.325h8.013V73.15h0.099c1.142-1.188,3.218-2.027,4.851-2.027
			c5.547,0,8.515,5.54,8.515,12.715c0,5.689-2.374,13.012-9.108,13.012c-3.115,0-5.146-1.481-6.727-3.862l-1.486,3.563h-4.155
			V61.325z M171.618,88.589c-0.147,2.076,1.092,3.213,2.624,3.213c2.228,0,2.522-2.226,2.522-6.829v-1.879c0-4.95,0-7.52-2.474-7.52
			c-0.99,0-1.734,0.594-2.224,0.992l-0.449,0.443V88.589z"/>
		<path clip-path="url(#SVGID_2_)" fill="#8BA2D3" d="M180.486,61.325h8.014V73.15h0.099c1.141-1.188,3.218-2.027,4.851-2.027
			c5.543,0,8.509,5.54,8.509,12.715c0,5.689-2.375,13.012-9.103,13.012c-3.116,0-5.143-1.481-6.73-3.862l-1.485,3.563h-4.153V61.325
			z M188.5,88.589c-0.145,2.076,1.089,3.213,2.624,3.213c2.221,0,2.525-2.226,2.525-6.829v-1.879c0-4.95,0-7.52-2.477-7.52
			c-0.99,0-1.731,0.594-2.229,0.992l-0.443,0.443V88.589z"/>
		<path clip-path="url(#SVGID_2_)" fill="#9FB1DB" d="M197.59,77.352h-3.267v-5.637h3.267v-2.77c0-6.084,3.018-8.316,8.314-8.316
			c1.578,0,2.769,0.152,4.055,0.298v6.132c-0.449-0.097-1.037-0.194-1.486-0.194c-2.03,0-2.873,0.642-2.873,2.129v2.721h4.359v5.637
			H205.6V96.55h-8.01V77.352z"/>
		<path clip-path="url(#SVGID_2_)" fill="#B5C2E3" d="M218.225,80.968c0-0.989-0.05-2.176-0.394-3.115
			c-0.397-0.995-1.04-1.686-2.326-1.686c-2.673,0-2.972,3.264-2.972,8.213c0,5.589,0.893,7.421,2.972,7.421
			c2.818,0,3.064-2.867,3.064-4.75l6.238,0.891c-0.598,6.035-4.063,9.205-9.899,9.205c-7.226,0-10.984-6.333-10.984-12.466
			c0-6.78,3.759-13.56,11.332-13.56c8.512,0,9.801,7.369,9.801,9.845H218.225z"/>
		<path clip-path="url(#SVGID_2_)" fill="#CBD4EC" d="M221.636,80.986c1.781,0,3.229,1.452,3.229,3.229
			c0,1.773-1.448,3.231-3.229,3.231c-1.784,0-3.229-1.458-3.229-3.231C218.406,82.438,219.852,80.986,221.636,80.986z"/>
		<path clip-path="url(#SVGID_2_)" fill="#7794CC" d="M92.351,61.325h8.016V73.15h0.096c1.142-1.188,3.218-2.027,4.852-2.027
			c5.543,0,8.511,5.54,8.511,12.715c0,5.689-2.374,13.012-9.104,13.012c-3.116,0-5.146-1.481-6.728-3.862l-1.486,3.563h-4.155
			V61.325z M100.366,88.589c-0.15,2.076,1.09,3.213,2.621,3.213c2.228,0,2.525-2.226,2.525-6.829v-1.879c0-4.95,0-7.52-2.476-7.52
			c-0.991,0-1.732,0.594-2.225,0.992l-0.446,0.443V88.589z"/>
		<path clip-path="url(#SVGID_2_)" fill="#8BA2D3" d="M109.229,61.325h8.014V73.15h0.102c1.135-1.188,3.215-2.027,4.848-2.027
			c5.54,0,8.509,5.54,8.509,12.715c0,5.689-2.375,13.012-9.103,13.012c-3.119,0-5.146-1.481-6.733-3.862l-1.482,3.563h-4.153V61.325
			z M117.242,88.589c-0.147,2.076,1.092,3.213,2.624,3.213c2.227,0,2.522-2.226,2.522-6.829v-1.879c0-4.95,0-7.52-2.474-7.52
			c-0.99,0-1.731,0.594-2.227,0.992l-0.446,0.443V88.589z"/>
		<path clip-path="url(#SVGID_2_)" fill="#9FB1DB" d="M126.329,77.352h-3.264v-5.637h3.264v-2.77c0-6.084,3.018-8.316,8.314-8.316
			c1.581,0,2.771,0.152,4.058,0.298v6.132c-0.446-0.097-1.04-0.194-1.482-0.194c-2.034,0-2.873,0.642-2.873,2.129v2.721h4.355v5.637
			h-4.355V96.55h-8.017V77.352z"/>
		<path clip-path="url(#SVGID_2_)" fill="#B5C2E3" d="M146.967,80.968c0-0.989-0.053-2.176-0.395-3.115
			c-0.399-0.995-1.039-1.686-2.325-1.686c-2.676,0-2.972,3.264-2.972,8.213c0,5.589,0.893,7.421,2.972,7.421
			c2.821,0,3.067-2.867,3.067-4.75l6.231,0.891c-0.594,6.035-4.057,9.205-9.896,9.205c-7.223,0-10.981-6.333-10.981-12.466
			c0-6.78,3.759-13.56,11.332-13.56c8.509,0,9.795,7.369,9.795,9.845H146.967z"/>
		<path clip-path="url(#SVGID_2_)" fill="#CBD4EC" d="M150.378,80.986c1.778,0,3.229,1.452,3.229,3.229
			c0,1.773-1.451,3.231-3.229,3.231c-1.781,0-3.227-1.458-3.227-3.231C147.151,82.438,148.597,80.986,150.378,80.986z"/>
		<path clip-path="url(#SVGID_2_)" fill="#7794CC" d="M21.096,61.325h8.02V73.15h0.095c1.139-1.188,3.215-2.027,4.849-2.027
			c5.543,0,8.511,5.54,8.511,12.715c0,5.689-2.374,13.012-9.104,13.012c-3.116,0-5.146-1.481-6.728-3.862l-1.486,3.563h-4.155
			V61.325z M29.115,88.589c-0.154,2.076,1.086,3.213,2.617,3.213c2.228,0,2.525-2.226,2.525-6.829v-1.879c0-4.95,0-7.52-2.476-7.52
			c-0.987,0-1.729,0.594-2.225,0.992l-0.442,0.443V88.589z"/>
		<path clip-path="url(#SVGID_2_)" fill="#8BA2D3" d="M37.974,61.325h8.017V73.15h0.099c1.135-1.188,3.215-2.027,4.848-2.027
			c5.54,0,8.509,5.54,8.509,12.715c0,5.689-2.375,13.012-9.103,13.012c-3.119,0-5.143-1.481-6.728-3.862L42.13,96.55h-4.156V61.325z
			 M45.99,88.589c-0.15,2.076,1.089,3.213,2.621,3.213c2.227,0,2.522-2.226,2.522-6.829v-1.879c0-4.95,0-7.52-2.474-7.52
			c-0.99,0-1.731,0.594-2.227,0.992l-0.443,0.443V88.589z"/>
		<path clip-path="url(#SVGID_2_)" fill="#9FB1DB" d="M55.077,77.352h-3.267v-5.637h3.267v-2.77c0-6.084,3.021-8.316,8.312-8.316
			c1.584,0,2.771,0.152,4.061,0.298v6.132c-0.449-0.097-1.043-0.194-1.485-0.194c-2.03,0-2.873,0.642-2.873,2.129v2.721h4.358v5.637
			h-4.358V96.55h-8.014V77.352z"/>
		<path clip-path="url(#SVGID_2_)" fill="#B5C2E3" d="M75.715,80.968c0-0.989-0.053-2.176-0.396-3.115
			c-0.395-0.995-1.04-1.686-2.326-1.686c-2.673,0-2.972,3.264-2.972,8.213c0,5.589,0.893,7.421,2.972,7.421
			c2.821,0,3.067-2.867,3.067-4.75l6.231,0.891c-0.593,6.035-4.057,9.205-9.896,9.205c-7.223,0-10.981-6.333-10.981-12.466
			c0-6.78,3.759-13.56,11.332-13.56c8.509,0,9.795,7.369,9.795,9.845H75.715z"/>
		<path clip-path="url(#SVGID_2_)" fill="#CBD4EC" d="M79.126,80.986c1.775,0,3.227,1.452,3.227,3.229
			c0,1.773-1.451,3.231-3.227,3.231c-1.784,0-3.229-1.458-3.229-3.231C75.896,82.438,77.342,80.986,79.126,80.986z"/>
		<path clip-path="url(#SVGID_2_)" fill="#7794CC" d="M234.863,61.325h8.013V73.15h0.099c1.142-1.188,3.218-2.027,4.851-2.027
			c5.544,0,8.515,5.54,8.515,12.715c0,5.689-2.374,13.012-9.107,13.012c-3.116,0-5.144-1.481-6.728-3.862l-1.483,3.563h-4.158
			V61.325z M242.876,88.589c-0.145,2.076,1.096,3.213,2.624,3.213c2.23,0,2.525-2.226,2.525-6.829v-1.879c0-4.95,0-7.52-2.476-7.52
			c-0.991,0-1.732,0.594-2.225,0.992l-0.449,0.443V88.589z"/>
		<path clip-path="url(#SVGID_2_)" fill="#8BA2D3" d="M251.741,61.325h8.017V73.15h0.099c1.135-1.188,3.218-2.027,4.851-2.027
			c5.537,0,8.506,5.54,8.506,12.715c0,5.689-2.372,13.012-9.103,13.012c-3.119,0-5.149-1.481-6.733-3.862l-1.479,3.563h-4.156
			V61.325z M259.758,88.589c-0.15,2.076,1.086,3.213,2.624,3.213c2.221,0,2.52-2.226,2.52-6.829v-1.879c0-4.95,0-7.52-2.471-7.52
			c-0.99,0-1.731,0.594-2.229,0.992l-0.443,0.443V88.589z"/>
		<path clip-path="url(#SVGID_2_)" fill="#9FB1DB" d="M268.842,77.352h-3.261v-5.637h3.261v-2.77c0-6.084,3.018-8.316,8.314-8.316
			c1.584,0,2.774,0.152,4.061,0.298v6.132c-0.449-0.097-1.043-0.194-1.486-0.194c-2.029,0-2.873,0.642-2.873,2.129v2.721h4.359
			v5.637h-4.359V96.55h-8.016V77.352z"/>
		<path clip-path="url(#SVGID_2_)" fill="#B5C2E3" d="M289.482,80.968c0-0.989-0.056-2.176-0.395-3.115
			c-0.402-0.995-1.039-1.686-2.328-1.686c-2.676,0-2.969,3.264-2.969,8.213c0,5.589,0.887,7.421,2.969,7.421
			c2.818,0,3.066-2.867,3.066-4.75l6.232,0.891c-0.59,6.035-4.057,9.205-9.893,9.205c-7.226,0-10.984-6.333-10.984-12.466
			c0-6.78,3.759-13.56,11.332-13.56c8.512,0,9.795,7.369,9.795,9.845H289.482z"/>
		<path clip-path="url(#SVGID_2_)" fill="#CBD4EC" d="M292.894,80.986c1.774,0,3.224,1.452,3.224,3.229
			c0,1.773-1.449,3.231-3.224,3.231c-1.784,0-3.229-1.458-3.229-3.231C289.664,82.438,291.109,80.986,292.894,80.986z"/>
		<path clip-path="url(#SVGID_2_)" fill="#7794CC" d="M306.564,61.325h8.013V73.15h0.099c1.141-1.188,3.217-2.027,4.851-2.027
			c5.537,0,8.509,5.54,8.509,12.715c0,5.689-2.375,13.012-9.103,13.012c-3.116,0-5.149-1.481-6.728-3.862l-1.488,3.563h-4.152
			V61.325z M314.577,88.589c-0.151,2.076,1.089,3.213,2.624,3.213c2.224,0,2.52-2.226,2.52-6.829v-1.879c0-4.95,0-7.52-2.471-7.52
			c-0.99,0-1.732,0.594-2.23,0.992l-0.442,0.443V88.589z"/>
		<path clip-path="url(#SVGID_2_)" fill="#8BA2D3" d="M323.436,61.325h8.018V73.15h0.104c1.136-1.188,3.212-2.027,4.846-2.027
			c5.543,0,8.505,5.54,8.505,12.715c0,5.689-2.372,13.012-9.103,13.012c-3.112,0-5.143-1.481-6.727-3.862l-1.486,3.563h-4.156
			V61.325z M331.453,88.589c-0.145,2.076,1.092,3.213,2.623,3.213c2.228,0,2.525-2.226,2.525-6.829v-1.879c0-4.95,0-7.52-2.477-7.52
			c-0.99,0-1.731,0.594-2.224,0.992l-0.448,0.443V88.589z"/>
		<path clip-path="url(#SVGID_2_)" fill="#9FB1DB" d="M340.543,77.352h-3.268v-5.637h3.268v-2.77c0-6.084,3.018-8.316,8.314-8.316
			c1.578,0,2.768,0.152,4.054,0.298v6.132c-0.442-0.097-1.036-0.194-1.479-0.194c-2.036,0-2.873,0.642-2.873,2.129v2.721h4.353
			v5.637h-4.353V96.55h-8.016V77.352z"/>
		<path clip-path="url(#SVGID_2_)" fill="#B5C2E3" d="M361.184,80.968c0-0.989-0.057-2.176-0.4-3.115
			c-0.396-0.995-1.04-1.686-2.328-1.686c-2.67,0-2.969,3.264-2.969,8.213c0,5.589,0.892,7.421,2.969,7.421
			c2.823,0,3.066-2.867,3.066-4.75l6.238,0.891c-0.597,6.035-4.058,9.205-9.898,9.205c-7.221,0-10.979-6.333-10.979-12.466
			c0-6.78,3.758-13.56,11.332-13.56c8.506,0,9.794,7.369,9.794,9.845H361.184z"/>
		<path clip-path="url(#SVGID_2_)" fill="#CBD4EC" d="M364.588,80.986c1.781,0,3.23,1.452,3.23,3.229
			c0,1.773-1.449,3.231-3.23,3.231c-1.777,0-3.224-1.458-3.224-3.231C361.364,82.438,362.811,80.986,364.588,80.986z"/>
		<path clip-path="url(#SVGID_2_)" fill="#7794CC" d="M163.605,20.729h8.013v11.826h0.099c1.142-1.188,3.218-2.032,4.851-2.032
			c5.547,0,8.515,5.545,8.515,12.718c0,5.691-2.374,13.01-9.108,13.01c-3.115,0-5.146-1.481-6.727-3.859l-1.486,3.562h-4.155V20.729
			z M171.618,47.99c-0.147,2.08,1.092,3.215,2.624,3.215c2.228,0,2.522-2.226,2.522-6.828v-1.879c0-4.95,0-7.524-2.474-7.524
			c-0.99,0-1.734,0.599-2.224,0.997l-0.449,0.443V47.99z"/>
		<path clip-path="url(#SVGID_2_)" fill="#8BA2D3" d="M180.486,20.729h8.014v11.826h0.099c1.141-1.188,3.218-2.032,4.851-2.032
			c5.543,0,8.509,5.545,8.509,12.718c0,5.691-2.375,13.01-9.103,13.01c-3.116,0-5.143-1.481-6.73-3.859l-1.485,3.562h-4.153V20.729z
			 M188.5,47.99c-0.145,2.08,1.089,3.215,2.624,3.215c2.221,0,2.525-2.226,2.525-6.828v-1.879c0-4.95,0-7.524-2.477-7.524
			c-0.99,0-1.731,0.599-2.229,0.997l-0.443,0.443V47.99z"/>
		<path clip-path="url(#SVGID_2_)" fill="#9FB1DB" d="M197.59,36.756h-3.267v-5.642h3.267V28.35c0-6.085,3.018-8.316,8.314-8.316
			c1.578,0,2.769,0.152,4.055,0.298v6.132c-0.449-0.097-1.037-0.194-1.486-0.194c-2.03,0-2.873,0.64-2.873,2.127v2.718h4.359v5.642
			H205.6v19.198h-8.01V36.756z"/>
		<path clip-path="url(#SVGID_2_)" fill="#B5C2E3" d="M218.225,40.369c0-0.987-0.05-2.173-0.394-3.114
			c-0.397-0.994-1.04-1.683-2.326-1.683c-2.673,0-2.972,3.261-2.972,8.213c0,5.589,0.893,7.42,2.972,7.42
			c2.818,0,3.064-2.866,3.064-4.751l6.238,0.892c-0.598,6.034-4.063,9.206-9.899,9.206c-7.226,0-10.984-6.335-10.984-12.469
			c0-6.78,3.759-13.56,11.332-13.56c8.512,0,9.801,7.372,9.801,9.847H218.225z"/>
		<path clip-path="url(#SVGID_2_)" fill="#CBD4EC" d="M221.636,40.388c1.781,0,3.229,1.45,3.229,3.233
			c0,1.773-1.448,3.23-3.229,3.23c-1.784,0-3.229-1.457-3.229-3.23C218.406,41.838,219.852,40.388,221.636,40.388z"/>
		<path clip-path="url(#SVGID_2_)" fill="#7794CC" d="M92.351,20.729h8.016v11.826h0.096c1.142-1.188,3.218-2.032,4.852-2.032
			c5.543,0,8.511,5.545,8.511,12.718c0,5.691-2.374,13.01-9.104,13.01c-3.116,0-5.146-1.481-6.728-3.859l-1.486,3.562h-4.155V20.729
			z M100.366,47.99c-0.15,2.08,1.09,3.215,2.621,3.215c2.228,0,2.525-2.226,2.525-6.828v-1.879c0-4.95,0-7.524-2.476-7.524
			c-0.991,0-1.732,0.599-2.225,0.997l-0.446,0.443V47.99z"/>
		<path clip-path="url(#SVGID_2_)" fill="#8BA2D3" d="M109.229,20.729h8.014v11.826h0.102c1.135-1.188,3.215-2.032,4.848-2.032
			c5.54,0,8.509,5.545,8.509,12.718c0,5.691-2.375,13.01-9.103,13.01c-3.119,0-5.146-1.481-6.733-3.859l-1.482,3.562h-4.153V20.729z
			 M117.242,47.99c-0.147,2.08,1.092,3.215,2.624,3.215c2.227,0,2.522-2.226,2.522-6.828v-1.879c0-4.95,0-7.524-2.474-7.524
			c-0.99,0-1.731,0.599-2.227,0.997l-0.446,0.443V47.99z"/>
		<path clip-path="url(#SVGID_2_)" fill="#9FB1DB" d="M126.329,36.756h-3.264v-5.642h3.264V28.35c0-6.085,3.018-8.316,8.314-8.316
			c1.581,0,2.771,0.152,4.058,0.298v6.132c-0.446-0.097-1.04-0.194-1.482-0.194c-2.034,0-2.873,0.64-2.873,2.127v2.718h4.355v5.642
			h-4.355v19.198h-8.017V36.756z"/>
		<path clip-path="url(#SVGID_2_)" fill="#B5C2E3" d="M146.967,40.369c0-0.987-0.053-2.173-0.395-3.114
			c-0.399-0.994-1.039-1.683-2.325-1.683c-2.676,0-2.972,3.261-2.972,8.213c0,5.589,0.893,7.42,2.972,7.42
			c2.821,0,3.067-2.866,3.067-4.751l6.231,0.892c-0.594,6.034-4.057,9.206-9.896,9.206c-7.223,0-10.981-6.335-10.981-12.469
			c0-6.78,3.759-13.56,11.332-13.56c8.509,0,9.795,7.372,9.795,9.847H146.967z"/>
		<path clip-path="url(#SVGID_2_)" fill="#CBD4EC" d="M150.378,40.388c1.778,0,3.229,1.45,3.229,3.233
			c0,1.773-1.451,3.23-3.229,3.23c-1.781,0-3.227-1.457-3.227-3.23C147.151,41.838,148.597,40.388,150.378,40.388z"/>
		<path clip-path="url(#SVGID_2_)" fill="#7794CC" d="M21.096,20.729h8.02v11.826h0.095c1.139-1.188,3.215-2.032,4.849-2.032
			c5.543,0,8.511,5.545,8.511,12.718c0,5.691-2.374,13.01-9.104,13.01c-3.116,0-5.146-1.481-6.728-3.859l-1.486,3.562h-4.155V20.729
			z M29.115,47.99c-0.154,2.08,1.086,3.215,2.617,3.215c2.228,0,2.525-2.226,2.525-6.828v-1.879c0-4.95,0-7.524-2.476-7.524
			c-0.987,0-1.729,0.599-2.225,0.997l-0.442,0.443V47.99z"/>
		<path clip-path="url(#SVGID_2_)" fill="#8BA2D3" d="M37.974,20.729h8.017v11.826h0.099c1.135-1.188,3.215-2.032,4.848-2.032
			c5.54,0,8.509,5.545,8.509,12.718c0,5.691-2.375,13.01-9.103,13.01c-3.119,0-5.143-1.481-6.728-3.859l-1.485,3.562h-4.156V20.729z
			 M45.99,47.99c-0.15,2.08,1.089,3.215,2.621,3.215c2.227,0,2.522-2.226,2.522-6.828v-1.879c0-4.95,0-7.524-2.474-7.524
			c-0.99,0-1.731,0.599-2.227,0.997l-0.443,0.443V47.99z"/>
		<path clip-path="url(#SVGID_2_)" fill="#9FB1DB" d="M55.077,36.756h-3.267v-5.642h3.267V28.35c0-6.085,3.021-8.316,8.312-8.316
			c1.584,0,2.771,0.152,4.061,0.298v6.132C67,26.367,66.406,26.27,65.964,26.27c-2.03,0-2.873,0.64-2.873,2.127v2.718h4.358v5.642
			h-4.358v19.198h-8.014V36.756z"/>
		<path clip-path="url(#SVGID_2_)" fill="#B5C2E3" d="M75.715,40.369c0-0.987-0.053-2.173-0.396-3.114
			c-0.395-0.994-1.04-1.683-2.326-1.683c-2.673,0-2.972,3.261-2.972,8.213c0,5.589,0.893,7.42,2.972,7.42
			c2.821,0,3.067-2.866,3.067-4.751l6.231,0.892c-0.593,6.034-4.057,9.206-9.896,9.206c-7.223,0-10.981-6.335-10.981-12.469
			c0-6.78,3.759-13.56,11.332-13.56c8.509,0,9.795,7.372,9.795,9.847H75.715z"/>
		<path clip-path="url(#SVGID_2_)" fill="#CBD4EC" d="M79.126,40.388c1.775,0,3.227,1.45,3.227,3.233c0,1.773-1.451,3.23-3.227,3.23
			c-1.784,0-3.229-1.457-3.229-3.23C75.896,41.838,77.342,40.388,79.126,40.388z"/>
		<path clip-path="url(#SVGID_2_)" fill="#7794CC" d="M234.863,20.729h8.013v11.826h0.099c1.142-1.188,3.218-2.032,4.851-2.032
			c5.544,0,8.515,5.545,8.515,12.718c0,5.691-2.374,13.01-9.107,13.01c-3.116,0-5.144-1.481-6.728-3.859l-1.483,3.562h-4.158V20.729
			z M242.876,47.99c-0.145,2.08,1.096,3.215,2.624,3.215c2.23,0,2.525-2.226,2.525-6.828v-1.879c0-4.95,0-7.524-2.476-7.524
			c-0.991,0-1.732,0.599-2.225,0.997l-0.449,0.443V47.99z"/>
		<path clip-path="url(#SVGID_2_)" fill="#8BA2D3" d="M251.741,20.729h8.017v11.826h0.099c1.135-1.188,3.218-2.032,4.851-2.032
			c5.537,0,8.506,5.545,8.506,12.718c0,5.691-2.372,13.01-9.103,13.01c-3.119,0-5.149-1.481-6.733-3.859l-1.479,3.562h-4.156V20.729
			z M259.758,47.99c-0.15,2.08,1.086,3.215,2.624,3.215c2.221,0,2.52-2.226,2.52-6.828v-1.879c0-4.95,0-7.524-2.471-7.524
			c-0.99,0-1.731,0.599-2.229,0.997l-0.443,0.443V47.99z"/>
		<path clip-path="url(#SVGID_2_)" fill="#9FB1DB" d="M268.842,36.756h-3.261v-5.642h3.261V28.35c0-6.085,3.018-8.316,8.314-8.316
			c1.584,0,2.774,0.152,4.061,0.298v6.132c-0.449-0.097-1.043-0.194-1.486-0.194c-2.029,0-2.873,0.64-2.873,2.127v2.718h4.359v5.642
			h-4.359v19.198h-8.016V36.756z"/>
		<path clip-path="url(#SVGID_2_)" fill="#B5C2E3" d="M289.482,40.369c0-0.987-0.056-2.173-0.395-3.114
			c-0.402-0.994-1.039-1.683-2.328-1.683c-2.676,0-2.969,3.261-2.969,8.213c0,5.589,0.887,7.42,2.969,7.42
			c2.818,0,3.066-2.866,3.066-4.751l6.232,0.892c-0.59,6.034-4.057,9.206-9.893,9.206c-7.226,0-10.984-6.335-10.984-12.469
			c0-6.78,3.759-13.56,11.332-13.56c8.512,0,9.795,7.372,9.795,9.847H289.482z"/>
		<path clip-path="url(#SVGID_2_)" fill="#CBD4EC" d="M292.894,40.388c1.774,0,3.224,1.45,3.224,3.233
			c0,1.773-1.449,3.23-3.224,3.23c-1.784,0-3.229-1.457-3.229-3.23C289.664,41.838,291.109,40.388,292.894,40.388z"/>
		<path clip-path="url(#SVGID_2_)" fill="#7794CC" d="M306.564,20.729h8.013v11.826h0.099c1.141-1.188,3.217-2.032,4.851-2.032
			c5.537,0,8.509,5.545,8.509,12.718c0,5.691-2.375,13.01-9.103,13.01c-3.116,0-5.149-1.481-6.728-3.859l-1.488,3.562h-4.152V20.729
			z M314.577,47.99c-0.151,2.08,1.089,3.215,2.624,3.215c2.224,0,2.52-2.226,2.52-6.828v-1.879c0-4.95,0-7.524-2.471-7.524
			c-0.99,0-1.732,0.599-2.23,0.997l-0.442,0.443V47.99z"/>
		<path clip-path="url(#SVGID_2_)" fill="#8BA2D3" d="M323.436,20.729h8.018v11.826h0.104c1.136-1.188,3.212-2.032,4.846-2.032
			c5.543,0,8.505,5.545,8.505,12.718c0,5.691-2.372,13.01-9.103,13.01c-3.112,0-5.143-1.481-6.727-3.859l-1.486,3.562h-4.156V20.729
			z M331.453,47.99c-0.145,2.08,1.092,3.215,2.623,3.215c2.228,0,2.525-2.226,2.525-6.828v-1.879c0-4.95,0-7.524-2.477-7.524
			c-0.99,0-1.731,0.599-2.224,0.997l-0.448,0.443V47.99z"/>
		<path clip-path="url(#SVGID_2_)" fill="#9FB1DB" d="M340.543,36.756h-3.268v-5.642h3.268V28.35c0-6.085,3.018-8.316,8.314-8.316
			c1.578,0,2.768,0.152,4.054,0.298v6.132c-0.442-0.097-1.036-0.194-1.479-0.194c-2.036,0-2.873,0.64-2.873,2.127v2.718h4.353v5.642
			h-4.353v19.198h-8.016V36.756z"/>
		<path clip-path="url(#SVGID_2_)" fill="#B5C2E3" d="M361.184,40.369c0-0.987-0.057-2.173-0.4-3.114
			c-0.396-0.994-1.04-1.683-2.328-1.683c-2.67,0-2.969,3.261-2.969,8.213c0,5.589,0.892,7.42,2.969,7.42
			c2.823,0,3.066-2.866,3.066-4.751l6.238,0.892c-0.597,6.034-4.058,9.206-9.898,9.206c-7.221,0-10.979-6.335-10.979-12.469
			c0-6.78,3.758-13.56,11.332-13.56c8.506,0,9.794,7.372,9.794,9.847H361.184z"/>
		<path clip-path="url(#SVGID_2_)" fill="#CBD4EC" d="M364.588,40.388c1.781,0,3.23,1.45,3.23,3.233c0,1.773-1.449,3.23-3.23,3.23
			c-1.777,0-3.224-1.457-3.224-3.23C361.364,41.838,362.811,40.388,364.588,40.388z"/>
	</g>
	<path fill="#231F20" d="M97.463,246.566l-5.018-10.545h-2.344v10.545h-6.964v-28.331h11.222c6.284,0,9.668,4.461,9.668,9.111
		c0,3.864-2.387,6.288-4.614,7.407l6.128,11.813H97.463z M94.039,224.48h-3.938v5.739h3.938c1.91,0,3.023-1.402,3.023-2.873
		C97.063,225.877,95.949,224.48,94.039,224.48z"/>
	<polygon fill="#231F20" points="109.638,246.566 109.638,218.235 128.897,218.235 128.897,224.443 116.603,224.443 
		116.603,229.181 127.11,229.181 127.11,235.388 116.603,235.388 116.603,240.365 128.897,240.365 128.897,246.566 	"/>
	<path fill="#231F20" d="M143.315,246.807c-4.338,0-7.881-0.794-10.742-3.734l4.454-4.461c1.471,1.471,4.058,1.993,6.328,1.993
		c2.743,0,4.057-0.922,4.057-2.553c0-0.677-0.156-1.23-0.557-1.674c-0.356-0.356-0.953-0.633-1.873-0.75l-3.421-0.48
		c-2.504-0.356-4.414-1.193-5.69-2.504c-1.311-1.359-1.947-3.26-1.947-5.696c0-5.168,3.897-8.952,10.345-8.952
		c4.061,0,7.124,0.96,9.549,3.391l-4.375,4.368c-1.79-1.784-4.137-1.674-5.374-1.674c-2.424,0-3.42,1.402-3.42,2.633
		c0,0.357,0.12,0.874,0.557,1.311c0.356,0.357,0.953,0.72,1.95,0.837l3.421,0.474c2.55,0.363,4.38,1.157,5.57,2.351
		c1.517,1.477,2.11,3.58,2.11,6.214C154.257,243.663,149.283,246.807,143.315,246.807z"/>
	<polygon fill="#231F20" points="170.176,224.443 170.176,246.566 163.215,246.566 163.215,224.443 156.25,224.443 156.25,218.235 
		177.143,218.235 177.143,224.443 	"/>
	<path fill="#231F20" d="M195.418,246.566l-5.014-10.545h-2.348v10.545h-6.964v-28.331h11.222c6.29,0,9.674,4.461,9.674,9.111
		c0,3.864-2.39,6.288-4.617,7.407l6.131,11.813H195.418z M191.997,224.48h-3.94v5.739h3.94c1.907,0,3.024-1.402,3.024-2.873
		C195.021,225.877,193.904,224.48,191.997,224.48z"/>
	<rect x="207.52" y="218.235" fill="#231F20" width="6.964" height="28.331"/>
	<path fill="#231F20" d="M229.889,246.807c-3.304,0-5.811-1.114-7.881-3.181c-2.983-2.984-2.863-6.965-2.863-11.222
		c0-4.264-0.12-8.244,2.863-11.222c2.07-2.073,4.577-3.188,7.881-3.188c5.371,0,9.712,2.99,10.745,9.235h-7.081
		c-0.443-1.594-1.316-3.021-3.624-3.021c-1.276,0-2.23,0.511-2.747,1.194c-0.637,0.83-1.076,1.827-1.076,7.001
		s0.439,6.164,1.076,7.007c0.517,0.671,1.471,1.193,2.747,1.193c2.308,0,3.181-1.439,3.624-3.026h7.081
		C239.601,243.829,235.26,246.807,229.889,246.807z"/>
	<polygon fill="#231F20" points="256.374,224.443 256.374,246.566 249.41,246.566 249.41,224.443 242.445,224.443 242.445,218.235 
		263.335,218.235 263.335,224.443 	"/>
	<polygon fill="#231F20" points="267.174,246.566 267.174,218.235 286.439,218.235 286.439,224.443 274.139,224.443 
		274.139,229.181 284.646,229.181 284.646,235.388 274.139,235.388 274.139,240.365 286.439,240.365 286.439,246.566 	"/>
	<path fill="#231F20" d="M308.954,243.779c-1.954,1.95-4.7,2.787-7.647,2.787h-10.502v-28.331h10.502
		c2.947,0,5.693,0.837,7.647,2.787c3.298,3.304,2.94,6.921,2.94,11.382C311.895,236.858,312.252,240.481,308.954,243.779z
		 M304.177,226.03c-0.637-0.947-1.593-1.587-3.344-1.587h-3.063v15.922h3.063c1.751,0,2.707-0.64,3.344-1.594
		c0.557-0.794,0.753-1.557,0.753-6.367C304.93,227.63,304.733,226.83,304.177,226.03z"/>
	<path fill="#FFFFFF" d="M95.195,244.303l-5.017-10.545h-2.344v10.545H80.87v-28.337h11.222c6.284,0,9.668,4.46,9.668,9.117
		c0,3.863-2.387,6.287-4.617,7.401l6.131,11.818H95.195z M91.772,222.216h-3.938v5.734h3.938c1.91,0,3.023-1.396,3.023-2.867
		C94.796,223.606,93.683,222.216,91.772,222.216z"/>
	<polygon fill="#FFFFFF" points="107.371,244.303 107.371,215.966 126.631,215.966 126.631,222.179 114.335,222.179 
		114.335,226.916 124.843,226.916 124.843,233.118 114.335,233.118 114.335,238.095 126.631,238.095 126.631,244.303 	"/>
	<path fill="#FFFFFF" d="M141.048,244.536c-4.34,0-7.881-0.787-10.744-3.734l4.457-4.46c1.47,1.477,4.058,1.993,6.327,1.993
		c2.744,0,4.061-0.917,4.061-2.547c0-0.677-0.16-1.23-0.56-1.68c-0.357-0.351-0.954-0.628-1.874-0.744l-3.42-0.486
		c-2.504-0.351-4.414-1.193-5.688-2.504c-1.313-1.354-1.951-3.261-1.951-5.691c0-5.174,3.897-8.951,10.346-8.951
		c4.061,0,7.124,0.954,9.551,3.384l-4.377,4.374c-1.79-1.784-4.138-1.673-5.374-1.673c-2.424,0-3.421,1.396-3.421,2.627
		c0,0.356,0.12,0.88,0.561,1.316c0.354,0.356,0.95,0.714,1.946,0.837l3.421,0.474c2.55,0.362,4.381,1.156,5.571,2.35
		c1.517,1.471,2.11,3.581,2.11,6.208C151.99,241.398,147.016,244.536,141.048,244.536z"/>
	<polygon fill="#FFFFFF" points="167.912,222.179 167.912,244.303 160.947,244.303 160.947,222.179 153.983,222.179 
		153.983,215.966 174.876,215.966 174.876,222.179 	"/>
	<path fill="#FFFFFF" d="M193.151,244.303l-5.015-10.545h-2.347v10.545h-6.965v-28.337h11.222c6.291,0,9.675,4.46,9.675,9.117
		c0,3.863-2.387,6.287-4.62,7.401l6.134,11.818H193.151z M189.73,222.216h-3.94v5.734h3.94c1.907,0,3.023-1.396,3.023-2.867
		C192.754,223.606,191.638,222.216,189.73,222.216z"/>
	<rect x="205.252" y="215.966" fill="#FFFFFF" width="6.965" height="28.337"/>
	<path fill="#FFFFFF" d="M227.622,244.536c-3.304,0-5.811-1.107-7.881-3.175c-2.984-2.989-2.864-6.97-2.864-11.222
		c0-4.263-0.12-8.243,2.864-11.221c2.07-2.08,4.577-3.188,7.881-3.188c5.371,0,9.711,2.984,10.744,9.234h-7.084
		c-0.439-1.593-1.313-3.026-3.623-3.026c-1.274,0-2.228,0.511-2.744,1.193c-0.64,0.83-1.077,1.833-1.077,7.007
		c0,5.168,0.438,6.165,1.077,7.002c0.517,0.677,1.47,1.193,2.744,1.193c2.31,0,3.184-1.439,3.623-3.027h7.084
		C237.333,241.559,232.993,244.536,227.622,244.536z"/>
	<polygon fill="#FFFFFF" points="254.107,222.179 254.107,244.303 247.143,244.303 247.143,222.179 240.179,222.179 
		240.179,215.966 261.071,215.966 261.071,222.179 	"/>
	<polygon fill="#FFFFFF" points="264.91,244.303 264.91,215.966 284.173,215.966 284.173,222.179 271.871,222.179 271.871,226.916 
		282.379,226.916 282.379,233.118 271.871,233.118 271.871,238.095 284.173,238.095 284.173,244.303 	"/>
	<path fill="#FFFFFF" d="M306.688,241.516c-1.954,1.95-4.701,2.787-7.645,2.787h-10.506v-28.337h10.506
		c2.943,0,5.69,0.836,7.645,2.786c3.297,3.304,2.939,6.922,2.939,11.388C309.627,234.595,309.984,238.218,306.688,241.516z
		 M301.91,223.767c-0.637-0.954-1.594-1.588-3.344-1.588h-3.064v15.916h3.064c1.75,0,2.707-0.634,3.344-1.594
		c0.553-0.793,0.756-1.55,0.756-6.361C302.666,225.366,302.463,224.566,301.91,223.767z"/>
	<path fill="#231F20" d="M147.741,204.731l-20.277-42.653h-9.496v42.653H89.8V90.127h45.389c25.433,0,39.112,18.032,39.112,36.861
		c0,15.611-9.659,25.43-18.672,29.939l24.787,47.804H147.741z M133.899,115.4h-15.932v23.175h15.932
		c7.727,0,12.233-5.629,12.233-11.587C146.133,121.035,141.626,115.4,133.899,115.4z"/>
	<polygon fill="#231F20" points="201.054,204.731 201.054,118.021 182.941,133.685 182.941,105.79 201.054,90.127 227.197,90.127 
		227.197,204.731 	"/>
	<path fill="#231F20" d="M277.863,205.697c-21.083,0-38.469-11.431-38.469-35.252c0-14.324,8.532-21.085,12.876-24.626
		c-4.023-3.38-11.754-10.302-11.754-22.695c0-21.729,17.709-33.963,37.347-33.963c19.639,0,37.344,12.233,37.344,33.963
		c0,12.394-7.727,19.315-11.75,22.695c4.35,3.541,12.877,10.302,12.877,24.626C316.334,194.267,298.953,205.697,277.863,205.697z
		 M277.863,157.73c-6.601,0-12.07,5.474-12.07,12.075c0,6.595,5.47,12.07,12.07,12.07c6.602,0,12.071-5.476,12.071-12.07
		C289.935,163.204,284.465,157.73,277.863,157.73z M277.863,112.982c-6.115,0-10.944,4.829-10.944,10.944
		c0,6.119,4.829,10.948,10.944,10.948s10.945-4.83,10.945-10.948C288.809,117.812,283.979,112.982,277.863,112.982z"/>
	<path fill="#FFFFFF" d="M138.812,195.805l-20.277-42.655h-9.496v42.655H80.87V81.2h45.392c25.43,0,39.109,18.029,39.109,36.857
		c0,15.614-9.659,25.43-18.672,29.943l24.787,47.804H138.812z M124.97,106.473h-15.932v23.172h15.932
		c7.727,0,12.236-5.626,12.236-11.588C137.206,112.108,132.696,106.473,124.97,106.473z"/>
	<polygon fill="#FFFFFF" points="192.124,195.805 192.124,109.091 174.015,124.754 174.015,96.863 192.124,81.2 218.268,81.2 
		218.268,195.805 	"/>
	<path fill="#FFFFFF" d="M268.934,196.771c-21.083,0-38.47-11.431-38.47-35.252c0-14.327,8.533-21.085,12.877-24.629
		c-4.023-3.377-11.751-10.299-11.751-22.695c0-21.729,17.706-33.96,37.344-33.96c19.639,0,37.344,12.231,37.344,33.96
		c0,12.396-7.727,19.318-11.75,22.695c4.35,3.543,12.876,10.302,12.876,24.629C307.403,185.34,290.023,196.771,268.934,196.771z
		 M268.934,148.8c-6.601,0-12.07,5.476-12.07,12.078c0,6.595,5.47,12.071,12.07,12.071c6.602,0,12.07-5.476,12.07-12.071
		C281.004,154.276,275.535,148.8,268.934,148.8z M268.934,104.055c-6.115,0-10.944,4.83-10.944,10.945s4.829,10.945,10.944,10.945
		s10.945-4.83,10.945-10.945S275.049,104.055,268.934,104.055z"/>
</g>
</svg>
