<?xml version="1.0" encoding="utf-8"?>
<!-- Generator: Adobe Illustrator 16.0.0, SVG Export Plug-In . SVG Version: 6.00 Build 0)  -->
<!DOCTYPE svg PUBLIC "-//W3C//DTD SVG 1.1//EN" "http://www.w3.org/Graphics/SVG/1.1/DTD/svg11.dtd">
<svg version="1.1" id="Layer_1" xmlns="http://www.w3.org/2000/svg" xmlns:xlink="http://www.w3.org/1999/xlink" x="0px" y="0px"
	 width="362.512px" height="362.516px" viewBox="0 0 362.512 362.516" enable-background="new 0 0 362.512 362.516"
	 xml:space="preserve">
<g>
	<circle fill="#FFFFFF" cx="181.256" cy="181.258" r="178.58"/>
	<path fill="#231F20" d="M359.836,181.258h-2.677c-0.003,48.582-19.687,92.543-51.521,124.384
		c-31.841,31.834-75.801,51.519-124.382,51.521c-48.581-0.003-92.541-19.688-124.382-51.521
		C25.039,273.801,5.355,229.84,5.352,181.258c0.004-48.583,19.688-92.542,51.522-124.382C88.715,25.04,132.672,5.357,181.256,5.355
		c48.581,0.002,92.541,19.684,124.382,51.521c31.835,31.84,51.519,75.799,51.521,124.382H359.836h2.676
		C362.512,81.152,281.361,0.002,181.256,0C81.15,0.002,0,81.152,0,181.258c0,100.107,81.15,181.258,181.256,181.258
		s181.256-81.15,181.256-181.258H359.836z"/>
	<path fill="#ED1C2E" d="M165.543,352.524c-1.747-0.16-2.854-1.489-2.676-3.451c0.178-1.969,1.507-3.076,3.248-2.916
		c1.747,0.153,2.854,1.482,2.676,3.451C168.619,351.57,167.29,352.678,165.543,352.524z M166.859,350.094
		c-0.092,0.511-0.522,0.708-1.033,0.659c-0.671-0.056-1.059-0.714-0.984-1.526c0.08-0.867,0.511-1.359,1.212-1.298
		c0.461,0.043,0.874,0.271,0.929,0.806l1.04,0.093c-0.08-1.182-0.837-1.858-1.87-1.95c-1.458-0.13-2.455,0.83-2.584,2.258
		c-0.123,1.384,0.72,2.547,2.159,2.676c1.003,0.086,1.944-0.455,2.215-1.618L166.859,350.094z M161.525,348.95
		c-0.215,2.368,1.545,4.479,3.913,4.693c2.375,0.216,4.479-1.544,4.694-3.919c0.215-2.368-1.545-4.479-3.913-4.688
		C163.845,344.821,161.741,346.575,161.525,348.95z"/>
	<path fill="#ED1C2E" d="M170.409,353.902l6.786,0.283l0.08-1.981l-3.766-0.159v-0.025l2.332-1.458
		c0.886-0.535,1.568-1.255,1.612-2.301c0.043-1.003-0.622-2.522-3.193-2.627c-1.926-0.08-3.138,0.917-3.611,1.987l1.68,0.953
		c0.276-0.72,0.873-1.396,1.704-1.365c0.627,0.03,1.04,0.442,1.015,1.083c-0.024,0.571-0.75,1.236-1.126,1.52l-3.451,2.571
		L170.409,353.902z"/>
	<path fill="#ED1C2E" d="M183.225,350.058c0.012,2.239-0.462,2.707-1.182,2.707c-0.714,0.006-1.193-0.456-1.199-2.695
		c-0.013-2.239,0.461-2.7,1.175-2.707C182.738,347.362,183.212,347.824,183.225,350.058z M178.395,350.082
		c0.013,2.726,1.575,4.282,3.655,4.27c2.085-0.006,3.636-1.581,3.623-4.301c-0.012-1.734-0.916-4.288-3.66-4.275
		S178.389,348.354,178.395,350.082z"/>
	<path fill="#ED1C2E" d="M190.951,349.799c0.111,2.233-0.338,2.72-1.052,2.756c-0.72,0.031-1.212-0.405-1.322-2.639
		c-0.111-2.239,0.338-2.726,1.052-2.757C190.349,347.123,190.841,347.56,190.951,349.799z M186.128,350.032
		c0.136,2.72,1.766,4.209,3.846,4.104c2.085-0.098,3.556-1.74,3.427-4.46c-0.086-1.729-1.107-4.239-3.852-4.104
		C186.812,345.708,186.042,348.304,186.128,350.032z"/>
	<path fill="#ED1C2E" d="M194.422,353.742l6.761-0.64l-0.185-1.98l-3.753,0.356l-0.006-0.019l2.116-1.766
		c0.8-0.652,1.378-1.458,1.279-2.498c-0.098-1.003-0.959-2.411-3.519-2.172c-1.92,0.185-2.984,1.335-3.31,2.468l1.796,0.713
		c0.173-0.75,0.677-1.507,1.501-1.581c0.628-0.062,1.089,0.296,1.15,0.93c0.056,0.572-0.572,1.328-0.904,1.661l-3.069,3.015
		L194.422,353.742z"/>
	<circle fill="#ED1C2E" cx="181.256" cy="181.258" r="160.72"/>
	<g>
		<defs>
			<circle id="SVGID_13_" cx="181.256" cy="181.258" r="160.72"/>
		</defs>
		<clipPath id="SVGID_2_">
			<use xlink:href="#SVGID_13_"  overflow="visible"/>
		</clipPath>
		<path clip-path="url(#SVGID_2_)" fill="#F5846D" d="M151.418,308.014h8.12v11.984h0.099c1.157-1.206,3.261-2.062,4.916-2.062
			c5.617,0,8.625,5.617,8.625,12.889c0,5.759-2.405,13.179-9.229,13.179c-3.155,0-5.211-1.502-6.816-3.907l-1.501,3.605h-4.214
			V308.014z M159.538,335.637c-0.147,2.104,1.107,3.254,2.658,3.254c2.258,0,2.56-2.258,2.56-6.921v-1.901
			c0-5.014,0-7.622-2.511-7.622c-0.996,0-1.753,0.609-2.251,1.009l-0.456,0.449V335.637z"/>
		<path clip-path="url(#SVGID_2_)" fill="#F6967F" d="M168.521,308.014h8.121v11.984h0.099c1.15-1.206,3.261-2.062,4.915-2.062
			c5.611,0,8.619,5.617,8.619,12.889c0,5.759-2.405,13.179-9.222,13.179c-3.162,0-5.217-1.502-6.823-3.907l-1.501,3.605h-4.208
			V308.014z M176.642,335.637c-0.153,2.104,1.102,3.254,2.658,3.254c2.251,0,2.553-2.258,2.553-6.921v-1.901
			c0-5.014,0-7.622-2.504-7.622c-1.003,0-1.754,0.609-2.258,1.009l-0.449,0.449V335.637z"/>
		<path clip-path="url(#SVGID_2_)" fill="#F8AA95" d="M185.846,324.249h-3.304v-5.71h3.304v-2.805c0-6.165,3.058-8.429,8.422-8.429
			c1.605,0,2.812,0.153,4.116,0.308v6.214c-0.456-0.104-1.059-0.203-1.508-0.203c-2.055,0-2.91,0.652-2.91,2.159v2.756h4.418v5.71
			h-4.418v19.453h-8.12V324.249z"/>
		<path clip-path="url(#SVGID_2_)" fill="#FABEAB" d="M206.757,327.916c0-1.003-0.056-2.209-0.4-3.156
			c-0.406-1.01-1.052-1.704-2.356-1.704c-2.713,0-3.008,3.304-3.008,8.317c0,5.666,0.898,7.518,3.008,7.518
			c2.855,0,3.107-2.903,3.107-4.811l6.313,0.898c-0.598,6.115-4.11,9.326-10.022,9.326c-7.321,0-11.129-6.416-11.129-12.63
			c0-6.866,3.808-13.738,11.479-13.738c8.626,0,9.924,7.469,9.924,9.979H206.757z"/>
		<path clip-path="url(#SVGID_2_)" fill="#FCD3C4" d="M210.214,327.934c1.797,0,3.268,1.471,3.268,3.273
			c0,1.797-1.471,3.272-3.268,3.272c-1.809,0-3.272-1.476-3.272-3.272C206.941,329.404,208.405,327.934,210.214,327.934z"/>
		<path clip-path="url(#SVGID_2_)" fill="#F5846D" d="M151.418,266.88h8.12v11.984h0.099c1.157-1.206,3.261-2.055,4.916-2.055
			c5.617,0,8.625,5.61,8.625,12.882c0,5.766-2.405,13.179-9.229,13.179c-3.155,0-5.211-1.501-6.816-3.907l-1.501,3.605h-4.214
			V266.88z M159.538,294.503c-0.147,2.104,1.107,3.255,2.658,3.255c2.258,0,2.56-2.252,2.56-6.915v-1.907
			c0-5.015,0-7.617-2.511-7.617c-0.996,0-1.753,0.604-2.251,1.003l-0.456,0.449V294.503z"/>
		<path clip-path="url(#SVGID_2_)" fill="#F6967F" d="M168.521,266.88h8.121v11.984h0.099c1.15-1.206,3.261-2.055,4.915-2.055
			c5.611,0,8.619,5.61,8.619,12.882c0,5.766-2.405,13.179-9.222,13.179c-3.162,0-5.217-1.501-6.823-3.907l-1.501,3.605h-4.208
			V266.88z M176.642,294.503c-0.153,2.104,1.102,3.255,2.658,3.255c2.251,0,2.553-2.252,2.553-6.915v-1.907
			c0-5.015,0-7.617-2.504-7.617c-1.003,0-1.754,0.604-2.258,1.003l-0.449,0.449V294.503z"/>
		<path clip-path="url(#SVGID_2_)" fill="#F8AA95" d="M185.846,283.121h-3.304v-5.715h3.304v-2.806c0-6.165,3.058-8.423,8.422-8.423
			c1.605,0,2.812,0.154,4.116,0.302v6.214c-0.456-0.099-1.059-0.197-1.508-0.197c-2.055,0-2.91,0.646-2.91,2.153v2.757h4.418v5.715
			h-4.418v19.447h-8.12V283.121z"/>
		<path clip-path="url(#SVGID_2_)" fill="#FABEAB" d="M206.757,286.782c0-1.003-0.056-2.203-0.4-3.156
			c-0.406-1.009-1.052-1.704-2.356-1.704c-2.713,0-3.008,3.304-3.008,8.317c0,5.666,0.898,7.519,3.008,7.519
			c2.855,0,3.107-2.904,3.107-4.812l6.313,0.904c-0.598,6.115-4.11,9.327-10.022,9.327c-7.321,0-11.129-6.417-11.129-12.637
			c0-6.866,3.808-13.731,11.479-13.731c8.626,0,9.924,7.462,9.924,9.973H206.757z"/>
		<path clip-path="url(#SVGID_2_)" fill="#FCD3C4" d="M210.214,286.801c1.797,0,3.268,1.47,3.268,3.272
			c0,1.797-1.471,3.273-3.268,3.273c-1.809,0-3.272-1.477-3.272-3.273C206.941,288.271,208.405,286.801,210.214,286.801z"/>
		<path clip-path="url(#SVGID_2_)" fill="#F5846D" d="M151.418,225.746h8.12v11.979h0.099c1.157-1.206,3.261-2.055,4.916-2.055
			c5.617,0,8.625,5.616,8.625,12.882c0,5.765-2.405,13.185-9.229,13.185c-3.155,0-5.211-1.501-6.816-3.913l-1.501,3.618h-4.214
			V225.746z M159.538,253.363c-0.147,2.11,1.107,3.267,2.658,3.267c2.258,0,2.56-2.264,2.56-6.921v-1.907
			c0-5.008,0-7.616-2.511-7.616c-0.996,0-1.753,0.597-2.251,1.002l-0.456,0.449V253.363z"/>
		<path clip-path="url(#SVGID_2_)" fill="#F6967F" d="M168.521,225.746h8.121v11.979h0.099c1.15-1.206,3.261-2.055,4.915-2.055
			c5.611,0,8.619,5.616,8.619,12.882c0,5.765-2.405,13.185-9.222,13.185c-3.162,0-5.217-1.501-6.823-3.913l-1.501,3.618h-4.208
			V225.746z M176.642,253.363c-0.153,2.11,1.102,3.267,2.658,3.267c2.251,0,2.553-2.264,2.553-6.921v-1.907
			c0-5.008,0-7.616-2.504-7.616c-1.003,0-1.754,0.597-2.258,1.002l-0.449,0.449V253.363z"/>
		<path clip-path="url(#SVGID_2_)" fill="#F8AA95" d="M185.846,241.987h-3.304v-5.715h3.304v-2.806c0-6.164,3.058-8.422,8.422-8.422
			c1.605,0,2.812,0.147,4.116,0.295v6.22c-0.456-0.104-1.059-0.203-1.508-0.203c-2.055,0-2.91,0.658-2.91,2.16v2.756h4.418v5.715
			h-4.418v19.454h-8.12V241.987z"/>
		<path clip-path="url(#SVGID_2_)" fill="#FABEAB" d="M206.757,245.643c0-0.997-0.056-2.203-0.4-3.156
			c-0.406-0.997-1.052-1.704-2.356-1.704c-2.713,0-3.008,3.31-3.008,8.323c0,5.66,0.898,7.524,3.008,7.524
			c2.855,0,3.107-2.91,3.107-4.823l6.313,0.904c-0.598,6.121-4.11,9.327-10.022,9.327c-7.321,0-11.129-6.417-11.129-12.631
			c0-6.872,3.808-13.737,11.479-13.737c8.626,0,9.924,7.469,9.924,9.973H206.757z"/>
		<path clip-path="url(#SVGID_2_)" fill="#FCD3C4" d="M210.214,245.66c1.797,0,3.268,1.471,3.268,3.279
			c0,1.797-1.471,3.273-3.268,3.273c-1.809,0-3.272-1.477-3.272-3.273C206.941,247.131,208.405,245.66,210.214,245.66z"/>
		<path clip-path="url(#SVGID_2_)" fill="#F5846D" d="M151.418,184.619h8.12v11.978h0.099c1.157-1.199,3.261-2.055,4.916-2.055
			c5.617,0,8.625,5.61,8.625,12.883c0,5.759-2.405,13.178-9.229,13.178c-3.155,0-5.211-1.501-6.816-3.906l-1.501,3.604h-4.214
			V184.619z M159.538,212.235c-0.147,2.104,1.107,3.255,2.658,3.255c2.258,0,2.56-2.258,2.56-6.915v-1.907
			c0-5.014,0-7.616-2.511-7.616c-0.996,0-1.753,0.603-2.251,1.003l-0.456,0.449V212.235z"/>
		<path clip-path="url(#SVGID_2_)" fill="#F6967F" d="M168.521,184.619h8.121v11.978h0.099c1.15-1.199,3.261-2.055,4.915-2.055
			c5.611,0,8.619,5.61,8.619,12.883c0,5.759-2.405,13.178-9.222,13.178c-3.162,0-5.217-1.501-6.823-3.906l-1.501,3.604h-4.208
			V184.619z M176.642,212.235c-0.153,2.104,1.102,3.255,2.658,3.255c2.251,0,2.553-2.258,2.553-6.915v-1.907
			c0-5.014,0-7.616-2.504-7.616c-1.003,0-1.754,0.603-2.258,1.003l-0.449,0.449V212.235z"/>
		<path clip-path="url(#SVGID_2_)" fill="#F8AA95" d="M185.846,200.854h-3.304v-5.71h3.304v-2.805c0-6.165,3.058-8.423,8.422-8.423
			c1.605,0,2.812,0.148,4.116,0.295v6.22c-0.456-0.104-1.059-0.203-1.508-0.203c-2.055,0-2.91,0.652-2.91,2.159v2.756h4.418v5.71
			h-4.418v19.446h-8.12V200.854z"/>
		<path clip-path="url(#SVGID_2_)" fill="#FABEAB" d="M206.757,204.515c0-1.003-0.056-2.209-0.4-3.156
			c-0.406-1.003-1.052-1.704-2.356-1.704c-2.713,0-3.008,3.304-3.008,8.318c0,5.666,0.898,7.518,3.008,7.518
			c2.855,0,3.107-2.904,3.107-4.811l6.313,0.897c-0.598,6.122-4.11,9.327-10.022,9.327c-7.321,0-11.129-6.417-11.129-12.631
			c0-6.865,3.808-13.731,11.479-13.731c8.626,0,9.924,7.463,9.924,9.973H206.757z"/>
		<path clip-path="url(#SVGID_2_)" fill="#FCD3C4" d="M210.214,204.533c1.797,0,3.268,1.471,3.268,3.273
			c0,1.796-1.471,3.272-3.268,3.272c-1.809,0-3.272-1.477-3.272-3.272C206.941,206.004,208.405,204.533,210.214,204.533z"/>
		<path clip-path="url(#SVGID_2_)" fill="#F5846D" d="M79.228,308.014h8.121v11.984h0.099c1.156-1.206,3.261-2.062,4.915-2.062
			c5.611,0,8.619,5.617,8.619,12.889c0,5.759-2.405,13.179-9.222,13.179c-3.156,0-5.217-1.502-6.816-3.907l-1.508,3.605h-4.208
			V308.014z M87.349,335.637c-0.154,2.104,1.102,3.254,2.657,3.254c2.252,0,2.554-2.258,2.554-6.921v-1.901
			c0-5.014,0-7.622-2.504-7.622c-1.003,0-1.754,0.609-2.258,1.009l-0.449,0.449V335.637z"/>
		<path clip-path="url(#SVGID_2_)" fill="#F6967F" d="M96.324,308.014h8.128v11.984h0.098c1.15-1.206,3.255-2.062,4.91-2.062
			c5.616,0,8.619,5.617,8.619,12.889c0,5.759-2.406,13.179-9.223,13.179c-3.156,0-5.211-1.502-6.816-3.907l-1.507,3.605h-4.209
			V308.014z M104.452,335.637c-0.154,2.104,1.101,3.254,2.651,3.254c2.258,0,2.56-2.258,2.56-6.921v-1.901
			c0-5.014,0-7.622-2.511-7.622c-1.003,0-1.753,0.609-2.252,1.009l-0.448,0.449V335.637z"/>
		<path clip-path="url(#SVGID_2_)" fill="#F8AA95" d="M113.655,324.249h-3.31v-5.71h3.31v-2.805c0-6.165,3.058-8.429,8.423-8.429
			c1.6,0,2.805,0.153,4.109,0.308v6.214c-0.449-0.104-1.052-0.203-1.501-0.203c-2.062,0-2.91,0.652-2.91,2.159v2.756h4.411v5.71
			h-4.411v19.453h-8.121V324.249z"/>
		<path clip-path="url(#SVGID_2_)" fill="#FABEAB" d="M134.566,327.916c0-1.003-0.055-2.209-0.405-3.156
			c-0.4-1.01-1.053-1.704-2.356-1.704c-2.707,0-3.009,3.304-3.009,8.317c0,5.666,0.904,7.518,3.009,7.518
			c2.86,0,3.106-2.903,3.106-4.811l6.318,0.898c-0.603,6.115-4.109,9.326-10.028,9.326c-7.314,0-11.123-6.416-11.123-12.63
			c0-6.866,3.809-13.738,11.48-13.738c8.619,0,9.923,7.469,9.923,9.979H134.566z"/>
		<path clip-path="url(#SVGID_2_)" fill="#FCD3C4" d="M138.019,327.934c1.802,0,3.272,1.471,3.272,3.273
			c0,1.797-1.471,3.272-3.272,3.272c-1.803,0-3.268-1.476-3.268-3.272C134.751,329.404,136.216,327.934,138.019,327.934z"/>
		<path clip-path="url(#SVGID_2_)" fill="#F5846D" d="M79.228,266.88h8.121v11.984h0.099c1.156-1.206,3.261-2.055,4.915-2.055
			c5.611,0,8.619,5.61,8.619,12.882c0,5.766-2.405,13.179-9.222,13.179c-3.156,0-5.217-1.501-6.816-3.907l-1.508,3.605h-4.208
			V266.88z M87.349,294.503c-0.154,2.104,1.102,3.255,2.657,3.255c2.252,0,2.554-2.252,2.554-6.915v-1.907
			c0-5.015,0-7.617-2.504-7.617c-1.003,0-1.754,0.604-2.258,1.003l-0.449,0.449V294.503z"/>
		<path clip-path="url(#SVGID_2_)" fill="#F6967F" d="M96.324,266.88h8.128v11.984h0.098c1.15-1.206,3.255-2.055,4.91-2.055
			c5.616,0,8.619,5.61,8.619,12.882c0,5.766-2.406,13.179-9.223,13.179c-3.156,0-5.211-1.501-6.816-3.907l-1.507,3.605h-4.209
			V266.88z M104.452,294.503c-0.154,2.104,1.101,3.255,2.651,3.255c2.258,0,2.56-2.252,2.56-6.915v-1.907
			c0-5.015,0-7.617-2.511-7.617c-1.003,0-1.753,0.604-2.252,1.003l-0.448,0.449V294.503z"/>
		<path clip-path="url(#SVGID_2_)" fill="#F8AA95" d="M113.655,283.121h-3.31v-5.715h3.31v-2.806c0-6.165,3.058-8.423,8.423-8.423
			c1.6,0,2.805,0.154,4.109,0.302v6.214c-0.449-0.099-1.052-0.197-1.501-0.197c-2.062,0-2.91,0.646-2.91,2.153v2.757h4.411v5.715
			h-4.411v19.447h-8.121V283.121z"/>
		<path clip-path="url(#SVGID_2_)" fill="#FABEAB" d="M134.566,286.782c0-1.003-0.055-2.203-0.405-3.156
			c-0.4-1.009-1.053-1.704-2.356-1.704c-2.707,0-3.009,3.304-3.009,8.317c0,5.666,0.904,7.519,3.009,7.519
			c2.86,0,3.106-2.904,3.106-4.812l6.318,0.904c-0.603,6.115-4.109,9.327-10.028,9.327c-7.314,0-11.123-6.417-11.123-12.637
			c0-6.866,3.809-13.731,11.48-13.731c8.619,0,9.923,7.462,9.923,9.973H134.566z"/>
		<path clip-path="url(#SVGID_2_)" fill="#FCD3C4" d="M138.019,286.801c1.802,0,3.272,1.47,3.272,3.272
			c0,1.797-1.471,3.273-3.272,3.273c-1.803,0-3.268-1.477-3.268-3.273C134.751,288.271,136.216,286.801,138.019,286.801z"/>
		<path clip-path="url(#SVGID_2_)" fill="#F5846D" d="M79.228,225.746h8.121v11.979h0.099c1.156-1.206,3.261-2.055,4.915-2.055
			c5.611,0,8.619,5.616,8.619,12.882c0,5.765-2.405,13.185-9.222,13.185c-3.156,0-5.217-1.501-6.816-3.913l-1.508,3.618h-4.208
			V225.746z M87.349,253.363c-0.154,2.11,1.102,3.267,2.657,3.267c2.252,0,2.554-2.264,2.554-6.921v-1.907
			c0-5.008,0-7.616-2.504-7.616c-1.003,0-1.754,0.597-2.258,1.002l-0.449,0.449V253.363z"/>
		<path clip-path="url(#SVGID_2_)" fill="#F6967F" d="M96.324,225.746h8.128v11.979h0.098c1.15-1.206,3.255-2.055,4.91-2.055
			c5.616,0,8.619,5.616,8.619,12.882c0,5.765-2.406,13.185-9.223,13.185c-3.156,0-5.211-1.501-6.816-3.913l-1.507,3.618h-4.209
			V225.746z M104.452,253.363c-0.154,2.11,1.101,3.267,2.651,3.267c2.258,0,2.56-2.264,2.56-6.921v-1.907
			c0-5.008,0-7.616-2.511-7.616c-1.003,0-1.753,0.597-2.252,1.002l-0.448,0.449V253.363z"/>
		<path clip-path="url(#SVGID_2_)" fill="#F8AA95" d="M113.655,241.987h-3.31v-5.715h3.31v-2.806c0-6.164,3.058-8.422,8.423-8.422
			c1.6,0,2.805,0.147,4.109,0.295v6.22c-0.449-0.104-1.052-0.203-1.501-0.203c-2.062,0-2.91,0.658-2.91,2.16v2.756h4.411v5.715
			h-4.411v19.454h-8.121V241.987z"/>
		<path clip-path="url(#SVGID_2_)" fill="#FABEAB" d="M134.566,245.643c0-0.997-0.055-2.203-0.405-3.156
			c-0.4-0.997-1.053-1.704-2.356-1.704c-2.707,0-3.009,3.31-3.009,8.323c0,5.66,0.904,7.524,3.009,7.524
			c2.86,0,3.106-2.91,3.106-4.823l6.318,0.904c-0.603,6.121-4.109,9.327-10.028,9.327c-7.314,0-11.123-6.417-11.123-12.631
			c0-6.872,3.809-13.737,11.48-13.737c8.619,0,9.923,7.469,9.923,9.973H134.566z"/>
		<path clip-path="url(#SVGID_2_)" fill="#FCD3C4" d="M138.019,245.66c1.802,0,3.272,1.471,3.272,3.279
			c0,1.797-1.471,3.273-3.272,3.273c-1.803,0-3.268-1.477-3.268-3.273C134.751,247.131,136.216,245.66,138.019,245.66z"/>
		<path clip-path="url(#SVGID_2_)" fill="#F5846D" d="M79.228,184.619h8.121v11.978h0.099c1.156-1.199,3.261-2.055,4.915-2.055
			c5.611,0,8.619,5.61,8.619,12.883c0,5.759-2.405,13.178-9.222,13.178c-3.156,0-5.217-1.501-6.816-3.906l-1.508,3.604h-4.208
			V184.619z M87.349,212.235c-0.154,2.104,1.102,3.255,2.657,3.255c2.252,0,2.554-2.258,2.554-6.915v-1.907
			c0-5.014,0-7.616-2.504-7.616c-1.003,0-1.754,0.603-2.258,1.003l-0.449,0.449V212.235z"/>
		<path clip-path="url(#SVGID_2_)" fill="#F6967F" d="M96.324,184.619h8.128v11.978h0.098c1.15-1.199,3.255-2.055,4.91-2.055
			c5.616,0,8.619,5.61,8.619,12.883c0,5.759-2.406,13.178-9.223,13.178c-3.156,0-5.211-1.501-6.816-3.906l-1.507,3.604h-4.209
			V184.619z M104.452,212.235c-0.154,2.104,1.101,3.255,2.651,3.255c2.258,0,2.56-2.258,2.56-6.915v-1.907
			c0-5.014,0-7.616-2.511-7.616c-1.003,0-1.753,0.603-2.252,1.003l-0.448,0.449V212.235z"/>
		<path clip-path="url(#SVGID_2_)" fill="#F8AA95" d="M113.655,200.854h-3.31v-5.71h3.31v-2.805c0-6.165,3.058-8.423,8.423-8.423
			c1.6,0,2.805,0.148,4.109,0.295v6.22c-0.449-0.104-1.052-0.203-1.501-0.203c-2.062,0-2.91,0.652-2.91,2.159v2.756h4.411v5.71
			h-4.411v19.446h-8.121V200.854z"/>
		<path clip-path="url(#SVGID_2_)" fill="#FABEAB" d="M134.566,204.515c0-1.003-0.055-2.209-0.405-3.156
			c-0.4-1.003-1.053-1.704-2.356-1.704c-2.707,0-3.009,3.304-3.009,8.318c0,5.666,0.904,7.518,3.009,7.518
			c2.86,0,3.106-2.904,3.106-4.811l6.318,0.897c-0.603,6.122-4.109,9.327-10.028,9.327c-7.314,0-11.123-6.417-11.123-12.631
			c0-6.865,3.809-13.731,11.48-13.731c8.619,0,9.923,7.463,9.923,9.973H134.566z"/>
		<path clip-path="url(#SVGID_2_)" fill="#FCD3C4" d="M138.019,204.533c1.802,0,3.272,1.471,3.272,3.273
			c0,1.796-1.471,3.272-3.272,3.272c-1.803,0-3.268-1.477-3.268-3.272C134.751,206.004,136.216,204.533,138.019,204.533z"/>
		<path clip-path="url(#SVGID_2_)" fill="#F5846D" d="M7.031,266.88h8.121v11.984h0.099c1.156-1.206,3.261-2.055,4.916-2.055
			c5.616,0,8.625,5.61,8.625,12.882c0,5.766-2.405,13.179-9.229,13.179c-3.156,0-5.211-1.501-6.816-3.907l-1.501,3.605H7.031V266.88
			z M15.152,294.503c-0.147,2.104,1.107,3.255,2.658,3.255c2.251,0,2.559-2.252,2.559-6.915v-1.907c0-5.015,0-7.617-2.51-7.617
			c-1.003,0-1.753,0.604-2.252,1.003l-0.455,0.449V294.503z"/>
		<path clip-path="url(#SVGID_2_)" fill="#F6967F" d="M24.135,266.88h8.121v11.984h0.099c1.15-1.206,3.26-2.055,4.915-2.055
			c5.611,0,8.619,5.61,8.619,12.882c0,5.766-2.405,13.179-9.222,13.179c-3.162,0-5.218-1.501-6.823-3.907l-1.501,3.605h-4.208
			V266.88z M32.256,294.503c-0.154,2.104,1.101,3.255,2.657,3.255c2.252,0,2.554-2.252,2.554-6.915v-1.907
			c0-5.015,0-7.617-2.504-7.617c-1.009,0-1.76,0.604-2.258,1.003l-0.449,0.449V294.503z"/>
		<path clip-path="url(#SVGID_2_)" fill="#F8AA95" d="M41.459,283.121h-3.304v-5.715h3.304v-2.806c0-6.165,3.058-8.423,8.423-8.423
			c1.605,0,2.812,0.154,4.109,0.302v6.214c-0.449-0.099-1.052-0.197-1.501-0.197c-2.055,0-2.91,0.646-2.91,2.153v2.757h4.411v5.715
			H49.58v19.447h-8.121V283.121z"/>
		<path clip-path="url(#SVGID_2_)" fill="#FABEAB" d="M62.371,286.782c0-1.003-0.056-2.203-0.4-3.156
			c-0.406-1.009-1.059-1.704-2.356-1.704c-2.713,0-3.008,3.304-3.008,8.317c0,5.666,0.897,7.519,3.008,7.519
			c2.854,0,3.107-2.904,3.107-4.812l6.312,0.904c-0.597,6.115-4.109,9.327-10.021,9.327c-7.321,0-11.13-6.417-11.13-12.637
			c0-6.866,3.809-13.731,11.48-13.731c8.625,0,9.924,7.462,9.924,9.973H62.371z"/>
		<path clip-path="url(#SVGID_2_)" fill="#FCD3C4" d="M65.828,286.801c1.797,0,3.267,1.47,3.267,3.272
			c0,1.797-1.47,3.273-3.267,3.273c-1.809,0-3.272-1.477-3.272-3.273C62.556,288.271,64.02,286.801,65.828,286.801z"/>
		<path clip-path="url(#SVGID_2_)" fill="#F5846D" d="M7.031,225.746h8.121v11.979h0.099c1.156-1.206,3.261-2.055,4.916-2.055
			c5.616,0,8.625,5.616,8.625,12.882c0,5.765-2.405,13.185-9.229,13.185c-3.156,0-5.211-1.501-6.816-3.913l-1.501,3.618H7.031
			V225.746z M15.152,253.363c-0.147,2.11,1.107,3.267,2.658,3.267c2.251,0,2.559-2.264,2.559-6.921v-1.907
			c0-5.008,0-7.616-2.51-7.616c-1.003,0-1.753,0.597-2.252,1.002l-0.455,0.449V253.363z"/>
		<path clip-path="url(#SVGID_2_)" fill="#F6967F" d="M24.135,225.746h8.121v11.979h0.099c1.15-1.206,3.26-2.055,4.915-2.055
			c5.611,0,8.619,5.616,8.619,12.882c0,5.765-2.405,13.185-9.222,13.185c-3.162,0-5.218-1.501-6.823-3.913l-1.501,3.618h-4.208
			V225.746z M32.256,253.363c-0.154,2.11,1.101,3.267,2.657,3.267c2.252,0,2.554-2.264,2.554-6.921v-1.907
			c0-5.008,0-7.616-2.504-7.616c-1.009,0-1.76,0.597-2.258,1.002l-0.449,0.449V253.363z"/>
		<path clip-path="url(#SVGID_2_)" fill="#F8AA95" d="M41.459,241.987h-3.304v-5.715h3.304v-2.806c0-6.164,3.058-8.422,8.423-8.422
			c1.605,0,2.812,0.147,4.109,0.295v6.22c-0.449-0.104-1.052-0.203-1.501-0.203c-2.055,0-2.91,0.658-2.91,2.16v2.756h4.411v5.715
			H49.58v19.454h-8.121V241.987z"/>
		<path clip-path="url(#SVGID_2_)" fill="#FABEAB" d="M62.371,245.643c0-0.997-0.056-2.203-0.4-3.156
			c-0.406-0.997-1.059-1.704-2.356-1.704c-2.713,0-3.008,3.31-3.008,8.323c0,5.66,0.897,7.524,3.008,7.524
			c2.854,0,3.107-2.91,3.107-4.823l6.312,0.904c-0.597,6.121-4.109,9.327-10.021,9.327c-7.321,0-11.13-6.417-11.13-12.631
			c0-6.872,3.809-13.737,11.48-13.737c8.625,0,9.924,7.469,9.924,9.973H62.371z"/>
		<path clip-path="url(#SVGID_2_)" fill="#FCD3C4" d="M65.828,245.66c1.797,0,3.267,1.471,3.267,3.279
			c0,1.797-1.47,3.273-3.267,3.273c-1.809,0-3.272-1.477-3.272-3.273C62.556,247.131,64.02,245.66,65.828,245.66z"/>
		<path clip-path="url(#SVGID_2_)" fill="#F5846D" d="M7.031,184.619h8.121v11.978h0.099c1.156-1.199,3.261-2.055,4.916-2.055
			c5.616,0,8.625,5.61,8.625,12.883c0,5.759-2.405,13.178-9.229,13.178c-3.156,0-5.211-1.501-6.816-3.906l-1.501,3.604H7.031
			V184.619z M15.152,212.235c-0.147,2.104,1.107,3.255,2.658,3.255c2.251,0,2.559-2.258,2.559-6.915v-1.907
			c0-5.014,0-7.616-2.51-7.616c-1.003,0-1.753,0.603-2.252,1.003l-0.455,0.449V212.235z"/>
		<path clip-path="url(#SVGID_2_)" fill="#F6967F" d="M24.135,184.619h8.121v11.978h0.099c1.15-1.199,3.26-2.055,4.915-2.055
			c5.611,0,8.619,5.61,8.619,12.883c0,5.759-2.405,13.178-9.222,13.178c-3.162,0-5.218-1.501-6.823-3.906l-1.501,3.604h-4.208
			V184.619z M32.256,212.235c-0.154,2.104,1.101,3.255,2.657,3.255c2.252,0,2.554-2.258,2.554-6.915v-1.907
			c0-5.014,0-7.616-2.504-7.616c-1.009,0-1.76,0.603-2.258,1.003l-0.449,0.449V212.235z"/>
		<path clip-path="url(#SVGID_2_)" fill="#F8AA95" d="M41.459,200.854h-3.304v-5.71h3.304v-2.805c0-6.165,3.058-8.423,8.423-8.423
			c1.605,0,2.812,0.148,4.109,0.295v6.22c-0.449-0.104-1.052-0.203-1.501-0.203c-2.055,0-2.91,0.652-2.91,2.159v2.756h4.411v5.71
			H49.58v19.446h-8.121V200.854z"/>
		<path clip-path="url(#SVGID_2_)" fill="#FABEAB" d="M62.371,204.515c0-1.003-0.056-2.209-0.4-3.156
			c-0.406-1.003-1.059-1.704-2.356-1.704c-2.713,0-3.008,3.304-3.008,8.318c0,5.666,0.897,7.518,3.008,7.518
			c2.854,0,3.107-2.904,3.107-4.811l6.312,0.897c-0.597,6.122-4.109,9.327-10.021,9.327c-7.321,0-11.13-6.417-11.13-12.631
			c0-6.865,3.809-13.731,11.48-13.731c8.625,0,9.924,7.463,9.924,9.973H62.371z"/>
		<path clip-path="url(#SVGID_2_)" fill="#FCD3C4" d="M65.828,204.533c1.797,0,3.267,1.471,3.267,3.273
			c0,1.796-1.47,3.272-3.267,3.272c-1.809,0-3.272-1.477-3.272-3.272C62.556,206.004,64.02,204.533,65.828,204.533z"/>
		<path clip-path="url(#SVGID_2_)" fill="#F5846D" d="M223.613,308.014h8.121v11.984h0.099c1.156-1.206,3.261-2.062,4.916-2.062
			c5.616,0,8.625,5.617,8.625,12.889c0,5.759-2.412,13.179-9.229,13.179c-3.156,0-5.211-1.502-6.816-3.907l-1.501,3.605h-4.215
			V308.014z M231.734,335.637c-0.147,2.104,1.102,3.254,2.658,3.254c2.251,0,2.559-2.258,2.559-6.921v-1.901
			c0-5.014,0-7.622-2.51-7.622c-1.003,0-1.753,0.609-2.258,1.009l-0.449,0.449V335.637z"/>
		<path clip-path="url(#SVGID_2_)" fill="#F6967F" d="M240.717,308.014h8.121v11.984h0.099c1.15-1.206,3.254-2.062,4.915-2.062
			c5.611,0,8.619,5.617,8.619,12.889c0,5.759-2.405,13.179-9.222,13.179c-3.162,0-5.218-1.502-6.823-3.907l-1.501,3.605h-4.208
			V308.014z M248.838,335.637c-0.154,2.104,1.101,3.254,2.651,3.254c2.258,0,2.56-2.258,2.56-6.921v-1.901
			c0-5.014,0-7.622-2.504-7.622c-1.009,0-1.76,0.609-2.258,1.009l-0.449,0.449V335.637z"/>
		<path clip-path="url(#SVGID_2_)" fill="#F8AA95" d="M258.041,324.249h-3.304v-5.71h3.304v-2.805c0-6.165,3.058-8.429,8.423-8.429
			c1.605,0,2.806,0.153,4.109,0.308v6.214c-0.449-0.104-1.052-0.203-1.501-0.203c-2.055,0-2.91,0.652-2.91,2.159v2.756h4.411v5.71
			h-4.411v19.453h-8.121V324.249z"/>
		<path clip-path="url(#SVGID_2_)" fill="#FABEAB" d="M278.953,327.916c0-1.003-0.056-2.209-0.4-3.156
			c-0.406-1.01-1.059-1.704-2.362-1.704c-2.707,0-3.002,3.304-3.002,8.317c0,5.666,0.897,7.518,3.002,7.518
			c2.86,0,3.106-2.903,3.106-4.811l6.318,0.898c-0.597,6.115-4.109,9.326-10.021,9.326c-7.321,0-11.13-6.416-11.13-12.63
			c0-6.866,3.809-13.738,11.48-13.738c8.619,0,9.924,7.469,9.924,9.979H278.953z"/>
		<path clip-path="url(#SVGID_2_)" fill="#FCD3C4" d="M282.41,327.934c1.797,0,3.267,1.471,3.267,3.273
			c0,1.797-1.47,3.272-3.267,3.272c-1.809,0-3.272-1.476-3.272-3.272C279.138,329.404,280.602,327.934,282.41,327.934z"/>
		<path clip-path="url(#SVGID_2_)" fill="#F5846D" d="M223.613,266.88h8.121v11.984h0.099c1.156-1.206,3.261-2.055,4.916-2.055
			c5.616,0,8.625,5.61,8.625,12.882c0,5.766-2.412,13.179-9.229,13.179c-3.156,0-5.211-1.501-6.816-3.907l-1.501,3.605h-4.215
			V266.88z M231.734,294.503c-0.147,2.104,1.102,3.255,2.658,3.255c2.251,0,2.559-2.252,2.559-6.915v-1.907
			c0-5.015,0-7.617-2.51-7.617c-1.003,0-1.753,0.604-2.258,1.003l-0.449,0.449V294.503z"/>
		<path clip-path="url(#SVGID_2_)" fill="#F6967F" d="M240.717,266.88h8.121v11.984h0.099c1.15-1.206,3.254-2.055,4.915-2.055
			c5.611,0,8.619,5.61,8.619,12.882c0,5.766-2.405,13.179-9.222,13.179c-3.162,0-5.218-1.501-6.823-3.907l-1.501,3.605h-4.208
			V266.88z M248.838,294.503c-0.154,2.104,1.101,3.255,2.651,3.255c2.258,0,2.56-2.252,2.56-6.915v-1.907
			c0-5.015,0-7.617-2.504-7.617c-1.009,0-1.76,0.604-2.258,1.003l-0.449,0.449V294.503z"/>
		<path clip-path="url(#SVGID_2_)" fill="#F8AA95" d="M258.041,283.121h-3.304v-5.715h3.304v-2.806c0-6.165,3.058-8.423,8.423-8.423
			c1.605,0,2.806,0.154,4.109,0.302v6.214c-0.449-0.099-1.052-0.197-1.501-0.197c-2.055,0-2.91,0.646-2.91,2.153v2.757h4.411v5.715
			h-4.411v19.447h-8.121V283.121z"/>
		<path clip-path="url(#SVGID_2_)" fill="#FABEAB" d="M278.953,286.782c0-1.003-0.056-2.203-0.4-3.156
			c-0.406-1.009-1.059-1.704-2.362-1.704c-2.707,0-3.002,3.304-3.002,8.317c0,5.666,0.897,7.519,3.002,7.519
			c2.86,0,3.106-2.904,3.106-4.812l6.318,0.904c-0.597,6.115-4.109,9.327-10.021,9.327c-7.321,0-11.13-6.417-11.13-12.637
			c0-6.866,3.809-13.731,11.48-13.731c8.619,0,9.924,7.462,9.924,9.973H278.953z"/>
		<path clip-path="url(#SVGID_2_)" fill="#FCD3C4" d="M282.41,286.801c1.797,0,3.267,1.47,3.267,3.272
			c0,1.797-1.47,3.273-3.267,3.273c-1.809,0-3.272-1.477-3.272-3.273C279.138,288.271,280.602,286.801,282.41,286.801z"/>
		<path clip-path="url(#SVGID_2_)" fill="#F5846D" d="M223.613,225.746h8.121v11.979h0.099c1.156-1.206,3.261-2.055,4.916-2.055
			c5.616,0,8.625,5.616,8.625,12.882c0,5.765-2.412,13.185-9.229,13.185c-3.156,0-5.211-1.501-6.816-3.913l-1.501,3.618h-4.215
			V225.746z M231.734,253.363c-0.147,2.11,1.102,3.267,2.658,3.267c2.251,0,2.559-2.264,2.559-6.921v-1.907
			c0-5.008,0-7.616-2.51-7.616c-1.003,0-1.753,0.597-2.258,1.002l-0.449,0.449V253.363z"/>
		<path clip-path="url(#SVGID_2_)" fill="#F6967F" d="M240.717,225.746h8.121v11.979h0.099c1.15-1.206,3.254-2.055,4.915-2.055
			c5.611,0,8.619,5.616,8.619,12.882c0,5.765-2.405,13.185-9.222,13.185c-3.162,0-5.218-1.501-6.823-3.913l-1.501,3.618h-4.208
			V225.746z M248.838,253.363c-0.154,2.11,1.101,3.267,2.651,3.267c2.258,0,2.56-2.264,2.56-6.921v-1.907
			c0-5.008,0-7.616-2.504-7.616c-1.009,0-1.76,0.597-2.258,1.002l-0.449,0.449V253.363z"/>
		<path clip-path="url(#SVGID_2_)" fill="#F8AA95" d="M258.041,241.987h-3.304v-5.715h3.304v-2.806c0-6.164,3.058-8.422,8.423-8.422
			c1.605,0,2.806,0.147,4.109,0.295v6.22c-0.449-0.104-1.052-0.203-1.501-0.203c-2.055,0-2.91,0.658-2.91,2.16v2.756h4.411v5.715
			h-4.411v19.454h-8.121V241.987z"/>
		<path clip-path="url(#SVGID_2_)" fill="#FABEAB" d="M278.953,245.643c0-0.997-0.056-2.203-0.4-3.156
			c-0.406-0.997-1.059-1.704-2.362-1.704c-2.707,0-3.002,3.31-3.002,8.323c0,5.66,0.897,7.524,3.002,7.524
			c2.86,0,3.106-2.91,3.106-4.823l6.318,0.904c-0.597,6.121-4.109,9.327-10.021,9.327c-7.321,0-11.13-6.417-11.13-12.631
			c0-6.872,3.809-13.737,11.48-13.737c8.619,0,9.924,7.469,9.924,9.973H278.953z"/>
		<path clip-path="url(#SVGID_2_)" fill="#FCD3C4" d="M282.41,245.66c1.797,0,3.267,1.471,3.267,3.279
			c0,1.797-1.47,3.273-3.267,3.273c-1.809,0-3.272-1.477-3.272-3.273C279.138,247.131,280.602,245.66,282.41,245.66z"/>
		<path clip-path="url(#SVGID_2_)" fill="#F5846D" d="M223.613,184.619h8.121v11.978h0.099c1.156-1.199,3.261-2.055,4.916-2.055
			c5.616,0,8.625,5.61,8.625,12.883c0,5.759-2.412,13.178-9.229,13.178c-3.156,0-5.211-1.501-6.816-3.906l-1.501,3.604h-4.215
			V184.619z M231.734,212.235c-0.147,2.104,1.102,3.255,2.658,3.255c2.251,0,2.559-2.258,2.559-6.915v-1.907
			c0-5.014,0-7.616-2.51-7.616c-1.003,0-1.753,0.603-2.258,1.003l-0.449,0.449V212.235z"/>
		<path clip-path="url(#SVGID_2_)" fill="#F6967F" d="M240.717,184.619h8.121v11.978h0.099c1.15-1.199,3.254-2.055,4.915-2.055
			c5.611,0,8.619,5.61,8.619,12.883c0,5.759-2.405,13.178-9.222,13.178c-3.162,0-5.218-1.501-6.823-3.906l-1.501,3.604h-4.208
			V184.619z M248.838,212.235c-0.154,2.104,1.101,3.255,2.651,3.255c2.258,0,2.56-2.258,2.56-6.915v-1.907
			c0-5.014,0-7.616-2.504-7.616c-1.009,0-1.76,0.603-2.258,1.003l-0.449,0.449V212.235z"/>
		<path clip-path="url(#SVGID_2_)" fill="#F8AA95" d="M258.041,200.854h-3.304v-5.71h3.304v-2.805c0-6.165,3.058-8.423,8.423-8.423
			c1.605,0,2.806,0.148,4.109,0.295v6.22c-0.449-0.104-1.052-0.203-1.501-0.203c-2.055,0-2.91,0.652-2.91,2.159v2.756h4.411v5.71
			h-4.411v19.446h-8.121V200.854z"/>
		<path clip-path="url(#SVGID_2_)" fill="#FABEAB" d="M278.953,204.515c0-1.003-0.056-2.209-0.4-3.156
			c-0.406-1.003-1.059-1.704-2.362-1.704c-2.707,0-3.002,3.304-3.002,8.318c0,5.666,0.897,7.518,3.002,7.518
			c2.86,0,3.106-2.904,3.106-4.811l6.318,0.897c-0.597,6.122-4.109,9.327-10.021,9.327c-7.321,0-11.13-6.417-11.13-12.631
			c0-6.865,3.809-13.731,11.48-13.731c8.619,0,9.924,7.463,9.924,9.973H278.953z"/>
		<path clip-path="url(#SVGID_2_)" fill="#FCD3C4" d="M282.41,204.533c1.797,0,3.267,1.471,3.267,3.273
			c0,1.796-1.47,3.272-3.267,3.272c-1.809,0-3.272-1.477-3.272-3.272C279.138,206.004,280.602,204.533,282.41,204.533z"/>
		<path clip-path="url(#SVGID_2_)" fill="#F5846D" d="M296.253,266.88h8.127v11.984h0.099c1.156-1.206,3.254-2.055,4.909-2.055
			c5.617,0,8.625,5.61,8.625,12.882c0,5.766-2.405,13.179-9.222,13.179c-3.156,0-5.217-1.501-6.816-3.907l-1.508,3.605h-4.214
			V266.88z M304.38,294.503c-0.154,2.104,1.102,3.255,2.651,3.255c2.258,0,2.56-2.252,2.56-6.915v-1.907
			c0-5.015,0-7.617-2.511-7.617c-0.996,0-1.753,0.604-2.251,1.003l-0.449,0.449V294.503z"/>
		<path clip-path="url(#SVGID_2_)" fill="#F6967F" d="M313.355,266.88h8.121v11.984h0.099c1.156-1.206,3.261-2.055,4.916-2.055
			c5.616,0,8.619,5.61,8.619,12.882c0,5.766-2.406,13.179-9.223,13.179c-3.156,0-5.211-1.501-6.816-3.907l-1.508,3.605h-4.208
			V266.88z M321.477,294.503c-0.147,2.104,1.107,3.255,2.658,3.255c2.251,0,2.559-2.252,2.559-6.915v-1.907
			c0-5.015,0-7.617-2.51-7.617c-1.003,0-1.753,0.604-2.252,1.003l-0.455,0.449V294.503z"/>
		<path clip-path="url(#SVGID_2_)" fill="#F8AA95" d="M330.687,283.121h-3.31v-5.715h3.31v-2.806c0-6.165,3.058-8.423,8.423-8.423
			c1.599,0,2.805,0.154,4.109,0.302v6.214c-0.449-0.099-1.052-0.197-1.508-0.197c-2.055,0-2.903,0.646-2.903,2.153v2.757h4.411
			v5.715h-4.411v19.447h-8.121V283.121z"/>
		<path clip-path="url(#SVGID_2_)" fill="#FABEAB" d="M351.592,286.782c0-1.003-0.049-2.203-0.4-3.156
			c-0.399-1.009-1.052-1.704-2.355-1.704c-2.707,0-3.009,3.304-3.009,8.317c0,5.666,0.904,7.519,3.009,7.519
			c2.854,0,3.106-2.904,3.106-4.812l6.318,0.904c-0.603,6.115-4.116,9.327-10.028,9.327c-7.321,0-11.129-6.417-11.129-12.637
			c0-6.866,3.808-13.731,11.479-13.731c8.626,0,9.93,7.462,9.93,9.973H351.592z"/>
		<path clip-path="url(#SVGID_2_)" fill="#F5846D" d="M296.253,225.746h8.127v11.979h0.099c1.156-1.206,3.254-2.055,4.909-2.055
			c5.617,0,8.625,5.616,8.625,12.882c0,5.765-2.405,13.185-9.222,13.185c-3.156,0-5.217-1.501-6.816-3.913l-1.508,3.618h-4.214
			V225.746z M304.38,253.363c-0.154,2.11,1.102,3.267,2.651,3.267c2.258,0,2.56-2.264,2.56-6.921v-1.907
			c0-5.008,0-7.616-2.511-7.616c-0.996,0-1.753,0.597-2.251,1.002l-0.449,0.449V253.363z"/>
		<path clip-path="url(#SVGID_2_)" fill="#F6967F" d="M313.355,225.746h8.121v11.979h0.099c1.156-1.206,3.261-2.055,4.916-2.055
			c5.616,0,8.619,5.616,8.619,12.882c0,5.765-2.406,13.185-9.223,13.185c-3.156,0-5.211-1.501-6.816-3.913l-1.508,3.618h-4.208
			V225.746z M321.477,253.363c-0.147,2.11,1.107,3.267,2.658,3.267c2.251,0,2.559-2.264,2.559-6.921v-1.907
			c0-5.008,0-7.616-2.51-7.616c-1.003,0-1.753,0.597-2.252,1.002l-0.455,0.449V253.363z"/>
		<path clip-path="url(#SVGID_2_)" fill="#F8AA95" d="M330.687,241.987h-3.31v-5.715h3.31v-2.806c0-6.164,3.058-8.422,8.423-8.422
			c1.599,0,2.805,0.147,4.109,0.295v6.22c-0.449-0.104-1.052-0.203-1.508-0.203c-2.055,0-2.903,0.658-2.903,2.16v2.756h4.411v5.715
			h-4.411v19.454h-8.121V241.987z"/>
		<path clip-path="url(#SVGID_2_)" fill="#FABEAB" d="M351.592,245.643c0-0.997-0.049-2.203-0.4-3.156
			c-0.399-0.997-1.052-1.704-2.355-1.704c-2.707,0-3.009,3.31-3.009,8.323c0,5.66,0.904,7.524,3.009,7.524
			c2.854,0,3.106-2.91,3.106-4.823l6.318,0.904c-0.603,6.121-4.116,9.327-10.028,9.327c-7.321,0-11.129-6.417-11.129-12.631
			c0-6.872,3.808-13.737,11.479-13.737c8.626,0,9.93,7.469,9.93,9.973H351.592z"/>
		<path clip-path="url(#SVGID_2_)" fill="#F5846D" d="M296.253,184.619h8.127v11.978h0.099c1.156-1.199,3.254-2.055,4.909-2.055
			c5.617,0,8.625,5.61,8.625,12.883c0,5.759-2.405,13.178-9.222,13.178c-3.156,0-5.217-1.501-6.816-3.906l-1.508,3.604h-4.214
			V184.619z M304.38,212.235c-0.154,2.104,1.102,3.255,2.651,3.255c2.258,0,2.56-2.258,2.56-6.915v-1.907
			c0-5.014,0-7.616-2.511-7.616c-0.996,0-1.753,0.603-2.251,1.003l-0.449,0.449V212.235z"/>
		<path clip-path="url(#SVGID_2_)" fill="#F6967F" d="M313.355,184.619h8.121v11.978h0.099c1.156-1.199,3.261-2.055,4.916-2.055
			c5.616,0,8.619,5.61,8.619,12.883c0,5.759-2.406,13.178-9.223,13.178c-3.156,0-5.211-1.501-6.816-3.906l-1.508,3.604h-4.208
			V184.619z M321.477,212.235c-0.147,2.104,1.107,3.255,2.658,3.255c2.251,0,2.559-2.258,2.559-6.915v-1.907
			c0-5.014,0-7.616-2.51-7.616c-1.003,0-1.753,0.603-2.252,1.003l-0.455,0.449V212.235z"/>
		<path clip-path="url(#SVGID_2_)" fill="#F8AA95" d="M330.687,200.854h-3.31v-5.71h3.31v-2.805c0-6.165,3.058-8.423,8.423-8.423
			c1.599,0,2.805,0.148,4.109,0.295v6.22c-0.449-0.104-1.052-0.203-1.508-0.203c-2.055,0-2.903,0.652-2.903,2.159v2.756h4.411v5.71
			h-4.411v19.446h-8.121V200.854z"/>
		<path clip-path="url(#SVGID_2_)" fill="#FABEAB" d="M351.592,204.515c0-1.003-0.049-2.209-0.4-3.156
			c-0.399-1.003-1.052-1.704-2.355-1.704c-2.707,0-3.009,3.304-3.009,8.318c0,5.666,0.904,7.518,3.009,7.518
			c2.854,0,3.106-2.904,3.106-4.811l6.318,0.897c-0.603,6.122-4.116,9.327-10.028,9.327c-7.321,0-11.129-6.417-11.129-12.631
			c0-6.865,3.808-13.731,11.479-13.731c8.626,0,9.93,7.463,9.93,9.973H351.592z"/>
		<path clip-path="url(#SVGID_2_)" fill="#F5846D" d="M151.418,143.483h8.12v11.984h0.099c1.157-1.206,3.261-2.061,4.916-2.061
			c5.617,0,8.625,5.617,8.625,12.889c0,5.765-2.405,13.178-9.229,13.178c-3.155,0-5.211-1.501-6.816-3.907l-1.501,3.605h-4.214
			V143.483z M159.538,171.106c-0.147,2.104,1.107,3.255,2.658,3.255c2.258,0,2.56-2.252,2.56-6.915v-1.907
			c0-5.008,0-7.617-2.511-7.617c-0.996,0-1.753,0.603-2.251,1.003l-0.456,0.449V171.106z"/>
		<path clip-path="url(#SVGID_2_)" fill="#F6967F" d="M168.521,143.483h8.121v11.984h0.099c1.15-1.206,3.261-2.061,4.915-2.061
			c5.611,0,8.619,5.617,8.619,12.889c0,5.765-2.405,13.178-9.222,13.178c-3.162,0-5.217-1.501-6.823-3.907l-1.501,3.605h-4.208
			V143.483z M176.642,171.106c-0.153,2.104,1.102,3.255,2.658,3.255c2.251,0,2.553-2.252,2.553-6.915v-1.907
			c0-5.008,0-7.617-2.504-7.617c-1.003,0-1.754,0.603-2.258,1.003l-0.449,0.449V171.106z"/>
		<path clip-path="url(#SVGID_2_)" fill="#F8AA95" d="M185.846,159.725h-3.304v-5.715h3.304v-2.806c0-6.164,3.058-8.422,8.422-8.422
			c1.605,0,2.812,0.153,4.116,0.301v6.214c-0.456-0.099-1.059-0.197-1.508-0.197c-2.055,0-2.91,0.652-2.91,2.153v2.756h4.418v5.715
			h-4.418v19.447h-8.12V159.725z"/>
		<path clip-path="url(#SVGID_2_)" fill="#FABEAB" d="M206.757,163.386c0-1.003-0.056-2.208-0.4-3.156
			c-0.406-1.003-1.052-1.704-2.356-1.704c-2.713,0-3.008,3.304-3.008,8.318c0,5.666,0.898,7.518,3.008,7.518
			c2.855,0,3.107-2.904,3.107-4.811l6.313,0.898c-0.598,6.122-4.11,9.333-10.022,9.333c-7.321,0-11.129-6.423-11.129-12.637
			c0-6.866,3.808-13.738,11.479-13.738c8.626,0,9.924,7.469,9.924,9.979H206.757z"/>
		<path clip-path="url(#SVGID_2_)" fill="#FCD3C4" d="M210.214,163.404c1.797,0,3.268,1.47,3.268,3.273
			c0,1.796-1.471,3.273-3.268,3.273c-1.809,0-3.272-1.477-3.272-3.273C206.941,164.875,208.405,163.404,210.214,163.404z"/>
		<path clip-path="url(#SVGID_2_)" fill="#F5846D" d="M79.228,143.483h8.121v11.984h0.099c1.156-1.206,3.261-2.061,4.915-2.061
			c5.611,0,8.619,5.617,8.619,12.889c0,5.765-2.405,13.178-9.222,13.178c-3.156,0-5.217-1.501-6.816-3.907l-1.508,3.605h-4.208
			V143.483z M87.349,171.106c-0.154,2.104,1.102,3.255,2.657,3.255c2.252,0,2.554-2.252,2.554-6.915v-1.907
			c0-5.008,0-7.617-2.504-7.617c-1.003,0-1.754,0.603-2.258,1.003l-0.449,0.449V171.106z"/>
		<path clip-path="url(#SVGID_2_)" fill="#F6967F" d="M96.324,143.483h8.128v11.984h0.098c1.15-1.206,3.255-2.061,4.91-2.061
			c5.616,0,8.619,5.617,8.619,12.889c0,5.765-2.406,13.178-9.223,13.178c-3.156,0-5.211-1.501-6.816-3.907l-1.507,3.605h-4.209
			V143.483z M104.452,171.106c-0.154,2.104,1.101,3.255,2.651,3.255c2.258,0,2.56-2.252,2.56-6.915v-1.907
			c0-5.008,0-7.617-2.511-7.617c-1.003,0-1.753,0.603-2.252,1.003l-0.448,0.449V171.106z"/>
		<path clip-path="url(#SVGID_2_)" fill="#F8AA95" d="M113.655,159.725h-3.31v-5.715h3.31v-2.806c0-6.164,3.058-8.422,8.423-8.422
			c1.6,0,2.805,0.153,4.109,0.301v6.214c-0.449-0.099-1.052-0.197-1.501-0.197c-2.062,0-2.91,0.652-2.91,2.153v2.756h4.411v5.715
			h-4.411v19.447h-8.121V159.725z"/>
		<path clip-path="url(#SVGID_2_)" fill="#FABEAB" d="M134.566,163.386c0-1.003-0.055-2.208-0.405-3.156
			c-0.4-1.003-1.053-1.704-2.356-1.704c-2.707,0-3.009,3.304-3.009,8.318c0,5.666,0.904,7.518,3.009,7.518
			c2.86,0,3.106-2.904,3.106-4.811l6.318,0.898c-0.603,6.122-4.109,9.333-10.028,9.333c-7.314,0-11.123-6.423-11.123-12.637
			c0-6.866,3.809-13.738,11.48-13.738c8.619,0,9.923,7.469,9.923,9.979H134.566z"/>
		<path clip-path="url(#SVGID_2_)" fill="#FCD3C4" d="M138.019,163.404c1.802,0,3.272,1.47,3.272,3.273
			c0,1.796-1.471,3.273-3.272,3.273c-1.803,0-3.268-1.477-3.268-3.273C134.751,164.875,136.216,163.404,138.019,163.404z"/>
		<path clip-path="url(#SVGID_2_)" fill="#F5846D" d="M7.031,143.483h8.121v11.984h0.099c1.156-1.206,3.261-2.061,4.916-2.061
			c5.616,0,8.625,5.617,8.625,12.889c0,5.765-2.405,13.178-9.229,13.178c-3.156,0-5.211-1.501-6.816-3.907l-1.501,3.605H7.031
			V143.483z M15.152,171.106c-0.147,2.104,1.107,3.255,2.658,3.255c2.251,0,2.559-2.252,2.559-6.915v-1.907
			c0-5.008,0-7.617-2.51-7.617c-1.003,0-1.753,0.603-2.252,1.003l-0.455,0.449V171.106z"/>
		<path clip-path="url(#SVGID_2_)" fill="#F6967F" d="M24.135,143.483h8.121v11.984h0.099c1.15-1.206,3.26-2.061,4.915-2.061
			c5.611,0,8.619,5.617,8.619,12.889c0,5.765-2.405,13.178-9.222,13.178c-3.162,0-5.218-1.501-6.823-3.907l-1.501,3.605h-4.208
			V143.483z M32.256,171.106c-0.154,2.104,1.101,3.255,2.657,3.255c2.252,0,2.554-2.252,2.554-6.915v-1.907
			c0-5.008,0-7.617-2.504-7.617c-1.009,0-1.76,0.603-2.258,1.003l-0.449,0.449V171.106z"/>
		<path clip-path="url(#SVGID_2_)" fill="#F8AA95" d="M41.459,159.725h-3.304v-5.715h3.304v-2.806c0-6.164,3.058-8.422,8.423-8.422
			c1.605,0,2.812,0.153,4.109,0.301v6.214c-0.449-0.099-1.052-0.197-1.501-0.197c-2.055,0-2.91,0.652-2.91,2.153v2.756h4.411v5.715
			H49.58v19.447h-8.121V159.725z"/>
		<path clip-path="url(#SVGID_2_)" fill="#FABEAB" d="M62.371,163.386c0-1.003-0.056-2.208-0.4-3.156
			c-0.406-1.003-1.059-1.704-2.356-1.704c-2.713,0-3.008,3.304-3.008,8.318c0,5.666,0.897,7.518,3.008,7.518
			c2.854,0,3.107-2.904,3.107-4.811l6.312,0.898c-0.597,6.122-4.109,9.333-10.021,9.333c-7.321,0-11.13-6.423-11.13-12.637
			c0-6.866,3.809-13.738,11.48-13.738c8.625,0,9.924,7.469,9.924,9.979H62.371z"/>
		<path clip-path="url(#SVGID_2_)" fill="#FCD3C4" d="M65.828,163.404c1.797,0,3.267,1.47,3.267,3.273
			c0,1.796-1.47,3.273-3.267,3.273c-1.809,0-3.272-1.477-3.272-3.273C62.556,164.875,64.02,163.404,65.828,163.404z"/>
		<path clip-path="url(#SVGID_2_)" fill="#F5846D" d="M223.613,143.483h8.121v11.984h0.099c1.156-1.206,3.261-2.061,4.916-2.061
			c5.616,0,8.625,5.617,8.625,12.889c0,5.765-2.412,13.178-9.229,13.178c-3.156,0-5.211-1.501-6.816-3.907l-1.501,3.605h-4.215
			V143.483z M231.734,171.106c-0.147,2.104,1.102,3.255,2.658,3.255c2.251,0,2.559-2.252,2.559-6.915v-1.907
			c0-5.008,0-7.617-2.51-7.617c-1.003,0-1.753,0.603-2.258,1.003l-0.449,0.449V171.106z"/>
		<path clip-path="url(#SVGID_2_)" fill="#F6967F" d="M240.717,143.483h8.121v11.984h0.099c1.15-1.206,3.254-2.061,4.915-2.061
			c5.611,0,8.619,5.617,8.619,12.889c0,5.765-2.405,13.178-9.222,13.178c-3.162,0-5.218-1.501-6.823-3.907l-1.501,3.605h-4.208
			V143.483z M248.838,171.106c-0.154,2.104,1.101,3.255,2.651,3.255c2.258,0,2.56-2.252,2.56-6.915v-1.907
			c0-5.008,0-7.617-2.504-7.617c-1.009,0-1.76,0.603-2.258,1.003l-0.449,0.449V171.106z"/>
		<path clip-path="url(#SVGID_2_)" fill="#F8AA95" d="M258.041,159.725h-3.304v-5.715h3.304v-2.806c0-6.164,3.058-8.422,8.423-8.422
			c1.605,0,2.806,0.153,4.109,0.301v6.214c-0.449-0.099-1.052-0.197-1.501-0.197c-2.055,0-2.91,0.652-2.91,2.153v2.756h4.411v5.715
			h-4.411v19.447h-8.121V159.725z"/>
		<path clip-path="url(#SVGID_2_)" fill="#FABEAB" d="M278.953,163.386c0-1.003-0.056-2.208-0.4-3.156
			c-0.406-1.003-1.059-1.704-2.362-1.704c-2.707,0-3.002,3.304-3.002,8.318c0,5.666,0.897,7.518,3.002,7.518
			c2.86,0,3.106-2.904,3.106-4.811l6.318,0.898c-0.597,6.122-4.109,9.333-10.021,9.333c-7.321,0-11.13-6.423-11.13-12.637
			c0-6.866,3.809-13.738,11.48-13.738c8.619,0,9.924,7.469,9.924,9.979H278.953z"/>
		<path clip-path="url(#SVGID_2_)" fill="#FCD3C4" d="M282.41,163.404c1.797,0,3.267,1.47,3.267,3.273
			c0,1.796-1.47,3.273-3.267,3.273c-1.809,0-3.272-1.477-3.272-3.273C279.138,164.875,280.602,163.404,282.41,163.404z"/>
		<path clip-path="url(#SVGID_2_)" fill="#F5846D" d="M296.253,143.483h8.127v11.984h0.099c1.156-1.206,3.254-2.061,4.909-2.061
			c5.617,0,8.625,5.617,8.625,12.889c0,5.765-2.405,13.178-9.222,13.178c-3.156,0-5.217-1.501-6.816-3.907l-1.508,3.605h-4.214
			V143.483z M304.38,171.106c-0.154,2.104,1.102,3.255,2.651,3.255c2.258,0,2.56-2.252,2.56-6.915v-1.907
			c0-5.008,0-7.617-2.511-7.617c-0.996,0-1.753,0.603-2.251,1.003l-0.449,0.449V171.106z"/>
		<path clip-path="url(#SVGID_2_)" fill="#F6967F" d="M313.355,143.483h8.121v11.984h0.099c1.156-1.206,3.261-2.061,4.916-2.061
			c5.616,0,8.619,5.617,8.619,12.889c0,5.765-2.406,13.178-9.223,13.178c-3.156,0-5.211-1.501-6.816-3.907l-1.508,3.605h-4.208
			V143.483z M321.477,171.106c-0.147,2.104,1.107,3.255,2.658,3.255c2.251,0,2.559-2.252,2.559-6.915v-1.907
			c0-5.008,0-7.617-2.51-7.617c-1.003,0-1.753,0.603-2.252,1.003l-0.455,0.449V171.106z"/>
		<path clip-path="url(#SVGID_2_)" fill="#F8AA95" d="M330.687,159.725h-3.31v-5.715h3.31v-2.806c0-6.164,3.058-8.422,8.423-8.422
			c1.599,0,2.805,0.153,4.109,0.301v6.214c-0.449-0.099-1.052-0.197-1.508-0.197c-2.055,0-2.903,0.652-2.903,2.153v2.756h4.411
			v5.715h-4.411v19.447h-8.121V159.725z"/>
		<path clip-path="url(#SVGID_2_)" fill="#FABEAB" d="M351.592,163.386c0-1.003-0.049-2.208-0.4-3.156
			c-0.399-1.003-1.052-1.704-2.355-1.704c-2.707,0-3.009,3.304-3.009,8.318c0,5.666,0.904,7.518,3.009,7.518
			c2.854,0,3.106-2.904,3.106-4.811l6.318,0.898c-0.603,6.122-4.116,9.333-10.028,9.333c-7.321,0-11.129-6.423-11.129-12.637
			c0-6.866,3.808-13.738,11.479-13.738c8.626,0,9.93,7.469,9.93,9.979H351.592z"/>
		<path clip-path="url(#SVGID_2_)" fill="#F5846D" d="M151.418,102.347h8.12v11.984h0.099c1.157-1.206,3.261-2.055,4.916-2.055
			c5.617,0,8.625,5.611,8.625,12.886c0,5.765-2.405,13.178-9.229,13.178c-3.155,0-5.211-1.501-6.816-3.906l-1.501,3.611h-4.214
			V102.347z M159.538,129.973c-0.147,2.104,1.107,3.261,2.658,3.261c2.258,0,2.56-2.258,2.56-6.921v-1.907
			c0-5.011,0-7.619-2.511-7.619c-0.996,0-1.753,0.603-2.251,1.002l-0.456,0.449V129.973z"/>
		<path clip-path="url(#SVGID_2_)" fill="#F6967F" d="M168.521,102.347h8.121v11.984h0.099c1.15-1.206,3.261-2.055,4.915-2.055
			c5.611,0,8.619,5.611,8.619,12.886c0,5.765-2.405,13.178-9.222,13.178c-3.162,0-5.217-1.501-6.823-3.906l-1.501,3.611h-4.208
			V102.347z M176.642,129.973c-0.153,2.104,1.102,3.261,2.658,3.261c2.251,0,2.553-2.258,2.553-6.921v-1.907
			c0-5.011,0-7.619-2.504-7.619c-1.003,0-1.754,0.603-2.258,1.002l-0.449,0.449V129.973z"/>
		<path clip-path="url(#SVGID_2_)" fill="#F8AA95" d="M185.846,118.588h-3.304v-5.715h3.304v-2.805c0-6.165,3.058-8.422,8.422-8.422
			c1.605,0,2.812,0.154,4.116,0.301v6.214c-0.456-0.099-1.059-0.197-1.508-0.197c-2.055,0-2.91,0.652-2.91,2.153v2.756h4.418v5.715
			h-4.418v19.457h-8.12V118.588z"/>
		<path clip-path="url(#SVGID_2_)" fill="#FABEAB" d="M206.757,122.249c0-1.003-0.056-2.203-0.4-3.156
			c-0.406-1.002-1.052-1.704-2.356-1.704c-2.713,0-3.008,3.304-3.008,8.321c0,5.667,0.898,7.524,3.008,7.524
			c2.855,0,3.107-2.91,3.107-4.817l6.313,0.904c-0.598,6.116-4.11,9.327-10.022,9.327c-7.321,0-11.129-6.423-11.129-12.636
			c0-6.869,3.808-13.735,11.479-13.735c8.626,0,9.924,7.462,9.924,9.973H206.757z"/>
		<path clip-path="url(#SVGID_2_)" fill="#FCD3C4" d="M210.214,122.268c1.797,0,3.268,1.47,3.268,3.276
			c0,1.796-1.471,3.273-3.268,3.273c-1.809,0-3.272-1.477-3.272-3.273C206.941,123.738,208.405,122.268,210.214,122.268z"/>
		<path clip-path="url(#SVGID_2_)" fill="#F5846D" d="M79.228,102.347h8.121v11.984h0.099c1.156-1.206,3.261-2.055,4.915-2.055
			c5.611,0,8.619,5.611,8.619,12.886c0,5.765-2.405,13.178-9.222,13.178c-3.156,0-5.217-1.501-6.816-3.906l-1.508,3.611h-4.208
			V102.347z M87.349,129.973c-0.154,2.104,1.102,3.261,2.657,3.261c2.252,0,2.554-2.258,2.554-6.921v-1.907
			c0-5.011,0-7.619-2.504-7.619c-1.003,0-1.754,0.603-2.258,1.002l-0.449,0.449V129.973z"/>
		<path clip-path="url(#SVGID_2_)" fill="#F6967F" d="M96.324,102.347h8.128v11.984h0.098c1.15-1.206,3.255-2.055,4.91-2.055
			c5.616,0,8.619,5.611,8.619,12.886c0,5.765-2.406,13.178-9.223,13.178c-3.156,0-5.211-1.501-6.816-3.906l-1.507,3.611h-4.209
			V102.347z M104.452,129.973c-0.154,2.104,1.101,3.261,2.651,3.261c2.258,0,2.56-2.258,2.56-6.921v-1.907
			c0-5.011,0-7.619-2.511-7.619c-1.003,0-1.753,0.603-2.252,1.002l-0.448,0.449V129.973z"/>
		<path clip-path="url(#SVGID_2_)" fill="#F8AA95" d="M113.655,118.588h-3.31v-5.715h3.31v-2.805c0-6.165,3.058-8.422,8.423-8.422
			c1.6,0,2.805,0.154,4.109,0.301v6.214c-0.449-0.099-1.052-0.197-1.501-0.197c-2.062,0-2.91,0.652-2.91,2.153v2.756h4.411v5.715
			h-4.411v19.457h-8.121V118.588z"/>
		<path clip-path="url(#SVGID_2_)" fill="#FABEAB" d="M134.566,122.249c0-1.003-0.055-2.203-0.405-3.156
			c-0.4-1.002-1.053-1.704-2.356-1.704c-2.707,0-3.009,3.304-3.009,8.321c0,5.667,0.904,7.524,3.009,7.524
			c2.86,0,3.106-2.91,3.106-4.817l6.318,0.904c-0.603,6.116-4.109,9.327-10.028,9.327c-7.314,0-11.123-6.423-11.123-12.636
			c0-6.869,3.809-13.735,11.48-13.735c8.619,0,9.923,7.462,9.923,9.973H134.566z"/>
		<path clip-path="url(#SVGID_2_)" fill="#FCD3C4" d="M138.019,122.268c1.802,0,3.272,1.47,3.272,3.276
			c0,1.796-1.471,3.273-3.272,3.273c-1.803,0-3.268-1.477-3.268-3.273C134.751,123.738,136.216,122.268,138.019,122.268z"/>
		<path clip-path="url(#SVGID_2_)" fill="#F5846D" d="M7.031,102.347h8.121v11.984h0.099c1.156-1.206,3.261-2.055,4.916-2.055
			c5.616,0,8.625,5.611,8.625,12.886c0,5.765-2.405,13.178-9.229,13.178c-3.156,0-5.211-1.501-6.816-3.906l-1.501,3.611H7.031
			V102.347z M15.152,129.973c-0.147,2.104,1.107,3.261,2.658,3.261c2.251,0,2.559-2.258,2.559-6.921v-1.907
			c0-5.011,0-7.619-2.51-7.619c-1.003,0-1.753,0.603-2.252,1.002l-0.455,0.449V129.973z"/>
		<path clip-path="url(#SVGID_2_)" fill="#F6967F" d="M24.135,102.347h8.121v11.984h0.099c1.15-1.206,3.26-2.055,4.915-2.055
			c5.611,0,8.619,5.611,8.619,12.886c0,5.765-2.405,13.178-9.222,13.178c-3.162,0-5.218-1.501-6.823-3.906l-1.501,3.611h-4.208
			V102.347z M32.256,129.973c-0.154,2.104,1.101,3.261,2.657,3.261c2.252,0,2.554-2.258,2.554-6.921v-1.907
			c0-5.011,0-7.619-2.504-7.619c-1.009,0-1.76,0.603-2.258,1.002l-0.449,0.449V129.973z"/>
		<path clip-path="url(#SVGID_2_)" fill="#F8AA95" d="M41.459,118.588h-3.304v-5.715h3.304v-2.805c0-6.165,3.058-8.422,8.423-8.422
			c1.605,0,2.812,0.154,4.109,0.301v6.214c-0.449-0.099-1.052-0.197-1.501-0.197c-2.055,0-2.91,0.652-2.91,2.153v2.756h4.411v5.715
			H49.58v19.457h-8.121V118.588z"/>
		<path clip-path="url(#SVGID_2_)" fill="#FABEAB" d="M62.371,122.249c0-1.003-0.056-2.203-0.4-3.156
			c-0.406-1.002-1.059-1.704-2.356-1.704c-2.713,0-3.008,3.304-3.008,8.321c0,5.667,0.897,7.524,3.008,7.524
			c2.854,0,3.107-2.91,3.107-4.817l6.312,0.904c-0.597,6.116-4.109,9.327-10.021,9.327c-7.321,0-11.13-6.423-11.13-12.636
			c0-6.869,3.809-13.735,11.48-13.735c8.625,0,9.924,7.462,9.924,9.973H62.371z"/>
		<path clip-path="url(#SVGID_2_)" fill="#FCD3C4" d="M65.828,122.268c1.797,0,3.267,1.47,3.267,3.276
			c0,1.796-1.47,3.273-3.267,3.273c-1.809,0-3.272-1.477-3.272-3.273C62.556,123.738,64.02,122.268,65.828,122.268z"/>
		<path clip-path="url(#SVGID_2_)" fill="#F5846D" d="M223.613,102.347h8.121v11.984h0.099c1.156-1.206,3.261-2.055,4.916-2.055
			c5.616,0,8.625,5.611,8.625,12.886c0,5.765-2.412,13.178-9.229,13.178c-3.156,0-5.211-1.501-6.816-3.906l-1.501,3.611h-4.215
			V102.347z M231.734,129.973c-0.147,2.104,1.102,3.261,2.658,3.261c2.251,0,2.559-2.258,2.559-6.921v-1.907
			c0-5.011,0-7.619-2.51-7.619c-1.003,0-1.753,0.603-2.258,1.002l-0.449,0.449V129.973z"/>
		<path clip-path="url(#SVGID_2_)" fill="#F6967F" d="M240.717,102.347h8.121v11.984h0.099c1.15-1.206,3.254-2.055,4.915-2.055
			c5.611,0,8.619,5.611,8.619,12.886c0,5.765-2.405,13.178-9.222,13.178c-3.162,0-5.218-1.501-6.823-3.906l-1.501,3.611h-4.208
			V102.347z M248.838,129.973c-0.154,2.104,1.101,3.261,2.651,3.261c2.258,0,2.56-2.258,2.56-6.921v-1.907
			c0-5.011,0-7.619-2.504-7.619c-1.009,0-1.76,0.603-2.258,1.002l-0.449,0.449V129.973z"/>
		<path clip-path="url(#SVGID_2_)" fill="#F8AA95" d="M258.041,118.588h-3.304v-5.715h3.304v-2.805c0-6.165,3.058-8.422,8.423-8.422
			c1.605,0,2.806,0.154,4.109,0.301v6.214c-0.449-0.099-1.052-0.197-1.501-0.197c-2.055,0-2.91,0.652-2.91,2.153v2.756h4.411v5.715
			h-4.411v19.457h-8.121V118.588z"/>
		<path clip-path="url(#SVGID_2_)" fill="#FABEAB" d="M278.953,122.249c0-1.003-0.056-2.203-0.4-3.156
			c-0.406-1.002-1.059-1.704-2.362-1.704c-2.707,0-3.002,3.304-3.002,8.321c0,5.667,0.897,7.524,3.002,7.524
			c2.86,0,3.106-2.91,3.106-4.817l6.318,0.904c-0.597,6.116-4.109,9.327-10.021,9.327c-7.321,0-11.13-6.423-11.13-12.636
			c0-6.869,3.809-13.735,11.48-13.735c8.619,0,9.924,7.462,9.924,9.973H278.953z"/>
		<path clip-path="url(#SVGID_2_)" fill="#FCD3C4" d="M282.41,122.268c1.797,0,3.267,1.47,3.267,3.276
			c0,1.796-1.47,3.273-3.267,3.273c-1.809,0-3.272-1.477-3.272-3.273C279.138,123.738,280.602,122.268,282.41,122.268z"/>
		<path clip-path="url(#SVGID_2_)" fill="#F5846D" d="M296.253,102.347h8.127v11.984h0.099c1.156-1.206,3.254-2.055,4.909-2.055
			c5.617,0,8.625,5.611,8.625,12.886c0,5.765-2.405,13.178-9.222,13.178c-3.156,0-5.217-1.501-6.816-3.906l-1.508,3.611h-4.214
			V102.347z M304.38,129.973c-0.154,2.104,1.102,3.261,2.651,3.261c2.258,0,2.56-2.258,2.56-6.921v-1.907
			c0-5.011,0-7.619-2.511-7.619c-0.996,0-1.753,0.603-2.251,1.002l-0.449,0.449V129.973z"/>
		<path clip-path="url(#SVGID_2_)" fill="#F6967F" d="M313.355,102.347h8.121v11.984h0.099c1.156-1.206,3.261-2.055,4.916-2.055
			c5.616,0,8.619,5.611,8.619,12.886c0,5.765-2.406,13.178-9.223,13.178c-3.156,0-5.211-1.501-6.816-3.906l-1.508,3.611h-4.208
			V102.347z M321.477,129.973c-0.147,2.104,1.107,3.261,2.658,3.261c2.251,0,2.559-2.258,2.559-6.921v-1.907
			c0-5.011,0-7.619-2.51-7.619c-1.003,0-1.753,0.603-2.252,1.002l-0.455,0.449V129.973z"/>
		<path clip-path="url(#SVGID_2_)" fill="#F8AA95" d="M330.687,118.588h-3.31v-5.715h3.31v-2.805c0-6.165,3.058-8.422,8.423-8.422
			c1.599,0,2.805,0.154,4.109,0.301v6.214c-0.449-0.099-1.052-0.197-1.508-0.197c-2.055,0-2.903,0.652-2.903,2.153v2.756h4.411
			v5.715h-4.411v19.457h-8.121V118.588z"/>
		<path clip-path="url(#SVGID_2_)" fill="#FABEAB" d="M351.592,122.249c0-1.003-0.049-2.203-0.4-3.156
			c-0.399-1.002-1.052-1.704-2.355-1.704c-2.707,0-3.009,3.304-3.009,8.321c0,5.667,0.904,7.524,3.009,7.524
			c2.854,0,3.106-2.91,3.106-4.817l6.318,0.904c-0.603,6.116-4.116,9.327-10.028,9.327c-7.321,0-11.129-6.423-11.129-12.636
			c0-6.869,3.808-13.735,11.479-13.735c8.626,0,9.93,7.462,9.93,9.973H351.592z"/>
		<path clip-path="url(#SVGID_2_)" fill="#F5846D" d="M151.418,61.213h8.12v11.984h0.099c1.157-1.206,3.261-2.055,4.916-2.055
			c5.617,0,8.625,5.611,8.625,12.883c0,5.765-2.405,13.184-9.229,13.184c-3.155,0-5.211-1.501-6.816-3.913l-1.501,3.611h-4.214
			V61.213z M159.538,88.836c-0.147,2.11,1.107,3.261,2.658,3.261c2.258,0,2.56-2.258,2.56-6.921v-1.901c0-5.014,0-7.623-2.511-7.623
			c-0.996,0-1.753,0.603-2.251,1.003l-0.456,0.455V88.836z"/>
		<path clip-path="url(#SVGID_2_)" fill="#F6967F" d="M168.521,61.213h8.121v11.984h0.099c1.15-1.206,3.261-2.055,4.915-2.055
			c5.611,0,8.619,5.611,8.619,12.883c0,5.765-2.405,13.184-9.222,13.184c-3.162,0-5.217-1.501-6.823-3.913l-1.501,3.611h-4.208
			V61.213z M176.642,88.836c-0.153,2.11,1.102,3.261,2.658,3.261c2.251,0,2.553-2.258,2.553-6.921v-1.901
			c0-5.014,0-7.623-2.504-7.623c-1.003,0-1.754,0.603-2.258,1.003l-0.449,0.455V88.836z"/>
		<path clip-path="url(#SVGID_2_)" fill="#F8AA95" d="M185.846,77.455h-3.304v-5.709h3.304v-2.812c0-6.165,3.058-8.422,8.422-8.422
			c1.605,0,2.812,0.154,4.116,0.301v6.22c-0.456-0.105-1.059-0.203-1.508-0.203c-2.055,0-2.91,0.652-2.91,2.153v2.762h4.418v5.709
			h-4.418v19.453h-8.12V77.455z"/>
		<path clip-path="url(#SVGID_2_)" fill="#FABEAB" d="M206.757,81.115c0-0.997-0.056-2.202-0.4-3.156
			c-0.406-1.003-1.052-1.704-2.356-1.704c-2.713,0-3.008,3.31-3.008,8.317c0,5.667,0.898,7.524,3.008,7.524
			c2.855,0,3.107-2.91,3.107-4.817l6.313,0.904c-0.598,6.116-4.11,9.327-10.022,9.327c-7.321,0-11.129-6.417-11.129-12.631
			c0-6.872,3.808-13.738,11.479-13.738c8.626,0,9.924,7.469,9.924,9.973H206.757z"/>
		<path clip-path="url(#SVGID_2_)" fill="#FCD3C4" d="M210.214,81.134c1.797,0,3.268,1.471,3.268,3.273
			c0,1.803-1.471,3.273-3.268,3.273c-1.809,0-3.272-1.47-3.272-3.273C206.941,82.604,208.405,81.134,210.214,81.134z"/>
		<path clip-path="url(#SVGID_2_)" fill="#F5846D" d="M79.228,61.213h8.121v11.984h0.099c1.156-1.206,3.261-2.055,4.915-2.055
			c5.611,0,8.619,5.611,8.619,12.883c0,5.765-2.405,13.184-9.222,13.184c-3.156,0-5.217-1.501-6.816-3.913l-1.508,3.611h-4.208
			V61.213z M87.349,88.836c-0.154,2.11,1.102,3.261,2.657,3.261c2.252,0,2.554-2.258,2.554-6.921v-1.901
			c0-5.014,0-7.623-2.504-7.623c-1.003,0-1.754,0.603-2.258,1.003l-0.449,0.455V88.836z"/>
		<path clip-path="url(#SVGID_2_)" fill="#F6967F" d="M96.324,61.213h8.128v11.984h0.098c1.15-1.206,3.255-2.055,4.91-2.055
			c5.616,0,8.619,5.611,8.619,12.883c0,5.765-2.406,13.184-9.223,13.184c-3.156,0-5.211-1.501-6.816-3.913l-1.507,3.611h-4.209
			V61.213z M104.452,88.836c-0.154,2.11,1.101,3.261,2.651,3.261c2.258,0,2.56-2.258,2.56-6.921v-1.901c0-5.014,0-7.623-2.511-7.623
			c-1.003,0-1.753,0.603-2.252,1.003l-0.448,0.455V88.836z"/>
		<path clip-path="url(#SVGID_2_)" fill="#F8AA95" d="M113.655,77.455h-3.31v-5.709h3.31v-2.812c0-6.165,3.058-8.422,8.423-8.422
			c1.6,0,2.805,0.154,4.109,0.301v6.22c-0.449-0.105-1.052-0.203-1.501-0.203c-2.062,0-2.91,0.652-2.91,2.153v2.762h4.411v5.709
			h-4.411v19.453h-8.121V77.455z"/>
		<path clip-path="url(#SVGID_2_)" fill="#FABEAB" d="M134.566,81.115c0-0.997-0.055-2.202-0.405-3.156
			c-0.4-1.003-1.053-1.704-2.356-1.704c-2.707,0-3.009,3.31-3.009,8.317c0,5.667,0.904,7.524,3.009,7.524
			c2.86,0,3.106-2.91,3.106-4.817l6.318,0.904c-0.603,6.116-4.109,9.327-10.028,9.327c-7.314,0-11.123-6.417-11.123-12.631
			c0-6.872,3.809-13.738,11.48-13.738c8.619,0,9.923,7.469,9.923,9.973H134.566z"/>
		<path clip-path="url(#SVGID_2_)" fill="#FCD3C4" d="M138.019,81.134c1.802,0,3.272,1.471,3.272,3.273
			c0,1.803-1.471,3.273-3.272,3.273c-1.803,0-3.268-1.47-3.268-3.273C134.751,82.604,136.216,81.134,138.019,81.134z"/>
		<path clip-path="url(#SVGID_2_)" fill="#F5846D" d="M7.031,61.213h8.121v11.984h0.099c1.156-1.206,3.261-2.055,4.916-2.055
			c5.616,0,8.625,5.611,8.625,12.883c0,5.765-2.405,13.184-9.229,13.184c-3.156,0-5.211-1.501-6.816-3.913l-1.501,3.611H7.031
			V61.213z M15.152,88.836c-0.147,2.11,1.107,3.261,2.658,3.261c2.251,0,2.559-2.258,2.559-6.921v-1.901c0-5.014,0-7.623-2.51-7.623
			c-1.003,0-1.753,0.603-2.252,1.003l-0.455,0.455V88.836z"/>
		<path clip-path="url(#SVGID_2_)" fill="#F6967F" d="M24.135,61.213h8.121v11.984h0.099c1.15-1.206,3.26-2.055,4.915-2.055
			c5.611,0,8.619,5.611,8.619,12.883c0,5.765-2.405,13.184-9.222,13.184c-3.162,0-5.218-1.501-6.823-3.913l-1.501,3.611h-4.208
			V61.213z M32.256,88.836c-0.154,2.11,1.101,3.261,2.657,3.261c2.252,0,2.554-2.258,2.554-6.921v-1.901
			c0-5.014,0-7.623-2.504-7.623c-1.009,0-1.76,0.603-2.258,1.003l-0.449,0.455V88.836z"/>
		<path clip-path="url(#SVGID_2_)" fill="#F8AA95" d="M41.459,77.455h-3.304v-5.709h3.304v-2.812c0-6.165,3.058-8.422,8.423-8.422
			c1.605,0,2.812,0.154,4.109,0.301v6.22c-0.449-0.105-1.052-0.203-1.501-0.203c-2.055,0-2.91,0.652-2.91,2.153v2.762h4.411v5.709
			H49.58v19.453h-8.121V77.455z"/>
		<path clip-path="url(#SVGID_2_)" fill="#FABEAB" d="M62.371,81.115c0-0.997-0.056-2.202-0.4-3.156
			c-0.406-1.003-1.059-1.704-2.356-1.704c-2.713,0-3.008,3.31-3.008,8.317c0,5.667,0.897,7.524,3.008,7.524
			c2.854,0,3.107-2.91,3.107-4.817l6.312,0.904c-0.597,6.116-4.109,9.327-10.021,9.327c-7.321,0-11.13-6.417-11.13-12.631
			c0-6.872,3.809-13.738,11.48-13.738c8.625,0,9.924,7.469,9.924,9.973H62.371z"/>
		<path clip-path="url(#SVGID_2_)" fill="#FCD3C4" d="M65.828,81.134c1.797,0,3.267,1.471,3.267,3.273
			c0,1.803-1.47,3.273-3.267,3.273c-1.809,0-3.272-1.47-3.272-3.273C62.556,82.604,64.02,81.134,65.828,81.134z"/>
		<path clip-path="url(#SVGID_2_)" fill="#F5846D" d="M223.613,61.213h8.121v11.984h0.099c1.156-1.206,3.261-2.055,4.916-2.055
			c5.616,0,8.625,5.611,8.625,12.883c0,5.765-2.412,13.184-9.229,13.184c-3.156,0-5.211-1.501-6.816-3.913l-1.501,3.611h-4.215
			V61.213z M231.734,88.836c-0.147,2.11,1.102,3.261,2.658,3.261c2.251,0,2.559-2.258,2.559-6.921v-1.901
			c0-5.014,0-7.623-2.51-7.623c-1.003,0-1.753,0.603-2.258,1.003l-0.449,0.455V88.836z"/>
		<path clip-path="url(#SVGID_2_)" fill="#F6967F" d="M240.717,61.213h8.121v11.984h0.099c1.15-1.206,3.254-2.055,4.915-2.055
			c5.611,0,8.619,5.611,8.619,12.883c0,5.765-2.405,13.184-9.222,13.184c-3.162,0-5.218-1.501-6.823-3.913l-1.501,3.611h-4.208
			V61.213z M248.838,88.836c-0.154,2.11,1.101,3.261,2.651,3.261c2.258,0,2.56-2.258,2.56-6.921v-1.901c0-5.014,0-7.623-2.504-7.623
			c-1.009,0-1.76,0.603-2.258,1.003l-0.449,0.455V88.836z"/>
		<path clip-path="url(#SVGID_2_)" fill="#F8AA95" d="M258.041,77.455h-3.304v-5.709h3.304v-2.812c0-6.165,3.058-8.422,8.423-8.422
			c1.605,0,2.806,0.154,4.109,0.301v6.22c-0.449-0.105-1.052-0.203-1.501-0.203c-2.055,0-2.91,0.652-2.91,2.153v2.762h4.411v5.709
			h-4.411v19.453h-8.121V77.455z"/>
		<path clip-path="url(#SVGID_2_)" fill="#FABEAB" d="M278.953,81.115c0-0.997-0.056-2.202-0.4-3.156
			c-0.406-1.003-1.059-1.704-2.362-1.704c-2.707,0-3.002,3.31-3.002,8.317c0,5.667,0.897,7.524,3.002,7.524
			c2.86,0,3.106-2.91,3.106-4.817l6.318,0.904c-0.597,6.116-4.109,9.327-10.021,9.327c-7.321,0-11.13-6.417-11.13-12.631
			c0-6.872,3.809-13.738,11.48-13.738c8.619,0,9.924,7.469,9.924,9.973H278.953z"/>
		<path clip-path="url(#SVGID_2_)" fill="#FCD3C4" d="M282.41,81.134c1.797,0,3.267,1.471,3.267,3.273
			c0,1.803-1.47,3.273-3.267,3.273c-1.809,0-3.272-1.47-3.272-3.273C279.138,82.604,280.602,81.134,282.41,81.134z"/>
		<path clip-path="url(#SVGID_2_)" fill="#F5846D" d="M296.253,61.213h8.127v11.984h0.099c1.156-1.206,3.254-2.055,4.909-2.055
			c5.617,0,8.625,5.611,8.625,12.883c0,5.765-2.405,13.184-9.222,13.184c-3.156,0-5.217-1.501-6.816-3.913l-1.508,3.611h-4.214
			V61.213z M304.38,88.836c-0.154,2.11,1.102,3.261,2.651,3.261c2.258,0,2.56-2.258,2.56-6.921v-1.901c0-5.014,0-7.623-2.511-7.623
			c-0.996,0-1.753,0.603-2.251,1.003l-0.449,0.455V88.836z"/>
		<path clip-path="url(#SVGID_2_)" fill="#F6967F" d="M313.355,61.213h8.121v11.984h0.099c1.156-1.206,3.261-2.055,4.916-2.055
			c5.616,0,8.619,5.611,8.619,12.883c0,5.765-2.406,13.184-9.223,13.184c-3.156,0-5.211-1.501-6.816-3.913l-1.508,3.611h-4.208
			V61.213z M321.477,88.836c-0.147,2.11,1.107,3.261,2.658,3.261c2.251,0,2.559-2.258,2.559-6.921v-1.901
			c0-5.014,0-7.623-2.51-7.623c-1.003,0-1.753,0.603-2.252,1.003l-0.455,0.455V88.836z"/>
		<path clip-path="url(#SVGID_2_)" fill="#F8AA95" d="M330.687,77.455h-3.31v-5.709h3.31v-2.812c0-6.165,3.058-8.422,8.423-8.422
			c1.599,0,2.805,0.154,4.109,0.301v6.22c-0.449-0.105-1.052-0.203-1.508-0.203c-2.055,0-2.903,0.652-2.903,2.153v2.762h4.411v5.709
			h-4.411v19.453h-8.121V77.455z"/>
		<path clip-path="url(#SVGID_2_)" fill="#FABEAB" d="M351.592,81.115c0-0.997-0.049-2.202-0.4-3.156
			c-0.399-1.003-1.052-1.704-2.355-1.704c-2.707,0-3.009,3.31-3.009,8.317c0,5.667,0.904,7.524,3.009,7.524
			c2.854,0,3.106-2.91,3.106-4.817l6.318,0.904c-0.603,6.116-4.116,9.327-10.028,9.327c-7.321,0-11.129-6.417-11.129-12.631
			c0-6.872,3.808-13.738,11.479-13.738c8.626,0,9.93,7.469,9.93,9.973H351.592z"/>
		<path clip-path="url(#SVGID_2_)" fill="#F5846D" d="M151.418,20.08h8.12v11.984h0.099c1.157-1.206,3.261-2.055,4.916-2.055
			c5.617,0,8.625,5.617,8.625,12.882c0,5.765-2.405,13.185-9.229,13.185c-3.155,0-5.211-1.501-6.816-3.913l-1.501,3.611h-4.214
			V20.08z M159.538,47.703c-0.147,2.11,1.107,3.261,2.658,3.261c2.258,0,2.56-2.258,2.56-6.921v-1.901c0-5.014,0-7.623-2.511-7.623
			c-0.996,0-1.753,0.603-2.251,1.003l-0.456,0.455V47.703z"/>
		<path clip-path="url(#SVGID_2_)" fill="#F6967F" d="M168.521,20.08h8.121v11.984h0.099c1.15-1.206,3.261-2.055,4.915-2.055
			c5.611,0,8.619,5.617,8.619,12.882c0,5.765-2.405,13.185-9.222,13.185c-3.162,0-5.217-1.501-6.823-3.913l-1.501,3.611h-4.208
			V20.08z M176.642,47.703c-0.153,2.11,1.102,3.261,2.658,3.261c2.251,0,2.553-2.258,2.553-6.921v-1.901
			c0-5.014,0-7.623-2.504-7.623c-1.003,0-1.754,0.603-2.258,1.003l-0.449,0.455V47.703z"/>
		<path clip-path="url(#SVGID_2_)" fill="#F8AA95" d="M185.846,36.321h-3.304v-5.709h3.304V27.8c0-6.165,3.058-8.416,8.422-8.416
			c1.605,0,2.812,0.147,4.116,0.295v6.22c-0.456-0.104-1.059-0.203-1.508-0.203c-2.055,0-2.91,0.652-2.91,2.153v2.762h4.418v5.709
			h-4.418v19.453h-8.12V36.321z"/>
		<path clip-path="url(#SVGID_2_)" fill="#FABEAB" d="M206.757,39.982c0-0.997-0.056-2.203-0.4-3.156
			c-0.406-1.003-1.052-1.704-2.356-1.704c-2.713,0-3.008,3.31-3.008,8.324c0,5.66,0.898,7.518,3.008,7.518
			c2.855,0,3.107-2.904,3.107-4.817l6.313,0.904c-0.598,6.115-4.11,9.327-10.022,9.327c-7.321,0-11.129-6.417-11.129-12.63
			c0-6.872,3.808-13.738,11.479-13.738c8.626,0,9.924,7.469,9.924,9.973H206.757z"/>
		<path clip-path="url(#SVGID_2_)" fill="#FCD3C4" d="M210.214,40c1.797,0,3.268,1.471,3.268,3.273c0,1.802-1.471,3.279-3.268,3.279
			c-1.809,0-3.272-1.477-3.272-3.279C206.941,41.471,208.405,40,210.214,40z"/>
		<path clip-path="url(#SVGID_2_)" fill="#F5846D" d="M79.228,20.08h8.121v11.984h0.099c1.156-1.206,3.261-2.055,4.915-2.055
			c5.611,0,8.619,5.617,8.619,12.882c0,5.765-2.405,13.185-9.222,13.185c-3.156,0-5.217-1.501-6.816-3.913l-1.508,3.611h-4.208
			V20.08z M87.349,47.703c-0.154,2.11,1.102,3.261,2.657,3.261c2.252,0,2.554-2.258,2.554-6.921v-1.901c0-5.014,0-7.623-2.504-7.623
			c-1.003,0-1.754,0.603-2.258,1.003l-0.449,0.455V47.703z"/>
		<path clip-path="url(#SVGID_2_)" fill="#F6967F" d="M96.324,20.08h8.128v11.984h0.098c1.15-1.206,3.255-2.055,4.91-2.055
			c5.616,0,8.619,5.617,8.619,12.882c0,5.765-2.406,13.185-9.223,13.185c-3.156,0-5.211-1.501-6.816-3.913l-1.507,3.611h-4.209
			V20.08z M104.452,47.703c-0.154,2.11,1.101,3.261,2.651,3.261c2.258,0,2.56-2.258,2.56-6.921v-1.901c0-5.014,0-7.623-2.511-7.623
			c-1.003,0-1.753,0.603-2.252,1.003l-0.448,0.455V47.703z"/>
		<path clip-path="url(#SVGID_2_)" fill="#F8AA95" d="M113.655,36.321h-3.31v-5.709h3.31V27.8c0-6.165,3.058-8.416,8.423-8.416
			c1.6,0,2.805,0.147,4.109,0.295v6.22c-0.449-0.104-1.052-0.203-1.501-0.203c-2.062,0-2.91,0.652-2.91,2.153v2.762h4.411v5.709
			h-4.411v19.453h-8.121V36.321z"/>
		<path clip-path="url(#SVGID_2_)" fill="#FABEAB" d="M134.566,39.982c0-0.997-0.055-2.203-0.405-3.156
			c-0.4-1.003-1.053-1.704-2.356-1.704c-2.707,0-3.009,3.31-3.009,8.324c0,5.66,0.904,7.518,3.009,7.518
			c2.86,0,3.106-2.904,3.106-4.817l6.318,0.904c-0.603,6.115-4.109,9.327-10.028,9.327c-7.314,0-11.123-6.417-11.123-12.63
			c0-6.872,3.809-13.738,11.48-13.738c8.619,0,9.923,7.469,9.923,9.973H134.566z"/>
		<path clip-path="url(#SVGID_2_)" fill="#FCD3C4" d="M138.019,40c1.802,0,3.272,1.471,3.272,3.273c0,1.802-1.471,3.279-3.272,3.279
			c-1.803,0-3.268-1.477-3.268-3.279C134.751,41.471,136.216,40,138.019,40z"/>
		<path clip-path="url(#SVGID_2_)" fill="#F5846D" d="M223.613,20.08h8.121v11.984h0.099c1.156-1.206,3.261-2.055,4.916-2.055
			c5.616,0,8.625,5.617,8.625,12.882c0,5.765-2.412,13.185-9.229,13.185c-3.156,0-5.211-1.501-6.816-3.913l-1.501,3.611h-4.215
			V20.08z M231.734,47.703c-0.147,2.11,1.102,3.261,2.658,3.261c2.251,0,2.559-2.258,2.559-6.921v-1.901c0-5.014,0-7.623-2.51-7.623
			c-1.003,0-1.753,0.603-2.258,1.003l-0.449,0.455V47.703z"/>
		<path clip-path="url(#SVGID_2_)" fill="#F6967F" d="M240.717,20.08h8.121v11.984h0.099c1.15-1.206,3.254-2.055,4.915-2.055
			c5.611,0,8.619,5.617,8.619,12.882c0,5.765-2.405,13.185-9.222,13.185c-3.162,0-5.218-1.501-6.823-3.913l-1.501,3.611h-4.208
			V20.08z M248.838,47.703c-0.154,2.11,1.101,3.261,2.651,3.261c2.258,0,2.56-2.258,2.56-6.921v-1.901c0-5.014,0-7.623-2.504-7.623
			c-1.009,0-1.76,0.603-2.258,1.003l-0.449,0.455V47.703z"/>
		<path clip-path="url(#SVGID_2_)" fill="#F8AA95" d="M258.041,36.321h-3.304v-5.709h3.304V27.8c0-6.165,3.058-8.416,8.423-8.416
			c1.605,0,2.806,0.147,4.109,0.295v6.22c-0.449-0.104-1.052-0.203-1.501-0.203c-2.055,0-2.91,0.652-2.91,2.153v2.762h4.411v5.709
			h-4.411v19.453h-8.121V36.321z"/>
		<path clip-path="url(#SVGID_2_)" fill="#FABEAB" d="M278.953,39.982c0-0.997-0.056-2.203-0.4-3.156
			c-0.406-1.003-1.059-1.704-2.362-1.704c-2.707,0-3.002,3.31-3.002,8.324c0,5.66,0.897,7.518,3.002,7.518
			c2.86,0,3.106-2.904,3.106-4.817l6.318,0.904c-0.597,6.115-4.109,9.327-10.021,9.327c-7.321,0-11.13-6.417-11.13-12.63
			c0-6.872,3.809-13.738,11.48-13.738c8.619,0,9.924,7.469,9.924,9.973H278.953z"/>
		<path clip-path="url(#SVGID_2_)" fill="#FCD3C4" d="M282.41,40c1.797,0,3.267,1.471,3.267,3.273c0,1.802-1.47,3.279-3.267,3.279
			c-1.809,0-3.272-1.477-3.272-3.279C279.138,41.471,280.602,40,282.41,40z"/>
	</g>
	<polygon fill="#231F20" points="135.526,241.877 135.526,155.167 117.414,170.83 117.414,142.936 135.526,127.275 161.667,127.275 
		161.667,241.877 	"/>
	<path fill="#231F20" d="M212.337,242.849c-21.084,0-38.47-11.431-38.47-35.252c0-14.328,8.533-21.09,12.876-24.627
		c-4.023-3.382-11.757-10.303-11.757-22.697c0-21.729,17.713-33.963,37.351-33.963s37.344,12.233,37.344,33.963
		c0,12.394-7.728,19.315-11.751,22.697c4.35,3.537,12.877,10.299,12.877,24.627C250.807,231.418,233.427,242.849,212.337,242.849z
		 M212.337,194.881c-6.602,0-12.071,5.469-12.071,12.07c0,6.595,5.47,12.07,12.071,12.07c6.601,0,12.07-5.476,12.07-12.07
		C224.407,200.35,218.938,194.881,212.337,194.881z M212.337,150.131c-6.115,0-10.945,4.83-10.945,10.945
		c0,6.118,4.83,10.948,10.945,10.948s10.944-4.83,10.944-10.948C223.281,154.96,218.452,150.131,212.337,150.131z"/>
	<polygon fill="#FFFFFF" points="126.594,232.95 126.594,146.239 108.481,161.903 108.481,134.009 126.594,118.346 152.74,118.346 
		152.74,232.95 	"/>
	<path fill="#FFFFFF" d="M203.403,233.916c-21.083,0-38.47-11.431-38.47-35.252c0-14.322,8.533-21.085,12.877-24.626
		c-4.023-3.38-11.751-10.302-11.751-22.695c0-21.729,17.706-33.963,37.344-33.963s37.344,12.234,37.344,33.963
		c0,12.394-7.727,19.315-11.75,22.695c4.35,3.541,12.876,10.304,12.876,24.626C241.873,222.485,224.493,233.916,203.403,233.916z
		 M203.403,185.947c-6.601,0-12.07,5.476-12.07,12.077c0,6.595,5.47,12.07,12.07,12.07c6.602,0,12.071-5.476,12.071-12.07
		C215.475,191.423,210.005,185.947,203.403,185.947z M203.403,141.201c-6.115,0-10.944,4.83-10.944,10.945
		c0,6.119,4.829,10.948,10.944,10.948s10.945-4.829,10.945-10.948C214.349,146.03,209.519,141.201,203.403,141.201z"/>
</g>
</svg>
