<?xml version="1.0" encoding="utf-8"?>
<!-- Generator: Adobe Illustrator 16.0.0, SVG Export Plug-In . SVG Version: 6.00 Build 0)  -->
<!DOCTYPE svg PUBLIC "-//W3C//DTD SVG 1.1//EN" "http://www.w3.org/Graphics/SVG/1.1/DTD/svg11.dtd">
<svg version="1.1" id="Layer_1" xmlns="http://www.w3.org/2000/svg" xmlns:xlink="http://www.w3.org/1999/xlink" x="0px" y="0px"
	 width="362.515px" height="362.513px" viewBox="0 0 362.515 362.513" enable-background="new 0 0 362.515 362.513"
	 xml:space="preserve">
<g>
	<path fill="#FFFFFF" d="M359.839,181.256c0,98.626-79.954,178.58-178.586,178.58c-98.625,0-178.575-79.954-178.575-178.58
		c0-98.624,79.95-178.578,178.575-178.578C279.885,2.678,359.839,82.632,359.839,181.256z"/>
	<path fill="#231F20" d="M359.839,181.256h-2.677c-0.003,48.581-19.687,92.542-51.524,124.382
		c-31.841,31.835-75.801,51.519-124.385,51.522c-48.581-0.004-92.539-19.688-124.38-51.522
		c-31.834-31.84-51.517-75.801-51.518-124.382c0.001-48.581,19.684-92.54,51.518-124.38c31.841-31.836,75.799-51.519,124.38-51.52
		c48.584,0.001,92.544,19.684,124.385,51.52c31.838,31.841,51.521,75.8,51.524,124.38H359.839h2.676
		C362.515,81.152,281.364,0.001,181.253,0C81.148,0.001,0.001,81.152,0,181.256c0.001,100.105,81.148,181.257,181.253,181.257
		c100.111,0,181.262-81.151,181.262-181.257H359.839z"/>
	<path fill="#ED1C2E" d="M165.546,352.521c-1.747-0.16-2.854-1.489-2.683-3.452c0.179-1.969,1.508-3.076,3.255-2.916
		c1.747,0.154,2.854,1.482,2.676,3.451C168.616,351.567,167.287,352.675,165.546,352.521z M166.856,350.091
		c-0.086,0.511-0.517,0.708-1.033,0.658c-0.671-0.056-1.053-0.714-0.979-1.525c0.08-0.867,0.511-1.359,1.212-1.298
		c0.461,0.043,0.874,0.271,0.923,0.806l1.046,0.092c-0.08-1.181-0.843-1.857-1.87-1.95c-1.465-0.129-2.455,0.831-2.584,2.258
		c-0.13,1.385,0.72,2.547,2.159,2.677c0.997,0.086,1.944-0.455,2.215-1.618L166.856,350.091z M161.528,348.946
		c-0.215,2.369,1.545,4.479,3.913,4.694c2.375,0.216,4.479-1.544,4.694-3.919c0.215-2.368-1.544-4.479-3.913-4.688
		C163.848,344.818,161.744,346.572,161.528,348.946z"/>
	<path fill="#ED1C2E" d="M170.406,353.899l6.786,0.283l0.086-1.981l-3.766-0.16v-0.024l2.332-1.458
		c0.886-0.535,1.563-1.255,1.612-2.301c0.036-1.003-0.628-2.522-3.193-2.627c-1.926-0.08-3.138,0.916-3.611,1.987l1.68,0.953
		c0.271-0.72,0.873-1.396,1.698-1.366c0.634,0.031,1.046,0.443,1.015,1.083c-0.024,0.572-0.744,1.237-1.119,1.52l-3.452,2.572
		L170.406,353.899z"/>
	<path fill="#ED1C2E" d="M183.228,350.054c0.006,2.239-0.462,2.707-1.182,2.707c-0.714,0.007-1.193-0.455-1.199-2.694
		c-0.013-2.239,0.461-2.701,1.175-2.707C182.741,347.359,183.215,347.82,183.228,350.054z M178.398,350.079
		c0.012,2.725,1.574,4.281,3.654,4.27c2.085-0.007,3.629-1.581,3.617-4.301c-0.006-1.735-0.91-4.288-3.654-4.275
		C179.271,345.784,178.386,348.35,178.398,350.079z"/>
	<path fill="#ED1C2E" d="M190.955,349.796c0.11,2.233-0.339,2.719-1.059,2.756c-0.714,0.031-1.212-0.406-1.322-2.64
		c-0.111-2.239,0.344-2.725,1.058-2.756C190.346,347.119,190.844,347.557,190.955,349.796z M186.131,350.029
		c0.136,2.72,1.766,4.208,3.846,4.104c2.079-0.099,3.556-1.741,3.42-4.46c-0.086-1.729-1.101-4.239-3.845-4.104
		C186.814,345.704,186.045,348.301,186.131,350.029z"/>
	<path fill="#ED1C2E" d="M194.425,353.739l6.761-0.64l-0.185-1.981l-3.759,0.357v-0.019l2.116-1.766
		c0.8-0.652,1.378-1.458,1.28-2.498c-0.099-1.003-0.96-2.412-3.52-2.172c-1.92,0.185-2.984,1.335-3.31,2.467l1.796,0.714
		c0.173-0.751,0.677-1.507,1.501-1.581c0.622-0.062,1.089,0.295,1.15,0.929c0.056,0.572-0.571,1.329-0.904,1.661l-3.069,3.015
		L194.425,353.739z"/>
	<path fill="#ED1C2E" d="M31.7,181.262c0-82.472,67.091-149.563,149.559-149.563c82.464,0,149.56,67.091,149.56,149.563
		c0,82.464-67.096,149.554-149.56,149.554C98.791,330.816,31.7,263.727,31.7,181.262z M181.259,341.979
		c88.619,0,160.72-72.101,160.72-160.717c0-88.627-72.101-160.725-160.72-160.725c-88.622,0-160.72,72.098-160.72,160.725
		C20.539,269.879,92.637,341.979,181.259,341.979z"/>
	<g>
		<defs>
			<path id="SVGID_9_" d="M31.7,181.262c0-82.47,67.091-149.562,149.559-149.562c82.464,0,149.56,67.091,149.56,149.562
				c0,82.464-67.096,149.557-149.56,149.557C98.791,330.819,31.7,263.727,31.7,181.262z"/>
		</defs>
		<clipPath id="SVGID_2_">
			<use xlink:href="#SVGID_9_"  overflow="visible"/>
		</clipPath>
		<path clip-path="url(#SVGID_2_)" fill="#F5846D" d="M151.421,308.01h8.12v11.984h0.099c1.157-1.206,3.261-2.061,4.916-2.061
			c5.617,0,8.625,5.617,8.625,12.889c0,5.759-2.405,13.178-9.228,13.178c-3.156,0-5.218-1.501-6.817-3.906l-1.507,3.605h-4.208
			V308.01z M159.541,335.633c-0.153,2.104,1.102,3.255,2.658,3.255c2.252,0,2.553-2.258,2.553-6.921v-1.901
			c0-5.014,0-7.622-2.504-7.622c-1.002,0-1.753,0.608-2.258,1.009l-0.449,0.449V335.633z"/>
		<path clip-path="url(#SVGID_2_)" fill="#F6967F" d="M168.523,308.01h8.121v11.984h0.099c1.15-1.206,3.261-2.061,4.915-2.061
			c5.611,0,8.619,5.617,8.619,12.889c0,5.759-2.405,13.178-9.222,13.178c-3.162,0-5.217-1.501-6.823-3.906l-1.501,3.605h-4.208
			V308.01z M176.645,335.633c-0.154,2.104,1.102,3.255,2.658,3.255c2.251,0,2.553-2.258,2.553-6.921v-1.901
			c0-5.014,0-7.622-2.504-7.622c-1.003,0-1.754,0.608-2.258,1.009l-0.449,0.449V335.633z"/>
		<path clip-path="url(#SVGID_2_)" fill="#F8AA95" d="M185.849,324.245h-3.304v-5.709h3.304v-2.806c0-6.164,3.058-8.428,8.422-8.428
			c1.605,0,2.812,0.153,4.116,0.308v6.213c-0.455-0.104-1.059-0.202-1.508-0.202c-2.055,0-2.91,0.651-2.91,2.159v2.756h4.418v5.709
			h-4.418v19.454h-8.12V324.245z"/>
		<path clip-path="url(#SVGID_2_)" fill="#FABEAB" d="M206.76,327.912c0-1.003-0.056-2.208-0.4-3.156
			c-0.406-1.009-1.052-1.704-2.355-1.704c-2.714,0-3.009,3.304-3.009,8.318c0,5.666,0.898,7.518,3.009,7.518
			c2.854,0,3.106-2.903,3.106-4.811l6.313,0.897c-0.597,6.115-4.11,9.327-10.022,9.327c-7.321,0-11.129-6.417-11.129-12.631
			c0-6.865,3.808-13.737,11.479-13.737c8.626,0,9.924,7.469,9.924,9.979H206.76z"/>
		<path clip-path="url(#SVGID_2_)" fill="#FCD3C4" d="M210.217,327.931c1.797,0,3.268,1.471,3.268,3.273
			c0,1.796-1.471,3.272-3.268,3.272c-1.809,0-3.272-1.477-3.272-3.272C206.944,329.401,208.408,327.931,210.217,327.931z"/>
		<path clip-path="url(#SVGID_2_)" fill="#F5846D" d="M151.421,266.876h8.12v11.984h0.099c1.157-1.205,3.261-2.055,4.916-2.055
			c5.617,0,8.625,5.611,8.625,12.883c0,5.765-2.405,13.178-9.228,13.178c-3.156,0-5.218-1.501-6.817-3.906l-1.507,3.605h-4.208
			V266.876z M159.541,294.5c-0.153,2.104,1.102,3.254,2.658,3.254c2.252,0,2.553-2.251,2.553-6.915v-1.907
			c0-5.014,0-7.616-2.504-7.616c-1.002,0-1.753,0.603-2.258,1.003l-0.449,0.449V294.5z"/>
		<path clip-path="url(#SVGID_2_)" fill="#F6967F" d="M168.523,266.876h8.121v11.984h0.099c1.15-1.205,3.261-2.055,4.915-2.055
			c5.611,0,8.619,5.611,8.619,12.883c0,5.765-2.405,13.178-9.222,13.178c-3.162,0-5.217-1.501-6.823-3.906l-1.501,3.605h-4.208
			V266.876z M176.645,294.5c-0.154,2.104,1.102,3.254,2.658,3.254c2.251,0,2.553-2.251,2.553-6.915v-1.907
			c0-5.014,0-7.616-2.504-7.616c-1.003,0-1.754,0.603-2.258,1.003l-0.449,0.449V294.5z"/>
		<path clip-path="url(#SVGID_2_)" fill="#F8AA95" d="M185.849,283.118h-3.304v-5.716h3.304v-2.805c0-6.165,3.058-8.423,8.422-8.423
			c1.605,0,2.812,0.154,4.116,0.302v6.214c-0.455-0.099-1.059-0.197-1.508-0.197c-2.055,0-2.91,0.646-2.91,2.153v2.756h4.418v5.716
			h-4.418v19.447h-8.12V283.118z"/>
		<path clip-path="url(#SVGID_2_)" fill="#FABEAB" d="M206.76,286.778c0-1.003-0.056-2.202-0.4-3.156
			c-0.406-1.009-1.052-1.704-2.355-1.704c-2.714,0-3.009,3.304-3.009,8.318c0,5.666,0.898,7.518,3.009,7.518
			c2.854,0,3.106-2.903,3.106-4.811l6.313,0.904c-0.597,6.115-4.11,9.326-10.022,9.326c-7.321,0-11.129-6.416-11.129-12.636
			c0-6.866,3.808-13.732,11.479-13.732c8.626,0,9.924,7.463,9.924,9.973H206.76z"/>
		<path clip-path="url(#SVGID_2_)" fill="#FCD3C4" d="M210.217,286.797c1.797,0,3.268,1.471,3.268,3.273
			c0,1.796-1.471,3.272-3.268,3.272c-1.809,0-3.272-1.477-3.272-3.272C206.944,288.268,208.408,286.797,210.217,286.797z"/>
		<path clip-path="url(#SVGID_2_)" fill="#F5846D" d="M151.421,225.743h8.12v11.978h0.099c1.157-1.206,3.261-2.055,4.916-2.055
			c5.617,0,8.625,5.617,8.625,12.883c0,5.765-2.405,13.185-9.228,13.185c-3.156,0-5.218-1.502-6.817-3.913l-1.507,3.617h-4.208
			V225.743z M159.541,253.36c-0.153,2.109,1.102,3.267,2.658,3.267c2.252,0,2.553-2.265,2.553-6.922v-1.907
			c0-5.008,0-7.616-2.504-7.616c-1.002,0-1.753,0.597-2.258,1.003l-0.449,0.449V253.36z"/>
		<path clip-path="url(#SVGID_2_)" fill="#F6967F" d="M168.523,225.743h8.121v11.978h0.099c1.15-1.206,3.261-2.055,4.915-2.055
			c5.611,0,8.619,5.617,8.619,12.883c0,5.765-2.405,13.185-9.222,13.185c-3.162,0-5.217-1.502-6.823-3.913l-1.501,3.617h-4.208
			V225.743z M176.645,253.36c-0.154,2.109,1.102,3.267,2.658,3.267c2.251,0,2.553-2.265,2.553-6.922v-1.907
			c0-5.008,0-7.616-2.504-7.616c-1.003,0-1.754,0.597-2.258,1.003l-0.449,0.449V253.36z"/>
		<path clip-path="url(#SVGID_2_)" fill="#F8AA95" d="M185.849,241.984h-3.304v-5.715h3.304v-2.806c0-6.165,3.058-8.423,8.422-8.423
			c1.605,0,2.812,0.147,4.116,0.296v6.22c-0.455-0.104-1.059-0.203-1.508-0.203c-2.055,0-2.91,0.658-2.91,2.159v2.757h4.418v5.715
			h-4.418v19.453h-8.12V241.984z"/>
		<path clip-path="url(#SVGID_2_)" fill="#FABEAB" d="M206.76,245.639c0-0.996-0.056-2.202-0.4-3.156
			c-0.406-0.996-1.052-1.704-2.355-1.704c-2.714,0-3.009,3.311-3.009,8.324c0,5.66,0.898,7.524,3.009,7.524
			c2.854,0,3.106-2.91,3.106-4.823l6.313,0.904c-0.597,6.121-4.11,9.326-10.022,9.326c-7.321,0-11.129-6.416-11.129-12.63
			c0-6.872,3.808-13.738,11.479-13.738c8.626,0,9.924,7.469,9.924,9.973H206.76z"/>
		<path clip-path="url(#SVGID_2_)" fill="#FCD3C4" d="M210.217,245.657c1.797,0,3.268,1.471,3.268,3.279
			c0,1.797-1.471,3.272-3.268,3.272c-1.809,0-3.272-1.476-3.272-3.272C206.944,247.128,208.408,245.657,210.217,245.657z"/>
		<path clip-path="url(#SVGID_2_)" fill="#F5846D" d="M151.421,184.615h8.12v11.979h0.099c1.157-1.2,3.261-2.055,4.916-2.055
			c5.617,0,8.625,5.61,8.625,12.882c0,5.759-2.405,13.179-9.228,13.179c-3.156,0-5.218-1.501-6.817-3.907l-1.507,3.605h-4.208
			V184.615z M159.541,212.232c-0.153,2.104,1.102,3.255,2.658,3.255c2.252,0,2.553-2.258,2.553-6.915v-1.907
			c0-5.015,0-7.617-2.504-7.617c-1.002,0-1.753,0.604-2.258,1.003l-0.449,0.449V212.232z"/>
		<path clip-path="url(#SVGID_2_)" fill="#F6967F" d="M168.523,184.615h8.121v11.979h0.099c1.15-1.2,3.261-2.055,4.915-2.055
			c5.611,0,8.619,5.61,8.619,12.882c0,5.759-2.405,13.179-9.222,13.179c-3.162,0-5.217-1.501-6.823-3.907l-1.501,3.605h-4.208
			V184.615z M176.645,212.232c-0.154,2.104,1.102,3.255,2.658,3.255c2.251,0,2.553-2.258,2.553-6.915v-1.907
			c0-5.015,0-7.617-2.504-7.617c-1.003,0-1.754,0.604-2.258,1.003l-0.449,0.449V212.232z"/>
		<path clip-path="url(#SVGID_2_)" fill="#F8AA95" d="M185.849,200.851h-3.304v-5.709h3.304v-2.806c0-6.164,3.058-8.422,8.422-8.422
			c1.605,0,2.812,0.147,4.116,0.295v6.22c-0.455-0.104-1.059-0.203-1.508-0.203c-2.055,0-2.91,0.652-2.91,2.16v2.756h4.418v5.709
			h-4.418v19.447h-8.12V200.851z"/>
		<path clip-path="url(#SVGID_2_)" fill="#FABEAB" d="M206.76,204.512c0-1.003-0.056-2.209-0.4-3.156
			c-0.406-1.003-1.052-1.704-2.355-1.704c-2.714,0-3.009,3.304-3.009,8.317c0,5.666,0.898,7.519,3.009,7.519
			c2.854,0,3.106-2.904,3.106-4.812l6.313,0.898c-0.597,6.121-4.11,9.327-10.022,9.327c-7.321,0-11.129-6.417-11.129-12.631
			c0-6.866,3.808-13.731,11.479-13.731c8.626,0,9.924,7.462,9.924,9.973H206.76z"/>
		<path clip-path="url(#SVGID_2_)" fill="#FCD3C4" d="M210.217,204.53c1.797,0,3.268,1.47,3.268,3.272
			c0,1.797-1.471,3.273-3.268,3.273c-1.809,0-3.272-1.477-3.272-3.273C206.944,206,208.408,204.53,210.217,204.53z"/>
		<path clip-path="url(#SVGID_2_)" fill="#F5846D" d="M79.227,308.01h8.12v11.984h0.099c1.156-1.206,3.261-2.061,4.916-2.061
			c5.613,0,8.623,5.617,8.623,12.889c0,5.759-2.406,13.178-9.227,13.178c-3.156,0-5.214-1.501-6.816-3.906l-1.504,3.605h-4.211
			V308.01z M87.347,335.633c-0.15,2.104,1.104,3.255,2.658,3.255c2.255,0,2.556-2.258,2.556-6.921v-1.901
			c0-5.014,0-7.622-2.507-7.622c-0.999,0-1.753,0.608-2.255,1.009l-0.452,0.449V335.633z"/>
		<path clip-path="url(#SVGID_2_)" fill="#F6967F" d="M96.326,308.01h8.122v11.984h0.099c1.15-1.206,3.261-2.061,4.916-2.061
			c5.61,0,8.619,5.617,8.619,12.889c0,5.759-2.406,13.178-9.223,13.178c-3.162,0-5.217-1.501-6.822-3.906l-1.501,3.605h-4.21V308.01
			z M104.448,335.633c-0.153,2.104,1.102,3.255,2.658,3.255c2.251,0,2.553-2.258,2.553-6.921v-1.901c0-5.014,0-7.622-2.504-7.622
			c-1.003,0-1.753,0.608-2.258,1.009l-0.449,0.449V335.633z"/>
		<path clip-path="url(#SVGID_2_)" fill="#F8AA95" d="M113.652,324.245h-3.304v-5.709h3.304v-2.806c0-6.164,3.058-8.428,8.422-8.428
			c1.606,0,2.812,0.153,4.116,0.308v6.213c-0.455-0.104-1.059-0.202-1.507-0.202c-2.056,0-2.91,0.651-2.91,2.159v2.756h4.417v5.709
			h-4.417v19.454h-8.121V324.245z"/>
		<path clip-path="url(#SVGID_2_)" fill="#FABEAB" d="M134.563,327.912c0-1.003-0.056-2.208-0.399-3.156
			c-0.406-1.009-1.053-1.704-2.356-1.704c-2.714,0-3.009,3.304-3.009,8.318c0,5.666,0.898,7.518,3.009,7.518
			c2.854,0,3.106-2.903,3.106-4.811l6.313,0.897c-0.597,6.115-4.109,9.327-10.022,9.327c-7.321,0-11.129-6.417-11.129-12.631
			c0-6.865,3.808-13.737,11.479-13.737c8.626,0,9.924,7.469,9.924,9.979H134.563z"/>
		<path clip-path="url(#SVGID_2_)" fill="#FCD3C4" d="M138.021,327.931c1.796,0,3.267,1.471,3.267,3.273
			c0,1.796-1.471,3.272-3.267,3.272c-1.81,0-3.273-1.477-3.273-3.272C134.748,329.401,136.212,327.931,138.021,327.931z"/>
		<path clip-path="url(#SVGID_2_)" fill="#F5846D" d="M79.227,266.876h8.12v11.984h0.099c1.156-1.205,3.261-2.055,4.916-2.055
			c5.613,0,8.623,5.611,8.623,12.883c0,5.765-2.406,13.178-9.227,13.178c-3.156,0-5.214-1.501-6.816-3.906l-1.504,3.605h-4.211
			V266.876z M87.347,294.5c-0.15,2.104,1.104,3.254,2.658,3.254c2.255,0,2.556-2.251,2.556-6.915v-1.907
			c0-5.014,0-7.616-2.507-7.616c-0.999,0-1.753,0.603-2.255,1.003l-0.452,0.449V294.5z"/>
		<path clip-path="url(#SVGID_2_)" fill="#F6967F" d="M96.326,266.876h8.122v11.984h0.099c1.15-1.205,3.261-2.055,4.916-2.055
			c5.61,0,8.619,5.611,8.619,12.883c0,5.765-2.406,13.178-9.223,13.178c-3.162,0-5.217-1.501-6.822-3.906l-1.501,3.605h-4.21
			V266.876z M104.448,294.5c-0.153,2.104,1.102,3.254,2.658,3.254c2.251,0,2.553-2.251,2.553-6.915v-1.907
			c0-5.014,0-7.616-2.504-7.616c-1.003,0-1.753,0.603-2.258,1.003l-0.449,0.449V294.5z"/>
		<path clip-path="url(#SVGID_2_)" fill="#F8AA95" d="M113.652,283.118h-3.304v-5.716h3.304v-2.805c0-6.165,3.058-8.423,8.422-8.423
			c1.606,0,2.812,0.154,4.116,0.302v6.214c-0.455-0.099-1.059-0.197-1.507-0.197c-2.056,0-2.91,0.646-2.91,2.153v2.756h4.417v5.716
			h-4.417v19.447h-8.121V283.118z"/>
		<path clip-path="url(#SVGID_2_)" fill="#FABEAB" d="M134.563,286.778c0-1.003-0.056-2.202-0.399-3.156
			c-0.406-1.009-1.053-1.704-2.356-1.704c-2.714,0-3.009,3.304-3.009,8.318c0,5.666,0.898,7.518,3.009,7.518
			c2.854,0,3.106-2.903,3.106-4.811l6.313,0.904c-0.597,6.115-4.109,9.326-10.022,9.326c-7.321,0-11.129-6.416-11.129-12.636
			c0-6.866,3.808-13.732,11.479-13.732c8.626,0,9.924,7.463,9.924,9.973H134.563z"/>
		<path clip-path="url(#SVGID_2_)" fill="#FCD3C4" d="M138.021,286.797c1.796,0,3.267,1.471,3.267,3.273
			c0,1.796-1.471,3.272-3.267,3.272c-1.81,0-3.273-1.477-3.273-3.272C134.748,288.268,136.212,286.797,138.021,286.797z"/>
		<path clip-path="url(#SVGID_2_)" fill="#F5846D" d="M79.227,225.743h8.12v11.978h0.099c1.156-1.206,3.261-2.055,4.916-2.055
			c5.613,0,8.623,5.617,8.623,12.883c0,5.765-2.406,13.185-9.227,13.185c-3.156,0-5.214-1.502-6.816-3.913l-1.504,3.617h-4.211
			V225.743z M87.347,253.36c-0.15,2.109,1.104,3.267,2.658,3.267c2.255,0,2.556-2.265,2.556-6.922v-1.907
			c0-5.008,0-7.616-2.507-7.616c-0.999,0-1.753,0.597-2.255,1.003l-0.452,0.449V253.36z"/>
		<path clip-path="url(#SVGID_2_)" fill="#F6967F" d="M96.326,225.743h8.122v11.978h0.099c1.15-1.206,3.261-2.055,4.916-2.055
			c5.61,0,8.619,5.617,8.619,12.883c0,5.765-2.406,13.185-9.223,13.185c-3.162,0-5.217-1.502-6.822-3.913l-1.501,3.617h-4.21
			V225.743z M104.448,253.36c-0.153,2.109,1.102,3.267,2.658,3.267c2.251,0,2.553-2.265,2.553-6.922v-1.907
			c0-5.008,0-7.616-2.504-7.616c-1.003,0-1.753,0.597-2.258,1.003l-0.449,0.449V253.36z"/>
		<path clip-path="url(#SVGID_2_)" fill="#F8AA95" d="M113.652,241.984h-3.304v-5.715h3.304v-2.806c0-6.165,3.058-8.423,8.422-8.423
			c1.606,0,2.812,0.147,4.116,0.296v6.22c-0.455-0.104-1.059-0.203-1.507-0.203c-2.056,0-2.91,0.658-2.91,2.159v2.757h4.417v5.715
			h-4.417v19.453h-8.121V241.984z"/>
		<path clip-path="url(#SVGID_2_)" fill="#FABEAB" d="M134.563,245.639c0-0.996-0.056-2.202-0.399-3.156
			c-0.406-0.996-1.053-1.704-2.356-1.704c-2.714,0-3.009,3.311-3.009,8.324c0,5.66,0.898,7.524,3.009,7.524
			c2.854,0,3.106-2.91,3.106-4.823l6.313,0.904c-0.597,6.121-4.109,9.326-10.022,9.326c-7.321,0-11.129-6.416-11.129-12.63
			c0-6.872,3.808-13.738,11.479-13.738c8.626,0,9.924,7.469,9.924,9.973H134.563z"/>
		<path clip-path="url(#SVGID_2_)" fill="#FCD3C4" d="M138.021,245.657c1.796,0,3.267,1.471,3.267,3.279
			c0,1.797-1.471,3.272-3.267,3.272c-1.81,0-3.273-1.476-3.273-3.272C134.748,247.128,136.212,245.657,138.021,245.657z"/>
		<path clip-path="url(#SVGID_2_)" fill="#F5846D" d="M79.227,184.615h8.12v11.979h0.099c1.156-1.2,3.261-2.055,4.916-2.055
			c5.613,0,8.623,5.61,8.623,12.882c0,5.759-2.406,13.179-9.227,13.179c-3.156,0-5.214-1.501-6.816-3.907l-1.504,3.605h-4.211
			V184.615z M87.347,212.232c-0.15,2.104,1.104,3.255,2.658,3.255c2.255,0,2.556-2.258,2.556-6.915v-1.907
			c0-5.015,0-7.617-2.507-7.617c-0.999,0-1.753,0.604-2.255,1.003l-0.452,0.449V212.232z"/>
		<path clip-path="url(#SVGID_2_)" fill="#F6967F" d="M96.326,184.615h8.122v11.979h0.099c1.15-1.2,3.261-2.055,4.916-2.055
			c5.61,0,8.619,5.61,8.619,12.882c0,5.759-2.406,13.179-9.223,13.179c-3.162,0-5.217-1.501-6.822-3.907l-1.501,3.605h-4.21V184.615
			z M104.448,212.232c-0.153,2.104,1.102,3.255,2.658,3.255c2.251,0,2.553-2.258,2.553-6.915v-1.907c0-5.015,0-7.617-2.504-7.617
			c-1.003,0-1.753,0.604-2.258,1.003l-0.449,0.449V212.232z"/>
		<path clip-path="url(#SVGID_2_)" fill="#F8AA95" d="M113.652,200.851h-3.304v-5.709h3.304v-2.806c0-6.164,3.058-8.422,8.422-8.422
			c1.606,0,2.812,0.147,4.116,0.295v6.22c-0.455-0.104-1.059-0.203-1.507-0.203c-2.056,0-2.91,0.652-2.91,2.16v2.756h4.417v5.709
			h-4.417v19.447h-8.121V200.851z"/>
		<path clip-path="url(#SVGID_2_)" fill="#FABEAB" d="M134.563,204.512c0-1.003-0.056-2.209-0.399-3.156
			c-0.406-1.003-1.053-1.704-2.356-1.704c-2.714,0-3.009,3.304-3.009,8.317c0,5.666,0.898,7.519,3.009,7.519
			c2.854,0,3.106-2.904,3.106-4.812l6.313,0.898c-0.597,6.121-4.109,9.327-10.022,9.327c-7.321,0-11.129-6.417-11.129-12.631
			c0-6.866,3.808-13.731,11.479-13.731c8.626,0,9.924,7.462,9.924,9.973H134.563z"/>
		<path clip-path="url(#SVGID_2_)" fill="#FCD3C4" d="M138.021,204.53c1.796,0,3.267,1.47,3.267,3.272
			c0,1.797-1.471,3.273-3.267,3.273c-1.81,0-3.273-1.477-3.273-3.273C134.748,206,136.212,204.53,138.021,204.53z"/>
		<path clip-path="url(#SVGID_2_)" fill="#F6967F" d="M24.133,266.876h8.124v11.984h0.099c1.15-1.205,3.258-2.055,4.912-2.055
			c5.614,0,8.619,5.611,8.619,12.883c0,5.765-2.405,13.178-9.222,13.178c-3.159,0-5.214-1.501-6.819-3.906l-1.502,3.605h-4.211
			V266.876z M32.257,294.5c-0.153,2.104,1.102,3.254,2.655,3.254c2.254,0,2.556-2.251,2.556-6.915v-1.907
			c0-5.014,0-7.616-2.507-7.616c-1.006,0-1.757,0.603-2.255,1.003l-0.449,0.449V294.5z"/>
		<path clip-path="url(#SVGID_2_)" fill="#F8AA95" d="M41.461,283.118h-3.307v-5.716h3.307v-2.805c0-6.165,3.058-8.423,8.422-8.423
			c1.606,0,2.809,0.154,4.11,0.302v6.214c-0.449-0.099-1.053-0.197-1.501-0.197c-2.059,0-2.91,0.646-2.91,2.153v2.756h4.411v5.716
			h-4.411v19.447h-8.121V283.118z"/>
		<path clip-path="url(#SVGID_2_)" fill="#FABEAB" d="M62.372,286.778c0-1.003-0.056-2.202-0.403-3.156
			c-0.402-1.009-1.055-1.704-2.355-1.704c-2.711,0-3.009,3.304-3.009,8.318c0,5.666,0.901,7.518,3.009,7.518
			c2.857,0,3.106-2.903,3.106-4.811l6.315,0.904c-0.6,6.115-4.109,9.326-10.025,9.326c-7.318,0-11.126-6.416-11.126-12.636
			c0-6.866,3.808-13.732,11.479-13.732c8.623,0,9.924,7.463,9.924,9.973H62.372z"/>
		<path clip-path="url(#SVGID_2_)" fill="#FCD3C4" d="M65.826,286.797c1.8,0,3.271,1.471,3.271,3.273
			c0,1.796-1.471,3.272-3.271,3.272c-1.806,0-3.27-1.477-3.27-3.272C62.557,288.268,64.021,286.797,65.826,286.797z"/>
		<path clip-path="url(#SVGID_2_)" fill="#F6967F" d="M24.133,225.743h8.124v11.978h0.099c1.15-1.206,3.258-2.055,4.912-2.055
			c5.614,0,8.619,5.617,8.619,12.883c0,5.765-2.405,13.185-9.222,13.185c-3.159,0-5.214-1.502-6.819-3.913l-1.502,3.617h-4.211
			V225.743z M32.257,253.36c-0.153,2.109,1.102,3.267,2.655,3.267c2.254,0,2.556-2.265,2.556-6.922v-1.907
			c0-5.008,0-7.616-2.507-7.616c-1.006,0-1.757,0.597-2.255,1.003l-0.449,0.449V253.36z"/>
		<path clip-path="url(#SVGID_2_)" fill="#F8AA95" d="M41.461,241.984h-3.307v-5.715h3.307v-2.806c0-6.165,3.058-8.423,8.422-8.423
			c1.606,0,2.809,0.147,4.11,0.296v6.22c-0.449-0.104-1.053-0.203-1.501-0.203c-2.059,0-2.91,0.658-2.91,2.159v2.757h4.411v5.715
			h-4.411v19.453h-8.121V241.984z"/>
		<path clip-path="url(#SVGID_2_)" fill="#FABEAB" d="M62.372,245.639c0-0.996-0.056-2.202-0.403-3.156
			c-0.402-0.996-1.055-1.704-2.355-1.704c-2.711,0-3.009,3.311-3.009,8.324c0,5.66,0.901,7.524,3.009,7.524
			c2.857,0,3.106-2.91,3.106-4.823l6.315,0.904c-0.6,6.121-4.109,9.326-10.025,9.326c-7.318,0-11.126-6.416-11.126-12.63
			c0-6.872,3.808-13.738,11.479-13.738c8.623,0,9.924,7.469,9.924,9.973H62.372z"/>
		<path clip-path="url(#SVGID_2_)" fill="#FCD3C4" d="M65.826,245.657c1.8,0,3.271,1.471,3.271,3.279
			c0,1.797-1.471,3.272-3.271,3.272c-1.806,0-3.27-1.476-3.27-3.272C62.557,247.128,64.021,245.657,65.826,245.657z"/>
		<path clip-path="url(#SVGID_2_)" fill="#F6967F" d="M24.133,184.615h8.124v11.979h0.099c1.15-1.2,3.258-2.055,4.912-2.055
			c5.614,0,8.619,5.61,8.619,12.882c0,5.759-2.405,13.179-9.222,13.179c-3.159,0-5.214-1.501-6.819-3.907l-1.502,3.605h-4.211
			V184.615z M32.257,212.232c-0.153,2.104,1.102,3.255,2.655,3.255c2.254,0,2.556-2.258,2.556-6.915v-1.907
			c0-5.015,0-7.617-2.507-7.617c-1.006,0-1.757,0.604-2.255,1.003l-0.449,0.449V212.232z"/>
		<path clip-path="url(#SVGID_2_)" fill="#F8AA95" d="M41.461,200.851h-3.307v-5.709h3.307v-2.806c0-6.164,3.058-8.422,8.422-8.422
			c1.606,0,2.809,0.147,4.11,0.295v6.22c-0.449-0.104-1.053-0.203-1.501-0.203c-2.059,0-2.91,0.652-2.91,2.16v2.756h4.411v5.709
			h-4.411v19.447h-8.121V200.851z"/>
		<path clip-path="url(#SVGID_2_)" fill="#FABEAB" d="M62.372,204.512c0-1.003-0.056-2.209-0.403-3.156
			c-0.402-1.003-1.055-1.704-2.355-1.704c-2.711,0-3.009,3.304-3.009,8.317c0,5.666,0.901,7.519,3.009,7.519
			c2.857,0,3.106-2.904,3.106-4.812l6.315,0.898c-0.6,6.121-4.109,9.327-10.025,9.327c-7.318,0-11.126-6.417-11.126-12.631
			c0-6.866,3.808-13.731,11.479-13.731c8.623,0,9.924,7.462,9.924,9.973H62.372z"/>
		<path clip-path="url(#SVGID_2_)" fill="#FCD3C4" d="M65.826,204.53c1.8,0,3.271,1.47,3.271,3.272c0,1.797-1.471,3.273-3.271,3.273
			c-1.806,0-3.27-1.477-3.27-3.273C62.557,206,64.021,204.53,65.826,204.53z"/>
		<path clip-path="url(#SVGID_2_)" fill="#F5846D" d="M223.616,308.01h8.121v11.984h0.099c1.156-1.206,3.261-2.061,4.916-2.061
			c5.616,0,8.625,5.617,8.625,12.889c0,5.759-2.412,13.178-9.229,13.178c-3.156,0-5.211-1.501-6.816-3.906l-1.501,3.605h-4.215
			V308.01z M231.737,335.633c-0.147,2.104,1.102,3.255,2.658,3.255c2.251,0,2.56-2.258,2.56-6.921v-1.901
			c0-5.014,0-7.622-2.511-7.622c-1.003,0-1.753,0.608-2.258,1.009l-0.449,0.449V335.633z"/>
		<path clip-path="url(#SVGID_2_)" fill="#F6967F" d="M240.72,308.01h8.121v11.984h0.099c1.15-1.206,3.254-2.061,4.915-2.061
			c5.611,0,8.619,5.617,8.619,12.889c0,5.759-2.405,13.178-9.222,13.178c-3.162,0-5.217-1.501-6.823-3.906l-1.501,3.605h-4.208
			V308.01z M248.841,335.633c-0.154,2.104,1.101,3.255,2.651,3.255c2.258,0,2.56-2.258,2.56-6.921v-1.901
			c0-5.014,0-7.622-2.504-7.622c-1.009,0-1.76,0.608-2.258,1.009l-0.449,0.449V335.633z"/>
		<path clip-path="url(#SVGID_2_)" fill="#F8AA95" d="M258.044,324.245h-3.304v-5.709h3.304v-2.806c0-6.164,3.058-8.428,8.423-8.428
			c1.605,0,2.806,0.153,4.109,0.308v6.213c-0.449-0.104-1.052-0.202-1.501-0.202c-2.055,0-2.91,0.651-2.91,2.159v2.756h4.411v5.709
			h-4.411v19.454h-8.121V324.245z"/>
		<path clip-path="url(#SVGID_2_)" fill="#FABEAB" d="M278.956,327.912c0-1.003-0.056-2.208-0.4-3.156
			c-0.406-1.009-1.058-1.704-2.362-1.704c-2.707,0-3.002,3.304-3.002,8.318c0,5.666,0.897,7.518,3.002,7.518
			c2.86,0,3.106-2.903,3.106-4.811l6.318,0.897c-0.597,6.115-4.109,9.327-10.021,9.327c-7.321,0-11.13-6.417-11.13-12.631
			c0-6.865,3.809-13.737,11.48-13.737c8.619,0,9.924,7.469,9.924,9.979H278.956z"/>
		<path clip-path="url(#SVGID_2_)" fill="#FCD3C4" d="M282.413,327.931c1.797,0,3.267,1.471,3.267,3.273
			c0,1.796-1.47,3.272-3.267,3.272c-1.809,0-3.272-1.477-3.272-3.272C279.141,329.401,280.604,327.931,282.413,327.931z"/>
		<path clip-path="url(#SVGID_2_)" fill="#F5846D" d="M223.616,266.876h8.121v11.984h0.099c1.156-1.205,3.261-2.055,4.916-2.055
			c5.616,0,8.625,5.611,8.625,12.883c0,5.765-2.412,13.178-9.229,13.178c-3.156,0-5.211-1.501-6.816-3.906l-1.501,3.605h-4.215
			V266.876z M231.737,294.5c-0.147,2.104,1.102,3.254,2.658,3.254c2.251,0,2.56-2.251,2.56-6.915v-1.907
			c0-5.014,0-7.616-2.511-7.616c-1.003,0-1.753,0.603-2.258,1.003l-0.449,0.449V294.5z"/>
		<path clip-path="url(#SVGID_2_)" fill="#F6967F" d="M240.72,266.876h8.121v11.984h0.099c1.15-1.205,3.254-2.055,4.915-2.055
			c5.611,0,8.619,5.611,8.619,12.883c0,5.765-2.405,13.178-9.222,13.178c-3.162,0-5.217-1.501-6.823-3.906l-1.501,3.605h-4.208
			V266.876z M248.841,294.5c-0.154,2.104,1.101,3.254,2.651,3.254c2.258,0,2.56-2.251,2.56-6.915v-1.907
			c0-5.014,0-7.616-2.504-7.616c-1.009,0-1.76,0.603-2.258,1.003l-0.449,0.449V294.5z"/>
		<path clip-path="url(#SVGID_2_)" fill="#F8AA95" d="M258.044,283.118h-3.304v-5.716h3.304v-2.805c0-6.165,3.058-8.423,8.423-8.423
			c1.605,0,2.806,0.154,4.109,0.302v6.214c-0.449-0.099-1.052-0.197-1.501-0.197c-2.055,0-2.91,0.646-2.91,2.153v2.756h4.411v5.716
			h-4.411v19.447h-8.121V283.118z"/>
		<path clip-path="url(#SVGID_2_)" fill="#FABEAB" d="M278.956,286.778c0-1.003-0.056-2.202-0.4-3.156
			c-0.406-1.009-1.058-1.704-2.362-1.704c-2.707,0-3.002,3.304-3.002,8.318c0,5.666,0.897,7.518,3.002,7.518
			c2.86,0,3.106-2.903,3.106-4.811l6.318,0.904c-0.597,6.115-4.109,9.326-10.021,9.326c-7.321,0-11.13-6.416-11.13-12.636
			c0-6.866,3.809-13.732,11.48-13.732c8.619,0,9.924,7.463,9.924,9.973H278.956z"/>
		<path clip-path="url(#SVGID_2_)" fill="#FCD3C4" d="M282.413,286.797c1.797,0,3.267,1.471,3.267,3.273
			c0,1.796-1.47,3.272-3.267,3.272c-1.809,0-3.272-1.477-3.272-3.272C279.141,288.268,280.604,286.797,282.413,286.797z"/>
		<path clip-path="url(#SVGID_2_)" fill="#F5846D" d="M223.616,225.743h8.121v11.978h0.099c1.156-1.206,3.261-2.055,4.916-2.055
			c5.616,0,8.625,5.617,8.625,12.883c0,5.765-2.412,13.185-9.229,13.185c-3.156,0-5.211-1.502-6.816-3.913l-1.501,3.617h-4.215
			V225.743z M231.737,253.36c-0.147,2.109,1.102,3.267,2.658,3.267c2.251,0,2.56-2.265,2.56-6.922v-1.907
			c0-5.008,0-7.616-2.511-7.616c-1.003,0-1.753,0.597-2.258,1.003l-0.449,0.449V253.36z"/>
		<path clip-path="url(#SVGID_2_)" fill="#F6967F" d="M240.72,225.743h8.121v11.978h0.099c1.15-1.206,3.254-2.055,4.915-2.055
			c5.611,0,8.619,5.617,8.619,12.883c0,5.765-2.405,13.185-9.222,13.185c-3.162,0-5.217-1.502-6.823-3.913l-1.501,3.617h-4.208
			V225.743z M248.841,253.36c-0.154,2.109,1.101,3.267,2.651,3.267c2.258,0,2.56-2.265,2.56-6.922v-1.907
			c0-5.008,0-7.616-2.504-7.616c-1.009,0-1.76,0.597-2.258,1.003l-0.449,0.449V253.36z"/>
		<path clip-path="url(#SVGID_2_)" fill="#F8AA95" d="M258.044,241.984h-3.304v-5.715h3.304v-2.806c0-6.165,3.058-8.423,8.423-8.423
			c1.605,0,2.806,0.147,4.109,0.296v6.22c-0.449-0.104-1.052-0.203-1.501-0.203c-2.055,0-2.91,0.658-2.91,2.159v2.757h4.411v5.715
			h-4.411v19.453h-8.121V241.984z"/>
		<path clip-path="url(#SVGID_2_)" fill="#FABEAB" d="M278.956,245.639c0-0.996-0.056-2.202-0.4-3.156
			c-0.406-0.996-1.058-1.704-2.362-1.704c-2.707,0-3.002,3.311-3.002,8.324c0,5.66,0.897,7.524,3.002,7.524
			c2.86,0,3.106-2.91,3.106-4.823l6.318,0.904c-0.597,6.121-4.109,9.326-10.021,9.326c-7.321,0-11.13-6.416-11.13-12.63
			c0-6.872,3.809-13.738,11.48-13.738c8.619,0,9.924,7.469,9.924,9.973H278.956z"/>
		<path clip-path="url(#SVGID_2_)" fill="#FCD3C4" d="M282.413,245.657c1.797,0,3.267,1.471,3.267,3.279
			c0,1.797-1.47,3.272-3.267,3.272c-1.809,0-3.272-1.476-3.272-3.272C279.141,247.128,280.604,245.657,282.413,245.657z"/>
		<path clip-path="url(#SVGID_2_)" fill="#F5846D" d="M223.616,184.615h8.121v11.979h0.099c1.156-1.2,3.261-2.055,4.916-2.055
			c5.616,0,8.625,5.61,8.625,12.882c0,5.759-2.412,13.179-9.229,13.179c-3.156,0-5.211-1.501-6.816-3.907l-1.501,3.605h-4.215
			V184.615z M231.737,212.232c-0.147,2.104,1.102,3.255,2.658,3.255c2.251,0,2.56-2.258,2.56-6.915v-1.907
			c0-5.015,0-7.617-2.511-7.617c-1.003,0-1.753,0.604-2.258,1.003l-0.449,0.449V212.232z"/>
		<path clip-path="url(#SVGID_2_)" fill="#F6967F" d="M240.72,184.615h8.121v11.979h0.099c1.15-1.2,3.254-2.055,4.915-2.055
			c5.611,0,8.619,5.61,8.619,12.882c0,5.759-2.405,13.179-9.222,13.179c-3.162,0-5.217-1.501-6.823-3.907l-1.501,3.605h-4.208
			V184.615z M248.841,212.232c-0.154,2.104,1.101,3.255,2.651,3.255c2.258,0,2.56-2.258,2.56-6.915v-1.907
			c0-5.015,0-7.617-2.504-7.617c-1.009,0-1.76,0.604-2.258,1.003l-0.449,0.449V212.232z"/>
		<path clip-path="url(#SVGID_2_)" fill="#F8AA95" d="M258.044,200.851h-3.304v-5.709h3.304v-2.806c0-6.164,3.058-8.422,8.423-8.422
			c1.605,0,2.806,0.147,4.109,0.295v6.22c-0.449-0.104-1.052-0.203-1.501-0.203c-2.055,0-2.91,0.652-2.91,2.16v2.756h4.411v5.709
			h-4.411v19.447h-8.121V200.851z"/>
		<path clip-path="url(#SVGID_2_)" fill="#FABEAB" d="M278.956,204.512c0-1.003-0.056-2.209-0.4-3.156
			c-0.406-1.003-1.058-1.704-2.362-1.704c-2.707,0-3.002,3.304-3.002,8.317c0,5.666,0.897,7.519,3.002,7.519
			c2.86,0,3.106-2.904,3.106-4.812l6.318,0.898c-0.597,6.121-4.109,9.327-10.021,9.327c-7.321,0-11.13-6.417-11.13-12.631
			c0-6.866,3.809-13.731,11.48-13.731c8.619,0,9.924,7.462,9.924,9.973H278.956z"/>
		<path clip-path="url(#SVGID_2_)" fill="#FCD3C4" d="M282.413,204.53c1.797,0,3.267,1.47,3.267,3.272
			c0,1.797-1.47,3.273-3.267,3.273c-1.809,0-3.272-1.477-3.272-3.273C279.141,206,280.604,204.53,282.413,204.53z"/>
		<path clip-path="url(#SVGID_2_)" fill="#F5846D" d="M296.256,266.876h8.127v11.984h0.099c1.156-1.205,3.254-2.055,4.909-2.055
			c5.617,0,8.625,5.611,8.625,12.883c0,5.765-2.405,13.178-9.222,13.178c-3.156,0-5.217-1.501-6.816-3.906l-1.508,3.605h-4.214
			V266.876z M304.383,294.5c-0.154,2.104,1.102,3.254,2.651,3.254c2.258,0,2.56-2.251,2.56-6.915v-1.907c0-5.014,0-7.616-2.51-7.616
			c-0.997,0-1.754,0.603-2.252,1.003l-0.449,0.449V294.5z"/>
		<path clip-path="url(#SVGID_2_)" fill="#F6967F" d="M313.358,266.876h8.121v11.984h0.099c1.156-1.205,3.261-2.055,4.916-2.055
			c5.616,0,8.619,5.611,8.619,12.883c0,5.765-2.406,13.178-9.223,13.178c-3.156,0-5.211-1.501-6.816-3.906l-1.508,3.605h-4.208
			V266.876z M321.479,294.5c-0.147,2.104,1.107,3.254,2.658,3.254c2.251,0,2.56-2.251,2.56-6.915v-1.907
			c0-5.014,0-7.616-2.511-7.616c-1.003,0-1.753,0.603-2.252,1.003l-0.455,0.449V294.5z"/>
		<path clip-path="url(#SVGID_2_)" fill="#F8AA95" d="M330.689,283.118h-3.31v-5.716h3.31v-2.805c0-6.165,3.058-8.423,8.422-8.423
			c1.6,0,2.806,0.154,4.11,0.302v6.214c-0.449-0.099-1.052-0.197-1.508-0.197c-2.055,0-2.903,0.646-2.903,2.153v2.756h4.411v5.716
			h-4.411v19.447h-8.121V283.118z"/>
		<path clip-path="url(#SVGID_2_)" fill="#F5846D" d="M296.256,225.743h8.127v11.978h0.099c1.156-1.206,3.254-2.055,4.909-2.055
			c5.617,0,8.625,5.617,8.625,12.883c0,5.765-2.405,13.185-9.222,13.185c-3.156,0-5.217-1.502-6.816-3.913l-1.508,3.617h-4.214
			V225.743z M304.383,253.36c-0.154,2.109,1.102,3.267,2.651,3.267c2.258,0,2.56-2.265,2.56-6.922v-1.907
			c0-5.008,0-7.616-2.51-7.616c-0.997,0-1.754,0.597-2.252,1.003l-0.449,0.449V253.36z"/>
		<path clip-path="url(#SVGID_2_)" fill="#F6967F" d="M313.358,225.743h8.121v11.978h0.099c1.156-1.206,3.261-2.055,4.916-2.055
			c5.616,0,8.619,5.617,8.619,12.883c0,5.765-2.406,13.185-9.223,13.185c-3.156,0-5.211-1.502-6.816-3.913l-1.508,3.617h-4.208
			V225.743z M321.479,253.36c-0.147,2.109,1.107,3.267,2.658,3.267c2.251,0,2.56-2.265,2.56-6.922v-1.907
			c0-5.008,0-7.616-2.511-7.616c-1.003,0-1.753,0.597-2.252,1.003l-0.455,0.449V253.36z"/>
		<path clip-path="url(#SVGID_2_)" fill="#F8AA95" d="M330.689,241.984h-3.31v-5.715h3.31v-2.806c0-6.165,3.058-8.423,8.422-8.423
			c1.6,0,2.806,0.147,4.11,0.296v6.22c-0.449-0.104-1.052-0.203-1.508-0.203c-2.055,0-2.903,0.658-2.903,2.159v2.757h4.411v5.715
			h-4.411v19.453h-8.121V241.984z"/>
		<path clip-path="url(#SVGID_2_)" fill="#F5846D" d="M296.256,184.615h8.127v11.979h0.099c1.156-1.2,3.254-2.055,4.909-2.055
			c5.617,0,8.625,5.61,8.625,12.882c0,5.759-2.405,13.179-9.222,13.179c-3.156,0-5.217-1.501-6.816-3.907l-1.508,3.605h-4.214
			V184.615z M304.383,212.232c-0.154,2.104,1.102,3.255,2.651,3.255c2.258,0,2.56-2.258,2.56-6.915v-1.907
			c0-5.015,0-7.617-2.51-7.617c-0.997,0-1.754,0.604-2.252,1.003l-0.449,0.449V212.232z"/>
		<path clip-path="url(#SVGID_2_)" fill="#F6967F" d="M313.358,184.615h8.121v11.979h0.099c1.156-1.2,3.261-2.055,4.916-2.055
			c5.616,0,8.619,5.61,8.619,12.882c0,5.759-2.406,13.179-9.223,13.179c-3.156,0-5.211-1.501-6.816-3.907l-1.508,3.605h-4.208
			V184.615z M321.479,212.232c-0.147,2.104,1.107,3.255,2.658,3.255c2.251,0,2.56-2.258,2.56-6.915v-1.907
			c0-5.015,0-7.617-2.511-7.617c-1.003,0-1.753,0.604-2.252,1.003l-0.455,0.449V212.232z"/>
		<path clip-path="url(#SVGID_2_)" fill="#F8AA95" d="M330.689,200.851h-3.31v-5.709h3.31v-2.806c0-6.164,3.058-8.422,8.422-8.422
			c1.6,0,2.806,0.147,4.11,0.295v6.22c-0.449-0.104-1.052-0.203-1.508-0.203c-2.055,0-2.903,0.652-2.903,2.16v2.756h4.411v5.709
			h-4.411v19.447h-8.121V200.851z"/>
		<path clip-path="url(#SVGID_2_)" fill="#F5846D" d="M151.421,143.48h8.12v11.986h0.099c1.157-1.207,3.261-2.063,4.916-2.063
			c5.617,0,8.625,5.619,8.625,12.891c0,5.765-2.405,13.178-9.228,13.178c-3.156,0-5.218-1.501-6.817-3.907l-1.507,3.605h-4.208
			V143.48z M159.541,171.105c-0.153,2.104,1.102,3.254,2.658,3.254c2.252,0,2.553-2.251,2.553-6.915v-1.907
			c0-5.008,0-7.616-2.504-7.616c-1.002,0-1.753,0.603-2.258,1.003l-0.449,0.449V171.105z"/>
		<path clip-path="url(#SVGID_2_)" fill="#F6967F" d="M168.523,143.48h8.121v11.986h0.099c1.15-1.207,3.261-2.063,4.915-2.063
			c5.611,0,8.619,5.619,8.619,12.891c0,5.765-2.405,13.178-9.222,13.178c-3.162,0-5.217-1.501-6.823-3.907l-1.501,3.605h-4.208
			V143.48z M176.645,171.105c-0.154,2.104,1.102,3.254,2.658,3.254c2.251,0,2.553-2.251,2.553-6.915v-1.907
			c0-5.008,0-7.616-2.504-7.616c-1.003,0-1.754,0.603-2.258,1.003l-0.449,0.449V171.105z"/>
		<path clip-path="url(#SVGID_2_)" fill="#F8AA95" d="M185.849,159.724h-3.304v-5.717h3.304v-2.805c0-6.165,3.058-8.422,8.422-8.422
			c1.605,0,2.812,0.154,4.116,0.301v6.214c-0.455-0.099-1.059-0.197-1.508-0.197c-2.055,0-2.91,0.652-2.91,2.153v2.756h4.418v5.717
			h-4.418v19.447h-8.12V159.724z"/>
		<path clip-path="url(#SVGID_2_)" fill="#FABEAB" d="M206.76,163.384c0-1.002-0.056-2.208-0.4-3.156
			c-0.406-1.003-1.052-1.704-2.355-1.704c-2.714,0-3.009,3.304-3.009,8.317c0,5.667,0.898,7.518,3.009,7.518
			c2.854,0,3.106-2.904,3.106-4.811l6.313,0.898c-0.597,6.122-4.11,9.333-10.022,9.333c-7.321,0-11.129-6.423-11.129-12.637
			c0-6.866,3.808-13.74,11.479-13.74c8.626,0,9.924,7.471,9.924,9.98H206.76z"/>
		<path clip-path="url(#SVGID_2_)" fill="#FCD3C4" d="M210.217,163.402c1.797,0,3.268,1.471,3.268,3.273
			c0,1.796-1.471,3.273-3.268,3.273c-1.809,0-3.272-1.477-3.272-3.273C206.944,164.873,208.408,163.402,210.217,163.402z"/>
		<path clip-path="url(#SVGID_2_)" fill="#F5846D" d="M79.227,143.48h8.12v11.986h0.099c1.156-1.207,3.261-2.063,4.916-2.063
			c5.613,0,8.623,5.619,8.623,12.891c0,5.765-2.406,13.178-9.227,13.178c-3.156,0-5.214-1.501-6.816-3.907l-1.504,3.605h-4.211
			V143.48z M87.347,171.105c-0.15,2.104,1.104,3.254,2.658,3.254c2.255,0,2.556-2.251,2.556-6.915v-1.907
			c0-5.008,0-7.616-2.507-7.616c-0.999,0-1.753,0.603-2.255,1.003l-0.452,0.449V171.105z"/>
		<path clip-path="url(#SVGID_2_)" fill="#F6967F" d="M96.326,143.48h8.122v11.986h0.099c1.15-1.207,3.261-2.063,4.916-2.063
			c5.61,0,8.619,5.619,8.619,12.891c0,5.765-2.406,13.178-9.223,13.178c-3.162,0-5.217-1.501-6.822-3.907l-1.501,3.605h-4.21V143.48
			z M104.448,171.105c-0.153,2.104,1.102,3.254,2.658,3.254c2.251,0,2.553-2.251,2.553-6.915v-1.907c0-5.008,0-7.616-2.504-7.616
			c-1.003,0-1.753,0.603-2.258,1.003l-0.449,0.449V171.105z"/>
		<path clip-path="url(#SVGID_2_)" fill="#F8AA95" d="M113.652,159.724h-3.304v-5.717h3.304v-2.805c0-6.165,3.058-8.422,8.422-8.422
			c1.606,0,2.812,0.154,4.116,0.301v6.214c-0.455-0.099-1.059-0.197-1.507-0.197c-2.056,0-2.91,0.652-2.91,2.153v2.756h4.417v5.717
			h-4.417v19.447h-8.121V159.724z"/>
		<path clip-path="url(#SVGID_2_)" fill="#FABEAB" d="M134.563,163.384c0-1.002-0.056-2.208-0.399-3.156
			c-0.406-1.003-1.053-1.704-2.356-1.704c-2.714,0-3.009,3.304-3.009,8.317c0,5.667,0.898,7.518,3.009,7.518
			c2.854,0,3.106-2.904,3.106-4.811l6.313,0.898c-0.597,6.122-4.109,9.333-10.022,9.333c-7.321,0-11.129-6.423-11.129-12.637
			c0-6.866,3.808-13.74,11.479-13.74c8.626,0,9.924,7.471,9.924,9.98H134.563z"/>
		<path clip-path="url(#SVGID_2_)" fill="#FCD3C4" d="M138.021,163.402c1.796,0,3.267,1.471,3.267,3.273
			c0,1.796-1.471,3.273-3.267,3.273c-1.81,0-3.273-1.477-3.273-3.273C134.748,164.873,136.212,163.402,138.021,163.402z"/>
		<path clip-path="url(#SVGID_2_)" fill="#F6967F" d="M24.133,143.48h8.124v11.986h0.099c1.15-1.207,3.258-2.063,4.912-2.063
			c5.614,0,8.619,5.619,8.619,12.891c0,5.765-2.405,13.178-9.222,13.178c-3.159,0-5.214-1.501-6.819-3.907l-1.502,3.605h-4.211
			V143.48z M32.257,171.105c-0.153,2.104,1.102,3.254,2.655,3.254c2.254,0,2.556-2.251,2.556-6.915v-1.907
			c0-5.008,0-7.616-2.507-7.616c-1.006,0-1.757,0.603-2.255,1.003l-0.449,0.449V171.105z"/>
		<path clip-path="url(#SVGID_2_)" fill="#F8AA95" d="M41.461,159.724h-3.307v-5.717h3.307v-2.805c0-6.165,3.058-8.422,8.422-8.422
			c1.606,0,2.809,0.154,4.11,0.301v6.214c-0.449-0.099-1.053-0.197-1.501-0.197c-2.059,0-2.91,0.652-2.91,2.153v2.756h4.411v5.717
			h-4.411v19.447h-8.121V159.724z"/>
		<path clip-path="url(#SVGID_2_)" fill="#FABEAB" d="M62.372,163.384c0-1.002-0.056-2.208-0.403-3.156
			c-0.402-1.003-1.055-1.704-2.355-1.704c-2.711,0-3.009,3.304-3.009,8.317c0,5.667,0.901,7.518,3.009,7.518
			c2.857,0,3.106-2.904,3.106-4.811l6.315,0.898c-0.6,6.122-4.109,9.333-10.025,9.333c-7.318,0-11.126-6.423-11.126-12.637
			c0-6.866,3.808-13.74,11.479-13.74c8.623,0,9.924,7.471,9.924,9.98H62.372z"/>
		<path clip-path="url(#SVGID_2_)" fill="#FCD3C4" d="M65.826,163.402c1.8,0,3.271,1.471,3.271,3.273
			c0,1.796-1.471,3.273-3.271,3.273c-1.806,0-3.27-1.477-3.27-3.273C62.557,164.873,64.021,163.402,65.826,163.402z"/>
		<path clip-path="url(#SVGID_2_)" fill="#F5846D" d="M223.616,143.48h8.121v11.986h0.099c1.156-1.207,3.261-2.063,4.916-2.063
			c5.616,0,8.625,5.619,8.625,12.891c0,5.765-2.412,13.178-9.229,13.178c-3.156,0-5.211-1.501-6.816-3.907l-1.501,3.605h-4.215
			V143.48z M231.737,171.105c-0.147,2.104,1.102,3.254,2.658,3.254c2.251,0,2.56-2.251,2.56-6.915v-1.907
			c0-5.008,0-7.616-2.511-7.616c-1.003,0-1.753,0.603-2.258,1.003l-0.449,0.449V171.105z"/>
		<path clip-path="url(#SVGID_2_)" fill="#F6967F" d="M240.72,143.48h8.121v11.986h0.099c1.15-1.207,3.254-2.063,4.915-2.063
			c5.611,0,8.619,5.619,8.619,12.891c0,5.765-2.405,13.178-9.222,13.178c-3.162,0-5.217-1.501-6.823-3.907l-1.501,3.605h-4.208
			V143.48z M248.841,171.105c-0.154,2.104,1.101,3.254,2.651,3.254c2.258,0,2.56-2.251,2.56-6.915v-1.907
			c0-5.008,0-7.616-2.504-7.616c-1.009,0-1.76,0.603-2.258,1.003l-0.449,0.449V171.105z"/>
		<path clip-path="url(#SVGID_2_)" fill="#F8AA95" d="M258.044,159.724h-3.304v-5.717h3.304v-2.805c0-6.165,3.058-8.422,8.423-8.422
			c1.605,0,2.806,0.154,4.109,0.301v6.214c-0.449-0.099-1.052-0.197-1.501-0.197c-2.055,0-2.91,0.652-2.91,2.153v2.756h4.411v5.717
			h-4.411v19.447h-8.121V159.724z"/>
		<path clip-path="url(#SVGID_2_)" fill="#FABEAB" d="M278.956,163.384c0-1.002-0.056-2.208-0.4-3.156
			c-0.406-1.003-1.058-1.704-2.362-1.704c-2.707,0-3.002,3.304-3.002,8.317c0,5.667,0.897,7.518,3.002,7.518
			c2.86,0,3.106-2.904,3.106-4.811l6.318,0.898c-0.597,6.122-4.109,9.333-10.021,9.333c-7.321,0-11.13-6.423-11.13-12.637
			c0-6.866,3.809-13.74,11.48-13.74c8.619,0,9.924,7.471,9.924,9.98H278.956z"/>
		<path clip-path="url(#SVGID_2_)" fill="#FCD3C4" d="M282.413,163.402c1.797,0,3.267,1.471,3.267,3.273
			c0,1.796-1.47,3.273-3.267,3.273c-1.809,0-3.272-1.477-3.272-3.273C279.141,164.873,280.604,163.402,282.413,163.402z"/>
		<path clip-path="url(#SVGID_2_)" fill="#F5846D" d="M296.256,143.48h8.127v11.986h0.099c1.156-1.207,3.254-2.063,4.909-2.063
			c5.617,0,8.625,5.619,8.625,12.891c0,5.765-2.405,13.178-9.222,13.178c-3.156,0-5.217-1.501-6.816-3.907l-1.508,3.605h-4.214
			V143.48z M304.383,171.105c-0.154,2.104,1.102,3.254,2.651,3.254c2.258,0,2.56-2.251,2.56-6.915v-1.907
			c0-5.008,0-7.616-2.51-7.616c-0.997,0-1.754,0.603-2.252,1.003l-0.449,0.449V171.105z"/>
		<path clip-path="url(#SVGID_2_)" fill="#F6967F" d="M313.358,143.48h8.121v11.986h0.099c1.156-1.207,3.261-2.063,4.916-2.063
			c5.616,0,8.619,5.619,8.619,12.891c0,5.765-2.406,13.178-9.223,13.178c-3.156,0-5.211-1.501-6.816-3.907l-1.508,3.605h-4.208
			V143.48z M321.479,171.105c-0.147,2.104,1.107,3.254,2.658,3.254c2.251,0,2.56-2.251,2.56-6.915v-1.907
			c0-5.008,0-7.616-2.511-7.616c-1.003,0-1.753,0.603-2.252,1.003l-0.455,0.449V171.105z"/>
		<path clip-path="url(#SVGID_2_)" fill="#F8AA95" d="M330.689,159.724h-3.31v-5.717h3.31v-2.805c0-6.165,3.058-8.422,8.422-8.422
			c1.6,0,2.806,0.154,4.11,0.301v6.214c-0.449-0.099-1.052-0.197-1.508-0.197c-2.055,0-2.903,0.652-2.903,2.153v2.756h4.411v5.717
			h-4.411v19.447h-8.121V159.724z"/>
		<path clip-path="url(#SVGID_2_)" fill="#F5846D" d="M151.421,102.347h8.12v11.984h0.099c1.157-1.206,3.261-2.055,4.916-2.055
			c5.617,0,8.625,5.61,8.625,12.882c0,5.765-2.405,13.178-9.228,13.178c-3.156,0-5.218-1.501-6.817-3.907l-1.507,3.611h-4.208
			V102.347z M159.541,129.97c-0.153,2.104,1.102,3.261,2.658,3.261c2.252,0,2.553-2.258,2.553-6.921v-1.907
			c0-5.008,0-7.617-2.504-7.617c-1.002,0-1.753,0.603-2.258,1.003l-0.449,0.449V129.97z"/>
		<path clip-path="url(#SVGID_2_)" fill="#F6967F" d="M168.523,102.347h8.121v11.984h0.099c1.15-1.206,3.261-2.055,4.915-2.055
			c5.611,0,8.619,5.61,8.619,12.882c0,5.765-2.405,13.178-9.222,13.178c-3.162,0-5.217-1.501-6.823-3.907l-1.501,3.611h-4.208
			V102.347z M176.645,129.97c-0.154,2.104,1.102,3.261,2.658,3.261c2.251,0,2.553-2.258,2.553-6.921v-1.907
			c0-5.008,0-7.617-2.504-7.617c-1.003,0-1.754,0.603-2.258,1.003l-0.449,0.449V129.97z"/>
		<path clip-path="url(#SVGID_2_)" fill="#F8AA95" d="M185.849,118.588h-3.304v-5.715h3.304v-2.806c0-6.165,3.058-8.422,8.422-8.422
			c1.605,0,2.812,0.154,4.116,0.301v6.214c-0.455-0.098-1.059-0.197-1.508-0.197c-2.055,0-2.91,0.652-2.91,2.153v2.756h4.418v5.715
			h-4.418v19.453h-8.12V118.588z"/>
		<path clip-path="url(#SVGID_2_)" fill="#FABEAB" d="M206.76,122.249c0-1.003-0.056-2.203-0.4-3.156
			c-0.406-1.003-1.052-1.704-2.355-1.704c-2.714,0-3.009,3.304-3.009,8.318c0,5.666,0.898,7.524,3.009,7.524
			c2.854,0,3.106-2.91,3.106-4.817l6.313,0.905c-0.597,6.115-4.11,9.327-10.022,9.327c-7.321,0-11.129-6.423-11.129-12.637
			c0-6.866,3.808-13.731,11.479-13.731c8.626,0,9.924,7.462,9.924,9.973H206.76z"/>
		<path clip-path="url(#SVGID_2_)" fill="#FCD3C4" d="M210.217,122.267c1.797,0,3.268,1.471,3.268,3.273
			c0,1.797-1.471,3.273-3.268,3.273c-1.809,0-3.272-1.477-3.272-3.273C206.944,123.738,208.408,122.267,210.217,122.267z"/>
		<path clip-path="url(#SVGID_2_)" fill="#F5846D" d="M79.227,102.347h8.12v11.984h0.099c1.156-1.206,3.261-2.055,4.916-2.055
			c5.613,0,8.623,5.61,8.623,12.882c0,5.765-2.406,13.178-9.227,13.178c-3.156,0-5.214-1.501-6.816-3.907l-1.504,3.611h-4.211
			V102.347z M87.347,129.97c-0.15,2.104,1.104,3.261,2.658,3.261c2.255,0,2.556-2.258,2.556-6.921v-1.907
			c0-5.008,0-7.617-2.507-7.617c-0.999,0-1.753,0.603-2.255,1.003l-0.452,0.449V129.97z"/>
		<path clip-path="url(#SVGID_2_)" fill="#F6967F" d="M96.326,102.347h8.122v11.984h0.099c1.15-1.206,3.261-2.055,4.916-2.055
			c5.61,0,8.619,5.61,8.619,12.882c0,5.765-2.406,13.178-9.223,13.178c-3.162,0-5.217-1.501-6.822-3.907l-1.501,3.611h-4.21V102.347
			z M104.448,129.97c-0.153,2.104,1.102,3.261,2.658,3.261c2.251,0,2.553-2.258,2.553-6.921v-1.907c0-5.008,0-7.617-2.504-7.617
			c-1.003,0-1.753,0.603-2.258,1.003l-0.449,0.449V129.97z"/>
		<path clip-path="url(#SVGID_2_)" fill="#F8AA95" d="M113.652,118.588h-3.304v-5.715h3.304v-2.806c0-6.165,3.058-8.422,8.422-8.422
			c1.606,0,2.812,0.154,4.116,0.301v6.214c-0.455-0.098-1.059-0.197-1.507-0.197c-2.056,0-2.91,0.652-2.91,2.153v2.756h4.417v5.715
			h-4.417v19.453h-8.121V118.588z"/>
		<path clip-path="url(#SVGID_2_)" fill="#FABEAB" d="M134.563,122.249c0-1.003-0.056-2.203-0.399-3.156
			c-0.406-1.003-1.053-1.704-2.356-1.704c-2.714,0-3.009,3.304-3.009,8.318c0,5.666,0.898,7.524,3.009,7.524
			c2.854,0,3.106-2.91,3.106-4.817l6.313,0.905c-0.597,6.115-4.109,9.327-10.022,9.327c-7.321,0-11.129-6.423-11.129-12.637
			c0-6.866,3.808-13.731,11.479-13.731c8.626,0,9.924,7.462,9.924,9.973H134.563z"/>
		<path clip-path="url(#SVGID_2_)" fill="#FCD3C4" d="M138.021,122.267c1.796,0,3.267,1.471,3.267,3.273
			c0,1.797-1.471,3.273-3.267,3.273c-1.81,0-3.273-1.477-3.273-3.273C134.748,123.738,136.212,122.267,138.021,122.267z"/>
		<path clip-path="url(#SVGID_2_)" fill="#F6967F" d="M24.133,102.347h8.124v11.984h0.099c1.15-1.206,3.258-2.055,4.912-2.055
			c5.614,0,8.619,5.61,8.619,12.882c0,5.765-2.405,13.178-9.222,13.178c-3.159,0-5.214-1.501-6.819-3.907l-1.502,3.611h-4.211
			V102.347z M32.257,129.97c-0.153,2.104,1.102,3.261,2.655,3.261c2.254,0,2.556-2.258,2.556-6.921v-1.907
			c0-5.008,0-7.617-2.507-7.617c-1.006,0-1.757,0.603-2.255,1.003l-0.449,0.449V129.97z"/>
		<path clip-path="url(#SVGID_2_)" fill="#F8AA95" d="M41.461,118.588h-3.307v-5.715h3.307v-2.806c0-6.165,3.058-8.422,8.422-8.422
			c1.606,0,2.809,0.154,4.11,0.301v6.214c-0.449-0.098-1.053-0.197-1.501-0.197c-2.059,0-2.91,0.652-2.91,2.153v2.756h4.411v5.715
			h-4.411v19.453h-8.121V118.588z"/>
		<path clip-path="url(#SVGID_2_)" fill="#FABEAB" d="M62.372,122.249c0-1.003-0.056-2.203-0.403-3.156
			c-0.402-1.003-1.055-1.704-2.355-1.704c-2.711,0-3.009,3.304-3.009,8.318c0,5.666,0.901,7.524,3.009,7.524
			c2.857,0,3.106-2.91,3.106-4.817l6.315,0.905c-0.6,6.115-4.109,9.327-10.025,9.327c-7.318,0-11.126-6.423-11.126-12.637
			c0-6.866,3.808-13.731,11.479-13.731c8.623,0,9.924,7.462,9.924,9.973H62.372z"/>
		<path clip-path="url(#SVGID_2_)" fill="#FCD3C4" d="M65.826,122.267c1.8,0,3.271,1.471,3.271,3.273
			c0,1.797-1.471,3.273-3.271,3.273c-1.806,0-3.27-1.477-3.27-3.273C62.557,123.738,64.021,122.267,65.826,122.267z"/>
		<path clip-path="url(#SVGID_2_)" fill="#F5846D" d="M223.616,102.347h8.121v11.984h0.099c1.156-1.206,3.261-2.055,4.916-2.055
			c5.616,0,8.625,5.61,8.625,12.882c0,5.765-2.412,13.178-9.229,13.178c-3.156,0-5.211-1.501-6.816-3.907l-1.501,3.611h-4.215
			V102.347z M231.737,129.97c-0.147,2.104,1.102,3.261,2.658,3.261c2.251,0,2.56-2.258,2.56-6.921v-1.907
			c0-5.008,0-7.617-2.511-7.617c-1.003,0-1.753,0.603-2.258,1.003l-0.449,0.449V129.97z"/>
		<path clip-path="url(#SVGID_2_)" fill="#F6967F" d="M240.72,102.347h8.121v11.984h0.099c1.15-1.206,3.254-2.055,4.915-2.055
			c5.611,0,8.619,5.61,8.619,12.882c0,5.765-2.405,13.178-9.222,13.178c-3.162,0-5.217-1.501-6.823-3.907l-1.501,3.611h-4.208
			V102.347z M248.841,129.97c-0.154,2.104,1.101,3.261,2.651,3.261c2.258,0,2.56-2.258,2.56-6.921v-1.907
			c0-5.008,0-7.617-2.504-7.617c-1.009,0-1.76,0.603-2.258,1.003l-0.449,0.449V129.97z"/>
		<path clip-path="url(#SVGID_2_)" fill="#F8AA95" d="M258.044,118.588h-3.304v-5.715h3.304v-2.806c0-6.165,3.058-8.422,8.423-8.422
			c1.605,0,2.806,0.154,4.109,0.301v6.214c-0.449-0.098-1.052-0.197-1.501-0.197c-2.055,0-2.91,0.652-2.91,2.153v2.756h4.411v5.715
			h-4.411v19.453h-8.121V118.588z"/>
		<path clip-path="url(#SVGID_2_)" fill="#FABEAB" d="M278.956,122.249c0-1.003-0.056-2.203-0.4-3.156
			c-0.406-1.003-1.058-1.704-2.362-1.704c-2.707,0-3.002,3.304-3.002,8.318c0,5.666,0.897,7.524,3.002,7.524
			c2.86,0,3.106-2.91,3.106-4.817l6.318,0.905c-0.597,6.115-4.109,9.327-10.021,9.327c-7.321,0-11.13-6.423-11.13-12.637
			c0-6.866,3.809-13.731,11.48-13.731c8.619,0,9.924,7.462,9.924,9.973H278.956z"/>
		<path clip-path="url(#SVGID_2_)" fill="#FCD3C4" d="M282.413,122.267c1.797,0,3.267,1.471,3.267,3.273
			c0,1.797-1.47,3.273-3.267,3.273c-1.809,0-3.272-1.477-3.272-3.273C279.141,123.738,280.604,122.267,282.413,122.267z"/>
		<path clip-path="url(#SVGID_2_)" fill="#F5846D" d="M296.256,102.347h8.127v11.984h0.099c1.156-1.206,3.254-2.055,4.909-2.055
			c5.617,0,8.625,5.61,8.625,12.882c0,5.765-2.405,13.178-9.222,13.178c-3.156,0-5.217-1.501-6.816-3.907l-1.508,3.611h-4.214
			V102.347z M304.383,129.97c-0.154,2.104,1.102,3.261,2.651,3.261c2.258,0,2.56-2.258,2.56-6.921v-1.907
			c0-5.008,0-7.617-2.51-7.617c-0.997,0-1.754,0.603-2.252,1.003l-0.449,0.449V129.97z"/>
		<path clip-path="url(#SVGID_2_)" fill="#F6967F" d="M313.358,102.347h8.121v11.984h0.099c1.156-1.206,3.261-2.055,4.916-2.055
			c5.616,0,8.619,5.61,8.619,12.882c0,5.765-2.406,13.178-9.223,13.178c-3.156,0-5.211-1.501-6.816-3.907l-1.508,3.611h-4.208
			V102.347z M321.479,129.97c-0.147,2.104,1.107,3.261,2.658,3.261c2.251,0,2.56-2.258,2.56-6.921v-1.907
			c0-5.008,0-7.617-2.511-7.617c-1.003,0-1.753,0.603-2.252,1.003l-0.455,0.449V129.97z"/>
		<path clip-path="url(#SVGID_2_)" fill="#F8AA95" d="M330.689,118.588h-3.31v-5.715h3.31v-2.806c0-6.165,3.058-8.422,8.422-8.422
			c1.6,0,2.806,0.154,4.11,0.301v6.214c-0.449-0.098-1.052-0.197-1.508-0.197c-2.055,0-2.903,0.652-2.903,2.153v2.756h4.411v5.715
			h-4.411v19.453h-8.121V118.588z"/>
		<path clip-path="url(#SVGID_2_)" fill="#F5846D" d="M151.421,61.213h8.12v11.984h0.099c1.157-1.206,3.261-2.055,4.916-2.055
			c5.617,0,8.625,5.611,8.625,12.883c0,5.765-2.405,13.184-9.228,13.184c-3.156,0-5.218-1.501-6.817-3.913l-1.507,3.611h-4.208
			V61.213z M159.541,88.836c-0.153,2.104,1.102,3.26,2.658,3.26c2.252,0,2.553-2.258,2.553-6.921v-1.907
			c0-5.008,0-7.617-2.504-7.617c-1.002,0-1.753,0.603-2.258,1.003l-0.449,0.449V88.836z"/>
		<path clip-path="url(#SVGID_2_)" fill="#F6967F" d="M168.523,61.213h8.121v11.984h0.099c1.15-1.206,3.261-2.055,4.915-2.055
			c5.611,0,8.619,5.611,8.619,12.883c0,5.765-2.405,13.184-9.222,13.184c-3.162,0-5.217-1.501-6.823-3.913l-1.501,3.611h-4.208
			V61.213z M176.645,88.836c-0.154,2.104,1.102,3.26,2.658,3.26c2.251,0,2.553-2.258,2.553-6.921v-1.907
			c0-5.008,0-7.617-2.504-7.617c-1.003,0-1.754,0.603-2.258,1.003l-0.449,0.449V88.836z"/>
		<path clip-path="url(#SVGID_2_)" fill="#F8AA95" d="M185.849,77.455h-3.304v-5.715h3.304v-2.806c0-6.164,3.058-8.422,8.422-8.422
			c1.605,0,2.812,0.153,4.116,0.301v6.214c-0.455-0.099-1.059-0.197-1.508-0.197c-2.055,0-2.91,0.652-2.91,2.153v2.756h4.418v5.715
			h-4.418v19.453h-8.12V77.455z"/>
		<path clip-path="url(#SVGID_2_)" fill="#FABEAB" d="M206.76,81.115c0-1.003-0.056-2.203-0.4-3.156
			c-0.406-1.003-1.052-1.704-2.355-1.704c-2.714,0-3.009,3.304-3.009,8.318c0,5.666,0.898,7.524,3.009,7.524
			c2.854,0,3.106-2.91,3.106-4.817l6.313,0.904c-0.597,6.115-4.11,9.327-10.022,9.327c-7.321,0-11.129-6.423-11.129-12.637
			c0-6.866,3.808-13.731,11.479-13.731c8.626,0,9.924,7.462,9.924,9.973H206.76z"/>
		<path clip-path="url(#SVGID_2_)" fill="#FCD3C4" d="M210.217,81.134c1.797,0,3.268,1.47,3.268,3.273
			c0,1.796-1.471,3.273-3.268,3.273c-1.809,0-3.272-1.477-3.272-3.273C206.944,82.604,208.408,81.134,210.217,81.134z"/>
		<path clip-path="url(#SVGID_2_)" fill="#F5846D" d="M79.227,61.213h8.12v11.984h0.099c1.156-1.206,3.261-2.055,4.916-2.055
			c5.613,0,8.623,5.611,8.623,12.883c0,5.765-2.406,13.184-9.227,13.184c-3.156,0-5.214-1.501-6.816-3.913l-1.504,3.611h-4.211
			V61.213z M87.347,88.836c-0.15,2.104,1.104,3.26,2.658,3.26c2.255,0,2.556-2.258,2.556-6.921v-1.907c0-5.008,0-7.617-2.507-7.617
			c-0.999,0-1.753,0.603-2.255,1.003l-0.452,0.449V88.836z"/>
		<path clip-path="url(#SVGID_2_)" fill="#F6967F" d="M96.326,61.213h8.122v11.984h0.099c1.15-1.206,3.261-2.055,4.916-2.055
			c5.61,0,8.619,5.611,8.619,12.883c0,5.765-2.406,13.184-9.223,13.184c-3.162,0-5.217-1.501-6.822-3.913l-1.501,3.611h-4.21V61.213
			z M104.448,88.836c-0.153,2.104,1.102,3.26,2.658,3.26c2.251,0,2.553-2.258,2.553-6.921v-1.907c0-5.008,0-7.617-2.504-7.617
			c-1.003,0-1.753,0.603-2.258,1.003l-0.449,0.449V88.836z"/>
		<path clip-path="url(#SVGID_2_)" fill="#F8AA95" d="M113.652,77.455h-3.304v-5.715h3.304v-2.806c0-6.164,3.058-8.422,8.422-8.422
			c1.606,0,2.812,0.153,4.116,0.301v6.214c-0.455-0.099-1.059-0.197-1.507-0.197c-2.056,0-2.91,0.652-2.91,2.153v2.756h4.417v5.715
			h-4.417v19.453h-8.121V77.455z"/>
		<path clip-path="url(#SVGID_2_)" fill="#FABEAB" d="M134.563,81.115c0-1.003-0.056-2.203-0.399-3.156
			c-0.406-1.003-1.053-1.704-2.356-1.704c-2.714,0-3.009,3.304-3.009,8.318c0,5.666,0.898,7.524,3.009,7.524
			c2.854,0,3.106-2.91,3.106-4.817l6.313,0.904c-0.597,6.115-4.109,9.327-10.022,9.327c-7.321,0-11.129-6.423-11.129-12.637
			c0-6.866,3.808-13.731,11.479-13.731c8.626,0,9.924,7.462,9.924,9.973H134.563z"/>
		<path clip-path="url(#SVGID_2_)" fill="#FCD3C4" d="M138.021,81.134c1.796,0,3.267,1.47,3.267,3.273
			c0,1.796-1.471,3.273-3.267,3.273c-1.81,0-3.273-1.477-3.273-3.273C134.748,82.604,136.212,81.134,138.021,81.134z"/>
		<path clip-path="url(#SVGID_2_)" fill="#F6967F" d="M24.133,61.213h8.124v11.984h0.099c1.15-1.206,3.258-2.055,4.912-2.055
			c5.614,0,8.619,5.611,8.619,12.883c0,5.765-2.405,13.184-9.222,13.184c-3.159,0-5.214-1.501-6.819-3.913l-1.502,3.611h-4.211
			V61.213z M32.257,88.836c-0.153,2.104,1.102,3.26,2.655,3.26c2.254,0,2.556-2.258,2.556-6.921v-1.907c0-5.008,0-7.617-2.507-7.617
			c-1.006,0-1.757,0.603-2.255,1.003l-0.449,0.449V88.836z"/>
		<path clip-path="url(#SVGID_2_)" fill="#F8AA95" d="M41.461,77.455h-3.307v-5.715h3.307v-2.806c0-6.164,3.058-8.422,8.422-8.422
			c1.606,0,2.809,0.153,4.11,0.301v6.214c-0.449-0.099-1.053-0.197-1.501-0.197c-2.059,0-2.91,0.652-2.91,2.153v2.756h4.411v5.715
			h-4.411v19.453h-8.121V77.455z"/>
		<path clip-path="url(#SVGID_2_)" fill="#FABEAB" d="M62.372,81.115c0-1.003-0.056-2.203-0.403-3.156
			c-0.402-1.003-1.055-1.704-2.355-1.704c-2.711,0-3.009,3.304-3.009,8.318c0,5.666,0.901,7.524,3.009,7.524
			c2.857,0,3.106-2.91,3.106-4.817l6.315,0.904c-0.6,6.115-4.109,9.327-10.025,9.327c-7.318,0-11.126-6.423-11.126-12.637
			c0-6.866,3.808-13.731,11.479-13.731c8.623,0,9.924,7.462,9.924,9.973H62.372z"/>
		<path clip-path="url(#SVGID_2_)" fill="#FCD3C4" d="M65.826,81.134c1.8,0,3.271,1.47,3.271,3.273c0,1.796-1.471,3.273-3.271,3.273
			c-1.806,0-3.27-1.477-3.27-3.273C62.557,82.604,64.021,81.134,65.826,81.134z"/>
		<path clip-path="url(#SVGID_2_)" fill="#F5846D" d="M223.616,61.213h8.121v11.984h0.099c1.156-1.206,3.261-2.055,4.916-2.055
			c5.616,0,8.625,5.611,8.625,12.883c0,5.765-2.412,13.184-9.229,13.184c-3.156,0-5.211-1.501-6.816-3.913l-1.501,3.611h-4.215
			V61.213z M231.737,88.836c-0.147,2.104,1.102,3.26,2.658,3.26c2.251,0,2.56-2.258,2.56-6.921v-1.907c0-5.008,0-7.617-2.511-7.617
			c-1.003,0-1.753,0.603-2.258,1.003l-0.449,0.449V88.836z"/>
		<path clip-path="url(#SVGID_2_)" fill="#F6967F" d="M240.72,61.213h8.121v11.984h0.099c1.15-1.206,3.254-2.055,4.915-2.055
			c5.611,0,8.619,5.611,8.619,12.883c0,5.765-2.405,13.184-9.222,13.184c-3.162,0-5.217-1.501-6.823-3.913l-1.501,3.611h-4.208
			V61.213z M248.841,88.836c-0.154,2.104,1.101,3.26,2.651,3.26c2.258,0,2.56-2.258,2.56-6.921v-1.907c0-5.008,0-7.617-2.504-7.617
			c-1.009,0-1.76,0.603-2.258,1.003l-0.449,0.449V88.836z"/>
		<path clip-path="url(#SVGID_2_)" fill="#F8AA95" d="M258.044,77.455h-3.304v-5.715h3.304v-2.806c0-6.164,3.058-8.422,8.423-8.422
			c1.605,0,2.806,0.153,4.109,0.301v6.214c-0.449-0.099-1.052-0.197-1.501-0.197c-2.055,0-2.91,0.652-2.91,2.153v2.756h4.411v5.715
			h-4.411v19.453h-8.121V77.455z"/>
		<path clip-path="url(#SVGID_2_)" fill="#FABEAB" d="M278.956,81.115c0-1.003-0.056-2.203-0.4-3.156
			c-0.406-1.003-1.058-1.704-2.362-1.704c-2.707,0-3.002,3.304-3.002,8.318c0,5.666,0.897,7.524,3.002,7.524
			c2.86,0,3.106-2.91,3.106-4.817l6.318,0.904c-0.597,6.115-4.109,9.327-10.021,9.327c-7.321,0-11.13-6.423-11.13-12.637
			c0-6.866,3.809-13.731,11.48-13.731c8.619,0,9.924,7.462,9.924,9.973H278.956z"/>
		<path clip-path="url(#SVGID_2_)" fill="#FCD3C4" d="M282.413,81.134c1.797,0,3.267,1.47,3.267,3.273
			c0,1.796-1.47,3.273-3.267,3.273c-1.809,0-3.272-1.477-3.272-3.273C279.141,82.604,280.604,81.134,282.413,81.134z"/>
		<path clip-path="url(#SVGID_2_)" fill="#F5846D" d="M296.256,61.213h8.127v11.984h0.099c1.156-1.206,3.254-2.055,4.909-2.055
			c5.617,0,8.625,5.611,8.625,12.883c0,5.765-2.405,13.184-9.222,13.184c-3.156,0-5.217-1.501-6.816-3.913l-1.508,3.611h-4.214
			V61.213z M304.383,88.836c-0.154,2.104,1.102,3.26,2.651,3.26c2.258,0,2.56-2.258,2.56-6.921v-1.907c0-5.008,0-7.617-2.51-7.617
			c-0.997,0-1.754,0.603-2.252,1.003l-0.449,0.449V88.836z"/>
		<path clip-path="url(#SVGID_2_)" fill="#F6967F" d="M313.358,61.213h8.121v11.984h0.099c1.156-1.206,3.261-2.055,4.916-2.055
			c5.616,0,8.619,5.611,8.619,12.883c0,5.765-2.406,13.184-9.223,13.184c-3.156,0-5.211-1.501-6.816-3.913l-1.508,3.611h-4.208
			V61.213z M321.479,88.836c-0.147,2.104,1.107,3.26,2.658,3.26c2.251,0,2.56-2.258,2.56-6.921v-1.907c0-5.008,0-7.617-2.511-7.617
			c-1.003,0-1.753,0.603-2.252,1.003l-0.455,0.449V88.836z"/>
		<path clip-path="url(#SVGID_2_)" fill="#F8AA95" d="M330.689,77.455h-3.31v-5.715h3.31v-2.806c0-6.164,3.058-8.422,8.422-8.422
			c1.6,0,2.806,0.153,4.11,0.301v6.214c-0.449-0.099-1.052-0.197-1.508-0.197c-2.055,0-2.903,0.652-2.903,2.153v2.756h4.411v5.715
			h-4.411v19.453h-8.121V77.455z"/>
		<path clip-path="url(#SVGID_2_)" fill="#F5846D" d="M151.421,20.079h8.12v11.984h0.099c1.157-1.206,3.261-2.055,4.916-2.055
			c5.617,0,8.625,5.611,8.625,12.883c0,5.765-2.405,13.184-9.228,13.184c-3.156,0-5.218-1.501-6.817-3.913l-1.507,3.611h-4.208
			V20.079z M159.541,47.703c-0.153,2.104,1.102,3.261,2.658,3.261c2.252,0,2.553-2.258,2.553-6.921v-1.907
			c0-5.008,0-7.616-2.504-7.616c-1.002,0-1.753,0.603-2.258,1.003l-0.449,0.455V47.703z"/>
		<path clip-path="url(#SVGID_2_)" fill="#F6967F" d="M168.523,20.079h8.121v11.984h0.099c1.15-1.206,3.261-2.055,4.915-2.055
			c5.611,0,8.619,5.611,8.619,12.883c0,5.765-2.405,13.184-9.222,13.184c-3.162,0-5.217-1.501-6.823-3.913l-1.501,3.611h-4.208
			V20.079z M176.645,47.703c-0.154,2.104,1.102,3.261,2.658,3.261c2.251,0,2.553-2.258,2.553-6.921v-1.907
			c0-5.008,0-7.616-2.504-7.616c-1.003,0-1.754,0.603-2.258,1.003l-0.449,0.455V47.703z"/>
		<path clip-path="url(#SVGID_2_)" fill="#F8AA95" d="M185.849,36.321h-3.304v-5.709h3.304V27.8c0-6.165,3.058-8.422,8.422-8.422
			c1.605,0,2.812,0.154,4.116,0.301v6.214c-0.455-0.099-1.059-0.197-1.508-0.197c-2.055,0-2.91,0.652-2.91,2.153v2.762h4.418v5.709
			h-4.418v19.453h-8.12V36.321z"/>
		<path clip-path="url(#SVGID_2_)" fill="#FABEAB" d="M206.76,39.981c0-1.003-0.056-2.202-0.4-3.156
			c-0.406-1.003-1.052-1.705-2.355-1.705c-2.714,0-3.009,3.31-3.009,8.318c0,5.667,0.898,7.524,3.009,7.524
			c2.854,0,3.106-2.91,3.106-4.817l6.313,0.904c-0.597,6.116-4.11,9.327-10.022,9.327c-7.321,0-11.129-6.417-11.129-12.63
			c0-6.872,3.808-13.738,11.479-13.738c8.626,0,9.924,7.463,9.924,9.973H206.76z"/>
		<path clip-path="url(#SVGID_2_)" fill="#FCD3C4" d="M210.217,40c1.797,0,3.268,1.471,3.268,3.273c0,1.796-1.471,3.273-3.268,3.273
			c-1.809,0-3.272-1.477-3.272-3.273C206.944,41.471,208.408,40,210.217,40z"/>
		<path clip-path="url(#SVGID_2_)" fill="#F5846D" d="M79.227,20.079h8.12v11.984h0.099c1.156-1.206,3.261-2.055,4.916-2.055
			c5.613,0,8.623,5.611,8.623,12.883c0,5.765-2.406,13.184-9.227,13.184c-3.156,0-5.214-1.501-6.816-3.913l-1.504,3.611h-4.211
			V20.079z M87.347,47.703c-0.15,2.104,1.104,3.261,2.658,3.261c2.255,0,2.556-2.258,2.556-6.921v-1.907
			c0-5.008,0-7.616-2.507-7.616c-0.999,0-1.753,0.603-2.255,1.003l-0.452,0.455V47.703z"/>
		<path clip-path="url(#SVGID_2_)" fill="#F6967F" d="M96.326,20.079h8.122v11.984h0.099c1.15-1.206,3.261-2.055,4.916-2.055
			c5.61,0,8.619,5.611,8.619,12.883c0,5.765-2.406,13.184-9.223,13.184c-3.162,0-5.217-1.501-6.822-3.913l-1.501,3.611h-4.21V20.079
			z M104.448,47.703c-0.153,2.104,1.102,3.261,2.658,3.261c2.251,0,2.553-2.258,2.553-6.921v-1.907c0-5.008,0-7.616-2.504-7.616
			c-1.003,0-1.753,0.603-2.258,1.003l-0.449,0.455V47.703z"/>
		<path clip-path="url(#SVGID_2_)" fill="#F8AA95" d="M113.652,36.321h-3.304v-5.709h3.304V27.8c0-6.165,3.058-8.422,8.422-8.422
			c1.606,0,2.812,0.154,4.116,0.301v6.214c-0.455-0.099-1.059-0.197-1.507-0.197c-2.056,0-2.91,0.652-2.91,2.153v2.762h4.417v5.709
			h-4.417v19.453h-8.121V36.321z"/>
		<path clip-path="url(#SVGID_2_)" fill="#FABEAB" d="M134.563,39.981c0-1.003-0.056-2.202-0.399-3.156
			c-0.406-1.003-1.053-1.705-2.356-1.705c-2.714,0-3.009,3.31-3.009,8.318c0,5.667,0.898,7.524,3.009,7.524
			c2.854,0,3.106-2.91,3.106-4.817l6.313,0.904c-0.597,6.116-4.109,9.327-10.022,9.327c-7.321,0-11.129-6.417-11.129-12.63
			c0-6.872,3.808-13.738,11.479-13.738c8.626,0,9.924,7.463,9.924,9.973H134.563z"/>
		<path clip-path="url(#SVGID_2_)" fill="#FCD3C4" d="M138.021,40c1.796,0,3.267,1.471,3.267,3.273c0,1.796-1.471,3.273-3.267,3.273
			c-1.81,0-3.273-1.477-3.273-3.273C134.748,41.471,136.212,40,138.021,40z"/>
		<path clip-path="url(#SVGID_2_)" fill="#F5846D" d="M223.616,20.079h8.121v11.984h0.099c1.156-1.206,3.261-2.055,4.916-2.055
			c5.616,0,8.625,5.611,8.625,12.883c0,5.765-2.412,13.184-9.229,13.184c-3.156,0-5.211-1.501-6.816-3.913l-1.501,3.611h-4.215
			V20.079z M231.737,47.703c-0.147,2.104,1.102,3.261,2.658,3.261c2.251,0,2.56-2.258,2.56-6.921v-1.907
			c0-5.008,0-7.616-2.511-7.616c-1.003,0-1.753,0.603-2.258,1.003l-0.449,0.455V47.703z"/>
		<path clip-path="url(#SVGID_2_)" fill="#F6967F" d="M240.72,20.079h8.121v11.984h0.099c1.15-1.206,3.254-2.055,4.915-2.055
			c5.611,0,8.619,5.611,8.619,12.883c0,5.765-2.405,13.184-9.222,13.184c-3.162,0-5.217-1.501-6.823-3.913l-1.501,3.611h-4.208
			V20.079z M248.841,47.703c-0.154,2.104,1.101,3.261,2.651,3.261c2.258,0,2.56-2.258,2.56-6.921v-1.907
			c0-5.008,0-7.616-2.504-7.616c-1.009,0-1.76,0.603-2.258,1.003l-0.449,0.455V47.703z"/>
		<path clip-path="url(#SVGID_2_)" fill="#F8AA95" d="M258.044,36.321h-3.304v-5.709h3.304V27.8c0-6.165,3.058-8.422,8.423-8.422
			c1.605,0,2.806,0.154,4.109,0.301v6.214c-0.449-0.099-1.052-0.197-1.501-0.197c-2.055,0-2.91,0.652-2.91,2.153v2.762h4.411v5.709
			h-4.411v19.453h-8.121V36.321z"/>
		<path clip-path="url(#SVGID_2_)" fill="#FABEAB" d="M278.956,39.981c0-1.003-0.056-2.202-0.4-3.156
			c-0.406-1.003-1.058-1.705-2.362-1.705c-2.707,0-3.002,3.31-3.002,8.318c0,5.667,0.897,7.524,3.002,7.524
			c2.86,0,3.106-2.91,3.106-4.817l6.318,0.904c-0.597,6.116-4.109,9.327-10.021,9.327c-7.321,0-11.13-6.417-11.13-12.63
			c0-6.872,3.809-13.738,11.48-13.738c8.619,0,9.924,7.463,9.924,9.973H278.956z"/>
		<path clip-path="url(#SVGID_2_)" fill="#FCD3C4" d="M282.413,40c1.797,0,3.267,1.471,3.267,3.273c0,1.796-1.47,3.273-3.267,3.273
			c-1.809,0-3.272-1.477-3.272-3.273C279.141,41.471,280.604,40,282.413,40z"/>
	</g>
	<polygon fill="#231F20" points="136.883,241.874 136.883,155.166 118.771,170.828 118.771,142.936 136.883,127.275 
		163.023,127.275 163.023,241.874 	"/>
	<path fill="#231F20" d="M175.224,241.867v-23.821l41.527-45.064c4.184-4.51,5.795-7.401,5.795-12.23
		c0-6.28-3.544-10.624-10.305-10.624c-4.829,0-10.618,2.252-10.618,11.103h-26.399c0-22.531,17.06-34.924,37.018-34.924
		c21.243,0,36.691,13.037,36.691,34.604c0,12.071-4.983,18.506-14.156,28.165l-27.364,28.971h41.521v23.821H175.224z"/>
	<polygon fill="#ED1C2E" points="127.956,232.947 127.956,146.236 109.844,161.901 109.844,134.009 127.956,118.345 
		154.097,118.345 154.097,232.947 	"/>
	<path fill="#ED1C2E" d="M166.297,232.935v-23.815l41.521-45.064c4.19-4.51,5.796-7.407,5.796-12.235
		c0-6.275-3.537-10.622-10.299-10.622c-4.836,0-10.625,2.254-10.625,11.108h-26.393c0-22.536,17.054-34.929,37.018-34.929
		c21.243,0,36.691,13.04,36.691,34.606c0,12.072-4.989,18.507-14.156,28.166l-27.371,28.971h41.527v23.815H166.297z"/>
</g>
</svg>
