<?xml version="1.0" encoding="utf-8"?>
<!-- Generator: Adobe Illustrator 16.0.0, SVG Export Plug-In . SVG Version: 6.00 Build 0)  -->
<!DOCTYPE svg PUBLIC "-//W3C//DTD SVG 1.1//EN" "http://www.w3.org/Graphics/SVG/1.1/DTD/svg11.dtd">
<svg version="1.1" id="Layer_1" xmlns="http://www.w3.org/2000/svg" xmlns:xlink="http://www.w3.org/1999/xlink" x="0px" y="0px"
	 width="362.513px" height="362.514px" viewBox="0 0 362.513 362.514" enable-background="new 0 0 362.513 362.514"
	 xml:space="preserve">
<g>
	<circle fill="#FFFFFF" cx="181.256" cy="181.258" r="178.58"/>
	<path fill="#231F20" d="M359.836,181.258h-2.676c-0.003,48.581-19.688,92.541-51.521,124.382
		c-31.841,31.835-75.802,51.519-124.382,51.521c-48.581-0.003-92.542-19.687-124.383-51.521
		C25.04,273.799,5.355,229.839,5.353,181.258C5.355,132.675,25.04,88.716,56.874,56.875C88.715,25.04,132.673,5.357,181.257,5.355
		c48.58,0.001,92.541,19.684,124.382,51.52c31.834,31.841,51.519,75.8,51.521,124.382H359.836h2.677
		C362.513,81.152,281.362,0.001,181.257,0C81.15,0.001,0,81.152,0,181.258s81.15,181.256,181.257,181.256
		c100.105,0,181.256-81.15,181.256-181.256H359.836z"/>
	<path fill="#ED1C2E" d="M31.699,181.261c0-82.472,67.09-149.563,149.558-149.563c82.464,0,149.56,67.091,149.56,149.563
		c0,82.464-67.096,149.554-149.56,149.554C98.789,330.814,31.699,263.725,31.699,181.261z M181.257,341.978
		c88.619,0,160.72-72.101,160.72-160.717c0-88.627-72.101-160.725-160.72-160.725c-88.623,0-160.721,72.098-160.721,160.725
		C20.536,269.877,92.634,341.978,181.257,341.978z"/>
	<path fill="#ED1C2E" d="M165.544,352.522c-1.744-0.16-2.855-1.488-2.677-3.451c0.179-1.969,1.508-3.076,3.255-2.916
		c1.744,0.153,2.854,1.482,2.676,3.451C168.62,351.569,167.291,352.677,165.544,352.522z M166.86,350.093
		c-0.093,0.511-0.517,0.707-1.033,0.658c-0.671-0.056-1.053-0.714-0.979-1.526c0.076-0.867,0.508-1.359,1.212-1.298
		c0.461,0.043,0.873,0.271,0.923,0.806l1.043,0.093c-0.083-1.182-0.84-1.858-1.874-1.95c-1.458-0.129-2.454,0.83-2.584,2.258
		c-0.123,1.384,0.727,2.547,2.163,2.676c1,0.087,1.947-0.455,2.218-1.617L166.86,350.093z M161.526,348.948
		c-0.213,2.368,1.544,4.479,3.919,4.694c2.368,0.215,4.479-1.545,4.69-3.919c0.216-2.369-1.541-4.479-3.915-4.688
		C163.852,344.82,161.741,346.573,161.526,348.948z"/>
	<path fill="#ED1C2E" d="M170.41,353.9l6.786,0.283l0.083-1.98l-3.769-0.16v-0.024l2.338-1.458c0.88-0.536,1.563-1.256,1.605-2.302
		c0.043-1.003-0.621-2.522-3.187-2.627c-1.929-0.08-3.141,0.917-3.618,1.987l1.684,0.954c0.273-0.72,0.876-1.396,1.701-1.366
		c0.627,0.031,1.039,0.443,1.015,1.083c-0.024,0.572-0.747,1.236-1.123,1.52l-3.451,2.571L170.41,353.9z"/>
	<path fill="#ED1C2E" d="M183.225,350.056c0.013,2.239-0.461,2.707-1.175,2.707c-0.72,0.006-1.193-0.455-1.206-2.694
		c-0.009-2.24,0.462-2.701,1.182-2.707C182.739,347.361,183.216,347.822,183.225,350.056z M178.398,350.08
		c0.01,2.726,1.572,4.282,3.657,4.27c2.083-0.006,3.63-1.581,3.618-4.3c-0.007-1.735-0.911-4.288-3.657-4.276
		C179.272,345.786,178.39,348.352,178.398,350.08z"/>
	<path fill="#ED1C2E" d="M190.955,349.797c0.111,2.233-0.341,2.72-1.055,2.757c-0.714,0.03-1.212-0.406-1.323-2.64
		c-0.11-2.239,0.339-2.726,1.056-2.756C190.35,347.121,190.845,347.558,190.955,349.797z M186.135,350.031
		c0.133,2.719,1.763,4.208,3.846,4.104c2.079-0.099,3.556-1.741,3.42-4.461c-0.086-1.729-1.104-4.238-3.845-4.104
		C186.812,345.706,186.049,348.302,186.135,350.031z"/>
	<path fill="#ED1C2E" d="M194.429,353.741l6.761-0.641l-0.19-1.98l-3.753,0.356v-0.019l2.11-1.766
		c0.806-0.652,1.381-1.458,1.279-2.498c-0.092-1.002-0.96-2.411-3.516-2.171c-1.923,0.185-2.987,1.335-3.311,2.467l1.797,0.714
		c0.172-0.751,0.677-1.508,1.498-1.581c0.627-0.062,1.092,0.295,1.153,0.929c0.053,0.572-0.572,1.329-0.907,1.661l-3.067,3.015
		L194.429,353.741z"/>
	<g>
		<defs>
			<path id="SVGID_11_" d="M31.693,181.258c0-82.469,67.096-149.562,149.56-149.562c82.471,0,149.561,67.093,149.561,149.562
				c0,82.467-67.09,149.557-149.561,149.557C98.789,330.814,31.693,263.725,31.693,181.258z"/>
		</defs>
		<clipPath id="SVGID_2_">
			<use xlink:href="#SVGID_11_"  overflow="visible"/>
		</clipPath>
		<path clip-path="url(#SVGID_2_)" fill="#F5846D" d="M151.418,308.009h8.121v11.984h0.099c1.156-1.206,3.261-2.062,4.915-2.062
			c5.617,0,8.626,5.617,8.626,12.889c0,5.759-2.406,13.179-9.229,13.179c-3.156,0-5.211-1.501-6.816-3.907l-1.501,3.605h-4.215
			V308.009z M159.539,335.632c-0.147,2.104,1.107,3.255,2.657,3.255c2.259,0,2.56-2.259,2.56-6.922v-1.9c0-5.015,0-7.623-2.51-7.623
			c-0.997,0-1.753,0.609-2.252,1.009l-0.455,0.449V335.632z"/>
		<path clip-path="url(#SVGID_2_)" fill="#F6967F" d="M168.521,308.009h8.121v11.984h0.098c1.151-1.206,3.261-2.062,4.916-2.062
			c5.61,0,8.619,5.617,8.619,12.889c0,5.759-2.405,13.179-9.222,13.179c-3.162,0-5.218-1.501-6.823-3.907l-1.501,3.605h-4.208
			V308.009z M176.643,335.632c-0.154,2.104,1.101,3.255,2.657,3.255c2.252,0,2.553-2.259,2.553-6.922v-1.9
			c0-5.015,0-7.623-2.504-7.623c-1.002,0-1.753,0.609-2.258,1.009l-0.448,0.449V335.632z"/>
		<path clip-path="url(#SVGID_2_)" fill="#F8AA95" d="M185.846,324.244h-3.304v-5.709h3.304v-2.806c0-6.165,3.058-8.429,8.423-8.429
			c1.605,0,2.812,0.154,4.115,0.308v6.214c-0.455-0.104-1.058-0.203-1.507-0.203c-2.055,0-2.91,0.652-2.91,2.159v2.757h4.417v5.709
			h-4.417v19.453h-8.121V324.244z"/>
		<path clip-path="url(#SVGID_2_)" fill="#FABEAB" d="M206.757,327.911c0-1.003-0.055-2.209-0.399-3.156
			c-0.406-1.009-1.052-1.704-2.356-1.704c-2.713,0-3.009,3.304-3.009,8.317c0,5.666,0.898,7.519,3.009,7.519
			c2.854,0,3.107-2.904,3.107-4.812l6.312,0.898c-0.597,6.115-4.109,9.326-10.021,9.326c-7.321,0-11.13-6.416-11.13-12.63
			c0-6.866,3.809-13.738,11.48-13.738c8.625,0,9.923,7.469,9.923,9.979H206.757z"/>
		<path clip-path="url(#SVGID_2_)" fill="#FCD3C4" d="M210.215,327.93c1.796,0,3.267,1.47,3.267,3.272
			c0,1.797-1.471,3.273-3.267,3.273c-1.809,0-3.273-1.477-3.273-3.273C206.941,329.399,208.406,327.93,210.215,327.93z"/>
		<path clip-path="url(#SVGID_2_)" fill="#F5846D" d="M151.418,266.875h8.121v11.984h0.099c1.156-1.206,3.261-2.055,4.915-2.055
			c5.617,0,8.626,5.61,8.626,12.883c0,5.765-2.406,13.178-9.229,13.178c-3.156,0-5.211-1.501-6.816-3.906l-1.501,3.604h-4.215
			V266.875z M159.539,294.498c-0.147,2.104,1.107,3.255,2.657,3.255c2.259,0,2.56-2.252,2.56-6.915v-1.907
			c0-5.015,0-7.616-2.51-7.616c-0.997,0-1.753,0.603-2.252,1.002l-0.455,0.449V294.498z"/>
		<path clip-path="url(#SVGID_2_)" fill="#F6967F" d="M168.521,266.875h8.121v11.984h0.098c1.151-1.206,3.261-2.055,4.916-2.055
			c5.61,0,8.619,5.61,8.619,12.883c0,5.765-2.405,13.178-9.222,13.178c-3.162,0-5.218-1.501-6.823-3.906l-1.501,3.604h-4.208
			V266.875z M176.643,294.498c-0.154,2.104,1.101,3.255,2.657,3.255c2.252,0,2.553-2.252,2.553-6.915v-1.907
			c0-5.015,0-7.616-2.504-7.616c-1.002,0-1.753,0.603-2.258,1.002l-0.448,0.449V294.498z"/>
		<path clip-path="url(#SVGID_2_)" fill="#F8AA95" d="M185.846,283.116h-3.304v-5.715h3.304v-2.806c0-6.164,3.058-8.422,8.423-8.422
			c1.605,0,2.812,0.153,4.115,0.301v6.214c-0.455-0.099-1.058-0.196-1.507-0.196c-2.055,0-2.91,0.646-2.91,2.152v2.757h4.417v5.715
			h-4.417v19.447h-8.121V283.116z"/>
		<path clip-path="url(#SVGID_2_)" fill="#FABEAB" d="M206.757,286.777c0-1.003-0.055-2.203-0.399-3.156
			c-0.406-1.009-1.052-1.704-2.356-1.704c-2.713,0-3.009,3.304-3.009,8.317c0,5.666,0.898,7.519,3.009,7.519
			c2.854,0,3.107-2.904,3.107-4.812l6.312,0.904c-0.597,6.115-4.109,9.327-10.021,9.327c-7.321,0-11.13-6.417-11.13-12.637
			c0-6.866,3.809-13.731,11.48-13.731c8.625,0,9.923,7.462,9.923,9.973H206.757z"/>
		<path clip-path="url(#SVGID_2_)" fill="#FCD3C4" d="M210.215,286.796c1.796,0,3.267,1.47,3.267,3.272
			c0,1.797-1.471,3.273-3.267,3.273c-1.809,0-3.273-1.477-3.273-3.273C206.941,288.266,208.406,286.796,210.215,286.796z"/>
		<path clip-path="url(#SVGID_2_)" fill="#F5846D" d="M151.418,225.741h8.121v11.979h0.099c1.156-1.206,3.261-2.055,4.915-2.055
			c5.617,0,8.626,5.616,8.626,12.882c0,5.765-2.406,13.185-9.229,13.185c-3.156,0-5.211-1.501-6.816-3.913l-1.501,3.618h-4.215
			V225.741z M159.539,253.358c-0.147,2.11,1.107,3.267,2.657,3.267c2.259,0,2.56-2.264,2.56-6.921v-1.907
			c0-5.008,0-7.616-2.51-7.616c-0.997,0-1.753,0.597-2.252,1.003l-0.455,0.448V253.358z"/>
		<path clip-path="url(#SVGID_2_)" fill="#F6967F" d="M168.521,225.741h8.121v11.979h0.098c1.151-1.206,3.261-2.055,4.916-2.055
			c5.61,0,8.619,5.616,8.619,12.882c0,5.765-2.405,13.185-9.222,13.185c-3.162,0-5.218-1.501-6.823-3.913l-1.501,3.618h-4.208
			V225.741z M176.643,253.358c-0.154,2.11,1.101,3.267,2.657,3.267c2.252,0,2.553-2.264,2.553-6.921v-1.907
			c0-5.008,0-7.616-2.504-7.616c-1.002,0-1.753,0.597-2.258,1.003l-0.448,0.448V253.358z"/>
		<path clip-path="url(#SVGID_2_)" fill="#F8AA95" d="M185.846,241.983h-3.304v-5.716h3.304v-2.806c0-6.164,3.058-8.422,8.423-8.422
			c1.605,0,2.812,0.147,4.115,0.295v6.22c-0.455-0.104-1.058-0.203-1.507-0.203c-2.055,0-2.91,0.658-2.91,2.16v2.756h4.417v5.716
			h-4.417v19.453h-8.121V241.983z"/>
		<path clip-path="url(#SVGID_2_)" fill="#FABEAB" d="M206.757,245.638c0-0.997-0.055-2.203-0.399-3.156
			c-0.406-0.997-1.052-1.704-2.356-1.704c-2.713,0-3.009,3.31-3.009,8.324c0,5.659,0.898,7.523,3.009,7.523
			c2.854,0,3.107-2.91,3.107-4.823l6.312,0.904c-0.597,6.122-4.109,9.327-10.021,9.327c-7.321,0-11.13-6.417-11.13-12.631
			c0-6.872,3.809-13.737,11.48-13.737c8.625,0,9.923,7.469,9.923,9.973H206.757z"/>
		<path clip-path="url(#SVGID_2_)" fill="#FCD3C4" d="M210.215,245.656c1.796,0,3.267,1.47,3.267,3.278
			c0,1.797-1.471,3.273-3.267,3.273c-1.809,0-3.273-1.477-3.273-3.273C206.941,247.126,208.406,245.656,210.215,245.656z"/>
		<path clip-path="url(#SVGID_2_)" fill="#F5846D" d="M151.418,184.614h8.121v11.978h0.099c1.156-1.199,3.261-2.055,4.915-2.055
			c5.617,0,8.626,5.611,8.626,12.883c0,5.759-2.406,13.178-9.229,13.178c-3.156,0-5.211-1.501-6.816-3.906l-1.501,3.605h-4.215
			V184.614z M159.539,212.23c-0.147,2.104,1.107,3.255,2.657,3.255c2.259,0,2.56-2.258,2.56-6.915v-1.907
			c0-5.014,0-7.616-2.51-7.616c-0.997,0-1.753,0.603-2.252,1.003l-0.455,0.449V212.23z"/>
		<path clip-path="url(#SVGID_2_)" fill="#F6967F" d="M168.521,184.614h8.121v11.978h0.098c1.151-1.199,3.261-2.055,4.916-2.055
			c5.61,0,8.619,5.611,8.619,12.883c0,5.759-2.405,13.178-9.222,13.178c-3.162,0-5.218-1.501-6.823-3.906l-1.501,3.605h-4.208
			V184.614z M176.643,212.23c-0.154,2.104,1.101,3.255,2.657,3.255c2.252,0,2.553-2.258,2.553-6.915v-1.907
			c0-5.014,0-7.616-2.504-7.616c-1.002,0-1.753,0.603-2.258,1.003l-0.448,0.449V212.23z"/>
		<path clip-path="url(#SVGID_2_)" fill="#F8AA95" d="M185.846,200.85h-3.304v-5.709h3.304v-2.806c0-6.165,3.058-8.423,8.423-8.423
			c1.605,0,2.812,0.148,4.115,0.295v6.22c-0.455-0.104-1.058-0.203-1.507-0.203c-2.055,0-2.91,0.652-2.91,2.159v2.757h4.417v5.709
			h-4.417v19.447h-8.121V200.85z"/>
		<path clip-path="url(#SVGID_2_)" fill="#FABEAB" d="M206.757,204.51c0-1.003-0.055-2.209-0.399-3.156
			c-0.406-1.003-1.052-1.704-2.356-1.704c-2.713,0-3.009,3.304-3.009,8.318c0,5.666,0.898,7.518,3.009,7.518
			c2.854,0,3.107-2.903,3.107-4.811l6.312,0.897c-0.597,6.122-4.109,9.327-10.021,9.327c-7.321,0-11.13-6.417-11.13-12.631
			c0-6.865,3.809-13.731,11.48-13.731c8.625,0,9.923,7.463,9.923,9.973H206.757z"/>
		<path clip-path="url(#SVGID_2_)" fill="#FCD3C4" d="M210.215,204.528c1.796,0,3.267,1.471,3.267,3.273
			c0,1.796-1.471,3.272-3.267,3.272c-1.809,0-3.273-1.477-3.273-3.272C206.941,205.999,208.406,204.528,210.215,204.528z"/>
		<path clip-path="url(#SVGID_2_)" fill="#F5846D" d="M79.229,308.009h8.12v11.984h0.099c1.157-1.206,3.261-2.062,4.916-2.062
			c5.61,0,8.619,5.617,8.619,12.889c0,5.759-2.405,13.179-9.222,13.179c-3.156,0-5.218-1.501-6.817-3.907l-1.507,3.605h-4.208
			V308.009z M87.349,335.632c-0.153,2.104,1.102,3.255,2.658,3.255c2.252,0,2.553-2.259,2.553-6.922v-1.9
			c0-5.015,0-7.623-2.504-7.623c-1.002,0-1.753,0.609-2.258,1.009l-0.449,0.449V335.632z"/>
		<path clip-path="url(#SVGID_2_)" fill="#F6967F" d="M96.325,308.009h8.127v11.984h0.099c1.15-1.206,3.255-2.062,4.909-2.062
			c5.617,0,8.619,5.617,8.619,12.889c0,5.759-2.405,13.179-9.222,13.179c-3.156,0-5.211-1.501-6.816-3.907l-1.508,3.605h-4.208
			V308.009z M104.452,335.632c-0.153,2.104,1.102,3.255,2.651,3.255c2.258,0,2.56-2.259,2.56-6.922v-1.9c0-5.015,0-7.623-2.51-7.623
			c-1.003,0-1.754,0.609-2.252,1.009l-0.449,0.449V335.632z"/>
		<path clip-path="url(#SVGID_2_)" fill="#F8AA95" d="M113.656,324.244h-3.311v-5.709h3.311v-2.806c0-6.165,3.058-8.429,8.422-8.429
			c1.6,0,2.806,0.154,4.11,0.308v6.214c-0.449-0.104-1.053-0.203-1.502-0.203c-2.061,0-2.91,0.652-2.91,2.159v2.757h4.412v5.709
			h-4.412v19.453h-8.12V324.244z"/>
		<path clip-path="url(#SVGID_2_)" fill="#FABEAB" d="M134.567,327.911c0-1.003-0.056-2.209-0.406-3.156
			c-0.399-1.009-1.052-1.704-2.356-1.704c-2.707,0-3.008,3.304-3.008,8.317c0,5.666,0.904,7.519,3.008,7.519
			c2.861,0,3.107-2.904,3.107-4.812l6.318,0.898c-0.604,6.115-4.11,9.326-10.028,9.326c-7.315,0-11.123-6.416-11.123-12.63
			c0-6.866,3.808-13.738,11.479-13.738c8.619,0,9.924,7.469,9.924,9.979H134.567z"/>
		<path clip-path="url(#SVGID_2_)" fill="#FCD3C4" d="M138.019,327.93c1.803,0,3.273,1.47,3.273,3.272
			c0,1.797-1.471,3.273-3.273,3.273s-3.267-1.477-3.267-3.273C134.752,329.399,136.216,327.93,138.019,327.93z"/>
		<path clip-path="url(#SVGID_2_)" fill="#F5846D" d="M79.229,266.875h8.12v11.984h0.099c1.157-1.206,3.261-2.055,4.916-2.055
			c5.61,0,8.619,5.61,8.619,12.883c0,5.765-2.405,13.178-9.222,13.178c-3.156,0-5.218-1.501-6.817-3.906l-1.507,3.604h-4.208
			V266.875z M87.349,294.498c-0.153,2.104,1.102,3.255,2.658,3.255c2.252,0,2.553-2.252,2.553-6.915v-1.907
			c0-5.015,0-7.616-2.504-7.616c-1.002,0-1.753,0.603-2.258,1.002l-0.449,0.449V294.498z"/>
		<path clip-path="url(#SVGID_2_)" fill="#F6967F" d="M96.325,266.875h8.127v11.984h0.099c1.15-1.206,3.255-2.055,4.909-2.055
			c5.617,0,8.619,5.61,8.619,12.883c0,5.765-2.405,13.178-9.222,13.178c-3.156,0-5.211-1.501-6.816-3.906l-1.508,3.604h-4.208
			V266.875z M104.452,294.498c-0.153,2.104,1.102,3.255,2.651,3.255c2.258,0,2.56-2.252,2.56-6.915v-1.907
			c0-5.015,0-7.616-2.51-7.616c-1.003,0-1.754,0.603-2.252,1.002l-0.449,0.449V294.498z"/>
		<path clip-path="url(#SVGID_2_)" fill="#F8AA95" d="M113.656,283.116h-3.311v-5.715h3.311v-2.806c0-6.164,3.058-8.422,8.422-8.422
			c1.6,0,2.806,0.153,4.11,0.301v6.214c-0.449-0.099-1.053-0.196-1.502-0.196c-2.061,0-2.91,0.646-2.91,2.152v2.757h4.412v5.715
			h-4.412v19.447h-8.12V283.116z"/>
		<path clip-path="url(#SVGID_2_)" fill="#FABEAB" d="M134.567,286.777c0-1.003-0.056-2.203-0.406-3.156
			c-0.399-1.009-1.052-1.704-2.356-1.704c-2.707,0-3.008,3.304-3.008,8.317c0,5.666,0.904,7.519,3.008,7.519
			c2.861,0,3.107-2.904,3.107-4.812l6.318,0.904c-0.604,6.115-4.11,9.327-10.028,9.327c-7.315,0-11.123-6.417-11.123-12.637
			c0-6.866,3.808-13.731,11.479-13.731c8.619,0,9.924,7.462,9.924,9.973H134.567z"/>
		<path clip-path="url(#SVGID_2_)" fill="#FCD3C4" d="M138.019,286.796c1.803,0,3.273,1.47,3.273,3.272
			c0,1.797-1.471,3.273-3.273,3.273s-3.267-1.477-3.267-3.273C134.752,288.266,136.216,286.796,138.019,286.796z"/>
		<path clip-path="url(#SVGID_2_)" fill="#F5846D" d="M79.229,225.741h8.12v11.979h0.099c1.157-1.206,3.261-2.055,4.916-2.055
			c5.61,0,8.619,5.616,8.619,12.882c0,5.765-2.405,13.185-9.222,13.185c-3.156,0-5.218-1.501-6.817-3.913l-1.507,3.618h-4.208
			V225.741z M87.349,253.358c-0.153,2.11,1.102,3.267,2.658,3.267c2.252,0,2.553-2.264,2.553-6.921v-1.907
			c0-5.008,0-7.616-2.504-7.616c-1.002,0-1.753,0.597-2.258,1.003l-0.449,0.448V253.358z"/>
		<path clip-path="url(#SVGID_2_)" fill="#F6967F" d="M96.325,225.741h8.127v11.979h0.099c1.15-1.206,3.255-2.055,4.909-2.055
			c5.617,0,8.619,5.616,8.619,12.882c0,5.765-2.405,13.185-9.222,13.185c-3.156,0-5.211-1.501-6.816-3.913l-1.508,3.618h-4.208
			V225.741z M104.452,253.358c-0.153,2.11,1.102,3.267,2.651,3.267c2.258,0,2.56-2.264,2.56-6.921v-1.907
			c0-5.008,0-7.616-2.51-7.616c-1.003,0-1.754,0.597-2.252,1.003l-0.449,0.448V253.358z"/>
		<path clip-path="url(#SVGID_2_)" fill="#F8AA95" d="M113.656,241.983h-3.311v-5.716h3.311v-2.806c0-6.164,3.058-8.422,8.422-8.422
			c1.6,0,2.806,0.147,4.11,0.295v6.22c-0.449-0.104-1.053-0.203-1.502-0.203c-2.061,0-2.91,0.658-2.91,2.16v2.756h4.412v5.716
			h-4.412v19.453h-8.12V241.983z"/>
		<path clip-path="url(#SVGID_2_)" fill="#FABEAB" d="M134.567,245.638c0-0.997-0.056-2.203-0.406-3.156
			c-0.399-0.997-1.052-1.704-2.356-1.704c-2.707,0-3.008,3.31-3.008,8.324c0,5.659,0.904,7.523,3.008,7.523
			c2.861,0,3.107-2.91,3.107-4.823l6.318,0.904c-0.604,6.122-4.11,9.327-10.028,9.327c-7.315,0-11.123-6.417-11.123-12.631
			c0-6.872,3.808-13.737,11.479-13.737c8.619,0,9.924,7.469,9.924,9.973H134.567z"/>
		<path clip-path="url(#SVGID_2_)" fill="#FCD3C4" d="M138.019,245.656c1.803,0,3.273,1.47,3.273,3.278
			c0,1.797-1.471,3.273-3.273,3.273s-3.267-1.477-3.267-3.273C134.752,247.126,136.216,245.656,138.019,245.656z"/>
		<path clip-path="url(#SVGID_2_)" fill="#F5846D" d="M79.229,184.614h8.12v11.978h0.099c1.157-1.199,3.261-2.055,4.916-2.055
			c5.61,0,8.619,5.611,8.619,12.883c0,5.759-2.405,13.178-9.222,13.178c-3.156,0-5.218-1.501-6.817-3.906l-1.507,3.605h-4.208
			V184.614z M87.349,212.23c-0.153,2.104,1.102,3.255,2.658,3.255c2.252,0,2.553-2.258,2.553-6.915v-1.907
			c0-5.014,0-7.616-2.504-7.616c-1.002,0-1.753,0.603-2.258,1.003l-0.449,0.449V212.23z"/>
		<path clip-path="url(#SVGID_2_)" fill="#F6967F" d="M96.325,184.614h8.127v11.978h0.099c1.15-1.199,3.255-2.055,4.909-2.055
			c5.617,0,8.619,5.611,8.619,12.883c0,5.759-2.405,13.178-9.222,13.178c-3.156,0-5.211-1.501-6.816-3.906l-1.508,3.605h-4.208
			V184.614z M104.452,212.23c-0.153,2.104,1.102,3.255,2.651,3.255c2.258,0,2.56-2.258,2.56-6.915v-1.907
			c0-5.014,0-7.616-2.51-7.616c-1.003,0-1.754,0.603-2.252,1.003l-0.449,0.449V212.23z"/>
		<path clip-path="url(#SVGID_2_)" fill="#F8AA95" d="M113.656,200.85h-3.311v-5.709h3.311v-2.806c0-6.165,3.058-8.423,8.422-8.423
			c1.6,0,2.806,0.148,4.11,0.295v6.22c-0.449-0.104-1.053-0.203-1.502-0.203c-2.061,0-2.91,0.652-2.91,2.159v2.757h4.412v5.709
			h-4.412v19.447h-8.12V200.85z"/>
		<path clip-path="url(#SVGID_2_)" fill="#FABEAB" d="M134.567,204.51c0-1.003-0.056-2.209-0.406-3.156
			c-0.399-1.003-1.052-1.704-2.356-1.704c-2.707,0-3.008,3.304-3.008,8.318c0,5.666,0.904,7.518,3.008,7.518
			c2.861,0,3.107-2.903,3.107-4.811l6.318,0.897c-0.604,6.122-4.11,9.327-10.028,9.327c-7.315,0-11.123-6.417-11.123-12.631
			c0-6.865,3.808-13.731,11.479-13.731c8.619,0,9.924,7.463,9.924,9.973H134.567z"/>
		<path clip-path="url(#SVGID_2_)" fill="#FCD3C4" d="M138.019,204.528c1.803,0,3.273,1.471,3.273,3.273
			c0,1.796-1.471,3.272-3.273,3.272s-3.267-1.477-3.267-3.272C134.752,205.999,136.216,204.528,138.019,204.528z"/>
		<path clip-path="url(#SVGID_2_)" fill="#F6967F" d="M24.136,266.875h8.12v11.984h0.099c1.15-1.206,3.261-2.055,4.916-2.055
			c5.61,0,8.619,5.61,8.619,12.883c0,5.765-2.405,13.178-9.223,13.178c-3.162,0-5.217-1.501-6.822-3.906l-1.501,3.604h-4.208
			V266.875z M32.256,294.498c-0.153,2.104,1.102,3.255,2.658,3.255c2.252,0,2.553-2.252,2.553-6.915v-1.907
			c0-5.015,0-7.616-2.504-7.616c-1.009,0-1.759,0.603-2.258,1.002l-0.449,0.449V294.498z"/>
		<path clip-path="url(#SVGID_2_)" fill="#F8AA95" d="M41.46,283.116h-3.304v-5.715h3.304v-2.806c0-6.164,3.058-8.422,8.422-8.422
			c1.606,0,2.813,0.153,4.11,0.301v6.214c-0.449-0.099-1.052-0.196-1.501-0.196c-2.056,0-2.91,0.646-2.91,2.152v2.757h4.411v5.715
			h-4.411v19.447H41.46V283.116z"/>
		<path clip-path="url(#SVGID_2_)" fill="#FABEAB" d="M62.371,286.777c0-1.003-0.056-2.203-0.399-3.156
			c-0.406-1.009-1.059-1.704-2.356-1.704c-2.714,0-3.009,3.304-3.009,8.317c0,5.666,0.898,7.519,3.009,7.519
			c2.854,0,3.106-2.904,3.106-4.812l6.313,0.904c-0.597,6.115-4.109,9.327-10.022,9.327c-7.32,0-11.129-6.417-11.129-12.637
			c0-6.866,3.809-13.731,11.479-13.731c8.626,0,9.924,7.462,9.924,9.973H62.371z"/>
		<path clip-path="url(#SVGID_2_)" fill="#FCD3C4" d="M65.829,286.796c1.796,0,3.267,1.47,3.267,3.272
			c0,1.797-1.471,3.273-3.267,3.273c-1.809,0-3.273-1.477-3.273-3.273C62.556,288.266,64.021,286.796,65.829,286.796z"/>
		<path clip-path="url(#SVGID_2_)" fill="#F6967F" d="M24.136,225.741h8.12v11.979h0.099c1.15-1.206,3.261-2.055,4.916-2.055
			c5.61,0,8.619,5.616,8.619,12.882c0,5.765-2.405,13.185-9.223,13.185c-3.162,0-5.217-1.501-6.822-3.913l-1.501,3.618h-4.208
			V225.741z M32.256,253.358c-0.153,2.11,1.102,3.267,2.658,3.267c2.252,0,2.553-2.264,2.553-6.921v-1.907
			c0-5.008,0-7.616-2.504-7.616c-1.009,0-1.759,0.597-2.258,1.003l-0.449,0.448V253.358z"/>
		<path clip-path="url(#SVGID_2_)" fill="#F8AA95" d="M41.46,241.983h-3.304v-5.716h3.304v-2.806c0-6.164,3.058-8.422,8.422-8.422
			c1.606,0,2.813,0.147,4.11,0.295v6.22c-0.449-0.104-1.052-0.203-1.501-0.203c-2.056,0-2.91,0.658-2.91,2.16v2.756h4.411v5.716
			h-4.411v19.453H41.46V241.983z"/>
		<path clip-path="url(#SVGID_2_)" fill="#FABEAB" d="M62.371,245.638c0-0.997-0.056-2.203-0.399-3.156
			c-0.406-0.997-1.059-1.704-2.356-1.704c-2.714,0-3.009,3.31-3.009,8.324c0,5.659,0.898,7.523,3.009,7.523
			c2.854,0,3.106-2.91,3.106-4.823l6.313,0.904c-0.597,6.122-4.109,9.327-10.022,9.327c-7.32,0-11.129-6.417-11.129-12.631
			c0-6.872,3.809-13.737,11.479-13.737c8.626,0,9.924,7.469,9.924,9.973H62.371z"/>
		<path clip-path="url(#SVGID_2_)" fill="#FCD3C4" d="M65.829,245.656c1.796,0,3.267,1.47,3.267,3.278
			c0,1.797-1.471,3.273-3.267,3.273c-1.809,0-3.273-1.477-3.273-3.273C62.556,247.126,64.021,245.656,65.829,245.656z"/>
		<path clip-path="url(#SVGID_2_)" fill="#F6967F" d="M24.136,184.614h8.12v11.978h0.099c1.15-1.199,3.261-2.055,4.916-2.055
			c5.61,0,8.619,5.611,8.619,12.883c0,5.759-2.405,13.178-9.223,13.178c-3.162,0-5.217-1.501-6.822-3.906l-1.501,3.605h-4.208
			V184.614z M32.256,212.23c-0.153,2.104,1.102,3.255,2.658,3.255c2.252,0,2.553-2.258,2.553-6.915v-1.907
			c0-5.014,0-7.616-2.504-7.616c-1.009,0-1.759,0.603-2.258,1.003l-0.449,0.449V212.23z"/>
		<path clip-path="url(#SVGID_2_)" fill="#F8AA95" d="M41.46,200.85h-3.304v-5.709h3.304v-2.806c0-6.165,3.058-8.423,8.422-8.423
			c1.606,0,2.813,0.148,4.11,0.295v6.22c-0.449-0.104-1.052-0.203-1.501-0.203c-2.056,0-2.91,0.652-2.91,2.159v2.757h4.411v5.709
			h-4.411v19.447H41.46V200.85z"/>
		<path clip-path="url(#SVGID_2_)" fill="#FABEAB" d="M62.371,204.51c0-1.003-0.056-2.209-0.399-3.156
			c-0.406-1.003-1.059-1.704-2.356-1.704c-2.714,0-3.009,3.304-3.009,8.318c0,5.666,0.898,7.518,3.009,7.518
			c2.854,0,3.106-2.903,3.106-4.811l6.313,0.897c-0.597,6.122-4.109,9.327-10.022,9.327c-7.32,0-11.129-6.417-11.129-12.631
			c0-6.865,3.809-13.731,11.479-13.731c8.626,0,9.924,7.463,9.924,9.973H62.371z"/>
		<path clip-path="url(#SVGID_2_)" fill="#FCD3C4" d="M65.829,204.528c1.796,0,3.267,1.471,3.267,3.273
			c0,1.796-1.471,3.272-3.267,3.272c-1.809,0-3.273-1.477-3.273-3.272C62.556,205.999,64.021,204.528,65.829,204.528z"/>
		<path clip-path="url(#SVGID_2_)" fill="#F5846D" d="M223.614,308.009h8.121v11.984h0.099c1.156-1.206,3.26-2.062,4.915-2.062
			c5.617,0,8.626,5.617,8.626,12.889c0,5.759-2.412,13.179-9.229,13.179c-3.156,0-5.211-1.501-6.817-3.907l-1.501,3.605h-4.214
			V308.009z M231.735,335.632c-0.147,2.104,1.101,3.255,2.657,3.255c2.252,0,2.56-2.259,2.56-6.922v-1.9c0-5.015,0-7.623-2.51-7.623
			c-1.003,0-1.754,0.609-2.258,1.009l-0.449,0.449V335.632z"/>
		<path clip-path="url(#SVGID_2_)" fill="#F6967F" d="M240.718,308.009h8.12v11.984h0.099c1.15-1.206,3.255-2.062,4.916-2.062
			c5.61,0,8.619,5.617,8.619,12.889c0,5.759-2.405,13.179-9.223,13.179c-3.162,0-5.217-1.501-6.822-3.907l-1.501,3.605h-4.208
			V308.009z M248.838,335.632c-0.153,2.104,1.102,3.255,2.652,3.255c2.258,0,2.559-2.259,2.559-6.922v-1.9
			c0-5.015,0-7.623-2.504-7.623c-1.009,0-1.759,0.609-2.258,1.009l-0.449,0.449V335.632z"/>
		<path clip-path="url(#SVGID_2_)" fill="#F8AA95" d="M258.042,324.244h-3.304v-5.709h3.304v-2.806c0-6.165,3.058-8.429,8.422-8.429
			c1.606,0,2.806,0.154,4.11,0.308v6.214c-0.449-0.104-1.053-0.203-1.501-0.203c-2.056,0-2.91,0.652-2.91,2.159v2.757h4.411v5.709
			h-4.411v19.453h-8.121V324.244z"/>
		<path clip-path="url(#SVGID_2_)" fill="#FABEAB" d="M278.953,327.911c0-1.003-0.056-2.209-0.399-3.156
			c-0.406-1.009-1.059-1.704-2.362-1.704c-2.707,0-3.003,3.304-3.003,8.317c0,5.666,0.898,7.519,3.003,7.519
			c2.86,0,3.106-2.904,3.106-4.812l6.318,0.898c-0.597,6.115-4.109,9.326-10.022,9.326c-7.32,0-11.129-6.416-11.129-12.63
			c0-6.866,3.809-13.738,11.48-13.738c8.619,0,9.923,7.469,9.923,9.979H278.953z"/>
		<path clip-path="url(#SVGID_2_)" fill="#FCD3C4" d="M282.411,327.93c1.796,0,3.267,1.47,3.267,3.272
			c0,1.797-1.471,3.273-3.267,3.273c-1.81,0-3.273-1.477-3.273-3.273C279.138,329.399,280.602,327.93,282.411,327.93z"/>
		<path clip-path="url(#SVGID_2_)" fill="#F5846D" d="M223.614,266.875h8.121v11.984h0.099c1.156-1.206,3.26-2.055,4.915-2.055
			c5.617,0,8.626,5.61,8.626,12.883c0,5.765-2.412,13.178-9.229,13.178c-3.156,0-5.211-1.501-6.817-3.906l-1.501,3.604h-4.214
			V266.875z M231.735,294.498c-0.147,2.104,1.101,3.255,2.657,3.255c2.252,0,2.56-2.252,2.56-6.915v-1.907
			c0-5.015,0-7.616-2.51-7.616c-1.003,0-1.754,0.603-2.258,1.002l-0.449,0.449V294.498z"/>
		<path clip-path="url(#SVGID_2_)" fill="#F6967F" d="M240.718,266.875h8.12v11.984h0.099c1.15-1.206,3.255-2.055,4.916-2.055
			c5.61,0,8.619,5.61,8.619,12.883c0,5.765-2.405,13.178-9.223,13.178c-3.162,0-5.217-1.501-6.822-3.906l-1.501,3.604h-4.208
			V266.875z M248.838,294.498c-0.153,2.104,1.102,3.255,2.652,3.255c2.258,0,2.559-2.252,2.559-6.915v-1.907
			c0-5.015,0-7.616-2.504-7.616c-1.009,0-1.759,0.603-2.258,1.002l-0.449,0.449V294.498z"/>
		<path clip-path="url(#SVGID_2_)" fill="#F8AA95" d="M258.042,283.116h-3.304v-5.715h3.304v-2.806c0-6.164,3.058-8.422,8.422-8.422
			c1.606,0,2.806,0.153,4.11,0.301v6.214c-0.449-0.099-1.053-0.196-1.501-0.196c-2.056,0-2.91,0.646-2.91,2.152v2.757h4.411v5.715
			h-4.411v19.447h-8.121V283.116z"/>
		<path clip-path="url(#SVGID_2_)" fill="#FABEAB" d="M278.953,286.777c0-1.003-0.056-2.203-0.399-3.156
			c-0.406-1.009-1.059-1.704-2.362-1.704c-2.707,0-3.003,3.304-3.003,8.317c0,5.666,0.898,7.519,3.003,7.519
			c2.86,0,3.106-2.904,3.106-4.812l6.318,0.904c-0.597,6.115-4.109,9.327-10.022,9.327c-7.32,0-11.129-6.417-11.129-12.637
			c0-6.866,3.809-13.731,11.48-13.731c8.619,0,9.923,7.462,9.923,9.973H278.953z"/>
		<path clip-path="url(#SVGID_2_)" fill="#FCD3C4" d="M282.411,286.796c1.796,0,3.267,1.47,3.267,3.272
			c0,1.797-1.471,3.273-3.267,3.273c-1.81,0-3.273-1.477-3.273-3.273C279.138,288.266,280.602,286.796,282.411,286.796z"/>
		<path clip-path="url(#SVGID_2_)" fill="#F5846D" d="M223.614,225.741h8.121v11.979h0.099c1.156-1.206,3.26-2.055,4.915-2.055
			c5.617,0,8.626,5.616,8.626,12.882c0,5.765-2.412,13.185-9.229,13.185c-3.156,0-5.211-1.501-6.817-3.913l-1.501,3.618h-4.214
			V225.741z M231.735,253.358c-0.147,2.11,1.101,3.267,2.657,3.267c2.252,0,2.56-2.264,2.56-6.921v-1.907
			c0-5.008,0-7.616-2.51-7.616c-1.003,0-1.754,0.597-2.258,1.003l-0.449,0.448V253.358z"/>
		<path clip-path="url(#SVGID_2_)" fill="#F6967F" d="M240.718,225.741h8.12v11.979h0.099c1.15-1.206,3.255-2.055,4.916-2.055
			c5.61,0,8.619,5.616,8.619,12.882c0,5.765-2.405,13.185-9.223,13.185c-3.162,0-5.217-1.501-6.822-3.913l-1.501,3.618h-4.208
			V225.741z M248.838,253.358c-0.153,2.11,1.102,3.267,2.652,3.267c2.258,0,2.559-2.264,2.559-6.921v-1.907
			c0-5.008,0-7.616-2.504-7.616c-1.009,0-1.759,0.597-2.258,1.003l-0.449,0.448V253.358z"/>
		<path clip-path="url(#SVGID_2_)" fill="#F8AA95" d="M258.042,241.983h-3.304v-5.716h3.304v-2.806c0-6.164,3.058-8.422,8.422-8.422
			c1.606,0,2.806,0.147,4.11,0.295v6.22c-0.449-0.104-1.053-0.203-1.501-0.203c-2.056,0-2.91,0.658-2.91,2.16v2.756h4.411v5.716
			h-4.411v19.453h-8.121V241.983z"/>
		<path clip-path="url(#SVGID_2_)" fill="#FABEAB" d="M278.953,245.638c0-0.997-0.056-2.203-0.399-3.156
			c-0.406-0.997-1.059-1.704-2.362-1.704c-2.707,0-3.003,3.31-3.003,8.324c0,5.659,0.898,7.523,3.003,7.523
			c2.86,0,3.106-2.91,3.106-4.823l6.318,0.904c-0.597,6.122-4.109,9.327-10.022,9.327c-7.32,0-11.129-6.417-11.129-12.631
			c0-6.872,3.809-13.737,11.48-13.737c8.619,0,9.923,7.469,9.923,9.973H278.953z"/>
		<path clip-path="url(#SVGID_2_)" fill="#FCD3C4" d="M282.411,245.656c1.796,0,3.267,1.47,3.267,3.278
			c0,1.797-1.471,3.273-3.267,3.273c-1.81,0-3.273-1.477-3.273-3.273C279.138,247.126,280.602,245.656,282.411,245.656z"/>
		<path clip-path="url(#SVGID_2_)" fill="#F5846D" d="M223.614,184.614h8.121v11.978h0.099c1.156-1.199,3.26-2.055,4.915-2.055
			c5.617,0,8.626,5.611,8.626,12.883c0,5.759-2.412,13.178-9.229,13.178c-3.156,0-5.211-1.501-6.817-3.906l-1.501,3.605h-4.214
			V184.614z M231.735,212.23c-0.147,2.104,1.101,3.255,2.657,3.255c2.252,0,2.56-2.258,2.56-6.915v-1.907
			c0-5.014,0-7.616-2.51-7.616c-1.003,0-1.754,0.603-2.258,1.003l-0.449,0.449V212.23z"/>
		<path clip-path="url(#SVGID_2_)" fill="#F6967F" d="M240.718,184.614h8.12v11.978h0.099c1.15-1.199,3.255-2.055,4.916-2.055
			c5.61,0,8.619,5.611,8.619,12.883c0,5.759-2.405,13.178-9.223,13.178c-3.162,0-5.217-1.501-6.822-3.906l-1.501,3.605h-4.208
			V184.614z M248.838,212.23c-0.153,2.104,1.102,3.255,2.652,3.255c2.258,0,2.559-2.258,2.559-6.915v-1.907
			c0-5.014,0-7.616-2.504-7.616c-1.009,0-1.759,0.603-2.258,1.003l-0.449,0.449V212.23z"/>
		<path clip-path="url(#SVGID_2_)" fill="#F8AA95" d="M258.042,200.85h-3.304v-5.709h3.304v-2.806c0-6.165,3.058-8.423,8.422-8.423
			c1.606,0,2.806,0.148,4.11,0.295v6.22c-0.449-0.104-1.053-0.203-1.501-0.203c-2.056,0-2.91,0.652-2.91,2.159v2.757h4.411v5.709
			h-4.411v19.447h-8.121V200.85z"/>
		<path clip-path="url(#SVGID_2_)" fill="#FABEAB" d="M278.953,204.51c0-1.003-0.056-2.209-0.399-3.156
			c-0.406-1.003-1.059-1.704-2.362-1.704c-2.707,0-3.003,3.304-3.003,8.318c0,5.666,0.898,7.518,3.003,7.518
			c2.86,0,3.106-2.903,3.106-4.811l6.318,0.897c-0.597,6.122-4.109,9.327-10.022,9.327c-7.32,0-11.129-6.417-11.129-12.631
			c0-6.865,3.809-13.731,11.48-13.731c8.619,0,9.923,7.463,9.923,9.973H278.953z"/>
		<path clip-path="url(#SVGID_2_)" fill="#FCD3C4" d="M282.411,204.528c1.796,0,3.267,1.471,3.267,3.273
			c0,1.796-1.471,3.272-3.267,3.272c-1.81,0-3.273-1.477-3.273-3.272C279.138,205.999,280.602,204.528,282.411,204.528z"/>
		<path clip-path="url(#SVGID_2_)" fill="#F5846D" d="M296.253,266.875h8.127v11.984h0.099c1.157-1.206,3.255-2.055,4.91-2.055
			c5.616,0,8.625,5.61,8.625,12.883c0,5.765-2.405,13.178-9.223,13.178c-3.155,0-5.217-1.501-6.816-3.906l-1.507,3.604h-4.215
			V266.875z M304.38,294.498c-0.153,2.104,1.102,3.255,2.652,3.255c2.258,0,2.559-2.252,2.559-6.915v-1.907
			c0-5.015,0-7.616-2.51-7.616c-0.997,0-1.753,0.603-2.252,1.002l-0.449,0.449V294.498z"/>
		<path clip-path="url(#SVGID_2_)" fill="#F6967F" d="M313.356,266.875h8.121v11.984h0.099c1.156-1.206,3.26-2.055,4.915-2.055
			c5.617,0,8.619,5.61,8.619,12.883c0,5.765-2.405,13.178-9.222,13.178c-3.156,0-5.211-1.501-6.817-3.906l-1.507,3.604h-4.208
			V266.875z M321.478,294.498c-0.147,2.104,1.107,3.255,2.657,3.255c2.252,0,2.56-2.252,2.56-6.915v-1.907
			c0-5.015,0-7.616-2.51-7.616c-1.003,0-1.754,0.603-2.252,1.002l-0.455,0.449V294.498z"/>
		<path clip-path="url(#SVGID_2_)" fill="#F8AA95" d="M330.688,283.116h-3.311v-5.715h3.311v-2.806c0-6.164,3.058-8.422,8.422-8.422
			c1.6,0,2.806,0.153,4.109,0.301v6.214c-0.448-0.099-1.052-0.196-1.507-0.196c-2.055,0-2.904,0.646-2.904,2.152v2.757h4.411v5.715
			h-4.411v19.447h-8.12V283.116z"/>
		<path clip-path="url(#SVGID_2_)" fill="#F5846D" d="M296.253,225.741h8.127v11.979h0.099c1.157-1.206,3.255-2.055,4.91-2.055
			c5.616,0,8.625,5.616,8.625,12.882c0,5.765-2.405,13.185-9.223,13.185c-3.155,0-5.217-1.501-6.816-3.913l-1.507,3.618h-4.215
			V225.741z M304.38,253.358c-0.153,2.11,1.102,3.267,2.652,3.267c2.258,0,2.559-2.264,2.559-6.921v-1.907
			c0-5.008,0-7.616-2.51-7.616c-0.997,0-1.753,0.597-2.252,1.003l-0.449,0.448V253.358z"/>
		<path clip-path="url(#SVGID_2_)" fill="#F6967F" d="M313.356,225.741h8.121v11.979h0.099c1.156-1.206,3.26-2.055,4.915-2.055
			c5.617,0,8.619,5.616,8.619,12.882c0,5.765-2.405,13.185-9.222,13.185c-3.156,0-5.211-1.501-6.817-3.913l-1.507,3.618h-4.208
			V225.741z M321.478,253.358c-0.147,2.11,1.107,3.267,2.657,3.267c2.252,0,2.56-2.264,2.56-6.921v-1.907
			c0-5.008,0-7.616-2.51-7.616c-1.003,0-1.754,0.597-2.252,1.003l-0.455,0.448V253.358z"/>
		<path clip-path="url(#SVGID_2_)" fill="#F8AA95" d="M330.688,241.983h-3.311v-5.716h3.311v-2.806c0-6.164,3.058-8.422,8.422-8.422
			c1.6,0,2.806,0.147,4.109,0.295v6.22c-0.448-0.104-1.052-0.203-1.507-0.203c-2.055,0-2.904,0.658-2.904,2.16v2.756h4.411v5.716
			h-4.411v19.453h-8.12V241.983z"/>
		<path clip-path="url(#SVGID_2_)" fill="#F5846D" d="M296.253,184.614h8.127v11.978h0.099c1.157-1.199,3.255-2.055,4.91-2.055
			c5.616,0,8.625,5.611,8.625,12.883c0,5.759-2.405,13.178-9.223,13.178c-3.155,0-5.217-1.501-6.816-3.906l-1.507,3.605h-4.215
			V184.614z M304.38,212.23c-0.153,2.104,1.102,3.255,2.652,3.255c2.258,0,2.559-2.258,2.559-6.915v-1.907
			c0-5.014,0-7.616-2.51-7.616c-0.997,0-1.753,0.603-2.252,1.003l-0.449,0.449V212.23z"/>
		<path clip-path="url(#SVGID_2_)" fill="#F6967F" d="M313.356,184.614h8.121v11.978h0.099c1.156-1.199,3.26-2.055,4.915-2.055
			c5.617,0,8.619,5.611,8.619,12.883c0,5.759-2.405,13.178-9.222,13.178c-3.156,0-5.211-1.501-6.817-3.906l-1.507,3.605h-4.208
			V184.614z M321.478,212.23c-0.147,2.104,1.107,3.255,2.657,3.255c2.252,0,2.56-2.258,2.56-6.915v-1.907
			c0-5.014,0-7.616-2.51-7.616c-1.003,0-1.754,0.603-2.252,1.003l-0.455,0.449V212.23z"/>
		<path clip-path="url(#SVGID_2_)" fill="#F8AA95" d="M330.688,200.85h-3.311v-5.709h3.311v-2.806c0-6.165,3.058-8.423,8.422-8.423
			c1.6,0,2.806,0.148,4.109,0.295v6.22c-0.448-0.104-1.052-0.203-1.507-0.203c-2.055,0-2.904,0.652-2.904,2.159v2.757h4.411v5.709
			h-4.411v19.447h-8.12V200.85z"/>
		<path clip-path="url(#SVGID_2_)" fill="#F5846D" d="M151.418,143.48h8.121v11.985h0.099c1.156-1.206,3.261-2.062,4.915-2.062
			c5.617,0,8.626,5.617,8.626,12.889c0,5.765-2.406,13.178-9.229,13.178c-3.156,0-5.211-1.501-6.816-3.907l-1.501,3.605h-4.215
			V143.48z M159.539,171.104c-0.147,2.104,1.107,3.254,2.657,3.254c2.259,0,2.56-2.251,2.56-6.915v-1.907
			c0-5.008,0-7.616-2.51-7.616c-0.997,0-1.753,0.603-2.252,1.002l-0.455,0.449V171.104z"/>
		<path clip-path="url(#SVGID_2_)" fill="#F6967F" d="M168.521,143.48h8.121v11.985h0.098c1.151-1.206,3.261-2.062,4.916-2.062
			c5.61,0,8.619,5.617,8.619,12.889c0,5.765-2.405,13.178-9.222,13.178c-3.162,0-5.218-1.501-6.823-3.907l-1.501,3.605h-4.208
			V143.48z M176.643,171.104c-0.154,2.104,1.101,3.254,2.657,3.254c2.252,0,2.553-2.251,2.553-6.915v-1.907
			c0-5.008,0-7.616-2.504-7.616c-1.002,0-1.753,0.603-2.258,1.002l-0.448,0.449V171.104z"/>
		<path clip-path="url(#SVGID_2_)" fill="#F8AA95" d="M185.846,159.722h-3.304v-5.715h3.304v-2.805c0-6.165,3.058-8.422,8.423-8.422
			c1.605,0,2.812,0.154,4.115,0.301v6.214c-0.455-0.099-1.058-0.197-1.507-0.197c-2.055,0-2.91,0.652-2.91,2.153v2.756h4.417v5.715
			h-4.417v19.447h-8.121V159.722z"/>
		<path clip-path="url(#SVGID_2_)" fill="#FABEAB" d="M206.757,163.382c0-1.002-0.055-2.208-0.399-3.156
			c-0.406-1.003-1.052-1.704-2.356-1.704c-2.713,0-3.009,3.304-3.009,8.317c0,5.667,0.898,7.518,3.009,7.518
			c2.854,0,3.107-2.904,3.107-4.811l6.312,0.898c-0.597,6.121-4.109,9.333-10.021,9.333c-7.321,0-11.13-6.423-11.13-12.637
			c0-6.866,3.809-13.738,11.48-13.738c8.625,0,9.923,7.469,9.923,9.979H206.757z"/>
		<path clip-path="url(#SVGID_2_)" fill="#FCD3C4" d="M210.215,163.401c1.796,0,3.267,1.47,3.267,3.273
			c0,1.796-1.471,3.273-3.267,3.273c-1.809,0-3.273-1.477-3.273-3.273C206.941,164.871,208.406,163.401,210.215,163.401z"/>
		<path clip-path="url(#SVGID_2_)" fill="#F5846D" d="M79.229,143.48h8.12v11.985h0.099c1.157-1.206,3.261-2.062,4.916-2.062
			c5.61,0,8.619,5.617,8.619,12.889c0,5.765-2.405,13.178-9.222,13.178c-3.156,0-5.218-1.501-6.817-3.907l-1.507,3.605h-4.208
			V143.48z M87.349,171.104c-0.153,2.104,1.102,3.254,2.658,3.254c2.252,0,2.553-2.251,2.553-6.915v-1.907
			c0-5.008,0-7.616-2.504-7.616c-1.002,0-1.753,0.603-2.258,1.002l-0.449,0.449V171.104z"/>
		<path clip-path="url(#SVGID_2_)" fill="#F6967F" d="M96.325,143.48h8.127v11.985h0.099c1.15-1.206,3.255-2.062,4.909-2.062
			c5.617,0,8.619,5.617,8.619,12.889c0,5.765-2.405,13.178-9.222,13.178c-3.156,0-5.211-1.501-6.816-3.907l-1.508,3.605h-4.208
			V143.48z M104.452,171.104c-0.153,2.104,1.102,3.254,2.651,3.254c2.258,0,2.56-2.251,2.56-6.915v-1.907
			c0-5.008,0-7.616-2.51-7.616c-1.003,0-1.754,0.603-2.252,1.002l-0.449,0.449V171.104z"/>
		<path clip-path="url(#SVGID_2_)" fill="#F8AA95" d="M113.656,159.722h-3.311v-5.715h3.311v-2.805c0-6.165,3.058-8.422,8.422-8.422
			c1.6,0,2.806,0.154,4.11,0.301v6.214c-0.449-0.099-1.053-0.197-1.502-0.197c-2.061,0-2.91,0.652-2.91,2.153v2.756h4.412v5.715
			h-4.412v19.447h-8.12V159.722z"/>
		<path clip-path="url(#SVGID_2_)" fill="#FABEAB" d="M134.567,163.382c0-1.002-0.056-2.208-0.406-3.156
			c-0.399-1.003-1.052-1.704-2.356-1.704c-2.707,0-3.008,3.304-3.008,8.317c0,5.667,0.904,7.518,3.008,7.518
			c2.861,0,3.107-2.904,3.107-4.811l6.318,0.898c-0.604,6.121-4.11,9.333-10.028,9.333c-7.315,0-11.123-6.423-11.123-12.637
			c0-6.866,3.808-13.738,11.479-13.738c8.619,0,9.924,7.469,9.924,9.979H134.567z"/>
		<path clip-path="url(#SVGID_2_)" fill="#FCD3C4" d="M138.019,163.401c1.803,0,3.273,1.47,3.273,3.273
			c0,1.796-1.471,3.273-3.273,3.273s-3.267-1.477-3.267-3.273C134.752,164.871,136.216,163.401,138.019,163.401z"/>
		<path clip-path="url(#SVGID_2_)" fill="#F6967F" d="M24.136,143.48h8.12v11.985h0.099c1.15-1.206,3.261-2.062,4.916-2.062
			c5.61,0,8.619,5.617,8.619,12.889c0,5.765-2.405,13.178-9.223,13.178c-3.162,0-5.217-1.501-6.822-3.907l-1.501,3.605h-4.208
			V143.48z M32.256,171.104c-0.153,2.104,1.102,3.254,2.658,3.254c2.252,0,2.553-2.251,2.553-6.915v-1.907
			c0-5.008,0-7.616-2.504-7.616c-1.009,0-1.759,0.603-2.258,1.002l-0.449,0.449V171.104z"/>
		<path clip-path="url(#SVGID_2_)" fill="#F8AA95" d="M41.46,159.722h-3.304v-5.715h3.304v-2.805c0-6.165,3.058-8.422,8.422-8.422
			c1.606,0,2.813,0.154,4.11,0.301v6.214c-0.449-0.099-1.052-0.197-1.501-0.197c-2.056,0-2.91,0.652-2.91,2.153v2.756h4.411v5.715
			h-4.411v19.447H41.46V159.722z"/>
		<path clip-path="url(#SVGID_2_)" fill="#FABEAB" d="M62.371,163.382c0-1.002-0.056-2.208-0.399-3.156
			c-0.406-1.003-1.059-1.704-2.356-1.704c-2.714,0-3.009,3.304-3.009,8.317c0,5.667,0.898,7.518,3.009,7.518
			c2.854,0,3.106-2.904,3.106-4.811l6.313,0.898c-0.597,6.121-4.109,9.333-10.022,9.333c-7.32,0-11.129-6.423-11.129-12.637
			c0-6.866,3.809-13.738,11.479-13.738c8.626,0,9.924,7.469,9.924,9.979H62.371z"/>
		<path clip-path="url(#SVGID_2_)" fill="#FCD3C4" d="M65.829,163.401c1.796,0,3.267,1.47,3.267,3.273
			c0,1.796-1.471,3.273-3.267,3.273c-1.809,0-3.273-1.477-3.273-3.273C62.556,164.871,64.021,163.401,65.829,163.401z"/>
		<path clip-path="url(#SVGID_2_)" fill="#F5846D" d="M223.614,143.48h8.121v11.985h0.099c1.156-1.206,3.26-2.062,4.915-2.062
			c5.617,0,8.626,5.617,8.626,12.889c0,5.765-2.412,13.178-9.229,13.178c-3.156,0-5.211-1.501-6.817-3.907l-1.501,3.605h-4.214
			V143.48z M231.735,171.104c-0.147,2.104,1.101,3.254,2.657,3.254c2.252,0,2.56-2.251,2.56-6.915v-1.907
			c0-5.008,0-7.616-2.51-7.616c-1.003,0-1.754,0.603-2.258,1.002l-0.449,0.449V171.104z"/>
		<path clip-path="url(#SVGID_2_)" fill="#F6967F" d="M240.718,143.48h8.12v11.985h0.099c1.15-1.206,3.255-2.062,4.916-2.062
			c5.61,0,8.619,5.617,8.619,12.889c0,5.765-2.405,13.178-9.223,13.178c-3.162,0-5.217-1.501-6.822-3.907l-1.501,3.605h-4.208
			V143.48z M248.838,171.104c-0.153,2.104,1.102,3.254,2.652,3.254c2.258,0,2.559-2.251,2.559-6.915v-1.907
			c0-5.008,0-7.616-2.504-7.616c-1.009,0-1.759,0.603-2.258,1.002l-0.449,0.449V171.104z"/>
		<path clip-path="url(#SVGID_2_)" fill="#F8AA95" d="M258.042,159.722h-3.304v-5.715h3.304v-2.805c0-6.165,3.058-8.422,8.422-8.422
			c1.606,0,2.806,0.154,4.11,0.301v6.214c-0.449-0.099-1.053-0.197-1.501-0.197c-2.056,0-2.91,0.652-2.91,2.153v2.756h4.411v5.715
			h-4.411v19.447h-8.121V159.722z"/>
		<path clip-path="url(#SVGID_2_)" fill="#FABEAB" d="M278.953,163.382c0-1.002-0.056-2.208-0.399-3.156
			c-0.406-1.003-1.059-1.704-2.362-1.704c-2.707,0-3.003,3.304-3.003,8.317c0,5.667,0.898,7.518,3.003,7.518
			c2.86,0,3.106-2.904,3.106-4.811l6.318,0.898c-0.597,6.121-4.109,9.333-10.022,9.333c-7.32,0-11.129-6.423-11.129-12.637
			c0-6.866,3.809-13.738,11.48-13.738c8.619,0,9.923,7.469,9.923,9.979H278.953z"/>
		<path clip-path="url(#SVGID_2_)" fill="#FCD3C4" d="M282.411,163.401c1.796,0,3.267,1.47,3.267,3.273
			c0,1.796-1.471,3.273-3.267,3.273c-1.81,0-3.273-1.477-3.273-3.273C279.138,164.871,280.602,163.401,282.411,163.401z"/>
		<path clip-path="url(#SVGID_2_)" fill="#F5846D" d="M296.253,143.48h8.127v11.985h0.099c1.157-1.206,3.255-2.062,4.91-2.062
			c5.616,0,8.625,5.617,8.625,12.889c0,5.765-2.405,13.178-9.223,13.178c-3.155,0-5.217-1.501-6.816-3.907l-1.507,3.605h-4.215
			V143.48z M304.38,171.104c-0.153,2.104,1.102,3.254,2.652,3.254c2.258,0,2.559-2.251,2.559-6.915v-1.907
			c0-5.008,0-7.616-2.51-7.616c-0.997,0-1.753,0.603-2.252,1.002l-0.449,0.449V171.104z"/>
		<path clip-path="url(#SVGID_2_)" fill="#F6967F" d="M313.356,143.48h8.121v11.985h0.099c1.156-1.206,3.26-2.062,4.915-2.062
			c5.617,0,8.619,5.617,8.619,12.889c0,5.765-2.405,13.178-9.222,13.178c-3.156,0-5.211-1.501-6.817-3.907l-1.507,3.605h-4.208
			V143.48z M321.478,171.104c-0.147,2.104,1.107,3.254,2.657,3.254c2.252,0,2.56-2.251,2.56-6.915v-1.907
			c0-5.008,0-7.616-2.51-7.616c-1.003,0-1.754,0.603-2.252,1.002l-0.455,0.449V171.104z"/>
		<path clip-path="url(#SVGID_2_)" fill="#F8AA95" d="M330.688,159.722h-3.311v-5.715h3.311v-2.805c0-6.165,3.058-8.422,8.422-8.422
			c1.6,0,2.806,0.154,4.109,0.301v6.214c-0.448-0.099-1.052-0.197-1.507-0.197c-2.055,0-2.904,0.652-2.904,2.153v2.756h4.411v5.715
			h-4.411v19.447h-8.12V159.722z"/>
		<path clip-path="url(#SVGID_2_)" fill="#F5846D" d="M151.418,102.347h8.121v11.984h0.099c1.156-1.206,3.261-2.055,4.915-2.055
			c5.617,0,8.626,5.61,8.626,12.882c0,5.765-2.406,13.178-9.229,13.178c-3.156,0-5.211-1.501-6.816-3.907l-1.501,3.611h-4.215
			V102.347z M159.539,129.97c-0.147,2.104,1.107,3.261,2.657,3.261c2.259,0,2.56-2.258,2.56-6.921v-1.907
			c0-5.008,0-7.617-2.51-7.617c-0.997,0-1.753,0.603-2.252,1.003l-0.455,0.449V129.97z"/>
		<path clip-path="url(#SVGID_2_)" fill="#F6967F" d="M168.521,102.347h8.121v11.984h0.098c1.151-1.206,3.261-2.055,4.916-2.055
			c5.61,0,8.619,5.61,8.619,12.882c0,5.765-2.405,13.178-9.222,13.178c-3.162,0-5.218-1.501-6.823-3.907l-1.501,3.611h-4.208
			V102.347z M176.643,129.97c-0.154,2.104,1.101,3.261,2.657,3.261c2.252,0,2.553-2.258,2.553-6.921v-1.907
			c0-5.008,0-7.617-2.504-7.617c-1.002,0-1.753,0.603-2.258,1.003l-0.448,0.449V129.97z"/>
		<path clip-path="url(#SVGID_2_)" fill="#F8AA95" d="M185.846,118.588h-3.304v-5.715h3.304v-2.806c0-6.165,3.058-8.422,8.423-8.422
			c1.605,0,2.812,0.154,4.115,0.302v6.213c-0.455-0.098-1.058-0.197-1.507-0.197c-2.055,0-2.91,0.652-2.91,2.153v2.756h4.417v5.715
			h-4.417v19.453h-8.121V118.588z"/>
		<path clip-path="url(#SVGID_2_)" fill="#FABEAB" d="M206.757,122.249c0-1.003-0.055-2.203-0.399-3.156
			c-0.406-1.003-1.052-1.704-2.356-1.704c-2.713,0-3.009,3.304-3.009,8.318c0,5.666,0.898,7.524,3.009,7.524
			c2.854,0,3.107-2.91,3.107-4.817l6.312,0.905c-0.597,6.115-4.109,9.327-10.021,9.327c-7.321,0-11.13-6.423-11.13-12.637
			c0-6.866,3.809-13.731,11.48-13.731c8.625,0,9.923,7.462,9.923,9.973H206.757z"/>
		<path clip-path="url(#SVGID_2_)" fill="#FCD3C4" d="M210.215,122.267c1.796,0,3.267,1.471,3.267,3.273
			c0,1.797-1.471,3.273-3.267,3.273c-1.809,0-3.273-1.477-3.273-3.273C206.941,123.738,208.406,122.267,210.215,122.267z"/>
		<path clip-path="url(#SVGID_2_)" fill="#F5846D" d="M79.229,102.347h8.12v11.984h0.099c1.157-1.206,3.261-2.055,4.916-2.055
			c5.61,0,8.619,5.61,8.619,12.882c0,5.765-2.405,13.178-9.222,13.178c-3.156,0-5.218-1.501-6.817-3.907l-1.507,3.611h-4.208
			V102.347z M87.349,129.97c-0.153,2.104,1.102,3.261,2.658,3.261c2.252,0,2.553-2.258,2.553-6.921v-1.907
			c0-5.008,0-7.617-2.504-7.617c-1.002,0-1.753,0.603-2.258,1.003l-0.449,0.449V129.97z"/>
		<path clip-path="url(#SVGID_2_)" fill="#F6967F" d="M96.325,102.347h8.127v11.984h0.099c1.15-1.206,3.255-2.055,4.909-2.055
			c5.617,0,8.619,5.61,8.619,12.882c0,5.765-2.405,13.178-9.222,13.178c-3.156,0-5.211-1.501-6.816-3.907l-1.508,3.611h-4.208
			V102.347z M104.452,129.97c-0.153,2.104,1.102,3.261,2.651,3.261c2.258,0,2.56-2.258,2.56-6.921v-1.907
			c0-5.008,0-7.617-2.51-7.617c-1.003,0-1.754,0.603-2.252,1.003l-0.449,0.449V129.97z"/>
		<path clip-path="url(#SVGID_2_)" fill="#F8AA95" d="M113.656,118.588h-3.311v-5.715h3.311v-2.806c0-6.165,3.058-8.422,8.422-8.422
			c1.6,0,2.806,0.154,4.11,0.302v6.213c-0.449-0.098-1.053-0.197-1.502-0.197c-2.061,0-2.91,0.652-2.91,2.153v2.756h4.412v5.715
			h-4.412v19.453h-8.12V118.588z"/>
		<path clip-path="url(#SVGID_2_)" fill="#FABEAB" d="M134.567,122.249c0-1.003-0.056-2.203-0.406-3.156
			c-0.399-1.003-1.052-1.704-2.356-1.704c-2.707,0-3.008,3.304-3.008,8.318c0,5.666,0.904,7.524,3.008,7.524
			c2.861,0,3.107-2.91,3.107-4.817l6.318,0.905c-0.604,6.115-4.11,9.327-10.028,9.327c-7.315,0-11.123-6.423-11.123-12.637
			c0-6.866,3.808-13.731,11.479-13.731c8.619,0,9.924,7.462,9.924,9.973H134.567z"/>
		<path clip-path="url(#SVGID_2_)" fill="#FCD3C4" d="M138.019,122.267c1.803,0,3.273,1.471,3.273,3.273
			c0,1.797-1.471,3.273-3.273,3.273s-3.267-1.477-3.267-3.273C134.752,123.738,136.216,122.267,138.019,122.267z"/>
		<path clip-path="url(#SVGID_2_)" fill="#F6967F" d="M24.136,102.347h8.12v11.984h0.099c1.15-1.206,3.261-2.055,4.916-2.055
			c5.61,0,8.619,5.61,8.619,12.882c0,5.765-2.405,13.178-9.223,13.178c-3.162,0-5.217-1.501-6.822-3.907l-1.501,3.611h-4.208
			V102.347z M32.256,129.97c-0.153,2.104,1.102,3.261,2.658,3.261c2.252,0,2.553-2.258,2.553-6.921v-1.907
			c0-5.008,0-7.617-2.504-7.617c-1.009,0-1.759,0.603-2.258,1.003l-0.449,0.449V129.97z"/>
		<path clip-path="url(#SVGID_2_)" fill="#F8AA95" d="M41.46,118.588h-3.304v-5.715h3.304v-2.806c0-6.165,3.058-8.422,8.422-8.422
			c1.606,0,2.813,0.154,4.11,0.302v6.213c-0.449-0.098-1.052-0.197-1.501-0.197c-2.056,0-2.91,0.652-2.91,2.153v2.756h4.411v5.715
			h-4.411v19.453H41.46V118.588z"/>
		<path clip-path="url(#SVGID_2_)" fill="#FABEAB" d="M62.371,122.249c0-1.003-0.056-2.203-0.399-3.156
			c-0.406-1.003-1.059-1.704-2.356-1.704c-2.714,0-3.009,3.304-3.009,8.318c0,5.666,0.898,7.524,3.009,7.524
			c2.854,0,3.106-2.91,3.106-4.817l6.313,0.905c-0.597,6.115-4.109,9.327-10.022,9.327c-7.32,0-11.129-6.423-11.129-12.637
			c0-6.866,3.809-13.731,11.479-13.731c8.626,0,9.924,7.462,9.924,9.973H62.371z"/>
		<path clip-path="url(#SVGID_2_)" fill="#FCD3C4" d="M65.829,122.267c1.796,0,3.267,1.471,3.267,3.273
			c0,1.797-1.471,3.273-3.267,3.273c-1.809,0-3.273-1.477-3.273-3.273C62.556,123.738,64.021,122.267,65.829,122.267z"/>
		<path clip-path="url(#SVGID_2_)" fill="#F5846D" d="M223.614,102.347h8.121v11.984h0.099c1.156-1.206,3.26-2.055,4.915-2.055
			c5.617,0,8.626,5.61,8.626,12.882c0,5.765-2.412,13.178-9.229,13.178c-3.156,0-5.211-1.501-6.817-3.907l-1.501,3.611h-4.214
			V102.347z M231.735,129.97c-0.147,2.104,1.101,3.261,2.657,3.261c2.252,0,2.56-2.258,2.56-6.921v-1.907
			c0-5.008,0-7.617-2.51-7.617c-1.003,0-1.754,0.603-2.258,1.003l-0.449,0.449V129.97z"/>
		<path clip-path="url(#SVGID_2_)" fill="#F6967F" d="M240.718,102.347h8.12v11.984h0.099c1.15-1.206,3.255-2.055,4.916-2.055
			c5.61,0,8.619,5.61,8.619,12.882c0,5.765-2.405,13.178-9.223,13.178c-3.162,0-5.217-1.501-6.822-3.907l-1.501,3.611h-4.208
			V102.347z M248.838,129.97c-0.153,2.104,1.102,3.261,2.652,3.261c2.258,0,2.559-2.258,2.559-6.921v-1.907
			c0-5.008,0-7.617-2.504-7.617c-1.009,0-1.759,0.603-2.258,1.003l-0.449,0.449V129.97z"/>
		<path clip-path="url(#SVGID_2_)" fill="#F8AA95" d="M258.042,118.588h-3.304v-5.715h3.304v-2.806c0-6.165,3.058-8.422,8.422-8.422
			c1.606,0,2.806,0.154,4.11,0.302v6.213c-0.449-0.098-1.053-0.197-1.501-0.197c-2.056,0-2.91,0.652-2.91,2.153v2.756h4.411v5.715
			h-4.411v19.453h-8.121V118.588z"/>
		<path clip-path="url(#SVGID_2_)" fill="#FABEAB" d="M278.953,122.249c0-1.003-0.056-2.203-0.399-3.156
			c-0.406-1.003-1.059-1.704-2.362-1.704c-2.707,0-3.003,3.304-3.003,8.318c0,5.666,0.898,7.524,3.003,7.524
			c2.86,0,3.106-2.91,3.106-4.817l6.318,0.905c-0.597,6.115-4.109,9.327-10.022,9.327c-7.32,0-11.129-6.423-11.129-12.637
			c0-6.866,3.809-13.731,11.48-13.731c8.619,0,9.923,7.462,9.923,9.973H278.953z"/>
		<path clip-path="url(#SVGID_2_)" fill="#FCD3C4" d="M282.411,122.267c1.796,0,3.267,1.471,3.267,3.273
			c0,1.797-1.471,3.273-3.267,3.273c-1.81,0-3.273-1.477-3.273-3.273C279.138,123.738,280.602,122.267,282.411,122.267z"/>
		<path clip-path="url(#SVGID_2_)" fill="#F5846D" d="M296.253,102.347h8.127v11.984h0.099c1.157-1.206,3.255-2.055,4.91-2.055
			c5.616,0,8.625,5.61,8.625,12.882c0,5.765-2.405,13.178-9.223,13.178c-3.155,0-5.217-1.501-6.816-3.907l-1.507,3.611h-4.215
			V102.347z M304.38,129.97c-0.153,2.104,1.102,3.261,2.652,3.261c2.258,0,2.559-2.258,2.559-6.921v-1.907
			c0-5.008,0-7.617-2.51-7.617c-0.997,0-1.753,0.603-2.252,1.003l-0.449,0.449V129.97z"/>
		<path clip-path="url(#SVGID_2_)" fill="#F6967F" d="M313.356,102.347h8.121v11.984h0.099c1.156-1.206,3.26-2.055,4.915-2.055
			c5.617,0,8.619,5.61,8.619,12.882c0,5.765-2.405,13.178-9.222,13.178c-3.156,0-5.211-1.501-6.817-3.907l-1.507,3.611h-4.208
			V102.347z M321.478,129.97c-0.147,2.104,1.107,3.261,2.657,3.261c2.252,0,2.56-2.258,2.56-6.921v-1.907
			c0-5.008,0-7.617-2.51-7.617c-1.003,0-1.754,0.603-2.252,1.003l-0.455,0.449V129.97z"/>
		<path clip-path="url(#SVGID_2_)" fill="#F8AA95" d="M330.688,118.588h-3.311v-5.715h3.311v-2.806c0-6.165,3.058-8.422,8.422-8.422
			c1.6,0,2.806,0.154,4.109,0.302v6.213c-0.448-0.098-1.052-0.197-1.507-0.197c-2.055,0-2.904,0.652-2.904,2.153v2.756h4.411v5.715
			h-4.411v19.453h-8.12V118.588z"/>
		<path clip-path="url(#SVGID_2_)" fill="#F5846D" d="M151.418,61.213h8.121v11.984h0.099c1.156-1.206,3.261-2.055,4.915-2.055
			c5.617,0,8.626,5.611,8.626,12.883c0,5.765-2.406,13.184-9.229,13.184c-3.156,0-5.211-1.501-6.816-3.913l-1.501,3.612h-4.215
			V61.213z M159.539,88.836c-0.147,2.104,1.107,3.26,2.657,3.26c2.259,0,2.56-2.258,2.56-6.921v-1.907c0-5.008,0-7.616-2.51-7.616
			c-0.997,0-1.753,0.603-2.252,1.002l-0.455,0.449V88.836z"/>
		<path clip-path="url(#SVGID_2_)" fill="#F6967F" d="M168.521,61.213h8.121v11.984h0.098c1.151-1.206,3.261-2.055,4.916-2.055
			c5.61,0,8.619,5.611,8.619,12.883c0,5.765-2.405,13.184-9.222,13.184c-3.162,0-5.218-1.501-6.823-3.913l-1.501,3.612h-4.208
			V61.213z M176.643,88.836c-0.154,2.104,1.101,3.26,2.657,3.26c2.252,0,2.553-2.258,2.553-6.921v-1.907
			c0-5.008,0-7.616-2.504-7.616c-1.002,0-1.753,0.603-2.258,1.002l-0.448,0.449V88.836z"/>
		<path clip-path="url(#SVGID_2_)" fill="#F8AA95" d="M185.846,77.455h-3.304v-5.715h3.304v-2.805c0-6.165,3.058-8.422,8.423-8.422
			c1.605,0,2.812,0.154,4.115,0.301v6.214c-0.455-0.099-1.058-0.197-1.507-0.197c-2.055,0-2.91,0.652-2.91,2.153v2.756h4.417v5.715
			h-4.417v19.454h-8.121V77.455z"/>
		<path clip-path="url(#SVGID_2_)" fill="#FABEAB" d="M206.757,81.115c0-1.003-0.055-2.203-0.399-3.156
			c-0.406-1.002-1.052-1.704-2.356-1.704c-2.713,0-3.009,3.304-3.009,8.318c0,5.666,0.898,7.524,3.009,7.524
			c2.854,0,3.107-2.91,3.107-4.817l6.312,0.904c-0.597,6.115-4.109,9.327-10.021,9.327c-7.321,0-11.13-6.423-11.13-12.637
			c0-6.866,3.809-13.731,11.48-13.731c8.625,0,9.923,7.462,9.923,9.973H206.757z"/>
		<path clip-path="url(#SVGID_2_)" fill="#FCD3C4" d="M210.215,81.134c1.796,0,3.267,1.47,3.267,3.273
			c0,1.796-1.471,3.273-3.267,3.273c-1.809,0-3.273-1.477-3.273-3.273C206.941,82.604,208.406,81.134,210.215,81.134z"/>
		<path clip-path="url(#SVGID_2_)" fill="#F5846D" d="M79.229,61.213h8.12v11.984h0.099c1.157-1.206,3.261-2.055,4.916-2.055
			c5.61,0,8.619,5.611,8.619,12.883c0,5.765-2.405,13.184-9.222,13.184c-3.156,0-5.218-1.501-6.817-3.913l-1.507,3.612h-4.208
			V61.213z M87.349,88.836c-0.153,2.104,1.102,3.26,2.658,3.26c2.252,0,2.553-2.258,2.553-6.921v-1.907c0-5.008,0-7.616-2.504-7.616
			c-1.002,0-1.753,0.603-2.258,1.002l-0.449,0.449V88.836z"/>
		<path clip-path="url(#SVGID_2_)" fill="#F6967F" d="M96.325,61.213h8.127v11.984h0.099c1.15-1.206,3.255-2.055,4.909-2.055
			c5.617,0,8.619,5.611,8.619,12.883c0,5.765-2.405,13.184-9.222,13.184c-3.156,0-5.211-1.501-6.816-3.913l-1.508,3.612h-4.208
			V61.213z M104.452,88.836c-0.153,2.104,1.102,3.26,2.651,3.26c2.258,0,2.56-2.258,2.56-6.921v-1.907c0-5.008,0-7.616-2.51-7.616
			c-1.003,0-1.754,0.603-2.252,1.002l-0.449,0.449V88.836z"/>
		<path clip-path="url(#SVGID_2_)" fill="#F8AA95" d="M113.656,77.455h-3.311v-5.715h3.311v-2.805c0-6.165,3.058-8.422,8.422-8.422
			c1.6,0,2.806,0.154,4.11,0.301v6.214c-0.449-0.099-1.053-0.197-1.502-0.197c-2.061,0-2.91,0.652-2.91,2.153v2.756h4.412v5.715
			h-4.412v19.454h-8.12V77.455z"/>
		<path clip-path="url(#SVGID_2_)" fill="#FABEAB" d="M134.567,81.115c0-1.003-0.056-2.203-0.406-3.156
			c-0.399-1.002-1.052-1.704-2.356-1.704c-2.707,0-3.008,3.304-3.008,8.318c0,5.666,0.904,7.524,3.008,7.524
			c2.861,0,3.107-2.91,3.107-4.817l6.318,0.904c-0.604,6.115-4.11,9.327-10.028,9.327c-7.315,0-11.123-6.423-11.123-12.637
			c0-6.866,3.808-13.731,11.479-13.731c8.619,0,9.924,7.462,9.924,9.973H134.567z"/>
		<path clip-path="url(#SVGID_2_)" fill="#FCD3C4" d="M138.019,81.134c1.803,0,3.273,1.47,3.273,3.273
			c0,1.796-1.471,3.273-3.273,3.273s-3.267-1.477-3.267-3.273C134.752,82.604,136.216,81.134,138.019,81.134z"/>
		<path clip-path="url(#SVGID_2_)" fill="#F6967F" d="M24.136,61.213h8.12v11.984h0.099c1.15-1.206,3.261-2.055,4.916-2.055
			c5.61,0,8.619,5.611,8.619,12.883c0,5.765-2.405,13.184-9.223,13.184c-3.162,0-5.217-1.501-6.822-3.913l-1.501,3.612h-4.208
			V61.213z M32.256,88.836c-0.153,2.104,1.102,3.26,2.658,3.26c2.252,0,2.553-2.258,2.553-6.921v-1.907c0-5.008,0-7.616-2.504-7.616
			c-1.009,0-1.759,0.603-2.258,1.002l-0.449,0.449V88.836z"/>
		<path clip-path="url(#SVGID_2_)" fill="#F8AA95" d="M41.46,77.455h-3.304v-5.715h3.304v-2.805c0-6.165,3.058-8.422,8.422-8.422
			c1.606,0,2.813,0.154,4.11,0.301v6.214c-0.449-0.099-1.052-0.197-1.501-0.197c-2.056,0-2.91,0.652-2.91,2.153v2.756h4.411v5.715
			h-4.411v19.454H41.46V77.455z"/>
		<path clip-path="url(#SVGID_2_)" fill="#FABEAB" d="M62.371,81.115c0-1.003-0.056-2.203-0.399-3.156
			c-0.406-1.002-1.059-1.704-2.356-1.704c-2.714,0-3.009,3.304-3.009,8.318c0,5.666,0.898,7.524,3.009,7.524
			c2.854,0,3.106-2.91,3.106-4.817l6.313,0.904c-0.597,6.115-4.109,9.327-10.022,9.327c-7.32,0-11.129-6.423-11.129-12.637
			c0-6.866,3.809-13.731,11.479-13.731c8.626,0,9.924,7.462,9.924,9.973H62.371z"/>
		<path clip-path="url(#SVGID_2_)" fill="#FCD3C4" d="M65.829,81.134c1.796,0,3.267,1.47,3.267,3.273
			c0,1.796-1.471,3.273-3.267,3.273c-1.809,0-3.273-1.477-3.273-3.273C62.556,82.604,64.021,81.134,65.829,81.134z"/>
		<path clip-path="url(#SVGID_2_)" fill="#F5846D" d="M223.614,61.213h8.121v11.984h0.099c1.156-1.206,3.26-2.055,4.915-2.055
			c5.617,0,8.626,5.611,8.626,12.883c0,5.765-2.412,13.184-9.229,13.184c-3.156,0-5.211-1.501-6.817-3.913l-1.501,3.612h-4.214
			V61.213z M231.735,88.836c-0.147,2.104,1.101,3.26,2.657,3.26c2.252,0,2.56-2.258,2.56-6.921v-1.907c0-5.008,0-7.616-2.51-7.616
			c-1.003,0-1.754,0.603-2.258,1.002l-0.449,0.449V88.836z"/>
		<path clip-path="url(#SVGID_2_)" fill="#F6967F" d="M240.718,61.213h8.12v11.984h0.099c1.15-1.206,3.255-2.055,4.916-2.055
			c5.61,0,8.619,5.611,8.619,12.883c0,5.765-2.405,13.184-9.223,13.184c-3.162,0-5.217-1.501-6.822-3.913l-1.501,3.612h-4.208
			V61.213z M248.838,88.836c-0.153,2.104,1.102,3.26,2.652,3.26c2.258,0,2.559-2.258,2.559-6.921v-1.907
			c0-5.008,0-7.616-2.504-7.616c-1.009,0-1.759,0.603-2.258,1.002l-0.449,0.449V88.836z"/>
		<path clip-path="url(#SVGID_2_)" fill="#F8AA95" d="M258.042,77.455h-3.304v-5.715h3.304v-2.805c0-6.165,3.058-8.422,8.422-8.422
			c1.606,0,2.806,0.154,4.11,0.301v6.214c-0.449-0.099-1.053-0.197-1.501-0.197c-2.056,0-2.91,0.652-2.91,2.153v2.756h4.411v5.715
			h-4.411v19.454h-8.121V77.455z"/>
		<path clip-path="url(#SVGID_2_)" fill="#FABEAB" d="M278.953,81.115c0-1.003-0.056-2.203-0.399-3.156
			c-0.406-1.002-1.059-1.704-2.362-1.704c-2.707,0-3.003,3.304-3.003,8.318c0,5.666,0.898,7.524,3.003,7.524
			c2.86,0,3.106-2.91,3.106-4.817l6.318,0.904c-0.597,6.115-4.109,9.327-10.022,9.327c-7.32,0-11.129-6.423-11.129-12.637
			c0-6.866,3.809-13.731,11.48-13.731c8.619,0,9.923,7.462,9.923,9.973H278.953z"/>
		<path clip-path="url(#SVGID_2_)" fill="#FCD3C4" d="M282.411,81.134c1.796,0,3.267,1.47,3.267,3.273
			c0,1.796-1.471,3.273-3.267,3.273c-1.81,0-3.273-1.477-3.273-3.273C279.138,82.604,280.602,81.134,282.411,81.134z"/>
		<path clip-path="url(#SVGID_2_)" fill="#F5846D" d="M296.253,61.213h8.127v11.984h0.099c1.157-1.206,3.255-2.055,4.91-2.055
			c5.616,0,8.625,5.611,8.625,12.883c0,5.765-2.405,13.184-9.223,13.184c-3.155,0-5.217-1.501-6.816-3.913l-1.507,3.612h-4.215
			V61.213z M304.38,88.836c-0.153,2.104,1.102,3.26,2.652,3.26c2.258,0,2.559-2.258,2.559-6.921v-1.907c0-5.008,0-7.616-2.51-7.616
			c-0.997,0-1.753,0.603-2.252,1.002l-0.449,0.449V88.836z"/>
		<path clip-path="url(#SVGID_2_)" fill="#F6967F" d="M313.356,61.213h8.121v11.984h0.099c1.156-1.206,3.26-2.055,4.915-2.055
			c5.617,0,8.619,5.611,8.619,12.883c0,5.765-2.405,13.184-9.222,13.184c-3.156,0-5.211-1.501-6.817-3.913l-1.507,3.612h-4.208
			V61.213z M321.478,88.836c-0.147,2.104,1.107,3.26,2.657,3.26c2.252,0,2.56-2.258,2.56-6.921v-1.907c0-5.008,0-7.616-2.51-7.616
			c-1.003,0-1.754,0.603-2.252,1.002l-0.455,0.449V88.836z"/>
		<path clip-path="url(#SVGID_2_)" fill="#F8AA95" d="M330.688,77.455h-3.311v-5.715h3.311v-2.805c0-6.165,3.058-8.422,8.422-8.422
			c1.6,0,2.806,0.154,4.109,0.301v6.214c-0.448-0.099-1.052-0.197-1.507-0.197c-2.055,0-2.904,0.652-2.904,2.153v2.756h4.411v5.715
			h-4.411v19.454h-8.12V77.455z"/>
		<path clip-path="url(#SVGID_2_)" fill="#F5846D" d="M151.418,20.079h8.121v11.984h0.099c1.156-1.206,3.261-2.055,4.915-2.055
			c5.617,0,8.626,5.611,8.626,12.883c0,5.765-2.406,13.184-9.229,13.184c-3.156,0-5.211-1.501-6.816-3.913l-1.501,3.611h-4.215
			V20.079z M159.539,47.703c-0.147,2.104,1.107,3.261,2.657,3.261c2.259,0,2.56-2.258,2.56-6.921v-1.907c0-5.008,0-7.616-2.51-7.616
			c-0.997,0-1.753,0.603-2.252,1.003l-0.455,0.455V47.703z"/>
		<path clip-path="url(#SVGID_2_)" fill="#F6967F" d="M168.521,20.079h8.121v11.984h0.098c1.151-1.206,3.261-2.055,4.916-2.055
			c5.61,0,8.619,5.611,8.619,12.883c0,5.765-2.405,13.184-9.222,13.184c-3.162,0-5.218-1.501-6.823-3.913l-1.501,3.611h-4.208
			V20.079z M176.643,47.703c-0.154,2.104,1.101,3.261,2.657,3.261c2.252,0,2.553-2.258,2.553-6.921v-1.907
			c0-5.008,0-7.616-2.504-7.616c-1.002,0-1.753,0.603-2.258,1.003l-0.448,0.455V47.703z"/>
		<path clip-path="url(#SVGID_2_)" fill="#F8AA95" d="M185.846,36.321h-3.304v-5.709h3.304V27.8c0-6.165,3.058-8.422,8.423-8.422
			c1.605,0,2.812,0.154,4.115,0.301v6.214c-0.455-0.098-1.058-0.197-1.507-0.197c-2.055,0-2.91,0.652-2.91,2.153v2.762h4.417v5.709
			h-4.417v19.453h-8.121V36.321z"/>
		<path clip-path="url(#SVGID_2_)" fill="#FABEAB" d="M206.757,39.981c0-1.002-0.055-2.202-0.399-3.156
			c-0.406-1.003-1.052-1.704-2.356-1.704c-2.713,0-3.009,3.31-3.009,8.317c0,5.667,0.898,7.524,3.009,7.524
			c2.854,0,3.107-2.91,3.107-4.817l6.312,0.904c-0.597,6.116-4.109,9.327-10.021,9.327c-7.321,0-11.13-6.417-11.13-12.631
			c0-6.872,3.809-13.738,11.48-13.738c8.625,0,9.923,7.463,9.923,9.973H206.757z"/>
		<path clip-path="url(#SVGID_2_)" fill="#FCD3C4" d="M210.215,40c1.796,0,3.267,1.471,3.267,3.273c0,1.796-1.471,3.273-3.267,3.273
			c-1.809,0-3.273-1.477-3.273-3.273C206.941,41.471,208.406,40,210.215,40z"/>
		<path clip-path="url(#SVGID_2_)" fill="#F5846D" d="M79.229,20.079h8.12v11.984h0.099c1.157-1.206,3.261-2.055,4.916-2.055
			c5.61,0,8.619,5.611,8.619,12.883c0,5.765-2.405,13.184-9.222,13.184c-3.156,0-5.218-1.501-6.817-3.913l-1.507,3.611h-4.208
			V20.079z M87.349,47.703c-0.153,2.104,1.102,3.261,2.658,3.261c2.252,0,2.553-2.258,2.553-6.921v-1.907
			c0-5.008,0-7.616-2.504-7.616c-1.002,0-1.753,0.603-2.258,1.003l-0.449,0.455V47.703z"/>
		<path clip-path="url(#SVGID_2_)" fill="#F6967F" d="M96.325,20.079h8.127v11.984h0.099c1.15-1.206,3.255-2.055,4.909-2.055
			c5.617,0,8.619,5.611,8.619,12.883c0,5.765-2.405,13.184-9.222,13.184c-3.156,0-5.211-1.501-6.816-3.913l-1.508,3.611h-4.208
			V20.079z M104.452,47.703c-0.153,2.104,1.102,3.261,2.651,3.261c2.258,0,2.56-2.258,2.56-6.921v-1.907c0-5.008,0-7.616-2.51-7.616
			c-1.003,0-1.754,0.603-2.252,1.003l-0.449,0.455V47.703z"/>
		<path clip-path="url(#SVGID_2_)" fill="#F8AA95" d="M113.656,36.321h-3.311v-5.709h3.311V27.8c0-6.165,3.058-8.422,8.422-8.422
			c1.6,0,2.806,0.154,4.11,0.301v6.214c-0.449-0.098-1.053-0.197-1.502-0.197c-2.061,0-2.91,0.652-2.91,2.153v2.762h4.412v5.709
			h-4.412v19.453h-8.12V36.321z"/>
		<path clip-path="url(#SVGID_2_)" fill="#FABEAB" d="M134.567,39.981c0-1.002-0.056-2.202-0.406-3.156
			c-0.399-1.003-1.052-1.704-2.356-1.704c-2.707,0-3.008,3.31-3.008,8.317c0,5.667,0.904,7.524,3.008,7.524
			c2.861,0,3.107-2.91,3.107-4.817l6.318,0.904c-0.604,6.116-4.11,9.327-10.028,9.327c-7.315,0-11.123-6.417-11.123-12.631
			c0-6.872,3.808-13.738,11.479-13.738c8.619,0,9.924,7.463,9.924,9.973H134.567z"/>
		<path clip-path="url(#SVGID_2_)" fill="#FCD3C4" d="M138.019,40c1.803,0,3.273,1.471,3.273,3.273c0,1.796-1.471,3.273-3.273,3.273
			s-3.267-1.477-3.267-3.273C134.752,41.471,136.216,40,138.019,40z"/>
		<path clip-path="url(#SVGID_2_)" fill="#F5846D" d="M223.614,20.079h8.121v11.984h0.099c1.156-1.206,3.26-2.055,4.915-2.055
			c5.617,0,8.626,5.611,8.626,12.883c0,5.765-2.412,13.184-9.229,13.184c-3.156,0-5.211-1.501-6.817-3.913l-1.501,3.611h-4.214
			V20.079z M231.735,47.703c-0.147,2.104,1.101,3.261,2.657,3.261c2.252,0,2.56-2.258,2.56-6.921v-1.907c0-5.008,0-7.616-2.51-7.616
			c-1.003,0-1.754,0.603-2.258,1.003l-0.449,0.455V47.703z"/>
		<path clip-path="url(#SVGID_2_)" fill="#F6967F" d="M240.718,20.079h8.12v11.984h0.099c1.15-1.206,3.255-2.055,4.916-2.055
			c5.61,0,8.619,5.611,8.619,12.883c0,5.765-2.405,13.184-9.223,13.184c-3.162,0-5.217-1.501-6.822-3.913l-1.501,3.611h-4.208
			V20.079z M248.838,47.703c-0.153,2.104,1.102,3.261,2.652,3.261c2.258,0,2.559-2.258,2.559-6.921v-1.907
			c0-5.008,0-7.616-2.504-7.616c-1.009,0-1.759,0.603-2.258,1.003l-0.449,0.455V47.703z"/>
		<path clip-path="url(#SVGID_2_)" fill="#F8AA95" d="M258.042,36.321h-3.304v-5.709h3.304V27.8c0-6.165,3.058-8.422,8.422-8.422
			c1.606,0,2.806,0.154,4.11,0.301v6.214c-0.449-0.098-1.053-0.197-1.501-0.197c-2.056,0-2.91,0.652-2.91,2.153v2.762h4.411v5.709
			h-4.411v19.453h-8.121V36.321z"/>
		<path clip-path="url(#SVGID_2_)" fill="#FABEAB" d="M278.953,39.981c0-1.002-0.056-2.202-0.399-3.156
			c-0.406-1.003-1.059-1.704-2.362-1.704c-2.707,0-3.003,3.31-3.003,8.317c0,5.667,0.898,7.524,3.003,7.524
			c2.86,0,3.106-2.91,3.106-4.817l6.318,0.904c-0.597,6.116-4.109,9.327-10.022,9.327c-7.32,0-11.129-6.417-11.129-12.631
			c0-6.872,3.809-13.738,11.48-13.738c8.619,0,9.923,7.463,9.923,9.973H278.953z"/>
		<path clip-path="url(#SVGID_2_)" fill="#FCD3C4" d="M282.411,40c1.796,0,3.267,1.471,3.267,3.273c0,1.796-1.471,3.273-3.267,3.273
			c-1.81,0-3.273-1.477-3.273-3.273C279.138,41.471,280.602,40,282.411,40z"/>
	</g>
	<polygon fill="#231F20" points="135.672,241.875 135.672,155.166 117.56,170.83 117.56,142.936 135.672,127.275 161.813,127.275 
		161.813,241.875 	"/>
	<path fill="#231F20" d="M237.964,233.016c-4.989,4.99-13.682,9.813-26.559,9.813c-12.873,0-22.21-4.983-27.199-9.973
		c-8.207-8.214-9.333-17.546-9.979-25.913h26.393c0.807,7.561,4.03,12.07,10.785,12.07c3.221,0,5.315-0.806,7.404-2.897
		c2.414-2.412,3.381-6.596,3.381-13.362c0-12.711-4.347-16.255-10.785-16.255c-7.721,0-9.656,5.149-10.785,8.214h-24.301v-67.438
		h69.067v23.818h-45.086v17.706c2.251-1.771,8.37-4.509,15.454-4.509c9.976,0,17.54,3.38,22.209,8.047
		c9.333,9.336,10.622,19.638,10.622,30.417C248.586,216.602,246.491,224.483,237.964,233.016z"/>
	<polygon fill="#ED1C2E" points="126.741,232.948 126.741,146.236 108.63,161.9 108.63,134.009 126.741,118.345 152.886,118.345 
		152.886,232.948 	"/>
	<path fill="#ED1C2E" d="M229.034,224.089c-4.989,4.983-13.683,9.813-26.556,9.813c-12.877,0-22.213-4.99-27.202-9.979
		c-8.207-8.207-9.333-17.54-9.976-25.906h26.393c0.803,7.561,4.026,12.07,10.785,12.07c3.218,0,5.313-0.813,7.401-2.897
		c2.414-2.418,3.38-6.602,3.38-13.363c0-12.716-4.347-16.254-10.781-16.254c-7.725,0-9.659,5.149-10.785,8.207H167.39v-67.434
		h69.067v23.818h-45.083v17.706c2.251-1.769,8.366-4.506,15.451-4.506c9.976,0,17.539,3.377,22.209,8.047
		c9.333,9.333,10.622,19.635,10.622,30.416C239.656,207.669,237.562,215.557,229.034,224.089z"/>
</g>
</svg>
