<?xml version="1.0" encoding="utf-8"?>
<!-- Generator: Adobe Illustrator 16.0.0, SVG Export Plug-In . SVG Version: 6.00 Build 0)  -->
<!DOCTYPE svg PUBLIC "-//W3C//DTD SVG 1.1//EN" "http://www.w3.org/Graphics/SVG/1.1/DTD/svg11.dtd">
<svg version="1.1" id="Layer_1" xmlns="http://www.w3.org/2000/svg" xmlns:xlink="http://www.w3.org/1999/xlink" x="0px" y="0px"
	 width="433.787px" height="347.038px" viewBox="0 0 433.787 347.038" enable-background="new 0 0 433.787 347.038"
	 xml:space="preserve">
<g>
	<polygon fill="#FFFFFF" points="428.954,344.358 4.833,344.358 216.896,5.054 	"/>
	<polygon fill="#231F20" points="428.954,344.358 428.954,341.68 9.665,341.68 216.896,10.108 426.683,345.78 428.954,344.358 
		428.954,341.68 428.954,344.358 431.226,342.938 216.896,0 0,347.038 433.787,347.038 431.226,342.938 	"/>
	<path fill="#009370" d="M363.987,334.792c-0.043,0.517-0.449,0.751-0.969,0.751c-0.674,0-1.114-0.622-1.114-1.434
		c0-0.874,0.385-1.402,1.092-1.402c0.461,0,0.892,0.19,0.99,0.72h1.049c-0.188-1.169-1.006-1.778-2.04-1.778
		c-1.467,0-2.372,1.046-2.372,2.479c0,1.391,0.95,2.473,2.393,2.473c1.003,0,1.898-0.627,2.061-1.809H363.987z M358.573,334.128
		c0,2.381,1.944,4.325,4.325,4.325s4.319-1.944,4.319-4.325s-1.938-4.319-4.319-4.319S358.573,331.747,358.573,334.128z
		 M362.898,337.327c-1.753,0-2.978-1.225-2.978-3.199s1.224-3.193,2.978-3.193s2.975,1.219,2.975,3.193
		S364.651,337.327,362.898,337.327z"/>
	<path fill="#009370" d="M367.826,336.773l3.34-2.714c0.363-0.295,1.058-0.99,1.058-1.563c0-0.64-0.431-1.033-1.058-1.033
		c-0.831,0-1.402,0.701-1.643,1.434l-1.723-0.886c0.431-1.089,1.6-2.135,3.532-2.135c2.565,0,3.294,1.482,3.294,2.491
		c0,1.046-0.649,1.797-1.511,2.368l-2.27,1.551v0.024h3.771v1.987h-6.792V336.773z"/>
	<path fill="#009370" d="M380.438,334.165c0,2.232-0.474,2.7-1.193,2.7c-0.714,0-1.188-0.468-1.188-2.7
		c0-2.24,0.474-2.701,1.188-2.701C379.964,331.464,380.438,331.925,380.438,334.165z M375.608,334.165
		c0,2.719,1.554,4.288,3.636,4.288c2.085,0,3.639-1.569,3.639-4.288c0-1.735-0.892-4.288-3.639-4.288
		C376.5,329.877,375.608,332.43,375.608,334.165z"/>
	<path fill="#009370" d="M387.206,329.877c2.744,0,3.639,2.553,3.639,4.288c0,2.719-1.553,4.288-3.639,4.288
		c-2.083,0-3.636-1.569-3.636-4.288C383.569,332.43,384.461,329.877,387.206,329.877z M387.206,331.464
		c-0.717,0-1.19,0.461-1.19,2.701c0,2.232,0.474,2.7,1.19,2.7s1.19-0.468,1.19-2.7C388.396,331.925,387.922,331.464,387.206,331.464
		z"/>
	<path fill="#009370" d="M391.703,336.773l3.341-2.714c0.363-0.295,1.058-0.99,1.058-1.563c0-0.64-0.431-1.033-1.058-1.033
		c-0.825,0-1.4,0.701-1.643,1.434l-1.72-0.886c0.431-1.089,1.6-2.135,3.528-2.135c2.568,0,3.297,1.482,3.297,2.491
		c0,1.046-0.652,1.797-1.513,2.368l-2.27,1.551v0.024h3.771v1.987h-6.792V336.773z"/>
	<polygon fill="#009370" points="35.442,327.391 398.347,327.391 216.896,37.064 	"/>
	<g>
		<defs>
			<polygon id="SVGID_1_" points="35.442,327.391 398.347,327.391 216.896,37.064 			"/>
		</defs>
		<clipPath id="SVGID_2_">
			<use xlink:href="#SVGID_1_"  overflow="visible"/>
		</clipPath>
		<path clip-path="url(#SVGID_2_)" fill="#58B49E" d="M183.452,289.131h8.121v11.984h0.099c1.156-1.206,3.26-2.055,4.916-2.055
			c5.617,0,8.625,5.61,8.625,12.883c0,5.764-2.405,13.178-9.228,13.178c-3.156,0-5.217-1.501-6.817-3.907l-1.507,3.605h-4.208
			V289.131z M191.573,316.754c-0.154,2.104,1.101,3.255,2.658,3.255c2.251,0,2.553-2.252,2.553-6.915v-1.907
			c0-5.015,0-7.617-2.504-7.617c-1.003,0-1.753,0.604-2.258,1.003l-0.449,0.449V316.754z"/>
		<path clip-path="url(#SVGID_2_)" fill="#74BDAB" d="M200.556,289.131h8.121v11.984h0.099c1.15-1.206,3.257-2.055,4.913-2.055
			c5.61,0,8.619,5.61,8.619,12.883c0,5.764-2.406,13.178-9.222,13.178c-3.159,0-5.214-1.501-6.82-3.907l-1.501,3.605h-4.208V289.131
			z M208.676,316.754c-0.154,2.104,1.101,3.255,2.655,3.255c2.251,0,2.553-2.252,2.553-6.915v-1.907c0-5.015,0-7.617-2.504-7.617
			c-1,0-1.75,0.604-2.255,1.003l-0.449,0.449V316.754z"/>
		<path clip-path="url(#SVGID_2_)" fill="#8FC8B9" d="M217.877,305.372h-3.304v-5.715h3.304v-2.806c0-6.164,3.058-8.423,8.422-8.423
			c1.604,0,2.81,0.154,4.114,0.302v6.214c-0.456-0.099-1.058-0.197-1.507-0.197c-2.053,0-2.908,0.646-2.908,2.153v2.757h4.416v5.715
			h-4.416v19.447h-8.121V305.372z"/>
		<path clip-path="url(#SVGID_2_)" fill="#A9D4C8" d="M238.787,309.033c0-1.003-0.055-2.203-0.4-3.156
			c-0.406-1.009-1.052-1.704-2.356-1.704c-2.713,0-3.008,3.304-3.008,8.317c0,5.666,0.898,7.519,3.008,7.519
			c2.855,0,3.107-2.904,3.107-4.812l6.313,0.904c-0.597,6.115-4.11,9.327-10.022,9.327c-7.321,0-11.128-6.417-11.128-12.637
			c0-6.866,3.807-13.731,11.479-13.731c8.625,0,9.923,7.462,9.923,9.973H238.787z"/>
		<path clip-path="url(#SVGID_2_)" fill="#C3E0D7" d="M242.244,309.052c1.796,0,3.267,1.47,3.267,3.272
			c0,1.797-1.471,3.273-3.267,3.273c-1.809,0-3.273-1.477-3.273-3.273C238.971,310.521,240.436,309.052,242.244,309.052z"/>
		<path clip-path="url(#SVGID_2_)" fill="#58B49E" d="M183.452,247.997h8.121v11.979h0.099c1.156-1.206,3.26-2.056,4.916-2.056
			c5.617,0,8.625,5.617,8.625,12.883c0,5.765-2.405,13.185-9.228,13.185c-3.156,0-5.217-1.501-6.817-3.913l-1.507,3.618h-4.208
			V247.997z M191.573,275.614c-0.154,2.11,1.101,3.267,2.658,3.267c2.251,0,2.553-2.264,2.553-6.921v-1.907
			c0-5.008,0-7.616-2.504-7.616c-1.003,0-1.753,0.597-2.258,1.002l-0.449,0.449V275.614z"/>
		<path clip-path="url(#SVGID_2_)" fill="#74BDAB" d="M200.556,247.997h8.121v11.979h0.099c1.15-1.206,3.257-2.056,4.913-2.056
			c5.61,0,8.619,5.617,8.619,12.883c0,5.765-2.406,13.185-9.222,13.185c-3.159,0-5.214-1.501-6.82-3.913l-1.501,3.618h-4.208
			V247.997z M208.676,275.614c-0.154,2.11,1.101,3.267,2.655,3.267c2.251,0,2.553-2.264,2.553-6.921v-1.907
			c0-5.008,0-7.616-2.504-7.616c-1,0-1.75,0.597-2.255,1.002l-0.449,0.449V275.614z"/>
		<path clip-path="url(#SVGID_2_)" fill="#8FC8B9" d="M217.877,264.238h-3.304v-5.715h3.304v-2.806c0-6.164,3.058-8.422,8.422-8.422
			c1.604,0,2.81,0.147,4.114,0.295v6.22c-0.456-0.104-1.058-0.203-1.507-0.203c-2.053,0-2.908,0.658-2.908,2.16v2.756h4.416v5.715
			h-4.416v19.454h-8.121V264.238z"/>
		<path clip-path="url(#SVGID_2_)" fill="#A9D4C8" d="M238.787,267.894c0-0.997-0.055-2.203-0.4-3.156
			c-0.406-0.997-1.052-1.704-2.356-1.704c-2.713,0-3.008,3.31-3.008,8.323c0,5.66,0.898,7.524,3.008,7.524
			c2.855,0,3.107-2.91,3.107-4.823l6.313,0.904c-0.597,6.121-4.11,9.327-10.022,9.327c-7.321,0-11.128-6.417-11.128-12.631
			c0-6.872,3.807-13.738,11.479-13.738c8.625,0,9.923,7.469,9.923,9.974H238.787z"/>
		<path clip-path="url(#SVGID_2_)" fill="#C3E0D7" d="M242.244,267.911c1.796,0,3.267,1.471,3.267,3.279
			c0,1.797-1.471,3.273-3.267,3.273c-1.809,0-3.273-1.477-3.273-3.273C238.971,269.382,240.436,267.911,242.244,267.911z"/>
		<path clip-path="url(#SVGID_2_)" fill="#58B49E" d="M183.452,206.869h8.121v11.979h0.099c1.156-1.199,3.26-2.055,4.916-2.055
			c5.617,0,8.625,5.61,8.625,12.883c0,5.759-2.405,13.178-9.228,13.178c-3.156,0-5.217-1.501-6.817-3.906l-1.507,3.604h-4.208
			V206.869z M191.573,234.486c-0.154,2.104,1.101,3.255,2.658,3.255c2.251,0,2.553-2.258,2.553-6.915v-1.907
			c0-5.014,0-7.616-2.504-7.616c-1.003,0-1.753,0.603-2.258,1.003l-0.449,0.449V234.486z"/>
		<path clip-path="url(#SVGID_2_)" fill="#74BDAB" d="M200.556,206.869h8.121v11.979h0.099c1.15-1.199,3.257-2.055,4.913-2.055
			c5.61,0,8.619,5.61,8.619,12.883c0,5.759-2.406,13.178-9.222,13.178c-3.159,0-5.214-1.501-6.82-3.906l-1.501,3.604h-4.208V206.869
			z M208.676,234.486c-0.154,2.104,1.101,3.255,2.655,3.255c2.251,0,2.553-2.258,2.553-6.915v-1.907c0-5.014,0-7.616-2.504-7.616
			c-1,0-1.75,0.603-2.255,1.003l-0.449,0.449V234.486z"/>
		<path clip-path="url(#SVGID_2_)" fill="#8FC8B9" d="M217.877,223.105h-3.304v-5.71h3.304v-2.805c0-6.165,3.058-8.423,8.422-8.423
			c1.604,0,2.81,0.147,4.114,0.295v6.221c-0.456-0.104-1.058-0.203-1.507-0.203c-2.053,0-2.908,0.652-2.908,2.159v2.756h4.416v5.71
			h-4.416v19.446h-8.121V223.105z"/>
		<path clip-path="url(#SVGID_2_)" fill="#A9D4C8" d="M238.787,226.766c0-1.003-0.055-2.209-0.4-3.156
			c-0.406-1.003-1.052-1.704-2.356-1.704c-2.713,0-3.008,3.304-3.008,8.318c0,5.666,0.898,7.518,3.008,7.518
			c2.855,0,3.107-2.904,3.107-4.812l6.313,0.898c-0.597,6.122-4.11,9.327-10.022,9.327c-7.321,0-11.128-6.417-11.128-12.631
			c0-6.865,3.807-13.731,11.479-13.731c8.625,0,9.923,7.463,9.923,9.973H238.787z"/>
		<path clip-path="url(#SVGID_2_)" fill="#C3E0D7" d="M242.244,226.784c1.796,0,3.267,1.471,3.267,3.272
			c0,1.797-1.471,3.273-3.267,3.273c-1.809,0-3.273-1.477-3.273-3.273C238.971,228.255,240.436,226.784,242.244,226.784z"/>
		<path clip-path="url(#SVGID_2_)" fill="#58B49E" d="M111.256,289.131h8.121v11.984h0.099c1.157-1.206,3.261-2.055,4.916-2.055
			c5.617,0,8.625,5.61,8.625,12.883c0,5.764-2.406,13.178-9.229,13.178c-3.156,0-5.211-1.501-6.816-3.907l-1.501,3.605h-4.214
			V289.131z M119.377,316.754c-0.147,2.104,1.107,3.255,2.658,3.255c2.258,0,2.56-2.252,2.56-6.915v-1.907
			c0-5.015,0-7.617-2.51-7.617c-0.997,0-1.753,0.604-2.251,1.003l-0.456,0.449V316.754z"/>
		<path clip-path="url(#SVGID_2_)" fill="#74BDAB" d="M128.359,289.131h8.121v11.984h0.098c1.15-1.206,3.261-2.055,4.916-2.055
			c5.611,0,8.619,5.61,8.619,12.883c0,5.764-2.405,13.178-9.222,13.178c-3.163,0-5.217-1.501-6.823-3.907l-1.501,3.605h-4.208
			V289.131z M136.48,316.754c-0.154,2.104,1.101,3.255,2.657,3.255c2.252,0,2.554-2.252,2.554-6.915v-1.907
			c0-5.015,0-7.617-2.504-7.617c-1.002,0-1.753,0.604-2.258,1.003l-0.449,0.449V316.754z"/>
		<path clip-path="url(#SVGID_2_)" fill="#8FC8B9" d="M145.684,305.372h-3.304v-5.715h3.304v-2.806c0-6.164,3.058-8.423,8.422-8.423
			c1.605,0,2.812,0.154,4.116,0.302v6.214c-0.456-0.099-1.058-0.197-1.507-0.197c-2.055,0-2.91,0.646-2.91,2.153v2.757h4.417v5.715
			h-4.417v19.447h-8.121V305.372z"/>
		<path clip-path="url(#SVGID_2_)" fill="#A9D4C8" d="M166.595,309.033c0-1.003-0.055-2.203-0.4-3.156
			c-0.406-1.009-1.052-1.704-2.356-1.704c-2.713,0-3.008,3.304-3.008,8.317c0,5.666,0.898,7.519,3.008,7.519
			c2.855,0,3.107-2.904,3.107-4.812l6.312,0.904c-0.597,6.115-4.109,9.327-10.021,9.327c-7.321,0-11.129-6.417-11.129-12.637
			c0-6.866,3.808-13.731,11.48-13.731c8.625,0,9.923,7.462,9.923,9.973H166.595z"/>
		<path clip-path="url(#SVGID_2_)" fill="#C3E0D7" d="M170.053,309.052c1.796,0,3.267,1.47,3.267,3.272
			c0,1.797-1.47,3.273-3.267,3.273c-1.809,0-3.273-1.477-3.273-3.273C166.78,310.521,168.244,309.052,170.053,309.052z"/>
		<path clip-path="url(#SVGID_2_)" fill="#58B49E" d="M111.256,247.997h8.121v11.979h0.099c1.157-1.206,3.261-2.056,4.916-2.056
			c5.617,0,8.625,5.617,8.625,12.883c0,5.765-2.406,13.185-9.229,13.185c-3.156,0-5.211-1.501-6.816-3.913l-1.501,3.618h-4.214
			V247.997z M119.377,275.614c-0.147,2.11,1.107,3.267,2.658,3.267c2.258,0,2.56-2.264,2.56-6.921v-1.907
			c0-5.008,0-7.616-2.51-7.616c-0.997,0-1.753,0.597-2.251,1.002l-0.456,0.449V275.614z"/>
		<path clip-path="url(#SVGID_2_)" fill="#74BDAB" d="M128.359,247.997h8.121v11.979h0.098c1.15-1.206,3.261-2.056,4.916-2.056
			c5.611,0,8.619,5.617,8.619,12.883c0,5.765-2.405,13.185-9.222,13.185c-3.163,0-5.217-1.501-6.823-3.913l-1.501,3.618h-4.208
			V247.997z M136.48,275.614c-0.154,2.11,1.101,3.267,2.657,3.267c2.252,0,2.554-2.264,2.554-6.921v-1.907
			c0-5.008,0-7.616-2.504-7.616c-1.002,0-1.753,0.597-2.258,1.002l-0.449,0.449V275.614z"/>
		<path clip-path="url(#SVGID_2_)" fill="#8FC8B9" d="M145.684,264.238h-3.304v-5.715h3.304v-2.806c0-6.164,3.058-8.422,8.422-8.422
			c1.605,0,2.812,0.147,4.116,0.295v6.22c-0.456-0.104-1.058-0.203-1.507-0.203c-2.055,0-2.91,0.658-2.91,2.16v2.756h4.417v5.715
			h-4.417v19.454h-8.121V264.238z"/>
		<path clip-path="url(#SVGID_2_)" fill="#A9D4C8" d="M166.595,267.894c0-0.997-0.055-2.203-0.4-3.156
			c-0.406-0.997-1.052-1.704-2.356-1.704c-2.713,0-3.008,3.31-3.008,8.323c0,5.66,0.898,7.524,3.008,7.524
			c2.855,0,3.107-2.91,3.107-4.823l6.312,0.904c-0.597,6.121-4.109,9.327-10.021,9.327c-7.321,0-11.129-6.417-11.129-12.631
			c0-6.872,3.808-13.738,11.48-13.738c8.625,0,9.923,7.469,9.923,9.974H166.595z"/>
		<path clip-path="url(#SVGID_2_)" fill="#C3E0D7" d="M170.053,267.911c1.796,0,3.267,1.471,3.267,3.279
			c0,1.797-1.47,3.273-3.267,3.273c-1.809,0-3.273-1.477-3.273-3.273C166.78,269.382,168.244,267.911,170.053,267.911z"/>
		<path clip-path="url(#SVGID_2_)" fill="#58B49E" d="M111.256,206.869h8.121v11.979h0.099c1.157-1.199,3.261-2.055,4.916-2.055
			c5.617,0,8.625,5.61,8.625,12.883c0,5.759-2.406,13.178-9.229,13.178c-3.156,0-5.211-1.501-6.816-3.906l-1.501,3.604h-4.214
			V206.869z M119.377,234.486c-0.147,2.104,1.107,3.255,2.658,3.255c2.258,0,2.56-2.258,2.56-6.915v-1.907
			c0-5.014,0-7.616-2.51-7.616c-0.997,0-1.753,0.603-2.251,1.003l-0.456,0.449V234.486z"/>
		<path clip-path="url(#SVGID_2_)" fill="#74BDAB" d="M128.359,206.869h8.121v11.979h0.098c1.15-1.199,3.261-2.055,4.916-2.055
			c5.611,0,8.619,5.61,8.619,12.883c0,5.759-2.405,13.178-9.222,13.178c-3.163,0-5.217-1.501-6.823-3.906l-1.501,3.604h-4.208
			V206.869z M136.48,234.486c-0.154,2.104,1.101,3.255,2.657,3.255c2.252,0,2.554-2.258,2.554-6.915v-1.907
			c0-5.014,0-7.616-2.504-7.616c-1.002,0-1.753,0.603-2.258,1.003l-0.449,0.449V234.486z"/>
		<path clip-path="url(#SVGID_2_)" fill="#8FC8B9" d="M145.684,223.105h-3.304v-5.71h3.304v-2.805c0-6.165,3.058-8.423,8.422-8.423
			c1.605,0,2.812,0.147,4.116,0.295v6.221c-0.456-0.104-1.058-0.203-1.507-0.203c-2.055,0-2.91,0.652-2.91,2.159v2.756h4.417v5.71
			h-4.417v19.446h-8.121V223.105z"/>
		<path clip-path="url(#SVGID_2_)" fill="#A9D4C8" d="M166.595,226.766c0-1.003-0.055-2.209-0.4-3.156
			c-0.406-1.003-1.052-1.704-2.356-1.704c-2.713,0-3.008,3.304-3.008,8.318c0,5.666,0.898,7.518,3.008,7.518
			c2.855,0,3.107-2.904,3.107-4.812l6.312,0.898c-0.597,6.122-4.109,9.327-10.021,9.327c-7.321,0-11.129-6.417-11.129-12.631
			c0-6.865,3.808-13.731,11.48-13.731c8.625,0,9.923,7.463,9.923,9.973H166.595z"/>
		<path clip-path="url(#SVGID_2_)" fill="#C3E0D7" d="M170.053,226.784c1.796,0,3.267,1.471,3.267,3.272
			c0,1.797-1.47,3.273-3.267,3.273c-1.809,0-3.273-1.477-3.273-3.273C166.78,228.255,168.244,226.784,170.053,226.784z"/>
		<path clip-path="url(#SVGID_2_)" fill="#58B49E" d="M39.066,289.131h8.121v11.984h0.099c1.157-1.206,3.261-2.055,4.916-2.055
			c5.611,0,8.619,5.61,8.619,12.883c0,5.764-2.405,13.178-9.222,13.178c-3.156,0-5.211-1.501-6.816-3.907l-1.501,3.605h-4.214
			V289.131z M47.187,316.754c-0.154,2.104,1.102,3.255,2.658,3.255c2.252,0,2.553-2.252,2.553-6.915v-1.907
			c0-5.015,0-7.617-2.504-7.617c-1.002,0-1.753,0.604-2.258,1.003l-0.449,0.449V316.754z"/>
		<path clip-path="url(#SVGID_2_)" fill="#74BDAB" d="M56.163,289.131h8.127v11.984h0.099c1.15-1.206,3.254-2.055,4.91-2.055
			c5.617,0,8.619,5.61,8.619,12.883c0,5.764-2.406,13.178-9.222,13.178c-3.156,0-5.211-1.501-6.816-3.907l-1.501,3.605h-4.214
			V289.131z M64.29,316.754c-0.153,2.104,1.102,3.255,2.652,3.255c2.258,0,2.559-2.252,2.559-6.915v-1.907
			c0-5.015,0-7.617-2.51-7.617c-1.003,0-1.753,0.604-2.252,1.003l-0.449,0.449V316.754z"/>
		<path clip-path="url(#SVGID_2_)" fill="#8FC8B9" d="M73.494,305.372h-3.31v-5.715h3.31v-2.806c0-6.164,3.058-8.423,8.422-8.423
			c1.605,0,2.805,0.154,4.109,0.302v6.214c-0.449-0.099-1.052-0.197-1.501-0.197c-2.061,0-2.91,0.646-2.91,2.153v2.757h4.411v5.715
			h-4.411v19.447h-8.121V305.372z"/>
		<path clip-path="url(#SVGID_2_)" fill="#A9D4C8" d="M94.405,309.033c0-1.003-0.055-2.203-0.406-3.156
			c-0.399-1.009-1.052-1.704-2.356-1.704c-2.707,0-3.008,3.304-3.008,8.317c0,5.666,0.904,7.519,3.008,7.519
			c2.861,0,3.107-2.904,3.107-4.812l6.318,0.904c-0.603,6.115-4.11,9.327-10.028,9.327c-7.315,0-11.123-6.417-11.123-12.637
			c0-6.866,3.808-13.731,11.48-13.731c8.619,0,9.923,7.462,9.923,9.973H94.405z"/>
		<path clip-path="url(#SVGID_2_)" fill="#C3E0D7" d="M97.856,309.052c1.803,0,3.273,1.47,3.273,3.272
			c0,1.797-1.471,3.273-3.273,3.273c-1.802,0-3.267-1.477-3.267-3.273C94.59,310.521,96.054,309.052,97.856,309.052z"/>
		<path clip-path="url(#SVGID_2_)" fill="#58B49E" d="M39.066,247.997h8.121v11.979h0.099c1.157-1.206,3.261-2.056,4.916-2.056
			c5.611,0,8.619,5.617,8.619,12.883c0,5.765-2.405,13.185-9.222,13.185c-3.156,0-5.211-1.501-6.816-3.913l-1.501,3.618h-4.214
			V247.997z M47.187,275.614c-0.154,2.11,1.102,3.267,2.658,3.267c2.252,0,2.553-2.264,2.553-6.921v-1.907
			c0-5.008,0-7.616-2.504-7.616c-1.002,0-1.753,0.597-2.258,1.002l-0.449,0.449V275.614z"/>
		<path clip-path="url(#SVGID_2_)" fill="#74BDAB" d="M56.163,247.997h8.127v11.979h0.099c1.15-1.206,3.254-2.056,4.91-2.056
			c5.617,0,8.619,5.617,8.619,12.883c0,5.765-2.406,13.185-9.222,13.185c-3.156,0-5.211-1.501-6.816-3.913l-1.501,3.618h-4.214
			V247.997z M64.29,275.614c-0.153,2.11,1.102,3.267,2.652,3.267c2.258,0,2.559-2.264,2.559-6.921v-1.907
			c0-5.008,0-7.616-2.51-7.616c-1.003,0-1.753,0.597-2.252,1.002l-0.449,0.449V275.614z"/>
		<path clip-path="url(#SVGID_2_)" fill="#8FC8B9" d="M73.494,264.238h-3.31v-5.715h3.31v-2.806c0-6.164,3.058-8.422,8.422-8.422
			c1.605,0,2.805,0.147,4.109,0.295v6.22c-0.449-0.104-1.052-0.203-1.501-0.203c-2.061,0-2.91,0.658-2.91,2.16v2.756h4.411v5.715
			h-4.411v19.454h-8.121V264.238z"/>
		<path clip-path="url(#SVGID_2_)" fill="#A9D4C8" d="M94.405,267.894c0-0.997-0.055-2.203-0.406-3.156
			c-0.399-0.997-1.052-1.704-2.356-1.704c-2.707,0-3.008,3.31-3.008,8.323c0,5.66,0.904,7.524,3.008,7.524
			c2.861,0,3.107-2.91,3.107-4.823l6.318,0.904c-0.603,6.121-4.11,9.327-10.028,9.327c-7.315,0-11.123-6.417-11.123-12.631
			c0-6.872,3.808-13.738,11.48-13.738c8.619,0,9.923,7.469,9.923,9.974H94.405z"/>
		<path clip-path="url(#SVGID_2_)" fill="#C3E0D7" d="M97.856,267.911c1.803,0,3.273,1.471,3.273,3.279
			c0,1.797-1.471,3.273-3.273,3.273c-1.802,0-3.267-1.477-3.267-3.273C94.59,269.382,96.054,267.911,97.856,267.911z"/>
		<path clip-path="url(#SVGID_2_)" fill="#58B49E" d="M39.066,206.869h8.121v11.979h0.099c1.157-1.199,3.261-2.055,4.916-2.055
			c5.611,0,8.619,5.61,8.619,12.883c0,5.759-2.405,13.178-9.222,13.178c-3.156,0-5.211-1.501-6.816-3.906l-1.501,3.604h-4.214
			V206.869z M47.187,234.486c-0.154,2.104,1.102,3.255,2.658,3.255c2.252,0,2.553-2.258,2.553-6.915v-1.907
			c0-5.014,0-7.616-2.504-7.616c-1.002,0-1.753,0.603-2.258,1.003l-0.449,0.449V234.486z"/>
		<path clip-path="url(#SVGID_2_)" fill="#74BDAB" d="M56.163,206.869h8.127v11.979h0.099c1.15-1.199,3.254-2.055,4.91-2.055
			c5.617,0,8.619,5.61,8.619,12.883c0,5.759-2.406,13.178-9.222,13.178c-3.156,0-5.211-1.501-6.816-3.906l-1.501,3.604h-4.214
			V206.869z M64.29,234.486c-0.153,2.104,1.102,3.255,2.652,3.255c2.258,0,2.559-2.258,2.559-6.915v-1.907
			c0-5.014,0-7.616-2.51-7.616c-1.003,0-1.753,0.603-2.252,1.003l-0.449,0.449V234.486z"/>
		<path clip-path="url(#SVGID_2_)" fill="#8FC8B9" d="M73.494,223.105h-3.31v-5.71h3.31v-2.805c0-6.165,3.058-8.423,8.422-8.423
			c1.605,0,2.805,0.147,4.109,0.295v6.221c-0.449-0.104-1.052-0.203-1.501-0.203c-2.061,0-2.91,0.652-2.91,2.159v2.756h4.411v5.71
			h-4.411v19.446h-8.121V223.105z"/>
		<path clip-path="url(#SVGID_2_)" fill="#A9D4C8" d="M94.405,226.766c0-1.003-0.055-2.209-0.406-3.156
			c-0.399-1.003-1.052-1.704-2.356-1.704c-2.707,0-3.008,3.304-3.008,8.318c0,5.666,0.904,7.518,3.008,7.518
			c2.861,0,3.107-2.904,3.107-4.812l6.318,0.898c-0.603,6.122-4.11,9.327-10.028,9.327c-7.315,0-11.123-6.417-11.123-12.631
			c0-6.865,3.808-13.731,11.48-13.731c8.619,0,9.923,7.463,9.923,9.973H94.405z"/>
		<path clip-path="url(#SVGID_2_)" fill="#C3E0D7" d="M97.856,226.784c1.803,0,3.273,1.471,3.273,3.272
			c0,1.797-1.471,3.273-3.273,3.273c-1.802,0-3.267-1.477-3.267-3.273C94.59,228.255,96.054,226.784,97.856,226.784z"/>
		<path clip-path="url(#SVGID_2_)" fill="#58B49E" d="M255.644,289.131h8.121v11.984h0.099c1.156-1.206,3.26-2.055,4.916-2.055
			c5.617,0,8.625,5.61,8.625,12.883c0,5.764-2.412,13.178-9.229,13.178c-3.156,0-5.211-1.501-6.816-3.907l-1.501,3.605h-4.214
			V289.131z M263.765,316.754c-0.147,2.104,1.101,3.255,2.658,3.255c2.251,0,2.559-2.252,2.559-6.915v-1.907
			c0-5.015,0-7.617-2.51-7.617c-1.003,0-1.753,0.604-2.258,1.003l-0.449,0.449V316.754z"/>
		<path clip-path="url(#SVGID_2_)" fill="#74BDAB" d="M272.747,289.131h8.121v11.984h0.099c1.15-1.206,3.254-2.055,4.916-2.055
			c5.611,0,8.619,5.61,8.619,12.883c0,5.764-2.405,13.178-9.222,13.178c-3.162,0-5.217-1.501-6.823-3.907l-1.501,3.605h-4.208
			V289.131z M280.868,316.754c-0.154,2.104,1.101,3.255,2.652,3.255c2.258,0,2.559-2.252,2.559-6.915v-1.907
			c0-5.015,0-7.617-2.504-7.617c-1.009,0-1.759,0.604-2.258,1.003l-0.449,0.449V316.754z"/>
		<path clip-path="url(#SVGID_2_)" fill="#8FC8B9" d="M290.071,305.372h-3.304v-5.715h3.304v-2.806c0-6.164,3.058-8.423,8.422-8.423
			c1.606,0,2.806,0.154,4.11,0.302v6.214c-0.449-0.099-1.052-0.197-1.501-0.197c-2.055,0-2.91,0.646-2.91,2.153v2.757h4.411v5.715
			h-4.411v19.447h-8.121V305.372z"/>
		<path clip-path="url(#SVGID_2_)" fill="#A9D4C8" d="M310.983,309.033c0-1.003-0.056-2.203-0.4-3.156
			c-0.406-1.009-1.059-1.704-2.362-1.704c-2.707,0-3.002,3.304-3.002,8.317c0,5.666,0.898,7.519,3.002,7.519
			c2.86,0,3.106-2.904,3.106-4.812l6.318,0.904c-0.597,6.115-4.109,9.327-10.022,9.327c-7.321,0-11.129-6.417-11.129-12.637
			c0-6.866,3.809-13.731,11.48-13.731c8.619,0,9.923,7.462,9.923,9.973H310.983z"/>
		<path clip-path="url(#SVGID_2_)" fill="#C3E0D7" d="M314.44,309.052c1.796,0,3.267,1.47,3.267,3.272
			c0,1.797-1.47,3.273-3.267,3.273c-1.809,0-3.273-1.477-3.273-3.273C311.167,310.521,312.632,309.052,314.44,309.052z"/>
		<path clip-path="url(#SVGID_2_)" fill="#58B49E" d="M255.644,247.997h8.121v11.979h0.099c1.156-1.206,3.26-2.056,4.916-2.056
			c5.617,0,8.625,5.617,8.625,12.883c0,5.765-2.412,13.185-9.229,13.185c-3.156,0-5.211-1.501-6.816-3.913l-1.501,3.618h-4.214
			V247.997z M263.765,275.614c-0.147,2.11,1.101,3.267,2.658,3.267c2.251,0,2.559-2.264,2.559-6.921v-1.907
			c0-5.008,0-7.616-2.51-7.616c-1.003,0-1.753,0.597-2.258,1.002l-0.449,0.449V275.614z"/>
		<path clip-path="url(#SVGID_2_)" fill="#74BDAB" d="M272.747,247.997h8.121v11.979h0.099c1.15-1.206,3.254-2.056,4.916-2.056
			c5.611,0,8.619,5.617,8.619,12.883c0,5.765-2.405,13.185-9.222,13.185c-3.162,0-5.217-1.501-6.823-3.913l-1.501,3.618h-4.208
			V247.997z M280.868,275.614c-0.154,2.11,1.101,3.267,2.652,3.267c2.258,0,2.559-2.264,2.559-6.921v-1.907
			c0-5.008,0-7.616-2.504-7.616c-1.009,0-1.759,0.597-2.258,1.002l-0.449,0.449V275.614z"/>
		<path clip-path="url(#SVGID_2_)" fill="#8FC8B9" d="M290.071,264.238h-3.304v-5.715h3.304v-2.806c0-6.164,3.058-8.422,8.422-8.422
			c1.606,0,2.806,0.147,4.11,0.295v6.22c-0.449-0.104-1.052-0.203-1.501-0.203c-2.055,0-2.91,0.658-2.91,2.16v2.756h4.411v5.715
			h-4.411v19.454h-8.121V264.238z"/>
		<path clip-path="url(#SVGID_2_)" fill="#A9D4C8" d="M310.983,267.894c0-0.997-0.056-2.203-0.4-3.156
			c-0.406-0.997-1.059-1.704-2.362-1.704c-2.707,0-3.002,3.31-3.002,8.323c0,5.66,0.898,7.524,3.002,7.524
			c2.86,0,3.106-2.91,3.106-4.823l6.318,0.904c-0.597,6.121-4.109,9.327-10.022,9.327c-7.321,0-11.129-6.417-11.129-12.631
			c0-6.872,3.809-13.738,11.48-13.738c8.619,0,9.923,7.469,9.923,9.974H310.983z"/>
		<path clip-path="url(#SVGID_2_)" fill="#C3E0D7" d="M314.44,267.911c1.796,0,3.267,1.471,3.267,3.279
			c0,1.797-1.47,3.273-3.267,3.273c-1.809,0-3.273-1.477-3.273-3.273C311.167,269.382,312.632,267.911,314.44,267.911z"/>
		<path clip-path="url(#SVGID_2_)" fill="#58B49E" d="M255.644,206.869h8.121v11.979h0.099c1.156-1.199,3.26-2.055,4.916-2.055
			c5.617,0,8.625,5.61,8.625,12.883c0,5.759-2.412,13.178-9.229,13.178c-3.156,0-5.211-1.501-6.816-3.906l-1.501,3.604h-4.214
			V206.869z M263.765,234.486c-0.147,2.104,1.101,3.255,2.658,3.255c2.251,0,2.559-2.258,2.559-6.915v-1.907
			c0-5.014,0-7.616-2.51-7.616c-1.003,0-1.753,0.603-2.258,1.003l-0.449,0.449V234.486z"/>
		<path clip-path="url(#SVGID_2_)" fill="#74BDAB" d="M272.747,206.869h8.121v11.979h0.099c1.15-1.199,3.254-2.055,4.916-2.055
			c5.611,0,8.619,5.61,8.619,12.883c0,5.759-2.405,13.178-9.222,13.178c-3.162,0-5.217-1.501-6.823-3.906l-1.501,3.604h-4.208
			V206.869z M280.868,234.486c-0.154,2.104,1.101,3.255,2.652,3.255c2.258,0,2.559-2.258,2.559-6.915v-1.907
			c0-5.014,0-7.616-2.504-7.616c-1.009,0-1.759,0.603-2.258,1.003l-0.449,0.449V234.486z"/>
		<path clip-path="url(#SVGID_2_)" fill="#8FC8B9" d="M290.071,223.105h-3.304v-5.71h3.304v-2.805c0-6.165,3.058-8.423,8.422-8.423
			c1.606,0,2.806,0.147,4.11,0.295v6.221c-0.449-0.104-1.052-0.203-1.501-0.203c-2.055,0-2.91,0.652-2.91,2.159v2.756h4.411v5.71
			h-4.411v19.446h-8.121V223.105z"/>
		<path clip-path="url(#SVGID_2_)" fill="#A9D4C8" d="M310.983,226.766c0-1.003-0.056-2.209-0.4-3.156
			c-0.406-1.003-1.059-1.704-2.362-1.704c-2.707,0-3.002,3.304-3.002,8.318c0,5.666,0.898,7.518,3.002,7.518
			c2.86,0,3.106-2.904,3.106-4.812l6.318,0.898c-0.597,6.122-4.109,9.327-10.022,9.327c-7.321,0-11.129-6.417-11.129-12.631
			c0-6.865,3.809-13.731,11.48-13.731c8.619,0,9.923,7.463,9.923,9.973H310.983z"/>
		<path clip-path="url(#SVGID_2_)" fill="#C3E0D7" d="M314.44,226.784c1.796,0,3.267,1.471,3.267,3.272
			c0,1.797-1.47,3.273-3.267,3.273c-1.809,0-3.273-1.477-3.273-3.273C311.167,228.255,312.632,226.784,314.44,226.784z"/>
		<path clip-path="url(#SVGID_2_)" fill="#58B49E" d="M328.283,289.131h8.127v11.984h0.099c1.157-1.206,3.254-2.055,4.909-2.055
			c5.617,0,8.625,5.61,8.625,12.883c0,5.764-2.405,13.178-9.222,13.178c-3.156,0-5.217-1.501-6.816-3.907l-1.507,3.605h-4.214
			V289.131z M336.41,316.754c-0.154,2.104,1.102,3.255,2.652,3.255c2.258,0,2.559-2.252,2.559-6.915v-1.907
			c0-5.015,0-7.617-2.51-7.617c-0.997,0-1.753,0.604-2.252,1.003l-0.449,0.449V316.754z"/>
		<path clip-path="url(#SVGID_2_)" fill="#74BDAB" d="M345.386,289.131h8.121v11.984h0.098c1.157-1.206,3.261-2.055,4.916-2.055
			c5.617,0,8.619,5.61,8.619,12.883c0,5.764-2.406,13.178-9.222,13.178c-3.156,0-5.211-1.501-6.817-3.907l-1.507,3.605h-4.208
			V289.131z M353.507,316.754c-0.148,2.104,1.107,3.255,2.658,3.255c2.251,0,2.559-2.252,2.559-6.915v-1.907
			c0-5.015,0-7.617-2.51-7.617c-1.003,0-1.753,0.604-2.252,1.003l-0.455,0.449V316.754z"/>
		<path clip-path="url(#SVGID_2_)" fill="#8FC8B9" d="M362.717,305.372h-3.31v-5.715h3.31v-2.806c0-6.164,3.058-8.423,8.422-8.423
			c1.6,0,2.805,0.154,4.109,0.302v6.214c-0.449-0.099-1.052-0.197-1.507-0.197c-2.055,0-2.904,0.646-2.904,2.153v2.757h4.411v5.715
			h-4.411v19.447h-8.121V305.372z"/>
		<path clip-path="url(#SVGID_2_)" fill="#A9D4C8" d="M383.622,309.033c0-1.003-0.049-2.203-0.4-3.156
			c-0.4-1.009-1.052-1.704-2.356-1.704c-2.707,0-3.008,3.304-3.008,8.317c0,5.666,0.904,7.519,3.008,7.519
			c2.854,0,3.107-2.904,3.107-4.812l6.318,0.904c-0.603,6.115-4.116,9.327-10.028,9.327c-7.321,0-11.129-6.417-11.129-12.637
			c0-6.866,3.808-13.731,11.48-13.731c8.625,0,9.93,7.462,9.93,9.973H383.622z"/>
		<path clip-path="url(#SVGID_2_)" fill="#C3E0D7" d="M387.079,309.052c1.803,0,3.273,1.47,3.273,3.272
			c0,1.797-1.471,3.273-3.273,3.273c-1.809,0-3.273-1.477-3.273-3.273C383.806,310.521,385.271,309.052,387.079,309.052z"/>
		<path clip-path="url(#SVGID_2_)" fill="#58B49E" d="M328.283,247.997h8.127v11.979h0.099c1.157-1.206,3.254-2.056,4.909-2.056
			c5.617,0,8.625,5.617,8.625,12.883c0,5.765-2.405,13.185-9.222,13.185c-3.156,0-5.217-1.501-6.816-3.913l-1.507,3.618h-4.214
			V247.997z M336.41,275.614c-0.154,2.11,1.102,3.267,2.652,3.267c2.258,0,2.559-2.264,2.559-6.921v-1.907
			c0-5.008,0-7.616-2.51-7.616c-0.997,0-1.753,0.597-2.252,1.002l-0.449,0.449V275.614z"/>
		<path clip-path="url(#SVGID_2_)" fill="#74BDAB" d="M345.386,247.997h8.121v11.979h0.098c1.157-1.206,3.261-2.056,4.916-2.056
			c5.617,0,8.619,5.617,8.619,12.883c0,5.765-2.406,13.185-9.222,13.185c-3.156,0-5.211-1.501-6.817-3.913l-1.507,3.618h-4.208
			V247.997z M353.507,275.614c-0.148,2.11,1.107,3.267,2.658,3.267c2.251,0,2.559-2.264,2.559-6.921v-1.907
			c0-5.008,0-7.616-2.51-7.616c-1.003,0-1.753,0.597-2.252,1.002l-0.455,0.449V275.614z"/>
		<path clip-path="url(#SVGID_2_)" fill="#8FC8B9" d="M362.717,264.238h-3.31v-5.715h3.31v-2.806c0-6.164,3.058-8.422,8.422-8.422
			c1.6,0,2.805,0.147,4.109,0.295v6.22c-0.449-0.104-1.052-0.203-1.507-0.203c-2.055,0-2.904,0.658-2.904,2.16v2.756h4.411v5.715
			h-4.411v19.454h-8.121V264.238z"/>
		<path clip-path="url(#SVGID_2_)" fill="#A9D4C8" d="M383.622,267.894c0-0.997-0.049-2.203-0.4-3.156
			c-0.4-0.997-1.052-1.704-2.356-1.704c-2.707,0-3.008,3.31-3.008,8.323c0,5.66,0.904,7.524,3.008,7.524
			c2.854,0,3.107-2.91,3.107-4.823l6.318,0.904c-0.603,6.121-4.116,9.327-10.028,9.327c-7.321,0-11.129-6.417-11.129-12.631
			c0-6.872,3.808-13.738,11.48-13.738c8.625,0,9.93,7.469,9.93,9.974H383.622z"/>
		<path clip-path="url(#SVGID_2_)" fill="#C3E0D7" d="M387.079,267.911c1.803,0,3.273,1.471,3.273,3.279
			c0,1.797-1.471,3.273-3.273,3.273c-1.809,0-3.273-1.477-3.273-3.273C383.806,269.382,385.271,267.911,387.079,267.911z"/>
		<path clip-path="url(#SVGID_2_)" fill="#58B49E" d="M328.283,206.869h8.127v11.979h0.099c1.157-1.199,3.254-2.055,4.909-2.055
			c5.617,0,8.625,5.61,8.625,12.883c0,5.759-2.405,13.178-9.222,13.178c-3.156,0-5.217-1.501-6.816-3.906l-1.507,3.604h-4.214
			V206.869z M336.41,234.486c-0.154,2.104,1.102,3.255,2.652,3.255c2.258,0,2.559-2.258,2.559-6.915v-1.907
			c0-5.014,0-7.616-2.51-7.616c-0.997,0-1.753,0.603-2.252,1.003l-0.449,0.449V234.486z"/>
		<path clip-path="url(#SVGID_2_)" fill="#74BDAB" d="M345.386,206.869h8.121v11.979h0.098c1.157-1.199,3.261-2.055,4.916-2.055
			c5.617,0,8.619,5.61,8.619,12.883c0,5.759-2.406,13.178-9.222,13.178c-3.156,0-5.211-1.501-6.817-3.906l-1.507,3.604h-4.208
			V206.869z M353.507,234.486c-0.148,2.104,1.107,3.255,2.658,3.255c2.251,0,2.559-2.258,2.559-6.915v-1.907
			c0-5.014,0-7.616-2.51-7.616c-1.003,0-1.753,0.603-2.252,1.003l-0.455,0.449V234.486z"/>
		<path clip-path="url(#SVGID_2_)" fill="#8FC8B9" d="M362.717,223.105h-3.31v-5.71h3.31v-2.805c0-6.165,3.058-8.423,8.422-8.423
			c1.6,0,2.805,0.147,4.109,0.295v6.221c-0.449-0.104-1.052-0.203-1.507-0.203c-2.055,0-2.904,0.652-2.904,2.159v2.756h4.411v5.71
			h-4.411v19.446h-8.121V223.105z"/>
		<path clip-path="url(#SVGID_2_)" fill="#A9D4C8" d="M383.622,226.766c0-1.003-0.049-2.209-0.4-3.156
			c-0.4-1.003-1.052-1.704-2.356-1.704c-2.707,0-3.008,3.304-3.008,8.318c0,5.666,0.904,7.518,3.008,7.518
			c2.854,0,3.107-2.904,3.107-4.812l6.318,0.898c-0.603,6.122-4.116,9.327-10.028,9.327c-7.321,0-11.129-6.417-11.129-12.631
			c0-6.865,3.808-13.731,11.48-13.731c8.625,0,9.93,7.463,9.93,9.973H383.622z"/>
		<path clip-path="url(#SVGID_2_)" fill="#C3E0D7" d="M387.079,226.784c1.803,0,3.273,1.471,3.273,3.272
			c0,1.797-1.471,3.273-3.273,3.273c-1.809,0-3.273-1.477-3.273-3.273C383.806,228.255,385.271,226.784,387.079,226.784z"/>
		<path clip-path="url(#SVGID_2_)" fill="#58B49E" d="M183.452,165.734h8.121v11.986h0.099c1.156-1.206,3.26-2.062,4.916-2.062
			c5.617,0,8.625,5.617,8.625,12.889c0,5.765-2.405,13.179-9.228,13.179c-3.156,0-5.217-1.502-6.817-3.907l-1.507,3.605h-4.208
			V165.734z M191.573,193.359c-0.154,2.104,1.101,3.254,2.658,3.254c2.251,0,2.553-2.251,2.553-6.915v-1.907
			c0-5.008,0-7.616-2.504-7.616c-1.003,0-1.753,0.604-2.258,1.003l-0.449,0.449V193.359z"/>
		<path clip-path="url(#SVGID_2_)" fill="#74BDAB" d="M200.556,165.734h8.121v11.986h0.099c1.15-1.206,3.257-2.062,4.913-2.062
			c5.61,0,8.619,5.617,8.619,12.889c0,5.765-2.406,13.179-9.222,13.179c-3.159,0-5.214-1.502-6.82-3.907l-1.501,3.605h-4.208
			V165.734z M208.676,193.359c-0.154,2.104,1.101,3.254,2.655,3.254c2.251,0,2.553-2.251,2.553-6.915v-1.907
			c0-5.008,0-7.616-2.504-7.616c-1,0-1.75,0.604-2.255,1.003l-0.449,0.449V193.359z"/>
		<path clip-path="url(#SVGID_2_)" fill="#8FC8B9" d="M217.877,181.978h-3.304v-5.715h3.304v-2.808c0-6.164,3.058-8.422,8.422-8.422
			c1.604,0,2.81,0.153,4.114,0.301v6.213c-0.456-0.099-1.058-0.196-1.507-0.196c-2.053,0-2.908,0.652-2.908,2.153v2.758h4.416v5.715
			h-4.416v19.447h-8.121V181.978z"/>
		<path clip-path="url(#SVGID_2_)" fill="#A9D4C8" d="M238.787,185.639c0-1.003-0.055-2.209-0.4-3.156
			c-0.406-1.003-1.052-1.704-2.356-1.704c-2.713,0-3.008,3.304-3.008,8.317c0,5.666,0.898,7.518,3.008,7.518
			c2.855,0,3.107-2.903,3.107-4.811l6.313,0.898c-0.597,6.121-4.11,9.333-10.022,9.333c-7.321,0-11.128-6.423-11.128-12.637
			c0-6.866,3.807-13.738,11.479-13.738c8.625,0,9.923,7.469,9.923,9.979H238.787z"/>
		<path clip-path="url(#SVGID_2_)" fill="#C3E0D7" d="M242.244,185.656c1.796,0,3.267,1.471,3.267,3.273
			c0,1.797-1.471,3.272-3.267,3.272c-1.809,0-3.273-1.476-3.273-3.272C238.971,187.127,240.436,185.656,242.244,185.656z"/>
		<path clip-path="url(#SVGID_2_)" fill="#58B49E" d="M111.256,165.734h8.121v11.986h0.099c1.157-1.206,3.261-2.062,4.916-2.062
			c5.617,0,8.625,5.617,8.625,12.889c0,5.765-2.406,13.179-9.229,13.179c-3.156,0-5.211-1.502-6.816-3.907l-1.501,3.605h-4.214
			V165.734z M119.377,193.359c-0.147,2.104,1.107,3.254,2.658,3.254c2.258,0,2.56-2.251,2.56-6.915v-1.907
			c0-5.008,0-7.616-2.51-7.616c-0.997,0-1.753,0.604-2.251,1.003l-0.456,0.449V193.359z"/>
		<path clip-path="url(#SVGID_2_)" fill="#74BDAB" d="M128.359,165.734h8.121v11.986h0.098c1.15-1.206,3.261-2.062,4.916-2.062
			c5.611,0,8.619,5.617,8.619,12.889c0,5.765-2.405,13.179-9.222,13.179c-3.163,0-5.217-1.502-6.823-3.907l-1.501,3.605h-4.208
			V165.734z M136.48,193.359c-0.154,2.104,1.101,3.254,2.657,3.254c2.252,0,2.554-2.251,2.554-6.915v-1.907
			c0-5.008,0-7.616-2.504-7.616c-1.002,0-1.753,0.604-2.258,1.003l-0.449,0.449V193.359z"/>
		<path clip-path="url(#SVGID_2_)" fill="#8FC8B9" d="M145.684,181.978h-3.304v-5.715h3.304v-2.808c0-6.164,3.058-8.422,8.422-8.422
			c1.605,0,2.812,0.153,4.116,0.301v6.213c-0.456-0.099-1.058-0.196-1.507-0.196c-2.055,0-2.91,0.652-2.91,2.153v2.758h4.417v5.715
			h-4.417v19.447h-8.121V181.978z"/>
		<path clip-path="url(#SVGID_2_)" fill="#A9D4C8" d="M166.595,185.639c0-1.003-0.055-2.209-0.4-3.156
			c-0.406-1.003-1.052-1.704-2.356-1.704c-2.713,0-3.008,3.304-3.008,8.317c0,5.666,0.898,7.518,3.008,7.518
			c2.855,0,3.107-2.903,3.107-4.811l6.312,0.898c-0.597,6.121-4.109,9.333-10.021,9.333c-7.321,0-11.129-6.423-11.129-12.637
			c0-6.866,3.808-13.738,11.48-13.738c8.625,0,9.923,7.469,9.923,9.979H166.595z"/>
		<path clip-path="url(#SVGID_2_)" fill="#C3E0D7" d="M170.053,185.656c1.796,0,3.267,1.471,3.267,3.273
			c0,1.797-1.47,3.272-3.267,3.272c-1.809,0-3.273-1.476-3.273-3.272C166.78,187.127,168.244,185.656,170.053,185.656z"/>
		<path clip-path="url(#SVGID_2_)" fill="#58B49E" d="M39.066,165.734h8.121v11.986h0.099c1.157-1.206,3.261-2.062,4.916-2.062
			c5.611,0,8.619,5.617,8.619,12.889c0,5.765-2.405,13.179-9.222,13.179c-3.156,0-5.211-1.502-6.816-3.907l-1.501,3.605h-4.214
			V165.734z M47.187,193.359c-0.154,2.104,1.102,3.254,2.658,3.254c2.252,0,2.553-2.251,2.553-6.915v-1.907
			c0-5.008,0-7.616-2.504-7.616c-1.002,0-1.753,0.604-2.258,1.003l-0.449,0.449V193.359z"/>
		<path clip-path="url(#SVGID_2_)" fill="#74BDAB" d="M56.163,165.734h8.127v11.986h0.099c1.15-1.206,3.254-2.062,4.91-2.062
			c5.617,0,8.619,5.617,8.619,12.889c0,5.765-2.406,13.179-9.222,13.179c-3.156,0-5.211-1.502-6.816-3.907l-1.501,3.605h-4.214
			V165.734z M64.29,193.359c-0.153,2.104,1.102,3.254,2.652,3.254c2.258,0,2.559-2.251,2.559-6.915v-1.907
			c0-5.008,0-7.616-2.51-7.616c-1.003,0-1.753,0.604-2.252,1.003l-0.449,0.449V193.359z"/>
		<path clip-path="url(#SVGID_2_)" fill="#8FC8B9" d="M73.494,181.978h-3.31v-5.715h3.31v-2.808c0-6.164,3.058-8.422,8.422-8.422
			c1.605,0,2.805,0.153,4.109,0.301v6.213c-0.449-0.099-1.052-0.196-1.501-0.196c-2.061,0-2.91,0.652-2.91,2.153v2.758h4.411v5.715
			h-4.411v19.447h-8.121V181.978z"/>
		<path clip-path="url(#SVGID_2_)" fill="#A9D4C8" d="M94.405,185.639c0-1.003-0.055-2.209-0.406-3.156
			c-0.399-1.003-1.052-1.704-2.356-1.704c-2.707,0-3.008,3.304-3.008,8.317c0,5.666,0.904,7.518,3.008,7.518
			c2.861,0,3.107-2.903,3.107-4.811l6.318,0.898c-0.603,6.121-4.11,9.333-10.028,9.333c-7.315,0-11.123-6.423-11.123-12.637
			c0-6.866,3.808-13.738,11.48-13.738c8.619,0,9.923,7.469,9.923,9.979H94.405z"/>
		<path clip-path="url(#SVGID_2_)" fill="#C3E0D7" d="M97.856,185.656c1.803,0,3.273,1.471,3.273,3.273
			c0,1.797-1.471,3.272-3.273,3.272c-1.802,0-3.267-1.476-3.267-3.272C94.59,187.127,96.054,185.656,97.856,185.656z"/>
		<path clip-path="url(#SVGID_2_)" fill="#58B49E" d="M255.644,165.734h8.121v11.986h0.099c1.156-1.206,3.26-2.062,4.916-2.062
			c5.617,0,8.625,5.617,8.625,12.889c0,5.765-2.412,13.179-9.229,13.179c-3.156,0-5.211-1.502-6.816-3.907l-1.501,3.605h-4.214
			V165.734z M263.765,193.359c-0.147,2.104,1.101,3.254,2.658,3.254c2.251,0,2.559-2.251,2.559-6.915v-1.907
			c0-5.008,0-7.616-2.51-7.616c-1.003,0-1.753,0.604-2.258,1.003l-0.449,0.449V193.359z"/>
		<path clip-path="url(#SVGID_2_)" fill="#74BDAB" d="M272.747,165.734h8.121v11.986h0.099c1.15-1.206,3.254-2.062,4.916-2.062
			c5.611,0,8.619,5.617,8.619,12.889c0,5.765-2.405,13.179-9.222,13.179c-3.162,0-5.217-1.502-6.823-3.907l-1.501,3.605h-4.208
			V165.734z M280.868,193.359c-0.154,2.104,1.101,3.254,2.652,3.254c2.258,0,2.559-2.251,2.559-6.915v-1.907
			c0-5.008,0-7.616-2.504-7.616c-1.009,0-1.759,0.604-2.258,1.003l-0.449,0.449V193.359z"/>
		<path clip-path="url(#SVGID_2_)" fill="#8FC8B9" d="M290.071,181.978h-3.304v-5.715h3.304v-2.808c0-6.164,3.058-8.422,8.422-8.422
			c1.606,0,2.806,0.153,4.11,0.301v6.213c-0.449-0.099-1.052-0.196-1.501-0.196c-2.055,0-2.91,0.652-2.91,2.153v2.758h4.411v5.715
			h-4.411v19.447h-8.121V181.978z"/>
		<path clip-path="url(#SVGID_2_)" fill="#A9D4C8" d="M310.983,185.639c0-1.003-0.056-2.209-0.4-3.156
			c-0.406-1.003-1.059-1.704-2.362-1.704c-2.707,0-3.002,3.304-3.002,8.317c0,5.666,0.898,7.518,3.002,7.518
			c2.86,0,3.106-2.903,3.106-4.811l6.318,0.898c-0.597,6.121-4.109,9.333-10.022,9.333c-7.321,0-11.129-6.423-11.129-12.637
			c0-6.866,3.809-13.738,11.48-13.738c8.619,0,9.923,7.469,9.923,9.979H310.983z"/>
		<path clip-path="url(#SVGID_2_)" fill="#C3E0D7" d="M314.44,185.656c1.796,0,3.267,1.471,3.267,3.273
			c0,1.797-1.47,3.272-3.267,3.272c-1.809,0-3.273-1.476-3.273-3.272C311.167,187.127,312.632,185.656,314.44,185.656z"/>
		<path clip-path="url(#SVGID_2_)" fill="#58B49E" d="M328.283,165.734h8.127v11.986h0.099c1.157-1.206,3.254-2.062,4.909-2.062
			c5.617,0,8.625,5.617,8.625,12.889c0,5.765-2.405,13.179-9.222,13.179c-3.156,0-5.217-1.502-6.816-3.907l-1.507,3.605h-4.214
			V165.734z M336.41,193.359c-0.154,2.104,1.102,3.254,2.652,3.254c2.258,0,2.559-2.251,2.559-6.915v-1.907
			c0-5.008,0-7.616-2.51-7.616c-0.997,0-1.753,0.604-2.252,1.003l-0.449,0.449V193.359z"/>
		<path clip-path="url(#SVGID_2_)" fill="#74BDAB" d="M345.386,165.734h8.121v11.986h0.098c1.157-1.206,3.261-2.062,4.916-2.062
			c5.617,0,8.619,5.617,8.619,12.889c0,5.765-2.406,13.179-9.222,13.179c-3.156,0-5.211-1.502-6.817-3.907l-1.507,3.605h-4.208
			V165.734z M353.507,193.359c-0.148,2.104,1.107,3.254,2.658,3.254c2.251,0,2.559-2.251,2.559-6.915v-1.907
			c0-5.008,0-7.616-2.51-7.616c-1.003,0-1.753,0.604-2.252,1.003l-0.455,0.449V193.359z"/>
		<path clip-path="url(#SVGID_2_)" fill="#8FC8B9" d="M362.717,181.978h-3.31v-5.715h3.31v-2.808c0-6.164,3.058-8.422,8.422-8.422
			c1.6,0,2.805,0.153,4.109,0.301v6.213c-0.449-0.099-1.052-0.196-1.507-0.196c-2.055,0-2.904,0.652-2.904,2.153v2.758h4.411v5.715
			h-4.411v19.447h-8.121V181.978z"/>
		<path clip-path="url(#SVGID_2_)" fill="#A9D4C8" d="M383.622,185.639c0-1.003-0.049-2.209-0.4-3.156
			c-0.4-1.003-1.052-1.704-2.356-1.704c-2.707,0-3.008,3.304-3.008,8.317c0,5.666,0.904,7.518,3.008,7.518
			c2.854,0,3.107-2.903,3.107-4.811l6.318,0.898c-0.603,6.121-4.116,9.333-10.028,9.333c-7.321,0-11.129-6.423-11.129-12.637
			c0-6.866,3.808-13.738,11.48-13.738c8.625,0,9.93,7.469,9.93,9.979H383.622z"/>
		<path clip-path="url(#SVGID_2_)" fill="#C3E0D7" d="M387.079,185.656c1.803,0,3.273,1.471,3.273,3.273
			c0,1.797-1.471,3.272-3.273,3.272c-1.809,0-3.273-1.476-3.273-3.272C383.806,187.127,385.271,185.656,387.079,185.656z"/>
		<path clip-path="url(#SVGID_2_)" fill="#58B49E" d="M183.452,124.599h8.121v11.984h0.099c1.156-1.206,3.26-2.055,4.916-2.055
			c5.617,0,8.625,5.611,8.625,12.884c0,5.765-2.405,13.178-9.228,13.178c-3.156,0-5.217-1.501-6.817-3.906l-1.507,3.611h-4.208
			V124.599z M191.573,152.224c-0.154,2.104,1.101,3.261,2.658,3.261c2.251,0,2.553-2.258,2.553-6.921v-1.907
			c0-5.009,0-7.618-2.504-7.618c-1.003,0-1.753,0.603-2.258,1.002l-0.449,0.449V152.224z"/>
		<path clip-path="url(#SVGID_2_)" fill="#74BDAB" d="M200.556,124.599h8.121v11.984h0.099c1.15-1.206,3.257-2.055,4.913-2.055
			c5.61,0,8.619,5.611,8.619,12.884c0,5.765-2.406,13.178-9.222,13.178c-3.159,0-5.214-1.501-6.82-3.906l-1.501,3.611h-4.208
			V124.599z M208.676,152.224c-0.154,2.104,1.101,3.261,2.655,3.261c2.251,0,2.553-2.258,2.553-6.921v-1.907
			c0-5.009,0-7.618-2.504-7.618c-1,0-1.75,0.603-2.255,1.002l-0.449,0.449V152.224z"/>
		<path clip-path="url(#SVGID_2_)" fill="#8FC8B9" d="M217.877,140.841h-3.304v-5.715h3.304v-2.805c0-6.165,3.058-8.422,8.422-8.422
			c1.604,0,2.81,0.154,4.114,0.301v6.214c-0.456-0.099-1.058-0.197-1.507-0.197c-2.053,0-2.908,0.652-2.908,2.153v2.756h4.416v5.715
			h-4.416v19.455h-8.121V140.841z"/>
		<path clip-path="url(#SVGID_2_)" fill="#A9D4C8" d="M238.787,144.501c0-1.003-0.055-2.203-0.4-3.156
			c-0.406-1.003-1.052-1.705-2.356-1.705c-2.713,0-3.008,3.304-3.008,8.319c0,5.667,0.898,7.524,3.008,7.524
			c2.855,0,3.107-2.91,3.107-4.817l6.313,0.904c-0.597,6.115-4.11,9.327-10.022,9.327c-7.321,0-11.128-6.423-11.128-12.636
			c0-6.868,3.807-13.733,11.479-13.733c8.625,0,9.923,7.462,9.923,9.973H238.787z"/>
		<path clip-path="url(#SVGID_2_)" fill="#C3E0D7" d="M242.244,144.52c1.796,0,3.267,1.47,3.267,3.274
			c0,1.796-1.471,3.273-3.267,3.273c-1.809,0-3.273-1.477-3.273-3.273C238.971,145.99,240.436,144.52,242.244,144.52z"/>
		<path clip-path="url(#SVGID_2_)" fill="#58B49E" d="M111.256,124.599h8.121v11.984h0.099c1.157-1.206,3.261-2.055,4.916-2.055
			c5.617,0,8.625,5.611,8.625,12.884c0,5.765-2.406,13.178-9.229,13.178c-3.156,0-5.211-1.501-6.816-3.906l-1.501,3.611h-4.214
			V124.599z M119.377,152.224c-0.147,2.104,1.107,3.261,2.658,3.261c2.258,0,2.56-2.258,2.56-6.921v-1.907
			c0-5.009,0-7.618-2.51-7.618c-0.997,0-1.753,0.603-2.251,1.002l-0.456,0.449V152.224z"/>
		<path clip-path="url(#SVGID_2_)" fill="#74BDAB" d="M128.359,124.599h8.121v11.984h0.098c1.15-1.206,3.261-2.055,4.916-2.055
			c5.611,0,8.619,5.611,8.619,12.884c0,5.765-2.405,13.178-9.222,13.178c-3.163,0-5.217-1.501-6.823-3.906l-1.501,3.611h-4.208
			V124.599z M136.48,152.224c-0.154,2.104,1.101,3.261,2.657,3.261c2.252,0,2.554-2.258,2.554-6.921v-1.907
			c0-5.009,0-7.618-2.504-7.618c-1.002,0-1.753,0.603-2.258,1.002l-0.449,0.449V152.224z"/>
		<path clip-path="url(#SVGID_2_)" fill="#8FC8B9" d="M145.684,140.841h-3.304v-5.715h3.304v-2.805c0-6.165,3.058-8.422,8.422-8.422
			c1.605,0,2.812,0.154,4.116,0.301v6.214c-0.456-0.099-1.058-0.197-1.507-0.197c-2.055,0-2.91,0.652-2.91,2.153v2.756h4.417v5.715
			h-4.417v19.455h-8.121V140.841z"/>
		<path clip-path="url(#SVGID_2_)" fill="#A9D4C8" d="M166.595,144.501c0-1.003-0.055-2.203-0.4-3.156
			c-0.406-1.003-1.052-1.705-2.356-1.705c-2.713,0-3.008,3.304-3.008,8.319c0,5.667,0.898,7.524,3.008,7.524
			c2.855,0,3.107-2.91,3.107-4.817l6.312,0.904c-0.597,6.115-4.109,9.327-10.021,9.327c-7.321,0-11.129-6.423-11.129-12.636
			c0-6.868,3.808-13.733,11.48-13.733c8.625,0,9.923,7.462,9.923,9.973H166.595z"/>
		<path clip-path="url(#SVGID_2_)" fill="#C3E0D7" d="M170.053,144.52c1.796,0,3.267,1.47,3.267,3.274
			c0,1.796-1.47,3.273-3.267,3.273c-1.809,0-3.273-1.477-3.273-3.273C166.78,145.99,168.244,144.52,170.053,144.52z"/>
		<path clip-path="url(#SVGID_2_)" fill="#58B49E" d="M39.066,124.599h8.121v11.984h0.099c1.157-1.206,3.261-2.055,4.916-2.055
			c5.611,0,8.619,5.611,8.619,12.884c0,5.765-2.405,13.178-9.222,13.178c-3.156,0-5.211-1.501-6.816-3.906l-1.501,3.611h-4.214
			V124.599z M47.187,152.224c-0.154,2.104,1.102,3.261,2.658,3.261c2.252,0,2.553-2.258,2.553-6.921v-1.907
			c0-5.009,0-7.618-2.504-7.618c-1.002,0-1.753,0.603-2.258,1.002l-0.449,0.449V152.224z"/>
		<path clip-path="url(#SVGID_2_)" fill="#74BDAB" d="M56.163,124.599h8.127v11.984h0.099c1.15-1.206,3.254-2.055,4.91-2.055
			c5.617,0,8.619,5.611,8.619,12.884c0,5.765-2.406,13.178-9.222,13.178c-3.156,0-5.211-1.501-6.816-3.906l-1.501,3.611h-4.214
			V124.599z M64.29,152.224c-0.153,2.104,1.102,3.261,2.652,3.261c2.258,0,2.559-2.258,2.559-6.921v-1.907
			c0-5.009,0-7.618-2.51-7.618c-1.003,0-1.753,0.603-2.252,1.002l-0.449,0.449V152.224z"/>
		<path clip-path="url(#SVGID_2_)" fill="#8FC8B9" d="M73.494,140.841h-3.31v-5.715h3.31v-2.805c0-6.165,3.058-8.422,8.422-8.422
			c1.605,0,2.805,0.154,4.109,0.301v6.214c-0.449-0.099-1.052-0.197-1.501-0.197c-2.061,0-2.91,0.652-2.91,2.153v2.756h4.411v5.715
			h-4.411v19.455h-8.121V140.841z"/>
		<path clip-path="url(#SVGID_2_)" fill="#A9D4C8" d="M94.405,144.501c0-1.003-0.055-2.203-0.406-3.156
			c-0.399-1.003-1.052-1.705-2.356-1.705c-2.707,0-3.008,3.304-3.008,8.319c0,5.667,0.904,7.524,3.008,7.524
			c2.861,0,3.107-2.91,3.107-4.817l6.318,0.904c-0.603,6.115-4.11,9.327-10.028,9.327c-7.315,0-11.123-6.423-11.123-12.636
			c0-6.868,3.808-13.733,11.48-13.733c8.619,0,9.923,7.462,9.923,9.973H94.405z"/>
		<path clip-path="url(#SVGID_2_)" fill="#C3E0D7" d="M97.856,144.52c1.803,0,3.273,1.47,3.273,3.274
			c0,1.796-1.471,3.273-3.273,3.273c-1.802,0-3.267-1.477-3.267-3.273C94.59,145.99,96.054,144.52,97.856,144.52z"/>
		<path clip-path="url(#SVGID_2_)" fill="#58B49E" d="M255.644,124.599h8.121v11.984h0.099c1.156-1.206,3.26-2.055,4.916-2.055
			c5.617,0,8.625,5.611,8.625,12.884c0,5.765-2.412,13.178-9.229,13.178c-3.156,0-5.211-1.501-6.816-3.906l-1.501,3.611h-4.214
			V124.599z M263.765,152.224c-0.147,2.104,1.101,3.261,2.658,3.261c2.251,0,2.559-2.258,2.559-6.921v-1.907
			c0-5.009,0-7.618-2.51-7.618c-1.003,0-1.753,0.603-2.258,1.002l-0.449,0.449V152.224z"/>
		<path clip-path="url(#SVGID_2_)" fill="#74BDAB" d="M272.747,124.599h8.121v11.984h0.099c1.15-1.206,3.254-2.055,4.916-2.055
			c5.611,0,8.619,5.611,8.619,12.884c0,5.765-2.405,13.178-9.222,13.178c-3.162,0-5.217-1.501-6.823-3.906l-1.501,3.611h-4.208
			V124.599z M280.868,152.224c-0.154,2.104,1.101,3.261,2.652,3.261c2.258,0,2.559-2.258,2.559-6.921v-1.907
			c0-5.009,0-7.618-2.504-7.618c-1.009,0-1.759,0.603-2.258,1.002l-0.449,0.449V152.224z"/>
		<path clip-path="url(#SVGID_2_)" fill="#8FC8B9" d="M290.071,140.841h-3.304v-5.715h3.304v-2.805c0-6.165,3.058-8.422,8.422-8.422
			c1.606,0,2.806,0.154,4.11,0.301v6.214c-0.449-0.099-1.052-0.197-1.501-0.197c-2.055,0-2.91,0.652-2.91,2.153v2.756h4.411v5.715
			h-4.411v19.455h-8.121V140.841z"/>
		<path clip-path="url(#SVGID_2_)" fill="#A9D4C8" d="M310.983,144.501c0-1.003-0.056-2.203-0.4-3.156
			c-0.406-1.003-1.059-1.705-2.362-1.705c-2.707,0-3.002,3.304-3.002,8.319c0,5.667,0.898,7.524,3.002,7.524
			c2.86,0,3.106-2.91,3.106-4.817l6.318,0.904c-0.597,6.115-4.109,9.327-10.022,9.327c-7.321,0-11.129-6.423-11.129-12.636
			c0-6.868,3.809-13.733,11.48-13.733c8.619,0,9.923,7.462,9.923,9.973H310.983z"/>
		<path clip-path="url(#SVGID_2_)" fill="#C3E0D7" d="M314.44,144.52c1.796,0,3.267,1.47,3.267,3.274
			c0,1.796-1.47,3.273-3.267,3.273c-1.809,0-3.273-1.477-3.273-3.273C311.167,145.99,312.632,144.52,314.44,144.52z"/>
		<path clip-path="url(#SVGID_2_)" fill="#58B49E" d="M328.283,124.599h8.127v11.984h0.099c1.157-1.206,3.254-2.055,4.909-2.055
			c5.617,0,8.625,5.611,8.625,12.884c0,5.765-2.405,13.178-9.222,13.178c-3.156,0-5.217-1.501-6.816-3.906l-1.507,3.611h-4.214
			V124.599z M336.41,152.224c-0.154,2.104,1.102,3.261,2.652,3.261c2.258,0,2.559-2.258,2.559-6.921v-1.907
			c0-5.009,0-7.618-2.51-7.618c-0.997,0-1.753,0.603-2.252,1.002l-0.449,0.449V152.224z"/>
		<path clip-path="url(#SVGID_2_)" fill="#74BDAB" d="M345.386,124.599h8.121v11.984h0.098c1.157-1.206,3.261-2.055,4.916-2.055
			c5.617,0,8.619,5.611,8.619,12.884c0,5.765-2.406,13.178-9.222,13.178c-3.156,0-5.211-1.501-6.817-3.906l-1.507,3.611h-4.208
			V124.599z M353.507,152.224c-0.148,2.104,1.107,3.261,2.658,3.261c2.251,0,2.559-2.258,2.559-6.921v-1.907
			c0-5.009,0-7.618-2.51-7.618c-1.003,0-1.753,0.603-2.252,1.002l-0.455,0.449V152.224z"/>
		<path clip-path="url(#SVGID_2_)" fill="#8FC8B9" d="M362.717,140.841h-3.31v-5.715h3.31v-2.805c0-6.165,3.058-8.422,8.422-8.422
			c1.6,0,2.805,0.154,4.109,0.301v6.214c-0.449-0.099-1.052-0.197-1.507-0.197c-2.055,0-2.904,0.652-2.904,2.153v2.756h4.411v5.715
			h-4.411v19.455h-8.121V140.841z"/>
		<path clip-path="url(#SVGID_2_)" fill="#A9D4C8" d="M383.622,144.501c0-1.003-0.049-2.203-0.4-3.156
			c-0.4-1.003-1.052-1.705-2.356-1.705c-2.707,0-3.008,3.304-3.008,8.319c0,5.667,0.904,7.524,3.008,7.524
			c2.854,0,3.107-2.91,3.107-4.817l6.318,0.904c-0.603,6.115-4.116,9.327-10.028,9.327c-7.321,0-11.129-6.423-11.129-12.636
			c0-6.868,3.808-13.733,11.48-13.733c8.625,0,9.93,7.462,9.93,9.973H383.622z"/>
		<path clip-path="url(#SVGID_2_)" fill="#C3E0D7" d="M387.079,144.52c1.803,0,3.273,1.47,3.273,3.274
			c0,1.796-1.471,3.273-3.273,3.273c-1.809,0-3.273-1.477-3.273-3.273C383.806,145.99,385.271,144.52,387.079,144.52z"/>
		<path clip-path="url(#SVGID_2_)" fill="#58B49E" d="M183.452,83.466h8.121V95.45h0.099c1.156-1.206,3.26-2.055,4.916-2.055
			c5.617,0,8.625,5.611,8.625,12.883c0,5.765-2.405,13.184-9.228,13.184c-3.156,0-5.217-1.501-6.817-3.913l-1.507,3.611h-4.208
			V83.466z M191.573,111.089c-0.154,2.107,1.101,3.261,2.658,3.261c2.251,0,2.553-2.258,2.553-6.921v-1.904
			c0-5.011,0-7.62-2.504-7.62c-1.003,0-1.753,0.603-2.258,1.003l-0.449,0.452V111.089z"/>
		<path clip-path="url(#SVGID_2_)" fill="#74BDAB" d="M200.556,83.466h8.121V95.45h0.099c1.15-1.206,3.257-2.055,4.913-2.055
			c5.61,0,8.619,5.611,8.619,12.883c0,5.765-2.406,13.184-9.222,13.184c-3.159,0-5.214-1.501-6.82-3.913l-1.501,3.611h-4.208V83.466
			z M208.676,111.089c-0.154,2.107,1.101,3.261,2.655,3.261c2.251,0,2.553-2.258,2.553-6.921v-1.904c0-5.011,0-7.62-2.504-7.62
			c-1,0-1.75,0.603-2.255,1.003l-0.449,0.452V111.089z"/>
		<path clip-path="url(#SVGID_2_)" fill="#8FC8B9" d="M217.877,99.708h-3.304v-5.712h3.304v-2.809c0-6.165,3.058-8.422,8.422-8.422
			c1.604,0,2.81,0.154,4.114,0.301v6.217c-0.456-0.101-1.058-0.2-1.507-0.2c-2.053,0-2.908,0.652-2.908,2.153v2.759h4.416v5.712
			h-4.416v19.453h-8.121V99.708z"/>
		<path clip-path="url(#SVGID_2_)" fill="#A9D4C8" d="M238.787,103.368c0-1-0.055-2.203-0.4-3.156
			c-0.406-1.003-1.052-1.704-2.356-1.704c-2.713,0-3.008,3.307-3.008,8.317c0,5.667,0.898,7.524,3.008,7.524
			c2.855,0,3.107-2.91,3.107-4.817l6.313,0.904c-0.597,6.116-4.11,9.327-10.022,9.327c-7.321,0-11.128-6.42-11.128-12.634
			c0-6.869,3.807-13.735,11.479-13.735c8.625,0,9.923,7.466,9.923,9.973H238.787z"/>
		<path clip-path="url(#SVGID_2_)" fill="#C3E0D7" d="M242.244,103.386c1.796,0,3.267,1.471,3.267,3.273
			c0,1.8-1.471,3.273-3.267,3.273c-1.809,0-3.273-1.473-3.273-3.273C238.971,104.857,240.436,103.386,242.244,103.386z"/>
		<path clip-path="url(#SVGID_2_)" fill="#58B49E" d="M111.256,83.466h8.121V95.45h0.099c1.157-1.206,3.261-2.055,4.916-2.055
			c5.617,0,8.625,5.611,8.625,12.883c0,5.765-2.406,13.184-9.229,13.184c-3.156,0-5.211-1.501-6.816-3.913l-1.501,3.611h-4.214
			V83.466z M119.377,111.089c-0.147,2.107,1.107,3.261,2.658,3.261c2.258,0,2.56-2.258,2.56-6.921v-1.904c0-5.011,0-7.62-2.51-7.62
			c-0.997,0-1.753,0.603-2.251,1.003l-0.456,0.452V111.089z"/>
		<path clip-path="url(#SVGID_2_)" fill="#74BDAB" d="M128.359,83.466h8.121V95.45h0.098c1.15-1.206,3.261-2.055,4.916-2.055
			c5.611,0,8.619,5.611,8.619,12.883c0,5.765-2.405,13.184-9.222,13.184c-3.163,0-5.217-1.501-6.823-3.913l-1.501,3.611h-4.208
			V83.466z M136.48,111.089c-0.154,2.107,1.101,3.261,2.657,3.261c2.252,0,2.554-2.258,2.554-6.921v-1.904
			c0-5.011,0-7.62-2.504-7.62c-1.002,0-1.753,0.603-2.258,1.003l-0.449,0.452V111.089z"/>
		<path clip-path="url(#SVGID_2_)" fill="#8FC8B9" d="M145.684,99.708h-3.304v-5.712h3.304v-2.809c0-6.165,3.058-8.422,8.422-8.422
			c1.605,0,2.812,0.154,4.116,0.301v6.217c-0.456-0.101-1.058-0.2-1.507-0.2c-2.055,0-2.91,0.652-2.91,2.153v2.759h4.417v5.712
			h-4.417v19.453h-8.121V99.708z"/>
		<path clip-path="url(#SVGID_2_)" fill="#A9D4C8" d="M166.595,103.368c0-1-0.055-2.203-0.4-3.156
			c-0.406-1.003-1.052-1.704-2.356-1.704c-2.713,0-3.008,3.307-3.008,8.317c0,5.667,0.898,7.524,3.008,7.524
			c2.855,0,3.107-2.91,3.107-4.817l6.312,0.904c-0.597,6.116-4.109,9.327-10.021,9.327c-7.321,0-11.129-6.42-11.129-12.634
			c0-6.869,3.808-13.735,11.48-13.735c8.625,0,9.923,7.466,9.923,9.973H166.595z"/>
		<path clip-path="url(#SVGID_2_)" fill="#C3E0D7" d="M170.053,103.386c1.796,0,3.267,1.471,3.267,3.273
			c0,1.8-1.47,3.273-3.267,3.273c-1.809,0-3.273-1.473-3.273-3.273C166.78,104.857,168.244,103.386,170.053,103.386z"/>
		<path clip-path="url(#SVGID_2_)" fill="#58B49E" d="M39.066,83.466h8.121V95.45h0.099c1.157-1.206,3.261-2.055,4.916-2.055
			c5.611,0,8.619,5.611,8.619,12.883c0,5.765-2.405,13.184-9.222,13.184c-3.156,0-5.211-1.501-6.816-3.913l-1.501,3.611h-4.214
			V83.466z M47.187,111.089c-0.154,2.107,1.102,3.261,2.658,3.261c2.252,0,2.553-2.258,2.553-6.921v-1.904
			c0-5.011,0-7.62-2.504-7.62c-1.002,0-1.753,0.603-2.258,1.003l-0.449,0.452V111.089z"/>
		<path clip-path="url(#SVGID_2_)" fill="#74BDAB" d="M56.163,83.466h8.127V95.45h0.099c1.15-1.206,3.254-2.055,4.91-2.055
			c5.617,0,8.619,5.611,8.619,12.883c0,5.765-2.406,13.184-9.222,13.184c-3.156,0-5.211-1.501-6.816-3.913l-1.501,3.611h-4.214
			V83.466z M64.29,111.089c-0.153,2.107,1.102,3.261,2.652,3.261c2.258,0,2.559-2.258,2.559-6.921v-1.904c0-5.011,0-7.62-2.51-7.62
			c-1.003,0-1.753,0.603-2.252,1.003L64.29,99.36V111.089z"/>
		<path clip-path="url(#SVGID_2_)" fill="#8FC8B9" d="M73.494,99.708h-3.31v-5.712h3.31v-2.809c0-6.165,3.058-8.422,8.422-8.422
			c1.605,0,2.805,0.154,4.109,0.301v6.217c-0.449-0.101-1.052-0.2-1.501-0.2c-2.061,0-2.91,0.652-2.91,2.153v2.759h4.411v5.712
			h-4.411v19.453h-8.121V99.708z"/>
		<path clip-path="url(#SVGID_2_)" fill="#A9D4C8" d="M94.405,103.368c0-1-0.055-2.203-0.406-3.156
			c-0.399-1.003-1.052-1.704-2.356-1.704c-2.707,0-3.008,3.307-3.008,8.317c0,5.667,0.904,7.524,3.008,7.524
			c2.861,0,3.107-2.91,3.107-4.817l6.318,0.904c-0.603,6.116-4.11,9.327-10.028,9.327c-7.315,0-11.123-6.42-11.123-12.634
			c0-6.869,3.808-13.735,11.48-13.735c8.619,0,9.923,7.466,9.923,9.973H94.405z"/>
		<path clip-path="url(#SVGID_2_)" fill="#C3E0D7" d="M97.856,103.386c1.803,0,3.273,1.471,3.273,3.273
			c0,1.8-1.471,3.273-3.273,3.273c-1.802,0-3.267-1.473-3.267-3.273C94.59,104.857,96.054,103.386,97.856,103.386z"/>
		<path clip-path="url(#SVGID_2_)" fill="#58B49E" d="M255.644,83.466h8.121V95.45h0.099c1.156-1.206,3.26-2.055,4.916-2.055
			c5.617,0,8.625,5.611,8.625,12.883c0,5.765-2.412,13.184-9.229,13.184c-3.156,0-5.211-1.501-6.816-3.913l-1.501,3.611h-4.214
			V83.466z M263.765,111.089c-0.147,2.107,1.101,3.261,2.658,3.261c2.251,0,2.559-2.258,2.559-6.921v-1.904
			c0-5.011,0-7.62-2.51-7.62c-1.003,0-1.753,0.603-2.258,1.003l-0.449,0.452V111.089z"/>
		<path clip-path="url(#SVGID_2_)" fill="#74BDAB" d="M272.747,83.466h8.121V95.45h0.099c1.15-1.206,3.254-2.055,4.916-2.055
			c5.611,0,8.619,5.611,8.619,12.883c0,5.765-2.405,13.184-9.222,13.184c-3.162,0-5.217-1.501-6.823-3.913l-1.501,3.611h-4.208
			V83.466z M280.868,111.089c-0.154,2.107,1.101,3.261,2.652,3.261c2.258,0,2.559-2.258,2.559-6.921v-1.904
			c0-5.011,0-7.62-2.504-7.62c-1.009,0-1.759,0.603-2.258,1.003l-0.449,0.452V111.089z"/>
		<path clip-path="url(#SVGID_2_)" fill="#8FC8B9" d="M290.071,99.708h-3.304v-5.712h3.304v-2.809c0-6.165,3.058-8.422,8.422-8.422
			c1.606,0,2.806,0.154,4.11,0.301v6.217c-0.449-0.101-1.052-0.2-1.501-0.2c-2.055,0-2.91,0.652-2.91,2.153v2.759h4.411v5.712
			h-4.411v19.453h-8.121V99.708z"/>
		<path clip-path="url(#SVGID_2_)" fill="#A9D4C8" d="M310.983,103.368c0-1-0.056-2.203-0.4-3.156
			c-0.406-1.003-1.059-1.704-2.362-1.704c-2.707,0-3.002,3.307-3.002,8.317c0,5.667,0.898,7.524,3.002,7.524
			c2.86,0,3.106-2.91,3.106-4.817l6.318,0.904c-0.597,6.116-4.109,9.327-10.022,9.327c-7.321,0-11.129-6.42-11.129-12.634
			c0-6.869,3.809-13.735,11.48-13.735c8.619,0,9.923,7.466,9.923,9.973H310.983z"/>
		<path clip-path="url(#SVGID_2_)" fill="#C3E0D7" d="M314.44,103.386c1.796,0,3.267,1.471,3.267,3.273
			c0,1.8-1.47,3.273-3.267,3.273c-1.809,0-3.273-1.473-3.273-3.273C311.167,104.857,312.632,103.386,314.44,103.386z"/>
		<path clip-path="url(#SVGID_2_)" fill="#58B49E" d="M328.283,83.466h8.127V95.45h0.099c1.157-1.206,3.254-2.055,4.909-2.055
			c5.617,0,8.625,5.611,8.625,12.883c0,5.765-2.405,13.184-9.222,13.184c-3.156,0-5.217-1.501-6.816-3.913l-1.507,3.611h-4.214
			V83.466z M336.41,111.089c-0.154,2.107,1.102,3.261,2.652,3.261c2.258,0,2.559-2.258,2.559-6.921v-1.904c0-5.011,0-7.62-2.51-7.62
			c-0.997,0-1.753,0.603-2.252,1.003l-0.449,0.452V111.089z"/>
		<path clip-path="url(#SVGID_2_)" fill="#74BDAB" d="M345.386,83.466h8.121V95.45h0.098c1.157-1.206,3.261-2.055,4.916-2.055
			c5.617,0,8.619,5.611,8.619,12.883c0,5.765-2.406,13.184-9.222,13.184c-3.156,0-5.211-1.501-6.817-3.913l-1.507,3.611h-4.208
			V83.466z M353.507,111.089c-0.148,2.107,1.107,3.261,2.658,3.261c2.251,0,2.559-2.258,2.559-6.921v-1.904
			c0-5.011,0-7.62-2.51-7.62c-1.003,0-1.753,0.603-2.252,1.003l-0.455,0.452V111.089z"/>
		<path clip-path="url(#SVGID_2_)" fill="#8FC8B9" d="M362.717,99.708h-3.31v-5.712h3.31v-2.809c0-6.165,3.058-8.422,8.422-8.422
			c1.6,0,2.805,0.154,4.109,0.301v6.217c-0.449-0.101-1.052-0.2-1.507-0.2c-2.055,0-2.904,0.652-2.904,2.153v2.759h4.411v5.712
			h-4.411v19.453h-8.121V99.708z"/>
		<path clip-path="url(#SVGID_2_)" fill="#A9D4C8" d="M383.622,103.368c0-1-0.049-2.203-0.4-3.156
			c-0.4-1.003-1.052-1.704-2.356-1.704c-2.707,0-3.008,3.307-3.008,8.317c0,5.667,0.904,7.524,3.008,7.524
			c2.854,0,3.107-2.91,3.107-4.817l6.318,0.904c-0.603,6.116-4.116,9.327-10.028,9.327c-7.321,0-11.129-6.42-11.129-12.634
			c0-6.869,3.808-13.735,11.48-13.735c8.625,0,9.93,7.466,9.93,9.973H383.622z"/>
		<path clip-path="url(#SVGID_2_)" fill="#C3E0D7" d="M387.079,103.386c1.803,0,3.273,1.471,3.273,3.273
			c0,1.8-1.471,3.273-3.273,3.273c-1.809,0-3.273-1.473-3.273-3.273C383.806,104.857,385.271,103.386,387.079,103.386z"/>
		<path clip-path="url(#SVGID_2_)" fill="#58B49E" d="M183.452,42.332h8.121v11.984h0.099c1.156-1.206,3.26-2.055,4.916-2.055
			c5.617,0,8.625,5.614,8.625,12.883c0,5.765-2.405,13.184-9.228,13.184c-3.156,0-5.217-1.501-6.817-3.913l-1.507,3.611h-4.208
			V42.332z M191.573,69.955c-0.154,2.107,1.101,3.261,2.658,3.261c2.251,0,2.553-2.258,2.553-6.921v-1.904
			c0-5.011,0-7.62-2.504-7.62c-1.003,0-1.753,0.603-2.258,1.003l-0.449,0.456V69.955z"/>
		<path clip-path="url(#SVGID_2_)" fill="#74BDAB" d="M200.556,42.332h8.121v11.984h0.099c1.15-1.206,3.257-2.055,4.913-2.055
			c5.61,0,8.619,5.614,8.619,12.883c0,5.765-2.406,13.184-9.222,13.184c-3.159,0-5.214-1.501-6.82-3.913l-1.501,3.611h-4.208V42.332
			z M208.676,69.955c-0.154,2.107,1.101,3.261,2.655,3.261c2.251,0,2.553-2.258,2.553-6.921v-1.904c0-5.011,0-7.62-2.504-7.62
			c-1,0-1.75,0.603-2.255,1.003l-0.449,0.456V69.955z"/>
		<path clip-path="url(#SVGID_2_)" fill="#8FC8B9" d="M217.877,58.574h-3.304v-5.709h3.304v-2.812c0-6.164,3.058-8.419,8.422-8.419
			c1.604,0,2.81,0.15,4.114,0.298v6.217c-0.456-0.102-1.058-0.2-1.507-0.2c-2.053,0-2.908,0.652-2.908,2.153v2.762h4.416v5.709
			h-4.416v19.453h-8.121V58.574z"/>
		<path clip-path="url(#SVGID_2_)" fill="#A9D4C8" d="M238.787,62.234c0-1-0.055-2.203-0.4-3.156
			c-0.406-1.003-1.052-1.704-2.356-1.704c-2.713,0-3.008,3.31-3.008,8.321c0,5.663,0.898,7.521,3.008,7.521
			c2.855,0,3.107-2.907,3.107-4.817l6.313,0.904c-0.597,6.115-4.11,9.327-10.022,9.327c-7.321,0-11.128-6.417-11.128-12.63
			c0-6.872,3.807-13.738,11.479-13.738c8.625,0,9.923,7.466,9.923,9.973H238.787z"/>
		<path clip-path="url(#SVGID_2_)" fill="#C3E0D7" d="M242.244,62.253c1.796,0,3.267,1.47,3.267,3.273
			c0,1.799-1.471,3.276-3.267,3.276c-1.809,0-3.273-1.477-3.273-3.276C238.971,63.723,240.436,62.253,242.244,62.253z"/>
		<path clip-path="url(#SVGID_2_)" fill="#58B49E" d="M111.256,42.332h8.121v11.984h0.099c1.157-1.206,3.261-2.055,4.916-2.055
			c5.617,0,8.625,5.614,8.625,12.883c0,5.765-2.406,13.184-9.229,13.184c-3.156,0-5.211-1.501-6.816-3.913l-1.501,3.611h-4.214
			V42.332z M119.377,69.955c-0.147,2.107,1.107,3.261,2.658,3.261c2.258,0,2.56-2.258,2.56-6.921v-1.904c0-5.011,0-7.62-2.51-7.62
			c-0.997,0-1.753,0.603-2.251,1.003l-0.456,0.456V69.955z"/>
		<path clip-path="url(#SVGID_2_)" fill="#74BDAB" d="M128.359,42.332h8.121v11.984h0.098c1.15-1.206,3.261-2.055,4.916-2.055
			c5.611,0,8.619,5.614,8.619,12.883c0,5.765-2.405,13.184-9.222,13.184c-3.163,0-5.217-1.501-6.823-3.913l-1.501,3.611h-4.208
			V42.332z M136.48,69.955c-0.154,2.107,1.101,3.261,2.657,3.261c2.252,0,2.554-2.258,2.554-6.921v-1.904c0-5.011,0-7.62-2.504-7.62
			c-1.002,0-1.753,0.603-2.258,1.003l-0.449,0.456V69.955z"/>
		<path clip-path="url(#SVGID_2_)" fill="#8FC8B9" d="M145.684,58.574h-3.304v-5.709h3.304v-2.812c0-6.164,3.058-8.419,8.422-8.419
			c1.605,0,2.812,0.15,4.116,0.298v6.217c-0.456-0.102-1.058-0.2-1.507-0.2c-2.055,0-2.91,0.652-2.91,2.153v2.762h4.417v5.709
			h-4.417v19.453h-8.121V58.574z"/>
		<path clip-path="url(#SVGID_2_)" fill="#A9D4C8" d="M166.595,62.234c0-1-0.055-2.203-0.4-3.156
			c-0.406-1.003-1.052-1.704-2.356-1.704c-2.713,0-3.008,3.31-3.008,8.321c0,5.663,0.898,7.521,3.008,7.521
			c2.855,0,3.107-2.907,3.107-4.817l6.312,0.904c-0.597,6.115-4.109,9.327-10.021,9.327c-7.321,0-11.129-6.417-11.129-12.63
			c0-6.872,3.808-13.738,11.48-13.738c8.625,0,9.923,7.466,9.923,9.973H166.595z"/>
		<path clip-path="url(#SVGID_2_)" fill="#C3E0D7" d="M170.053,62.253c1.796,0,3.267,1.47,3.267,3.273
			c0,1.799-1.47,3.276-3.267,3.276c-1.809,0-3.273-1.477-3.273-3.276C166.78,63.723,168.244,62.253,170.053,62.253z"/>
		<path clip-path="url(#SVGID_2_)" fill="#58B49E" d="M255.644,42.332h8.121v11.984h0.099c1.156-1.206,3.26-2.055,4.916-2.055
			c5.617,0,8.625,5.614,8.625,12.883c0,5.765-2.412,13.184-9.229,13.184c-3.156,0-5.211-1.501-6.816-3.913l-1.501,3.611h-4.214
			V42.332z M263.765,69.955c-0.147,2.107,1.101,3.261,2.658,3.261c2.251,0,2.559-2.258,2.559-6.921v-1.904c0-5.011,0-7.62-2.51-7.62
			c-1.003,0-1.753,0.603-2.258,1.003l-0.449,0.456V69.955z"/>
		<path clip-path="url(#SVGID_2_)" fill="#74BDAB" d="M272.747,42.332h8.121v11.984h0.099c1.15-1.206,3.254-2.055,4.916-2.055
			c5.611,0,8.619,5.614,8.619,12.883c0,5.765-2.405,13.184-9.222,13.184c-3.162,0-5.217-1.501-6.823-3.913l-1.501,3.611h-4.208
			V42.332z M280.868,69.955c-0.154,2.107,1.101,3.261,2.652,3.261c2.258,0,2.559-2.258,2.559-6.921v-1.904
			c0-5.011,0-7.62-2.504-7.62c-1.009,0-1.759,0.603-2.258,1.003l-0.449,0.456V69.955z"/>
		<path clip-path="url(#SVGID_2_)" fill="#8FC8B9" d="M290.071,58.574h-3.304v-5.709h3.304v-2.812c0-6.164,3.058-8.419,8.422-8.419
			c1.606,0,2.806,0.15,4.11,0.298v6.217c-0.449-0.102-1.052-0.2-1.501-0.2c-2.055,0-2.91,0.652-2.91,2.153v2.762h4.411v5.709h-4.411
			v19.453h-8.121V58.574z"/>
		<path clip-path="url(#SVGID_2_)" fill="#A9D4C8" d="M310.983,62.234c0-1-0.056-2.203-0.4-3.156
			c-0.406-1.003-1.059-1.704-2.362-1.704c-2.707,0-3.002,3.31-3.002,8.321c0,5.663,0.898,7.521,3.002,7.521
			c2.86,0,3.106-2.907,3.106-4.817l6.318,0.904c-0.597,6.115-4.109,9.327-10.022,9.327c-7.321,0-11.129-6.417-11.129-12.63
			c0-6.872,3.809-13.738,11.48-13.738c8.619,0,9.923,7.466,9.923,9.973H310.983z"/>
		<path clip-path="url(#SVGID_2_)" fill="#C3E0D7" d="M314.44,62.253c1.796,0,3.267,1.47,3.267,3.273
			c0,1.799-1.47,3.276-3.267,3.276c-1.809,0-3.273-1.477-3.273-3.276C311.167,63.723,312.632,62.253,314.44,62.253z"/>
	</g>
	<path fill="#231F20" d="M225.927,300.623c-23.822,0-43.299-16.095-43.299-41.201v-74.368h28.168v73.722
		c0,10.625,5.795,16.74,15.131,16.74c9.334,0,15.45-6.115,15.45-16.74v-73.722h28.167v74.368
		C269.544,284.528,249.747,300.623,225.927,300.623z"/>
	<path fill="#FFFFFF" d="M216.997,291.696c-23.821,0-43.299-16.095-43.299-41.201v-74.368h28.168v73.722
		c0,10.625,5.795,16.74,15.131,16.74s15.45-6.115,15.45-16.74v-73.722h28.168v74.368
		C260.615,275.602,240.817,291.696,216.997,291.696z"/>
</g>
</svg>
